<svg xmlns="http://www.w3.org/2000/svg" xmlns:v="https://vecta.io/nano" viewBox="0 0 324.7 271"><style><![CDATA[.V{fill:#000d54}.W{fill:#4ef9e8}.X{fill:#677dff}.Y{fill:#3135cb}.Z{fill:#ff27e1}.a{fill:#f74b9d}.b{fill:#485db5}.c{fill:#fff}.d{fill:#474ab6}.e{fill:#9faffc}]]></style><g class="Y"><path d="M313.4 113.7l-19.2-11.2a6.05 6.05 0 0 0-6.1 0l-20.6 14.7 18.5 12.4 7.3.1 20.3-11.9c1.4-.9 1.4-3.2-.2-4.1zm-6.9 114.4l-21.2-12.4c-1.9-1.1-1.6 1.1-3.5 2.2l-38.1 22 19.4 12.7h8.9l34.5-21.4c1.2-.7 1.2-2.4 0-3.1z" opacity=".59"></path><path d="M83.4 119.5L72.3 113c-1.1-.6-2.5-.6-3.5 0l-11.9 8.5 10.7 7.2h4.9l11.3-6.9c.8-.5.5-1.8-.4-2.3zm30.8-17.3l-11.1-6.5c-1.1-.6-2.5-.6-3.5 0l-11.9 8.5 10.7 7.2h4.9l11.3-6.9c.7-.5.5-1.8-.4-2.3zm26.4-15.9l-11.1-6.5c-1.1-.6-2.5-.6-3.5 0l-12 8.5 10.7 7.2h4.9l11.3-6.9c.9-.5.6-1.8-.3-2.3z" opacity=".89"></path></g><path d="M168.9 214.4l-83.7-48.6c-4.7-2.8-4.7-9.6 0-12.4l84.2-48.9a22.59 22.59 0 0 1 22.5 0l85.2 49.5c4.6 2.7 4.6 9.3 0 11.9l-83.5 48.4c-7.6 4.6-17 4.6-24.7.1z" class="V"></path><linearGradient id="A" gradientUnits="userSpaceOnUse" x1="81.568" y1="132.091" x2="280.837" y2="132.091"><stop offset=".422" stop-color="#191eab"></stop><stop offset=".643" stop-color="#2e57fa"></stop></linearGradient><path d="M85.1 159.9l84.3-48.8c7-4 15.6-4 22.5 0l85.4 49.4c1.1.6 1.9 1.5 2.5 2.5 1.8-3.1 1-7.4-2.5-9.5L192 104.2c-7-4-15.6-4-22.5 0L85.1 153c-3.6 2.1-4.5 6.5-2.7 9.7.7-1.1 1.5-2.1 2.7-2.8z" fill="url(#A)"></path><path d="M148.5 182c-20-11.6-20.1-30.5-.2-42.1s52.4-11.5 72.5.1c20 11.6 20.1 30.5.2 42.1s-52.4 11.5-72.5-.1zm69.9-40.6c-18.7-10.9-49.1-10.9-67.7-.1s-18.5 28.4.2 39.3 49.1 10.9 67.7.1 18.5-28.4-.2-39.3z" class="Y"></path><linearGradient id="B" gradientUnits="userSpaceOnUse" x1="129.218" y1="161.026" x2="225.626" y2="161.026"><stop offset=".016" stop-color="#fc31d3"></stop><stop offset="1" stop-color="#4dccef"></stop></linearGradient><path d="M223.9 179.1c-2.3-1.4-6.1-1.4-8.4 0-.1 0-.1.1-.2.2-17 9.6-44.4 9.5-61.3-.3-17.1-9.9-17.2-26-.2-35.8 16.8-9.8 44.1-9.8 61.2-.2l.1.1c.1 0 .2.1.3.1 0 0 .1 0 .1.1 2.4 1.2 5.8 1.1 8-.2s2.3-3.3.3-4.7l-.1-.1-.2-.2c-.1-.1-.3-.2-.5-.2-21.8-12.1-56.4-12.1-77.7.3-21.6 12.5-21.5 32.9.2 45.5 21.5 12.5 56.1 12.6 77.8.5l.6-.3c2.3-1.3 2.3-3.5 0-4.8z" fill="url(#B)"></path><path d="M245.3 168.2c-4.7-2.7-4.7-7.2-.1-9.9 4.7-2.7 12.4-2.7 17.1 0s4.7 7.2.1 9.9c-4.7 2.7-12.4 2.7-17.1 0zm16.6-9.6c-4.5-2.6-11.7-2.6-16.2 0-4.4 2.6-4.4 6.8.1 9.4s11.7 2.6 16.2 0c4.4-2.6 4.4-6.8-.1-9.4z" class="Y"></path><linearGradient id="C" gradientUnits="userSpaceOnUse" x1="244.115" y1="163.242" x2="266.979" y2="163.242"><stop offset="0" stop-color="#38c3e8"></stop><stop offset=".177" stop-color="#32ade2"></stop><stop offset=".545" stop-color="#2273d1"></stop><stop offset="1" stop-color="#0c25ba"></stop></linearGradient><path d="M263.1 157.9c-5.1-3-13.4-3-18.5-.1-.6.3-.6.9 0 1.2.5.3 1.4.3 2 0h.1c4-2.3 10.5-2.2 14.5.1 4 2.4 4.1 6.2 0 8.5-4 2.3-10.6 2.3-14.6 0-.6-.3-1.5-.3-2 0s-.5.8 0 1.2c5.2 3 13.5 3 18.6 0 5.1-3.1 5-8-.1-10.9z" fill="url(#C)"></path><linearGradient id="D" gradientUnits="userSpaceOnUse" x1="182.991" y1="185.291" x2="182.991" y2="123.921"><stop offset="0" stop-color="#191eab"></stop><stop offset="1" stop-color="#2e57fa"></stop></linearGradient><path d="M220.7 124.8c-.5 5.2-4.1 10.2-10.9 14.2-1.1.6-2.2 1.2-3.3 1.7-.3.2-.7.3-1.1.5a27.73 27.73 0 0 1-2.6 1c-.4.1-.8.3-1.2.4l-3 .9c-.3.1-.5.2-.8.2-1.4.3-2.7.6-4.1.8h-.1c-1.3.2-2.7.4-4.1.5-.3 0-.5 0-.8.1-1.2.1-2.4.2-3.7.2h-.7c-3 0-6-.1-8.9-.5-1.4-.2-2.8-.4-4.2-.7-.4-.1-.9-.2-1.3-.3-.5-.1-1.1-.2-1.6-.4-.5-.1-1.1-.3-1.6-.4-.4-.1-.8-.2-1.2-.4l-2.7-.9c-.3-.1-.6-.2-.9-.4-.7-.3-1.3-.5-1.9-.8-.3-.1-.6-.3-.8-.4-.9-.4-1.7-.9-2.6-1.3-6.8-3.9-10.4-9-11-14.1h-.1v33.1c.4 5.3 4.1 10.6 11.1 14.7 5.5 3.2 12.4 5.2 19.5 6.1 11.9 1.4 24.7-.6 33.9-6 7.1-4.1 10.7-9.4 10.9-14.8v-.1-1l-.2-31.9h0z" fill="url(#D)"></path><path d="M178.3 207.9c2.9 1.7 7.5 1.7 10.4 0s2.8-4.4 0-6h-.1l2.5-1.4h.1c4.2 2.5 4.3 6.5 0 8.9-4.2 2.5-11.1 2.4-15.4 0h-.1l2.6-1.5z" class="W"></path><linearGradient id="E" gradientUnits="userSpaceOnUse" x1="175.923" y1="200.278" x2="191.195" y2="200.278"><stop offset=".016" stop-color="#fc31d3"></stop><stop offset="1" stop-color="#4dccef"></stop></linearGradient><path d="M191.2 200.5l-2.5 1.4c-2.9-1.6-7.4-1.6-10.3 0l-2.5-1.4c4.2-2.5 11.1-2.5 15.3 0z" fill="url(#E)"></path><g class="Y"><path d="M178.4 201.9c-2.9 1.7-2.9 4.4-.1 6l-2.5 1.4c-4.2-2.5-4.2-6.4 0-8.9.1.1 2.6 1.5 2.6 1.5zm-80.1-44.3c-.1.1-.3.1-.5 0-.1-.1-.1-.2 0-.3s.3-.1.5 0c.1.1.1.3 0 .3zm1.2.7c-.1.1-.3.1-.5 0-.1-.1-.1-.2 0-.3s.3-.1.5 0 .1.2 0 .3z"></path><use href="#Q"></use><use href="#Q" x="1.2" y="0.7"></use><use href="#Q" x="2.4" y="1.4"></use><use href="#Q" x="3.6" y="2.1"></use><use href="#Q" x="4.8" y="2.8"></use><use href="#Q" x="6" y="3.5"></use><use href="#Q" x="7.2" y="4.2"></use><use href="#Q" x="8.4" y="4.9"></use><path d="M105.1 153.9l-4.4 2.6-.6-.3 4.5-2.6zm1.2.7l-4.5 2.6-.6-.4 4.5-2.6zm1.1.6l-4.5 2.6-.6-.3 4.5-2.6zm4.8-1.4l-8.2 4.7-.5-.3 8.1-4.7zm.4 2.1l-4.4 2.6-.6-.3 4.5-2.6zm1.2.7l-4.5 2.6-.6-.4 4.5-2.5zm1.1.6l-4.5 2.6-.6-.3 4.5-2.6zm-.6-9.2l-9.2 5.3.6.3 9.2-5.3zm1 1.3l-8.5 4.9-.5-.3 8.5-4.9zm1.3 0l-9.2 5.3.6.3 9.1-5.3zm1.1.6l-4.6 2.7.6.3 4.6-2.6zm2.1 1.2l-7.2 4.2.6.3 7.2-4.1zm1.1.7l-7.1 4.1.5.4 7.2-4.2zm1.1.6l-7.1 4.2.6.3 7.1-4.1zm-3.3 4.2l-4.5 2.6-.5-.3 4.4-2.6zm4.7-3.4l-4.7 2.7.6.4 4.7-2.7zm1.1.7l-9.7 5.6.6.4 9.7-5.7zm1.2.6l-9.8 5.7.6.3 9.8-5.6zm-29.7 4l-3.6 2.2.5.3 3.7-2.1zm1.2.7l-3.7 2.1.6.4 3.6-2.2zm2.2 1.3l-5.5 3.2.6.4 5.5-3.2zm-3.4 4.4l.5.4 4.4-2.5-.6-.4zm-5.5-3.2l.6.4 1.3-.8-.6-.3zm1.1.7l.6.3 1.3-.7-.6-.3zm8 4.6l.6.4 1.8-1.1-.6-.3zm1.1.7l.6.3 1.8-1-.5-.4z"></path></g><linearGradient id="F" gradientUnits="userSpaceOnUse" x1="79.937" y1="115.303" x2="153.635" y2="115.303"><stop offset=".757" stop-color="#191eab"></stop><stop offset="1" stop-color="#2e57fa"></stop></linearGradient><path d="M80.9 133.3L139 99.6c1.4-.8 3.9-.7 5.5.2l7.7 4.5c.4.2.7.5.9.7.8-.8.4-2-1-2.8l-7.7-4.5c-1.6-1-4.1-1.1-5.5-.2l-58.1 33.7c-1.1.6-1.2 1.6-.5 2.5.2-.2.4-.3.6-.4z" fill="url(#F)"></path><path d="M81.3 134.4l7.7 4.5c1.6 1 4.1 1.1 5.5.2l58.1-33.7c.2-.1.4-.3.6-.4-.2-.3-.5-.5-.9-.7l-7.7-4.5c-1.6-1-4.1-1.1-5.5-.2L81 133.3c-.2.1-.4.3-.6.4.2.3.5.5.9.7z" class="V"></path><g class="Y"><use href="#R"></use><use href="#R" x="0.9" y="0.5"></use><use href="#R" x="1.8" y="1"></use><use href="#R" x="2.6" y="1.5"></use><use href="#R" x="3.5" y="2"></use><use href="#R" x="4.3" y="2.5"></use><use href="#R" x="5.2" y="3"></use><use href="#R" x="6.1" y="3.5"></use><use href="#R" x="6.9" y="4"></use><use href="#R" x="7.8" y="4.5"></use><path d="M132.4 105.5l-3.3 1.9-.4-.2 3.3-1.9zm.8.5l-3.2 1.9-.5-.3 3.3-1.8zm.8.5l-3.2 1.9-.5-.3 3.3-1.8zm3.4-1l-5.8 3.3-.4-.2 5.8-3.4zm.4 1.5l-3.3 1.9-.4-.3 3.2-1.8zm.8.5l-3.3 1.8-.4-.2 3.3-1.9zm.8.4l-3.2 1.9-.5-.2 3.3-1.9zm-.4-6.6l-6.6 3.8.4.2 6.6-3.8zm.7.9l-6.1 3.6-.4-.3 6.1-3.5zm.9 0L134 106l.4.3 6.6-3.9zm.8.5l-3.3 1.9.4.2 3.3-1.9zm1.5.8l-5.1 3 .4.3 5.1-3zm.8.5l-5.1 3 .4.2 5.1-3zm.8.5l-5.1 3 .4.2 5.1-3zm-2.4 3l-3.2 1.9-.4-.3 3.2-1.9zm3.4-2.5l-3.4 2 .5.2 3.3-1.9zm.8.5l-7 4.1.4.2 7.1-4zm.9.5l-7.1 4.1.4.2 7.1-4.1zm-21.4 2.9l-2.6 1.5.4.2 2.6-1.5zm.8.4l-2.6 1.6.4.2 2.6-1.5zm1.6 1l-3.9 2.3.4.2 4-2.3zm-2.4 3.2l.4.2 3.1-1.8-.4-.2zm-4-2.3l.4.2 1-.5-.4-.3zm.8.5l.4.2 1-.5-.4-.3zm5.8 3.3l.4.2 1.3-.7-.4-.3zm.8.5l.4.2 1.3-.8-.4-.2z"></path></g><linearGradient id="G" gradientUnits="userSpaceOnUse" x1="89.66" y1="132.944" x2="100.516" y2="132.944"><stop offset=".016" stop-color="#fc31d3"></stop><stop offset="1" stop-color="#4dccef"></stop></linearGradient><path d="M91.1 134.2c1.7 1 4.4 1 6.1 0s1.7-2.6 0-3.5l1.4-.9c2.5 1.5 2.5 3.8.1 5.3-2.5 1.4-6.5 1.4-9 0-.1-.1 1.4-.9 1.4-.9z" fill="url(#G)"></path><path d="M91.6 129.1v1.4c1.7-.7 4.1-.7 5.6.2l1.5-.8c-2-1.2-4.8-1.4-7.1-.8z" class="W"></path><linearGradient id="H" gradientUnits="userSpaceOnUse" x1="100.072" y1="126.723" x2="110.928" y2="126.723"><stop offset="0" stop-color="#38c3e8"></stop><stop offset=".177" stop-color="#32ade2"></stop><stop offset=".545" stop-color="#2273d1"></stop><stop offset="1" stop-color="#0c25ba"></stop></linearGradient><path d="M101.5 128c1.7 1 4.4 1 6.1 0s1.7-2.6 0-3.5l1.4-.9c2.5 1.5 2.5 3.8.1 5.3-2.5 1.4-6.5 1.4-9 0-.1-.1 1.4-1 1.4-.9 0-.1 0-.1 0 0z" fill="url(#H)"></path><path d="M295.3 27.9l-5.8-5.9c1-1.4 1.6-3.1 1.6-4.9 0-4.7-3.8-8.5-8.4-8.5-4.7 0-8.4 3.8-8.4 8.5s3.8 8.5 8.4 8.5c2 0 3.8-.7 5.3-1.9l5.8 5.8c.5.5 1.2.5 1.7 0 .3-.4.3-1.1-.2-1.6zm-19.1-10.8c0-3.6 2.9-6.5 6.4-6.5s6.4 2.9 6.4 6.5-2.9 6.5-6.4 6.5c-3.5-.1-6.4-3-6.4-6.5z" class="W"></path><linearGradient id="I" gradientUnits="userSpaceOnUse" x1="56.117" y1="110.057" x2="78.734" y2="110.057"><stop offset="0" stop-color="#2e57fa"></stop><stop offset=".508" stop-color="#191eab"></stop></linearGradient><path d="M78.7 91.4H56.1v30.8c0 .3.1.5.4.7l9.5 5.5a2.8 2.8 0 0 0 2.8 0l9.5-5.5c.3-.2.4-.4.4-.7V91.4z" fill="url(#I)"></path><use href="#S" class="X"></use><use href="#T" class="V"></use><linearGradient id="J" gradientUnits="userSpaceOnUse" x1="76.076" y1="88.81" x2="59.237" y2="88.81"><stop offset=".341" stop-color="#2e57fa"></stop><stop offset=".546" stop-color="#191eab"></stop></linearGradient><path d="M59.6 91.1l6.9-4c.6-.3 1.3-.3 1.8 0l7 4c.1.1.2.1.2.2.1-.3.1-.6-.2-.8l-7-4c-.6-.3-1.3-.3-1.8 0l-6.9 4c-.3.2-.4.5-.2.8.1-.1.1-.2.2-.2z" fill="url(#J)"></path><path d="M69.9 92.2c-.1-.1-.4-.1-.5 0-1 .6-2.7.6-3.7 0s-1-1.6 0-2.2 2.7-.6 3.7 0c.2.1.4.1.5 0s.1-.2 0-.3c-1.4-.8-3.5-.8-4.8 0s-1.3 2 0 2.8 3.4.8 4.7 0c.3 0 .3-.2.1-.3z" class="W"></path><linearGradient id="K" gradientUnits="userSpaceOnUse" x1="86.813" y1="92.782" x2="109.429" y2="92.782"><stop offset="0" stop-color="#2e57fa"></stop><stop offset=".508" stop-color="#191eab"></stop></linearGradient><path d="M109.4 74.1H86.8v30.8c0 .3.1.5.4.7l9.5 5.5a2.8 2.8 0 0 0 2.8 0l9.5-5.5c.3-.2.4-.4.4-.7 0 0 0-30.8 0-30.8z" fill="url(#K)"></path><use href="#S" x="30.7" y="-17.2" class="X"></use><path d="M97.1 78.5l-6.8-4a.57.57 0 0 1 0-1l6.9-4c.6-.3 1.3-.3 1.8 0l7 4a.57.57 0 0 1 0 1l-6.8 4a2.56 2.56 0 0 1-2.1 0z" class="V"></path><linearGradient id="L" gradientUnits="userSpaceOnUse" x1="106.713" y1="71.739" x2="89.874" y2="71.739"><stop offset=".341" stop-color="#2e57fa"></stop><stop offset=".546" stop-color="#191eab"></stop></linearGradient><path d="M90.3 74l6.9-4c.6-.3 1.3-.3 1.8 0l7 4c.1.1.2.1.2.2.1-.3.1-.6-.2-.8l-7-4c-.6-.3-1.3-.3-1.8 0l-6.9 4c-.3.2-.4.5-.2.8 0-.1.1-.1.2-.2z" fill="url(#L)"></path><linearGradient id="M" gradientUnits="userSpaceOnUse" x1="113.385" y1="76.889" x2="136.001" y2="76.889"><stop offset="0" stop-color="#2e57fa"></stop><stop offset=".508" stop-color="#191eab"></stop></linearGradient><path d="M136 58.2h-22.6V89c0 .3.1.5.4.7l9.5 5.5a2.8 2.8 0 0 0 2.8 0l9.5-5.5c.3-.2.4-.4.4-.7 0 0 0-30.8 0-30.8z" fill="url(#M)"></path><path d="M123.3 64.5l-9.5-5.5c-.5-.3-.5-1.1 0-1.4l9.5-5.5a2.44 2.44 0 0 1 2.6 0l9.7 5.6c.5.3.5 1.1 0 1.4l-9.5 5.5c-.9.4-1.9.4-2.8-.1z" class="X"></path><use href="#T" x="57.4" y="-32.7" class="V"></use><linearGradient id="N" gradientUnits="userSpaceOnUse" x1="133.437" y1="56.076" x2="116.599" y2="56.076"><stop offset=".341" stop-color="#2e57fa"></stop><stop offset=".546" stop-color="#191eab"></stop></linearGradient><path d="M117 58.4l6.9-4c.6-.3 1.3-.3 1.8 0l7 4c.1.1.2.1.2.2.1-.3.1-.6-.2-.8l-7-4c-.6-.3-1.3-.3-1.8 0l-6.9 4c-.3.2-.4.5-.2.8 0-.1.1-.2.2-.2z" fill="url(#N)"></path><path d="M122.9 59.7c1.1.6 2.9.6 3.9 0 1.1-.6 1.1-1.7 0-2.3l.9-.6c1.6.9 1.6 2.5 0 3.4s-4.2.9-5.8 0c0 0 1-.5 1-.5z" class="W"></path><linearGradient id="O" gradientUnits="userSpaceOnUse" x1="121.977" y1="56.791" x2="127.779" y2="56.791"><stop offset=".016" stop-color="#fc31d3"></stop><stop offset="1" stop-color="#4dccef"></stop></linearGradient><path d="M127.8 56.9l-.9.5c-1.1-.6-2.8-.6-3.9 0l-1-.5c1.6-1 4.2-1 5.8 0z" fill="url(#O)"></path><path d="M122.9 57.4c-1.1.6-1.1 1.7 0 2.3l-.9.5c-1.6-.9-1.6-2.4 0-3.4 0 .1.9.6.9.6z" class="Y"></path><path d="M59.6 123.2l2 1.2c.2.1.4 0 .4-.3s-.2-.6-.4-.7l-2-1.2c-.2-.1-.4 0-.4.3.1.2.2.6.4.7z" class="W"></path><path d="M117.1 90.2l2 1.2c.2.1.4 0 .4-.3s-.2-.6-.4-.7l-2-1.2c-.2-.1-.4 0-.4.3 0 .2.2.6.4.7z" class="Z"></path><g class="W"><path d="M90.7 106l2 1.2c.2.1.4 0 .4-.3s-.2-.6-.4-.7l-2-1.2c-.2-.1-.4 0-.4.3s.2.6.4.7zm.6 53.2H91v-4.7c0-1.2-.6-2.3-1.7-2.9L54 130.7c-.6-.4-1-1-1-1.8 0-.7.4-1.4 1-1.8l6.5-4 .1.2-6.5 4c-.5.3-.9.9-.9 1.5s.3 1.2.9 1.5l35.3 20.9c1.1.7 1.8 1.9 1.8 3.2v4.8z"></path><path d="M98.5 154.8h-.3V150c0-1.3-.7-2.5-1.8-3.1l-22.1-12.7c-.5-.3-.8-.8-.8-1.3 0-.6.3-1 .8-1.3L94 120.2c.4-.2.6-.6.6-1.1s-.2-.9-.6-1.1l-9.8-5.6a1.1 1.1 0 0 1-.6-1 1.1 1.1 0 0 1 .6-1l7.5-4.5.1.2-7.5 4.5c-.3.2-.4.5-.4.8s.2.6.5.8l9.8 5.6c.5.3.8.8.8 1.3 0 .6-.3 1-.8 1.3l-19.7 11.3c-.4.2-.6.6-.6 1.1s.2.9.6 1.1l22.1 12.7c1.2.7 1.9 2 1.9 3.4v4.8z"></path></g><path d="M170.3 107.8l-26-15.2a2.99 2.99 0 0 0-2.9 0l-12.1 7.2c-1 .6-2.2.6-3.2.1L115 93.7c-.3-.1-.4-.4-.5-.7 0-.3.1-.6.4-.8l3.1-2 .1.2-3.1 2a.55.55 0 0 0-.3.5.55.55 0 0 0 .3.5l11.2 6.1c.9.5 2 .5 2.9-.1l12.1-7.2c1-.6 2.2-.6 3.1 0l26 15.2v.4z" class="Z"></path><path d="M209.6 108c-2.8-1.6-6-3-9.4-4-14.2-4.3-32.1-3-44 3.9-7.2 4.2-10.9 9.7-11 15.2-.1 5.7 3.6 11.5 11.1 15.8.8.5 1.7.9 2.6 1.3.3.1.6.3.8.4.6.3 1.3.6 1.9.8.3.1.6.3.9.4l2.7.9c.4.1.8.2 1.2.4.5.2 1.1.3 1.6.4s1.1.3 1.6.4c.4.1.9.2 1.3.3 1.4.3 2.8.5 4.2.7 3 .4 6 .5 8.9.5h.7c1.2 0 2.4-.1 3.7-.2.3 0 .5 0 .8-.1 1.4-.1 2.7-.3 4.1-.5h.1c1.4-.2 2.8-.5 4.1-.8.3-.1.6-.2.8-.2l3-.9c.4-.1.8-.3 1.2-.4.9-.3 1.8-.7 2.6-1 .4-.2.7-.3 1.1-.5 1.2-.5 2.3-1.1 3.3-1.7 7.1-4.1 10.7-9.5 10.9-14.9.5-5.9-3.1-11.8-10.8-16.2z" class="X"></path><path d="M184.2 138.5c-2.1 0-4.3-.1-6.3-.4-1.1-.1-2.2-.3-3.4-.5-.4-.1-.7-.1-1-.2l-1.3-.3-1.3-.3-.3-.1c-.2-.1-.4-.1-.7-.2l-2.1-.7c-.2-.1-.4-.1-.5-.2l-.2-.1c-.6-.2-1.1-.4-1.6-.7l-.1-.1c-.2-.1-.4-.2-.5-.3-.8-.4-1.5-.7-2-1.1-5.9-3.4-9-7.9-8.9-12.8.1-4.7 3.2-9 8.8-12.2 9.3-5.4 23.4-6.6 35.1-3.1a31.97 31.97 0 0 1 7.5 3.2c5.9 3.4 9.1 8.1 8.9 13-.2 4.6-3.3 8.9-8.8 12.1-.8.5-1.7.9-2.7 1.4-.2.1-.4.2-.6.2l-.3.1c-.7.3-1.4.6-2.1.8l-.9.3c-.8.2-1.6.5-2.4.7l-.3.1c-.1 0-.3.1-.4.1-1.1.3-2.2.5-3.3.7s-2.2.3-3.4.4h-.5-.2c-1 .1-1.9.1-2.9.2h-.2-.4-.7zm-.4-34.8c-7.7 0-15.2 1.7-20.9 5-5.4 3.2-8.5 7.3-8.5 11.8-.1 4.6 3 9 8.7 12.3.6.3 1.2.7 2 1.1.2.1.4.2.5.2l.1.1c.5.2 1 .4 1.5.7l.2.1c.2.1.3.1.5.2.7.3 1.4.5 2.1.7.2.1.4.1.6.2l.3.1c.4.1.8.2 1.3.3.4.1.8.2 1.3.3.3.1.6.1 1 .2 1.2.2 2.3.4 3.4.5 2.3.3 4.7.4 7 .4h.4.2c1 0 1.9-.1 2.9-.2h.2.5c1.2-.1 2.2-.2 3.2-.4 1.2-.2 2.3-.4 3.4-.7.1 0 .3-.1.4-.1l.3-.1c.8-.2 1.6-.4 2.4-.7l.9-.3c.7-.2 1.3-.5 2.1-.8l.3-.1c.2-.1.4-.2.6-.2 1-.5 1.9-.9 2.6-1.3 5.3-3.1 8.4-7.2 8.5-11.6.2-4.7-2.9-9.2-8.7-12.5-2.2-1.3-4.7-2.3-7.4-3.1-4.5-1.4-9.2-2.1-13.9-2.1zm-86.6 51.7c-.3-.2-.2-.4.1-.6l1.3-.8c.3-.2.8-.2 1.1 0s.2.4-.1.6l-1.3.8c-.3.2-.8.2-1.1 0zm-7.1 4.5c-.3-.2-.2-.4.1-.6l1.3-.8c.3-.2.8-.2 1.1 0s.2.4-.1.6l-1.3.8c-.4.1-.9.1-1.1 0zm145.4-17.5c.3-.2.2-.4-.1-.6l-1.3-.8c-.3-.2-.8-.2-1.1 0s-.2.4.1.6l1.3.8c.3.1.8.2 1.1 0z" class="W"></path><defs><filter id="P" filterUnits="userSpaceOnUse" x="142.5" y="38.1" width="81.7" height="103.4"></filter><path id="Q" d="M100.7 159c-.1.1-.3.1-.5 0-.1-.1-.1-.2 0-.3s.3-.1.5 0c.1.1.1.2 0 .3z"></path><path id="R" d="M127.4 108.2c-.1.1-.2.1-.3 0s-.1-.1 0-.2.2-.1.3 0 .1.2 0 .2z"></path><path id="S" d="M66 97.6l-9.5-5.5c-.5-.3-.5-1.1 0-1.4l9.5-5.5a2.44 2.44 0 0 1 2.6 0l9.7 5.6c.5.3.5 1.1 0 1.4l-9.5 5.5c-.8.4-1.9.4-2.8-.1z"></path><path id="T" d="M66.5 95.5l-6.8-4a.57.57 0 0 1 0-1l6.9-4c.6-.3 1.3-.3 1.8 0l7 4a.57.57 0 0 1 0 1l-6.8 4c-.7.4-1.5.4-2.1 0z"></path><path id="U" d="M291 187.4v8.1a1.1 1.1 0 0 1-.6 1l-13.7 7.9c-1.3.7-2.8.7-4 0l-13.6-7.9a1.1 1.1 0 0 1-.6-1h-.1v-8.1H291z"></path><path id="V" d="M288.5 192.7l-1.2.7-8.8 5.1c-.3.2-.5.6-.5.9 0 .4.2.5.5.4l8.8-5.1 1.3-.7c.3-.2.5-.6.5-.9-.1-.4-.3-.5-.6-.4z"></path><path id="W" d="M288.5 182.2l-1.2.7-8.8 5.1c-.3.2-.5.6-.5.9 0 .4.2.5.5.4l8.8-5.1 1.3-.7c.3-.2.5-.6.5-.9-.1-.4-.3-.6-.6-.4z"></path><path id="X" d="M272 168a1.1 1.1 0 0 0 .6 1c.3.2.6 0 .6-.3a1.1 1.1 0 0 0-.6-1c-.3-.1-.6 0-.6.3z"></path><path id="Y" d="M270.1 166.9a1.1 1.1 0 0 0 .6 1c.3.2.6 0 .6-.3s-.2-.8-.6-1-.6 0-.6.3z"></path><path id="Z" d="M268.1 165.8a1.1 1.1 0 0 0 .6 1c.3.2.6 0 .6-.3a1.1 1.1 0 0 0-.6-1c-.3-.2-.6-.1-.6.3z"></path><path id="a" d="M266.2 164.7a1.1 1.1 0 0 0 .6 1c.3.2.6 0 .6-.3a1.1 1.1 0 0 0-.6-1c-.4-.2-.6-.1-.6.3z"></path><path id="b" d="M264.2 163.5a1.1 1.1 0 0 0 .6 1c.3.2.6 0 .6-.3s-.2-.8-.6-1c-.3-.2-.6 0-.6.3z"></path><path id="c" d="M272.3 179a1.1 1.1 0 0 0 .6 1c.3.2.6 0 .6-.3a1.1 1.1 0 0 0-.6-1c-.3-.2-.6 0-.6.3z"></path><path id="d" d="M270.4 177.9a1.1 1.1 0 0 0 .6 1c.3.2.6 0 .6-.3a1.1 1.1 0 0 0-.6-1c-.4-.2-.6 0-.6.3z"></path><path id="e" d="M268.4 176.8a1.1 1.1 0 0 0 .6 1c.3.2.6 0 .6-.3s-.2-.8-.6-1c-.3-.2-.6-.1-.6.3z"></path><path id="f" d="M262.3 205.5v8.1a1.1 1.1 0 0 1-.6 1l-13.7 7.9c-1.3.7-2.8.7-4 0l-13.6-7.9a1.1 1.1 0 0 1-.6-1h-.1v-8.1h32.6z"></path><path id="g" d="M248.1 203.8l13.7-7.9c.8-.4.8-1.6 0-2l-13.8-8c-1.1-.7-2.5-.7-3.7 0l-13.9 8.1c-.7.4-.7 1.5 0 2l13.6 7.9c1.3.6 2.8.6 4.1-.1z"></path><path id="h" d="M259.8 200.2l-1.2.7-8.8 5.1c-.3.2-.5.6-.5.9 0 .4.2.5.5.4l8.8-5.1 1.3-.7c.3-.2.5-.6.5-.9-.1-.3-.3-.5-.6-.4z"></path><path id="i" d="M241.7 195.9a1.1 1.1 0 0 0 .6 1c.3.2.6 0 .6-.3a1.1 1.1 0 0 0-.6-1c-.4-.1-.6 0-.6.3z"></path><path id="j" d="M239.2 215.3a1.1 1.1 0 0 0 .6 1c.3.2.6 0 .6-.3s-.2-.8-.6-1-.6-.1-.6.3z"></path><path id="k" d="M285.2 70c-.1-.1-.1-.2-.1-.3s.1-.2.2-.1.1.2.1.3-.1.2-.2.1z"></path><path id="l" d="M284.9 71.2c-.1-.1-.1-.2-.1-.3s.1-.2.2-.1.1.2.1.3-.1.1-.2.1z"></path><path id="m" d="M289.7 74l-3.2-1.8.1-.6 3.2 1.9z"></path><path id="n" d="M290.1 79.1l-3.2-1.9.1-.5 3.2 1.8z"></path><path id="o" d="M305.7 106l-.3 1.2-.8-.5.3-1.2z"></path><path id="p" d="M309 105.2l-.4 1.1-.8-.5.3-1.1z"></path><path id="q" d="M301.7 111.4c.4.2.9.2 1.3 0s.4-.5 0-.7-.9-.2-1.3 0-.4.5 0 .7z"></path><path id="r" d="M270.6 97.3l-2.6-1.5 2.6-1.5 2.6 1.5z"></path><path id="s" d="M279.9 102.7l-2.6-1.5 2.6-1.5 2.5 1.5z"></path><path id="t" d="M298.4 113.4l-2.6-1.5 2.5-1.5 2.6 1.5z"></path><path id="u" d="M103.4 216.4c.1.1.3.1.4 0s.1-.2 0-.2c-.1-.1-.3-.1-.4 0-.1 0-.1.1 0 .2z"></path><path id="v" d="M98 219.6c.1.1.3.1.4 0s.1-.2 0-.2c-.1-.1-.3-.1-.4 0-.2 0-.2.1 0 .2z"></path><path id="w" d="M95.1 214.2l4.1 2.4.5-.3-4.1-2.4z"></path></defs><mask maskUnits="userSpaceOnUse" x="142.5" y="38.1" width="81.7" height="103.4" id="y"><g filter="url(#P)"><mask maskUnits="userSpaceOnUse" x="142.5" y="38.1" width="81.7" height="103.4" id="y"></mask><linearGradient id="z" gradientUnits="userSpaceOnUse" x1="183.362" y1="17.957" x2="183.362" y2="145.496"><stop offset="0"></stop><stop offset=".085" stop-color="#090909"></stop><stop offset=".222" stop-color="#202020"></stop><stop offset=".393" stop-color="#474747"></stop><stop offset=".592" stop-color="#7c7c7c"></stop><stop offset=".812" stop-color="silver"></stop><stop offset="1" stop-color="#fff"></stop></linearGradient><path d="M222 57.2c-.4-2.1-2.1-7.5-3.8-8.9-1.6-1.4-6-1.6-8.3-2.8-2.2-1.2-3-2.2-4.7-2.9h-.1c-5.2 0-8.8-1.5-13.5-3.5-4.4-1.9-9.6.1-14.3-.1-1.9-.1-3.7-.3-5.5-.5-4.1 2.3-6.4 6.3-10.3 9-1.4 1-3.9 1.5-4.9 2.2-.9.6-2.4 2.5-3.6 3.4-4.3 3.2-5.7 8.6-7.9 13.4-2.8 6-2.5 11.4-2.4 17.7l9.5 39.9h.1c.3 4.5 3.3 8.9 9.2 12.3.7.4 1.4.8 2.1 1.1.2.1.5.2.7.3.5.2 1.1.5 1.6.7.3.1.5.2.8.3.7.3 1.5.5 2.2.8.3.1.7.2 1 .3.4.1.9.2 1.3.4.4.1.9.2 1.3.3s.7.1 1.1.2l3.5.6c2.5.3 4.9.4 7.4.4h.6c1 0 2-.1 3-.2.2 0 .5 0 .7-.1 1.1-.1 2.3-.2 3.4-.4h.1c1.2-.2 2.3-.4 3.4-.7.2-.1.5-.1.7-.2.8-.2 1.7-.5 2.5-.7.3-.1.7-.2 1-.3.7-.3 1.5-.5 2.2-.8.3-.1.6-.2.9-.4 1-.4 1.9-.9 2.8-1.4 5.9-3.4 8.9-7.9 9-12.4l9.6-60.1c-1.1-3.4-1.7-3.8-2.4-6.9z" mask="url(#y)" fill="url(#z)"></path></g></mask><linearGradient id="AA" gradientUnits="userSpaceOnUse" x1="183.362" y1="17.957" x2="183.362" y2="145.496"><stop offset="0" stop-color="#4ef9e8"></stop><stop offset=".101" stop-color="#56f0e7"></stop><stop offset=".265" stop-color="#6ad9e5"></stop><stop offset=".469" stop-color="#8cb2e1"></stop><stop offset=".706" stop-color="#ba7ddb"></stop><stop offset=".969" stop-color="#f539d4"></stop><stop offset="1" stop-color="#fc31d3"></stop></linearGradient><path d="M222 57.2c-.4-2.1-2.1-7.5-3.8-8.9-1.6-1.4-6-1.6-8.3-2.8-2.2-1.2-3-2.2-4.7-2.9h-.1c-5.2 0-8.8-1.5-13.5-3.5-4.4-1.9-9.6.1-14.3-.1-1.9-.1-3.7-.3-5.5-.5-4.1 2.3-6.4 6.3-10.3 9-1.4 1-3.9 1.5-4.9 2.2-.9.6-2.4 2.5-3.6 3.4-4.3 3.2-5.7 8.6-7.9 13.4-2.8 6-2.5 11.4-2.4 17.7l9.5 39.9h.1c.3 4.5 3.3 8.9 9.2 12.3.7.4 1.4.8 2.1 1.1.2.1.5.2.7.3.5.2 1.1.5 1.6.7.3.1.5.2.8.3.7.3 1.5.5 2.2.8.3.1.7.2 1 .3.4.1.9.2 1.3.4.4.1.9.2 1.3.3s.7.1 1.1.2l3.5.6c2.5.3 4.9.4 7.4.4h.6c1 0 2-.1 3-.2.2 0 .5 0 .7-.1 1.1-.1 2.3-.2 3.4-.4h.1c1.2-.2 2.3-.4 3.4-.7.2-.1.5-.1.7-.2.8-.2 1.7-.5 2.5-.7.3-.1.7-.2 1-.3.7-.3 1.5-.5 2.2-.8.3-.1.6-.2.9-.4 1-.4 1.9-.9 2.8-1.4 5.9-3.4 8.9-7.9 9-12.4l9.6-60.1c-1.1-3.4-1.7-3.8-2.4-6.9z" opacity=".65" fill="url(#AA)"></path><linearGradient id="AB" gradientUnits="userSpaceOnUse" x1="225.753" y1="42.047" x2="158.994" y2="78.237"><stop offset=".011" stop-color="#dd9fff"></stop><stop offset="1" stop-color="#919eea"></stop></linearGradient><path d="M224.2 60.2L221 49.4c-.4-1.4-1.5-2.4-2.9-2.7l-2.7-.6c-1.2-.3-2.4-.8-3.4-1.5l-3.5-2.6c-1.2-.9-2.7-1.2-4.2-.8l-2.6.7c-.3.1-.7.2-1 .2-.1-.1-.2-.1-.3-.2l-10.7-5c-1.2-.5-2.5-.7-3.8-.5l-1.3.3c-.7.1-1.5.2-2.3.2l-5.7-.3c-1.7-.1-3.4.2-4.9.9l-3.9 1.7c-1.7.7-3.1 2-4 3.6l-1.2 2.2c-.5.8-1.2 1.4-2.1 1.7l-2.8.8c-1.1.3-2.1.9-2.9 1.8l-6.6 7.1c-.9.9-1.5 2.1-1.8 3.3l-1.2 4.7c-.3 1.1-.7 2.1-1.3 3.1l-1.9 3.1a5.73 5.73 0 0 0-.8 3.4l.8 7.5c.2 1.7 1.2 3.2 2.7 4.1l3 1.7c.6.4 1.3.5 2 .5.5 0 1-.1 1.5-.3l2.6-1 1.4 2.4c1 1.7 2.5 3 4.4 3.5l7 2.2c.7.2 1.3.3 2 .3.5 0 1.1-.1 1.6-.2l3.2-.8c.4-.1.8-.1 1.2-.1h5.4c1.6 0 3.2-.7 4.2-2l2.7-3.3c.7-.8 1.6-1.3 2.6-1.4l5.8-.7 8 .2c3.3.1 6.4-1.6 8-4.5l.3-.5c.6-1 1.3-1.9 2.1-2.7l4.7-4.6a4.89 4.89 0 0 0 1.4-3.8l-.1-.8 3.4-4.3c1.3-1.1 1.7-3.3 1.1-5.2zm-80.3 11.7l1.9-3.1c.7-1.1 1.2-2.4 1.6-3.7l.9-3.4 3.5 12.7c.2.6 0 1.2-.5 1.6l-1.1.9c-.1.1-.3.1-.4.1a.76.76 0 0 1-.4-.2l-2.7-3.9c-.2-.2-.5-.3-.7-.1s-.3.5-.1.7l2.7 3.9c.2.4.6.6 1.1.7h.2a1.69 1.69 0 0 0 1-.3l1.1-.9c.8-.6 1.1-1.7.9-2.7L149 59.8c.2-.6.6-1.2 1-1.6l6.6-7.1c.5-.6 1.2-1 1.9-1.2l2.8-.8c.7-.2 1.3-.5 1.9-.9l4.7.8c.6.1 1.2.2 1.8.2.9 0 1.8-.1 2.7-.3L178 47c1.3-.3 2.4-1.2 3-2.4l1-1.9c.3-.5.2-1.1-.1-1.5-.3-.5-.9-.7-1.4-.6l-11.4 2.3c-.4.1-.7.5-.7.9s.3.8.7.9l3.2 1c.3.1.6-.1.7-.3.1-.3-.1-.6-.3-.7l-2.7-.9 10.9-2.2c.2 0 .3.1.4.1 0 .1.1.2 0 .4l-1 1.9c-.5.9-1.3 1.6-2.3 1.8l-5.8 1.5c-1.3.3-2.7.4-4.1.2l-3.9-.7c.2-.3.4-.5.6-.8l1.2-2.2c.7-1.2 1.7-2.2 3-2.7l3.9-1.7c1.1-.5 2.3-.7 3.5-.7h.4l5.7.3c.6 0 1.2 0 1.8-.1l3.5 2.3c.5.3 1.1.5 1.8.5.3 0 .7-.1 1-.2l.6-.2c.3-.1.4-.4.3-.7s-.4-.4-.7-.3l-.6.2c-.6.2-1.3.1-1.9-.2l-2.5-1.6.7-.1c.8-.2 1.7-.1 2.5.3l6.7 3.1-7.6.3c-.5 0-1 .1-1.4.2-1 .3-2 .8-2.8 1.5l-.1.1-3.2 3.2-8.2 1.7-.6.1a6.07 6.07 0 0 0-4.1 3.2l-1.8 3.8-1.6 3.3c-.5 1-1.1 1.9-1.8 2.6l-6.2 6.2-.3.3c-.2.2-.4.4-.5.6l-3.1-9.1c-.2-.7-.1-1.5.4-2l5.5-5.8c.5-.5 1.2-.6 1.8-.3l3 1.5c.3.1.4.4.5.7 0 .3-.1.6-.3.7l-7.1 5.6c-.2.2-.3.5-.1.7s.5.3.7.1l7.1-5.6c.5-.4.8-1 .7-1.7-.1-.6-.4-1.2-1-1.5l-3-1.5a2.59 2.59 0 0 0-3 .5l-5.5 5.8c-.8.8-1 2-.7 3.1l3.4 9.9c-.3.6-.5 1.3-.6 2.1l-.2.7-1.1 10.6-1.2-.1a3.66 3.66 0 0 1-2.7-1.6l-5.5-8.4c-.1-.6.1-1.1.4-1.6zm6.7 13.9c-.6.2-1.2.2-1.8-.1l-3-1.7c-.9-.5-1.5-1.4-1.6-2.5l-.6-5.8 4.5 6.8c.8 1.2 2.1 2 3.5 2.1l1.2.1v.3l-2.2.8zm61.6-8c-.9.9-1.8 2-2.4 3.1l-.3.5c-1.3 2.2-3.6 3.5-6.1 3.4l-8-.2h-.2l-5.9.7c-1.6.2-3 1-4 2.2l-2.7 3.3-.2.2-.3-2.5c-.1-.7-.4-1.4-1-1.8s-1.3-.6-2-.5l-5.2.9c-.3.1-.6 0-.9-.2-.2-.2-.4-.5-.4-.8l-.1-5.1c0-1.4-1-2.5-2.4-2.7l-9.7-1.3c-.6-.1-1.1.1-1.6.4-.5.4-.7.9-.8 1.5l-.7 7.1c0 .3.2.5.5.6.3 0 .5-.2.6-.5l.7-7.1c0-.3.2-.5.4-.7s.5-.3.8-.2l9.7 1.3a1.73 1.73 0 0 1 1.5 1.7l.1 5.1c0 .6.3 1.2.8 1.6s1.1.6 1.7.4l5.2-.9c.4-.1.9 0 1.2.3s.6.6.6 1.1l.3 3.1c-.4.2-.9.3-1.4.3h-5.4c-.6 0-1.1.1-1.7.2l-3.2.8c-.2.1-.5.1-.7.1l.3-7.5c.1-1.3-.8-2.5-2-2.9l-3-1c-.6-.2-1.3 0-1.8.4-.5.5-.6 1.2-.4 1.8l2 5.4c.1.3.4.4.7.3s.4-.4.3-.7l-2-5.4c-.1-.3 0-.5.1-.7.2-.2.4-.3.7-.2l3 1c.8.3 1.3 1 1.3 1.8l-.3 7.5c-.2 0-.5-.1-.7-.2l-7-2.2c-1.4-.4-2.5-1.3-3.2-2.6l-1.6-2.8c-.4-.7-.6-1.6-.5-2.4l1-9.8c.1-1.3.7-2.5 1.6-3.4l2.2-2.2.6 4.9c.1 1.3 1.1 2.3 2.3 2.6l6 1.5c.2.1.5.1.7.1 1 0 1.9-.5 2.5-1.3l1.3-1.8c.4-.5.5-1.2.3-1.8s-.6-1.1-1.2-1.4l-7.9-3.6c-.3-.1-.6 0-.7.3s0 .6.3.7l7.9 3.6c.3.1.5.4.6.7s0 .6-.2.9l-1.3 1.8c-.5.7-1.3 1-2.1.8l-6-1.5c-.8-.2-1.4-.9-1.5-1.7l-.7-5.7 3-3 1.3-1.3s0-.1.1-.1l6.2.9h.5c.6 0 1.2-.2 1.7-.5l7-3.9c.7-.4 1.1-1.1 1-1.9s-.6-1.4-1.3-1.7l-7.5-2.7c-.3-.1-.6 0-.7.3s0 .6.3.7l7.5 2.7c.3.1.6.4.6.8s-.1.7-.5.9l-7 3.9a2.22 2.22 0 0 1-1.6.3l-5.8-.9 2.3-4.9 1.2-2.5c.7-1.4 1.9-2.4 3.4-2.7l8.5-1.8h.1l6.6 6.6c.4.4.5.9.5 1.4s-.3 1-.7 1.3l-8.9 6c-2 1.3-2.9 3.8-2.4 6.2l2.3 9.9c.3 1.3 1.4 2.2 2.7 2.2h.1l15.2-.8c2.3-.1 4.2-1.7 4.8-3.9l1.2-4.2c.3-1 1.2-1.6 2.2-1.5l12.2.6c.2.3-4.5 4.9-4.5 4.9zm9.3-13.3l-3.7 4.6-1.8-1.3c-.2-.1-.3-.3-.3-.6 0-.2 0-.5.2-.6l.7-.9c.3-.4.3-.8.2-1.2s-.4-.8-.8-.9l-3.6-1.5c-1-.4-1.8-1.1-2.5-1.9l-1.2-1.6c-.5-.7-1.2-1.1-2.1-1.2-.8-.1-1.6.2-2.3.7l-16.4 14.4c-.2.2-.2.5-.1.7.1.1.2.2.4.2.1 0 .2 0 .3-.1l16.4-14.4c.4-.4.9-.5 1.5-.5.5.1 1 .3 1.3.8l1.2 1.6c.8 1 1.8 1.8 2.9 2.3l3.6 1.5.2.2c0 .1 0 .2-.1.3l-.7.9c-.3.4-.4.9-.3 1.4s.3 1 .8 1.3l2.3 1.6.1.7c0 .4 0 .7-.1 1l-12.7-.7c-1.5-.1-2.8.9-3.2 2.3l-1.2 4.2c-.5 1.8-2.1 3-3.9 3.1l-15.2.8c-.8 0-1.6-.5-1.8-1.3l-2.3-9.9c-.4-1.9.4-3.9 2-5l8.9-6c.7-.5 1.1-1.2 1.2-2s-.2-1.6-.8-2.2l-6.5-6.5 3-3c.6-.6 1.2-.9 2-1.1.2 0 .5-.1.7-.1l11.7-.1c.4 0 .8 0 1.2-.1l.8 1.1c.7 1 .4 2.3-.5 3l-6 4.2c-1 .7-1.5 1.8-1.5 3l.2 5.6c0 1-.7 1.9-1.7 2.1l-3.5.8c-2 .4-3.5 2-4 4l-1.8 8.1c-.1.6 0 1.3.4 1.8s1 .8 1.6.8l9.4.4h.1c.5 0 .9-.2 1.3-.5.4-.4.6-.9.5-1.4l-.2-5.4c0-.8.4-1.6 1-2.1l5.5-3.8c.2-.2.3-.5.1-.7s-.5-.3-.7-.1l-5.5 3.8c-1 .7-1.5 1.8-1.5 3l.2 5.4c0 .2-.1.4-.2.6-.2.2-.4.2-.6.2l-9.4-.4c-.3 0-.6-.2-.8-.4-.2-.3-.3-.6-.2-.9l1.8-8.1a4.34 4.34 0 0 1 3.2-3.2l3.5-.8c1.5-.3 2.5-1.7 2.5-3.2l-.2-5.6c0-.8.4-1.6 1-2.1l6-4.2c1.4-1 1.8-3 .8-4.4l-.5-.8c.1 0 .2 0 .3-.1l2.6-.7c.2-.1.5-.1.7-.1.6 0 1.1.2 1.6.5l3.5 2.6c.7.5 1.4.9 2.2 1.2l5.3 10.2a.91.91 0 0 1 0 1c-.2.3-.5.5-.9.5l-1.8-.1c-.7 0-1.3-.3-1.8-.8l-4.3-4.9c-1.1-1.3-3-1.7-4.6-.9l-5.4 2.6c-.3.1-.4.4-.2.7.1.3.4.4.7.2l5.4-2.6c1.1-.5 2.5-.3 3.3.7l4.3 4.9c.6.7 1.5 1.2 2.5 1.2l1.8.1h.1c.7 0 1.4-.4 1.8-1s.4-1.4.1-2.1l-4.8-9.2c.2.1.4.1.6.2l2.7.6c.6.1 1.2.6 1.3 1.2l3.2 10.7c.6 1.3.3 2.7-.5 3.7z" fill="url(#AB)"></path><path d="M294.6 194.2l-12.9-7.5c-1.3-.7-2.8-.7-4.1 0l-16.5 9.6 14.5 8.6h6.2l12.8-7.9c1.1-.6 1.1-2.2 0-2.8z" opacity=".52" class="Y"></path><linearGradient id="AC" gradientUnits="userSpaceOnUse" x1="294.905" y1="196.196" x2="263.807" y2="196.196"><stop offset=".422" stop-color="#191eab"></stop><stop offset=".643" stop-color="#2e57fa"></stop></linearGradient><use href="#U" fill="url(#AC)"></use><path d="M276.7 196.3l13.7-7.9c.8-.5.8-1.6 0-2l-13.8-8c-1.1-.7-2.5-.7-3.7 0l-13.9 8.1c-.7.4-.7 1.5 0 2l13.6 7.9c1.3.6 2.9.6 4.1-.1z" class="X"></path><linearGradient id="AD" gradientUnits="userSpaceOnUse" x1="294.905" y1="196.186" x2="263.807" y2="196.186"><stop offset=".422" stop-color="#191eab"></stop><stop offset=".643" stop-color="#2e57fa"></stop></linearGradient><use href="#U" y="-10.5" fill="url(#AD)"></use><path d="M276.7 185.8l13.7-7.9c.8-.5.8-1.6 0-2l-13.8-8c-1.1-.7-2.5-.7-3.7 0L259 176c-.7.4-.7 1.5 0 2l13.6 7.9c1.3.6 2.9.6 4.1-.1z" class="X"></path><linearGradient id="AE" gradientUnits="userSpaceOnUse" x1="294.905" y1="196.151" x2="263.807" y2="196.151"><stop offset=".422" stop-color="#191eab"></stop><stop offset=".643" stop-color="#2e57fa"></stop></linearGradient><use href="#U" y="-21" fill="url(#AE)"></use><path d="M276.7 175.2l13.7-7.9c.8-.5.8-1.6 0-2l-13.8-8c-1.1-.7-2.5-.7-3.7 0l-13.9 8.1c-.7.4-.7 1.5 0 2l13.6 7.9c1.3.7 2.9.7 4.1-.1z" class="X"></path><linearGradient id="AF" gradientUnits="userSpaceOnUse" x1="292.357" y1="196.146" x2="263.145" y2="196.146"><stop offset=".422" stop-color="#191eab"></stop><stop offset=".643" stop-color="#2e57fa"></stop></linearGradient><use href="#U" y="-31.6" fill="url(#AF)"></use><path d="M276.7 164.6l13.7-7.9c.8-.4.8-1.6 0-2l-13.8-8c-1.1-.7-2.5-.7-3.7 0l-13.9 8.1c-.7.4-.7 1.5 0 2l13.6 7.9c1.3.7 2.9.7 4.1-.1z" class="X"></path><g class="V"><use href="#V"></use><use href="#W"></use><use href="#W" y="-10.5"></use><path d="M278.4 168.2l8.8-5.1 1.3-.7c.3-.2.5-.6.5-.9 0-.4-.2-.5-.5-.4l-1.2.7-8.8 5.1c-.3.2-.5.6-.5.9 0 .4.2.5.4.4z"></path><use href="#X"></use><use href="#Y"></use><use href="#Z"></use><use href="#a"></use></g><g class="Z"><use href="#b"></use><path d="M262.3 162.4a1.1 1.1 0 0 0 .6 1c.4.2.6 0 .6-.3a1.1 1.1 0 0 0-.6-1c-.4-.2-.6-.1-.6.3z"></path><use href="#Z" x="-7.8" y="-4.5"></use></g><use href="#c" class="V"></use><g class="W"><use href="#d"></use><use href="#e"></use><use href="#d" x="-3.9" y="-2.3"></use><use href="#c" x="-7.8" y="-4.5"></use><use href="#a" x="-3.6" y="8.7"></use></g><path d="M260.6 172.2a1.1 1.1 0 0 0 .6 1c.3.2.6 0 .6-.3s-.2-.8-.6-1c-.3-.1-.6 0-.6.3z" class="V"></path><use href="#d" x="1.5" y="11.7" class="Z"></use><g class="W"><use href="#e" x="1.5" y="11.7"></use><use href="#a" x="1.8" y="22.7"></use></g><g class="Z"><use href="#c" x="-6.3" y="7.2"></use><use href="#a" x="-2.1" y="20.4"></use><use href="#Z" x="-6" y="18.2"></use><use href="#Y" x="-9.9" y="15.9"></use></g><g class="V"><use href="#c" x="-0.6" y="20.5"></use><use href="#a" x="3.6" y="33.7"></use></g><g class="W"><use href="#X" x="-4.2" y="29.2"></use><use href="#d" x="-4.5" y="18.2"></use><use href="#e" x="-4.5" y="18.2"></use></g><g class="V"><use href="#a" x="-4.2" y="29.2"></use><use href="#c" x="-12.3" y="13.7"></use></g><path d="M266 212.3l-12.9-7.5c-1.3-.7-2.8-.7-4.1 0l-16.5 9.6L247 223h6.2l12.8-8c1-.6 1-2.1 0-2.7z" opacity=".52" class="Y"></path><linearGradient id="AG" gradientUnits="userSpaceOnUse" x1="266.226" y1="214.242" x2="235.128" y2="214.242"><stop offset=".422" stop-color="#191eab"></stop><stop offset=".643" stop-color="#2e57fa"></stop></linearGradient><use href="#f" fill="url(#AG)"></use><path d="M248.1 214.3l13.7-7.9c.8-.4.8-1.6 0-2l-13.8-8c-1.1-.7-2.5-.7-3.7 0l-13.9 8.1c-.7.4-.7 1.5 0 2l13.6 7.9c1.3.7 2.8.7 4.1-.1z" class="X"></path><linearGradient id="AH" gradientUnits="userSpaceOnUse" x1="266.226" y1="214.332" x2="235.128" y2="214.332"><stop offset=".422" stop-color="#191eab"></stop><stop offset=".643" stop-color="#2e57fa"></stop></linearGradient><use href="#f" y="-10.6" fill="url(#AH)"></use><use href="#g" class="X"></use><linearGradient id="AI" gradientUnits="userSpaceOnUse" x1="266.226" y1="214.298" x2="235.128" y2="214.298"><stop offset=".422" stop-color="#191eab"></stop><stop offset=".643" stop-color="#2e57fa"></stop></linearGradient><use href="#f" y="-21.1" fill="url(#AI)"></use><use href="#g" y="-10.5" class="X"></use><g class="V"><use href="#W" x="-28.7" y="28.6"></use><use href="#h"></use><use href="#V" x="-28.7" y="-3"></use><use href="#e" x="-24.8" y="20.3"></use></g><g class="W"><use href="#i"></use><use href="#c" x="-32.6" y="15.8"></use><use href="#a" x="-28.4" y="29"></use><use href="#Z" x="-32.3" y="26.8"></use><use href="#d" x="-36.5" y="13.5"></use></g><use href="#Z" x="-36.2" y="24.5" class="V"></use><use href="#e" x="-25.2" y="30.9" class="Z"></use><g class="W"><use href="#d" x="-29.1" y="28.6"></use><use href="#c" x="-33" y="26.4"></use></g><g class="Z"><use href="#a" x="-28.8" y="39.6"></use><use href="#b" x="-28.8" y="39.6"></use><use href="#d" x="-36.9" y="24.1"></use><use href="#Z" x="-36.6" y="35.1"></use></g><g class="V"><use href="#a" x="-23.1" y="52.9"></use><use href="#c" x="-31.2" y="37.4"></use></g><g class="W"><use href="#j"></use><use href="#Z" x="-30.9" y="48.4"></use><use href="#d" x="-35.1" y="35.1"></use></g><g class="V"><use href="#e" x="-35.1" y="35.1"></use><use href="#a" x="-34.8" y="46.1"></use></g><path d="M236.1 233.9l-12.9-7.5c-1.3-.7-2.8-.7-4.1 0l-16.5 9.6 14.5 8.6h6.2l12.8-7.9c1-.7 1-2.2 0-2.8z" opacity=".52" class="Y"></path><linearGradient id="AJ" gradientUnits="userSpaceOnUse" x1="236.327" y1="235.833" x2="205.23" y2="235.833"><stop offset=".422" stop-color="#191eab"></stop><stop offset=".643" stop-color="#2e57fa"></stop></linearGradient><path d="M232.4 227v8.1a1.1 1.1 0 0 1-.6 1l-13.7 7.9c-1.3.7-2.8.7-4 0l-13.6-7.9a1.1 1.1 0 0 1-.6-1h-.1V227h32.6z" fill="url(#AJ)"></path><use href="#g" x="-29.9" y="32.1" class="X"></use><linearGradient id="AK" gradientUnits="userSpaceOnUse" x1="266.227" y1="214.322" x2="235.13" y2="214.322"><stop offset=".422" stop-color="#191eab"></stop><stop offset=".643" stop-color="#2e57fa"></stop></linearGradient><use href="#f" x="-29.9" y="11" fill="url(#AK)"></use><path d="M218.2 225.4l13.7-7.9c.8-.5.8-1.6 0-2l-13.8-8c-1.1-.7-2.5-.7-3.7 0l-13.9 8.1c-.7.4-.7 1.5 0 2l13.6 7.9c1.3.6 2.8.6 4.1-.1z" class="X"></path><g class="V"><use href="#h" x="-29.9" y="32.1"></use><use href="#V" x="-58.6" y="29.1"></use></g><use href="#e" x="-55.1" y="52.5" class="Z"></use><g class="W"><use href="#d" x="-59" y="50.2"></use><use href="#Z" x="-58.7" y="61.2"></use></g><g class="Z"><use href="#j" x="-31.7" y="10.6"></use><use href="#c" x="-66.8" y="45.7"></use><use href="#j" x="-35.6" y="8.3"></use><use href="#Z" x="-66.5" y="56.7"></use></g><g class="V"><use href="#i" x="-28.5" y="43.2"></use><use href="#c" x="-61.1" y="59"></use></g><g class="W"><use href="#a" x="-56.9" y="72.2"></use><use href="#e" x="-61.1" y="59"></use><use href="#d" x="-65" y="56.7"></use></g><g class="V"><use href="#Z" x="-64.7" y="67.7"></use><use href="#a" x="-64.7" y="67.7"></use></g><linearGradient id="AL" gradientUnits="userSpaceOnUse" x1="298.816" y1="93.528" x2="298.816" y2="63.177"><stop offset=".116" stop-color="#dd9fff"></stop><stop offset=".457" stop-color="#fff"></stop></linearGradient><path d="M320.2 82.4c-.3-1.1-1.2-2-2.2-2.6l-37.1-19.7a3.02 3.02 0 0 0-2.1-.2l-1.6.5 12.9 6.2 27.1 14.7a2.47 2.47 0 0 1 1.4 2c.1.4.1.9 0 1.3l-8.2 27.7c1-.4 2.3-1.2 2.5-2.2l7.2-26.3c.3-.5.2-1 .1-1.4z" fill="url(#AL)"></path><path d="M275.7 62.2l-6 24.8c-.4 1.5.3 3 1.6 3.8l37.3 21.5a1.92 1.92 0 0 0 2.8-1.1l7.3-26.6c.3-1.2-.2-2.5-1.3-3.1l-38.2-20.8c-1.4-.9-3.1-.1-3.5 1.5z" class="V"></path><g class="b"><path d="M285.5 68.9c-.1-.1-.1-.2-.1-.3s.1-.2.2-.1.1.2.1.3c0 0-.1.1-.2.1z"></path><use href="#k"></use><use href="#l"></use><path d="M284.7 72.3c-.1-.1-.1-.2-.1-.3s.1-.2.2-.1.1.2.1.3c-.1.1-.2.2-.2.1z"></path><use href="#k" x="-0.8" y="3.5"></use><use href="#l" x="-0.8" y="3.5"></use><use href="#k" x="-1.4" y="5.8"></use><use href="#k" x="-1.7" y="7"></use><use href="#l" x="-1.7" y="7"></use><use href="#k" x="-2.3" y="9.3"></use><use href="#l" x="-2.3" y="9.4"></use><use href="#k" x="-2.9" y="11.7"></use><path d="M282.1 82.9c-.1-.1-.1-.2-.1-.3s.1-.2.2-.1.1.2.1.3c-.1.1-.1.1-.2.1z"></path><use href="#l" x="-3.1" y="12.9"></use><use href="#k" x="-3.7" y="15.2"></use><use href="#l" x="-3.7" y="15.2"></use><use href="#l" x="-4" y="16.4"></use><use href="#k" x="-4.6" y="18.7"></use><use href="#l" x="-4.6" y="18.7"></use><path d="M280.1 91.1c-.1-.1-.1-.2-.1-.3s.1-.2.2-.1.1.2.1.3c-.1.1-.2.1-.2.1zm10.1-19.3L287 70l.1-.6 3.3 1.9zm-.3 1.1l-3.2-1.8.2-.6 3.2 1.9z"></path><use href="#m"></use><path d="M292 76.6l-5.8-3.3.1-.6 5.9 3.4zm-1.6 1.4l-3.3-1.9.2-.5 3.2 1.8z"></path><use href="#n"></use><use href="#m" x="9.9" y="10.5"></use><path d="M289.8 80.2l-3.2-1.9.1-.5 3.3 1.8zm9-3.4l-8.2-4.7.2-.6 8.1 4.7zm-2.3-.1l-6.1-3.5.1-.6 6.1 3.5zm4.5 2.6l-4.1-2.4.1-.5 4.1 2.3zm1 1.9l-11.9-6.9.1-.6 12 6.9zm-1.1.5l-7.8-4.4.1-.6 7.8 4.5zm.3 2.6l-10.4-6.1.1-.5 10.5 6zm-5.3-1.8l-5.4-3.2.1-.5 5.5 3.1zm2.8 2.8l-8.5-4.9.2-.5 8.4 4.8zm-7.4-2.8l-3.3-1.8.2-.6 3.2 1.9zm9.1 5.3l-8.7-5 .1-.6 8.7 5zm.6 1.6l-13.2-7.6.1-.6 13.3 7.7zm-5.9-2.2l-7.6-4.3.1-.6 7.6 4.4zm5.6 3.3l-5.2-3 .2-.5 5.1 2.9z"></path><use href="#m" x="-1" y="10.8"></use><path d="M293.5 88.8l-8.3-4.7.2-.6 8.2 4.8zm6.7 3.9l-6.3-3.6.2-.6 6.2 3.7zm-9.2-4l-6.1-3.5.2-.6 6 3.5zm.9 1.7l-7.2-4.2.1-.5 7.3 4.2zm2.4 2.8l-8-4.7.2-.5 8 4.6zm1.8 2.3L286 89.6l.2-.5 10.1 5.8z"></path><use href="#n" x="-1.1" y="13.5"></use><path d="M298.2 99.2l-1.2-.8.1-.5 1.3.7zm-1.8-1l-10.9-6.4.1-.5 11 6.3z"></path><use href="#n" x="-1.1" y="16"></use><path d="M297.2 99.9l-7.8-4.5.2-.6 7.8 4.5zm-6.1-2.3L285 94l.1-.5 6.1 3.5z"></path><use href="#n" x="-3.2" y="17.3"></use><path d="M284.2 67.7l-2.6-1.5-.2.6 2.7 1.5zm-.3 1.1l-2.6-1.5-.1.6 2.6 1.5zm-.5 2.2l-4-2.3-.1.6 4 2.3zm-4.5-.3l-.1.6 3.1 1.8.1-.6zm1.3-5.3l-.1.6.9.5.2-.5zm-.2 1.1l-.2.6 1 .5.1-.5zm-1.9 7.8l-.2.5 1.4.8.1-.6zm-.3 1.1l-.2.5 1.4.8.1-.6zm-.8 3.3l-.2.5 3.1 1.8.2-.6zm-.6 2.2l-.1.5 3.1 1.8.1-.6zm-.3 1.1l-.1.6 1.2.7.1-.6zm-.8 3.3l-.1.6 1.2.7.1-.6zm-.5 2.2l-.1.6 1.1.6.2-.5z"></path></g><use href="#o" class="a"></use><g class="b"><path d="M306.4 103.6l-.3 1.2-.9-.5.3-1.1z"></path><use href="#o" x="1.3" y="-4.7"></use></g><path d="M307.7 98.9l-.3 1.2-.9-.5.4-1.1z" class="a"></path><g class="b"><use href="#o" x="2.6" y="-9.4"></use><path d="M309 94.2l-.3 1.2-.9-.5.4-1.1z"></path></g><path d="M307 106.7l-.3 1.2-.8-.5.3-1.1z" opacity=".2" class="e"></path><path d="M307.7 104.4l-.4 1.2-.8-.5.3-1.2z" class="a"></path><path d="M308.3 102l-.3 1.2-.8-.5.3-1.1z" class="c"></path><path d="M309 99.7l-.4 1.2-.8-.5.3-1.2zm.6-2.4l-.3 1.2-.8-.5.3-1.1z" class="b"></path><path d="M310.3 95l-.4 1.2-.8-.5.3-1.2z" opacity="0" class="e"></path><g class="b"><use href="#o" x="2.6" y="1.5"></use><use href="#p"></use></g><use href="#o" x="3.9" y="-3.2" opacity=".2" class="e"></use><use href="#p" x="1.3" y="-4.7" class="a"></use><use href="#o" x="5.2" y="-7.9" class="b"></use><use href="#p" x="2.6" y="-9.4" opacity="0" class="e"></use><use href="#o" x="3.8" y="2.2" class="c"></use><path d="M310.2 105.9l-.4 1.1-.8-.4.3-1.2z" class="a"></path><g class="b"><use href="#o" x="5.1" y="-2.5"></use><path d="M311.5 101.2l-.3 1.1-.9-.4.3-1.2z"></path><use href="#o" x="6.4" y="-7.2"></use></g><path d="M312.8 96.5l-.3 1.1-.9-.4.3-1.2z" class="c"></path><path d="M309.7 84.6l-4-2.4-.2.5 4.1 2.4z" class="a"></path><path d="M309.2 86.4l-4-2.4-.1.5 4 2.4z" class="c"></path><path d="M306.4 79.2l-.1.5 1.4.9.1-.5zm-.2 1l-.2.5 1.4.9.2-.5zm-1.8 6.9l-.1.5 1.2.7.1-.5zm-.2 1l-.2.5 1.2.7.1-.5zm-.8 2.9l-.1.5 2.7 1.7.2-.5zm-.5 1.9l-.1.5 2.7 1.7.2-.5z" class="a"></path><path d="M302.7 94l-.2.5 1.1.6.1-.5z" class="c"></path><path d="M301.9 96.9l-.1.5 1 .6.2-.5z" class="a"></path><path d="M301.4 98.9l-.1.5 1 .6.2-.5z" class="c"></path><linearGradient id="AM" gradientUnits="userSpaceOnUse" x1="311.877" y1="116.911" x2="249.865" y2="116.911"><stop offset=".116" stop-color="#dd9fff"></stop><stop offset=".804" stop-color="#c8dcf3"></stop></linearGradient><path d="M286.5 127.1a3.7 3.7 0 0 1-3.8 0L243.4 104v2.2c0 .5.3 1 .8 1.3l37.9 21.8c1.5.9 3.4.9 5 0l22.8-13.1v-2.9l-23.4 13.8z" fill="url(#AM)"></path><path d="M286.4 127.1l23.1-13.3c.5-.3.5-1 0-1.2l-39.9-22.9a1.72 1.72 0 0 0-1.7 0l-24.1 13.8c-.5.3-.5 1 0 1.2l38.9 22.4c1.1.7 2.5.7 3.7 0z" fill="#bbd2f9"></path><g fill="#eae1f9"><path d="M299.9 110.4c.4.2.9.2 1.3 0s.4-.5 0-.7-.9-.2-1.3 0c-.4.1-.4.4 0 .7z"></path><use href="#q"></use><use href="#q" x="1.8" y="1"></use><path d="M261.1 112.1l7.5 4.3c.8.5 2.3.4 3.3-.1l2.8-1.6c1-.6 1.1-1.4.2-1.9l-7.5-4.3c-.8-.5-2.3-.4-3.3.1l-2.8 1.6c-.9.5-1 1.4-.2 1.9zm6.5-16.6L265 94l2.5-1.4 2.6 1.5z"></path><use href="#r"></use><use href="#r" x="3.1" y="1.8"></use><use href="#r" x="6.2" y="3.6"></use><use href="#s"></use><path d="M283 104.4l-2.6-1.5 2.5-1.4 2.6 1.5z"></path><use href="#r" x="15.4" y="8.9"></use><use href="#r" x="18.5" y="10.7"></use><use href="#r" x="21.6" y="12.5"></use><use href="#s" x="15.4" y="8.9"></use><use href="#t"></use><use href="#r" x="30.8" y="17.8"></use><path d="M264.3 97.4l-2.6-1.5 2.6-1.4 2.5 1.4z"></path><use href="#t" x="-31" y="-14.2"></use><use href="#r" x="-0.2" y="3.7"></use><use href="#r" x="2.9" y="5.5"></use><use href="#r" x="6" y="7.3"></use><path d="M279.7 106.3l-2.6-1.5 2.6-1.4 2.5 1.5z"></path><use href="#t" x="-15.6" y="-5.3"></use><use href="#r" x="15.2" y="12.6"></use><use href="#r" x="18.3" y="14.4"></use><use href="#r" x="21.4" y="16.2"></use><path d="M295.1 115.2l-2.6-1.5 2.6-1.4 2.5 1.5zm3 1.8l-2.5-1.5 2.5-1.5 2.6 1.5z"></path><use href="#s" x="-19" y="-3.3"></use><use href="#t" x="-34.4" y="-12.2"></use><use href="#r" x="-3.6" y="5.7"></use><path d="M270.1 104.7l-2.6-1.5 2.6-1.4 2.6 1.5z"></path><use href="#r" x="2.6" y="9.2"></use><use href="#s" x="-3.6" y="5.6"></use><use href="#t" x="-19" y="-3.3"></use><use href="#r" x="11.8" y="14.6"></use><use href="#r" x="14.9" y="16.4"></use><use href="#r" x="18" y="18.1"></use><use href="#s" x="11.8" y="14.5"></use><use href="#t" x="-3.6" y="5.6"></use></g><path d="M262.7 117.4l-1.3-.8c-.2-.1-.3-.4-.3-.7 0-.2.2-.4.3-.3l1.3.8c.2.1.3.4.3.7s-.2.4-.3.3z" class="c"></path><g class="W"><path d="M261.3 116.7l2 1.2c.2.1.4 0 .4-.3s-.2-.6-.4-.7l-2-1.2c-.2-.1-.4 0-.4.3 0 .2.2.5.4.7z"></path><path d="M262.1 116.8l-26.2 13.9c-1.1.6-1.7 1.7-1.7 2.9v8.2h.3v-8.2c0-1.1.6-2.1 1.6-2.6l26.4-14.1c.1 0 .1-.1.1-.1h-.5z"></path></g><path d="M261.5 34.4l-15.3-8.8c-1.5-.9-3.4-.9-4.9 0l-14.9 8.5v5.4l12.5 7.4h7.4l15.2-9.2c1.2-.8 1.2-2.6 0-3.3z" opacity=".59" class="Y"></path><linearGradient id="AN" gradientUnits="userSpaceOnUse" x1="259.407" y1="29.455" x2="227.359" y2="29.455"><stop offset=".116" stop-color="#dd9fff"></stop><stop offset=".804" stop-color="#91bae7"></stop></linearGradient><path d="M223.1 12.1v25.5a1.1 1.1 0 0 0 .6 1l13.3 7.7c1.2.7 2.7.7 3.9 0l13.3-7.7c.4-.2.6-.6.5-1l.1-25.4-31.7-.1z" fill="url(#AN)"></path><linearGradient id="AO" gradientUnits="userSpaceOnUse" x1="223.095" y1="12.04" x2="254.825" y2="12.04"><stop offset=".116" stop-color="#dd9fff"></stop><stop offset=".804" stop-color="#91bae7"></stop></linearGradient><path d="M237 20.8L223.7 13c-.8-.4-.8-1.5 0-2l13.4-7.8c1.1-.6 2.5-.6 3.6 0l13.6 7.9c.7.4.8 1.4.1 1.8L241 20.7c-1.3.8-2.8.8-4 .1z" fill="url(#AO)"></path><linearGradient id="AP" gradientUnits="userSpaceOnUse" x1="233.911" y1="29.555" x2="218.301" y2="29.555"><stop offset=".465" stop-color="#fff"></stop><stop offset=".49" stop-color="#f8f8fd"></stop><stop offset=".526" stop-color="#e5e5f8"></stop><stop offset=".569" stop-color="#c7c7ef"></stop><stop offset=".579" stop-color="#bebeed"></stop></linearGradient><path d="M225.2 35.3V16.1 16c-.3-.1-.7.1-.7.5v19.2c0 .3.2.6.4.7l11.6 6.7c.2.1.6 0 .6-.3v-.1L225.6 36c-.2-.1-.4-.4-.4-.7z" fill="url(#AP)"></path><path d="M236.6 22.6L225.3 16h-.1v.1 19.2c0 .3.2.6.4.7l11.5 6.7V23.6c0-.5-.2-.8-.5-1z" class="V"></path><path d="M228.7 24.8c.9.5 1.6.1 1.6-.9s-.7-2.3-1.6-2.8v-.9c1.3.8 2.4 2.6 2.4 4.1s-1.1 2.1-2.4 1.4v-.9z" class="a"></path><path d="M228.7 20.2v.9c-.9-.5-1.6-.1-1.6.9l-.8-.4c.1-1.5 1.1-2.1 2.4-1.4zm2.8 10.4v.6c-.6-.4-1.1-.1-1.2.7l-.6-.3c.1-1.1.9-1.5 1.8-1zm-.1 5.2c1.6.9 2.8.2 2.8-1.6s-1.3-4-2.8-4.9v-1.6c2.3 1.4 4.2 4.6 4.2 7.3s-1.9 3.7-4.2 2.4v-1.6z" class="d"></path><path d="M228.7 30.9c0 1.8 1.2 4 2.8 4.9v1.6c-2.3-1.3-4.1-4.6-4.1-7.2-.1 0 1.3.7 1.3.7z" fill="#71d4ff"></path><defs><filter id="AQ" filterUnits="userSpaceOnUse" x="242.6" y="215.4" width="64" height="37.6"></filter></defs><mask maskUnits="userSpaceOnUse" x="242.6" y="215.4" width="64" height="37.6" id="AS"><g filter="url(#AQ)"><mask maskUnits="userSpaceOnUse" x="242.6" y="215.4" width="64" height="37.6" id="AS"></mask><linearGradient id="AT" gradientUnits="userSpaceOnUse" x1="299.03" y1="221.564" x2="238.387" y2="252.976"><stop offset=".409" stop-color="#fff"></stop><stop offset=".463" stop-color="#f9f9f9"></stop><stop offset=".535" stop-color="#e8e8e8"></stop><stop offset=".618" stop-color="#ccc"></stop><stop offset=".709" stop-color="#a4a4a4"></stop><stop offset=".807" stop-color="#727272"></stop><stop offset=".908" stop-color="#353535"></stop><stop offset=".988"></stop></linearGradient><path d="M306.6 227h-3.3v-1.1l-17.2-10.1c-.9-.5-2.4-.5-3.5.1L247 236.8v2.1h-4.5v1.1h0c0 .3.2.7.6.9l19.9 11.7c.9.5 2.4.5 3.5-.1l39.2-23c.6-.3.9-.8.8-1.2V227z" mask="url(#AS)" fill="url(#AT)"></path></g></mask><linearGradient id="AU" gradientUnits="userSpaceOnUse" x1="290.46" y1="234.225" x2="251.373" y2="234.225"><stop offset=".116" stop-color="#dd9fff"></stop><stop offset=".804" stop-color="#fff"></stop></linearGradient><path d="M306.6 227h-3.3v-1.1l-17.2-10.1c-.9-.5-2.4-.5-3.5.1L247 236.8v2.1h-4.5v1.1c0 .3.2.7.6.9l19.9 11.7c.9.5 2.4.5 3.5-.1l39.2-23c.6-.3.9-.8.8-1.2V227z" fill="url(#AU)"></path><path d="M263.1 251.5l-19.9-11.7c-.9-.5-.8-1.4.2-2l39.2-23c1-.6 2.6-.7 3.5-.1l19.9 11.7c.9.5.8 1.4-.2 2l-39.2 23c-1.1.5-2.7.6-3.5.1z" fill="#f7f7f9"></path><path d="M263.6 250.5l-18.9-11.1c-.8-.5-.7-1.4.2-1.9l37.3-21.9c1-.6 2.4-.6 3.3-.1l18.9 11.1c.8.5.7 1.4-.2 1.9l-37.3 21.9c-1 .5-2.5.6-3.3.1z" class="V"></path><linearGradient id="AV" gradientUnits="userSpaceOnUse" x1="262.454" y1="230.57" x2="286.873" y2="230.57"><stop offset=".016" stop-color="#fc31d3"></stop><stop offset="1" stop-color="#4dccef"></stop></linearGradient><path d="M284.2 234.8l.5.3c3.1-2 2.9-5.2-.4-7.1l-.8-.4c-3.5-2-9.2-2-12.7 0l-7.6 4.4c-.3.2-.5.3-.8.5l.5.3c.2-.2.5-.4.8-.5l7.6-4.4c3.2-1.9 8.4-1.9 11.7 0l.8.4c3 1.8 3.2 4.6.4 6.5z" fill="url(#AV)"></path><linearGradient id="AW" gradientUnits="userSpaceOnUse" x1="269.566" y1="238.778" x2="282.223" y2="238.778"><stop offset=".016" stop-color="#fc31d3"></stop><stop offset="1" stop-color="#4dccef"></stop></linearGradient><path d="M281.7 236.3l-5.5 3.2c-1.8 1-4.3 1.5-6.6 1.4l.8.4c2.3 0 4.6-.5 6.4-1.5l5.5-3.2-.6-.3z" fill="url(#AW)"></path><linearGradient id="AX" gradientUnits="userSpaceOnUse" x1="270.441" y1="228.112" x2="282.736" y2="228.112"><stop offset=".016" stop-color="#fc31d3"></stop><stop offset="1" stop-color="#4dccef"></stop></linearGradient><path d="M271.7 228.7c2.7-1.6 7.2-1.6 9.9 0l.6.4.5-.3-.6-.4c-3-1.8-7.9-1.8-10.9 0l-.7.4.5.3.7-.4z" fill="url(#AX)"></path><linearGradient id="AY" gradientUnits="userSpaceOnUse" x1="266.658" y1="235.382" x2="285.023" y2="235.382"><stop offset=".016" stop-color="#fc31d3"></stop><stop offset="1" stop-color="#4dccef"></stop></linearGradient><path d="M284.6 230.6l-.6.3c.7 1.4.1 2.9-1.8 4l-6.5 3.8c-2.3 1.4-5.9 1.5-8.6.6l-.5.3c3 1.1 7 .9 9.6-.6l6.5-3.8c2.2-1.3 2.8-3.1 1.9-4.6z" fill="url(#AY)"></path><linearGradient id="AZ" gradientUnits="userSpaceOnUse" x1="262.463" y1="234.184" x2="269.686" y2="234.184"><stop offset=".016" stop-color="#fc31d3"></stop><stop offset="1" stop-color="#4dccef"></stop></linearGradient><path d="M265.7 238.5l-.5-.3c-2.7-1.6-2.8-4.2 0-5.8l4.5-2.6-.5-.3-4.5 2.6c-3 1.7-3 4.6 0 6.3l.5.3.5-.2z" fill="url(#AZ)"></path><linearGradient id="Aa" gradientUnits="userSpaceOnUse" x1="268.76" y1="238.5" x2="275.685" y2="238.5"><stop offset=".016" stop-color="#fc31d3"></stop><stop offset="1" stop-color="#4dccef"></stop></linearGradient><path d="M275.2 237.9c-1.6.9-3.9 1.1-5.9.6l-.5.3c2.3.6 5 .4 6.9-.7l-.5-.2z" fill="url(#Aa)"></path><linearGradient id="Ab" gradientUnits="userSpaceOnUse" x1="276.93" y1="234.315" x2="283.173" y2="234.315"><stop offset=".016" stop-color="#fc31d3"></stop><stop offset="1" stop-color="#4dccef"></stop></linearGradient><path d="M283 231.5l-.6.4c.2 1-.3 2-1.6 2.8l-3.9 2.2.5.3 3.9-2.2c1.6-1 2.2-2.3 1.7-3.5z" fill="url(#Ab)"></path><linearGradient id="Ac" gradientUnits="userSpaceOnUse" x1="264.314" y1="232.334" x2="277.744" y2="232.334"><stop offset=".016" stop-color="#fc31d3"></stop><stop offset="1" stop-color="#4dccef"></stop></linearGradient><path d="M266.7 232.7l5.4-3.1c1.4-.8 3.3-1.1 5.1-.9l.6-.3c-2.1-.3-4.5 0-6.2 1l-5.4 3.1c-1.9 1.1-2.4 2.7-1.4 4.1l.6-.3c-.8-1.3-.3-2.7 1.3-3.6z" fill="url(#Ac)"></path><linearGradient id="Ad" gradientUnits="userSpaceOnUse" x1="271.876" y1="229.861" x2="279.329" y2="229.861"><stop offset=".016" stop-color="#fc31d3"></stop><stop offset="1" stop-color="#4dccef"></stop></linearGradient><path d="M272.5 230.4c1.7-1 4.6-1 6.3 0l.5-.3c-2-1.2-5.3-1.2-7.4 0l-.1.1.7.2h0z" fill="url(#Ad)"></path><linearGradient id="Ae" gradientUnits="userSpaceOnUse" x1="266.161" y1="234.361" x2="281.329" y2="234.361"><stop offset=".016" stop-color="#fc31d3"></stop><stop offset="1" stop-color="#4dccef"></stop></linearGradient><path d="M280.2 230.7l-.5.3c1.4 1 1.2 2.5-.4 3.4l-4.3 2.5c-1.8 1-4.6 1-6.4 0l-.4-.3c-1.8-1-1.8-2.7 0-3.7l.3-.2-.5-.3-.3.2c-2 1.2-2 3.1 0 4.3l.4.3c2 1.2 5.4 1.2 7.4 0l4.3-2.5c1.9-1.1 2-2.8.4-4z" fill="url(#Ae)"></path><linearGradient id="Af" gradientUnits="userSpaceOnUse" x1="268.013" y1="232.809" x2="279.481" y2="232.809"><stop offset=".016" stop-color="#fc31d3"></stop><stop offset="1" stop-color="#4dccef"></stop></linearGradient><path d="M277.8 234.2l-1.3.7.5.3 1.3-.7c1.5-.9 1.5-2.4 0-3.3l-.3-.2c-1.6-.9-4.1-.9-5.6 0l-3.2 1.9c-1.1.7-1.4 1.6-.9 2.4l.6-.3c-.3-.6 0-1.3.8-1.8l3.2-1.9c1.3-.7 3.3-.7 4.6 0l.3.2c1.3.7 1.3 1.9 0 2.7z" fill="url(#Af)"></path><linearGradient id="Ag" gradientUnits="userSpaceOnUse" x1="270.812" y1="236.222" x2="276.109" y2="236.222"><stop offset=".016" stop-color="#fc31d3"></stop><stop offset="1" stop-color="#4dccef"></stop></linearGradient><path d="M275.6 235.5l-1 .6c-.9.5-2.1.7-3.2.5l-.6.3c1.4.3 3.2.2 4.3-.5l1-.6-.5-.3z" fill="url(#Ag)"></path><linearGradient id="Ah" gradientUnits="userSpaceOnUse" x1="272.31" y1="233.642" x2="277.826" y2="233.642"><stop offset=".016" stop-color="#fc31d3"></stop><stop offset="1" stop-color="#4dccef"></stop></linearGradient><path d="M277 231.9l-.2-.1c-.8-.5-2-.6-3-.4l.6.3c.7-.1 1.4 0 2 .3l.2.1c.8.5.8 1.2 0 1.7l-2.2 1.3c-.4.2-.9.3-1.4.3l-.7.4c.9.1 1.9 0 2.5-.4l2.2-1.3c1.1-.5 1.1-1.5 0-2.2z" fill="url(#Ah)"></path><linearGradient id="Ai" gradientUnits="userSpaceOnUse" x1="282.352" y1="217.911" x2="285.336" y2="217.911"><stop offset=".016" stop-color="#fc31d3"></stop><stop offset="1" stop-color="#4dccef"></stop></linearGradient><path d="M284.9 218.5c-.6.3-1.5.3-2.1 0s-.6-.9 0-1.2 1.5-.3 2.1 0 .6.9 0 1.2z" fill="url(#Ai)"></path><path d="M150.8 233.6c0-7-5.7-12.8-12.7-12.8H45.3v-.2H30.7L91.8 256l3.1 1.8c12.9 7.5 33.7 7.5 46.5.1 6.9-4 10.1-9.4 9.5-14.7-.1.1-.1-4.5-.1-9.6z" opacity=".59" class="Y"></path><g class="W"><path d="M205.6 238.1l1.7 1c.3.2.5 0 .5-.4s-.2-.8-.5-1l-1.7-1c-.3-.2-.5 0-.5.4s.2.8.5 1zm30.6-21.2l1.7 1c.3.2.5 0 .5-.4s-.2-.8-.5-1l-1.7-1c-.3-.2-.5 0-.5.4-.1.4.2.8.5 1z"></path><path d="M241.2 253c-.5 0-1-.1-1.4-.4l-11.6-7c-.3-.2-.4-.4-.4-.8 0-.3.2-.6.4-.8l23.3-14.2a.55.55 0 0 0 .3-.5.55.55 0 0 0-.3-.5l-16.7-9.4c-.3-.2-.4-.4-.4-.7s.1-.6.4-.8l2.2-1.4.2.3-2.2 1.4a.55.55 0 0 0-.3.5.55.55 0 0 0 .3.5l16.7 9.4c.3.2.5.5.5.8s-.2.6-.4.8l-23.3 14.2a.55.55 0 0 0-.3.5.55.55 0 0 0 .3.5l11.6 7a2.44 2.44 0 0 0 2.6 0l10.2-6.5.2.3-10.2 6.5c-.6.1-1.1.3-1.7.3zm8.4-213l-2 1.2c-.2.1-.4 0-.4-.3s.2-.6.4-.7l2-1.2c.2-.1.4 0 .4.3-.1.2-.2.5-.4.7z"></path><path d="M193 102.3l-.2-.3 80.4-46.9c.2-.1.3-.4.3-.6 0-.3-.1-.5-.4-.6l-24.4-13.8.1-.3 24.4 13.8c.3.2.5.5.5.9s-.2.7-.5.9L193 102.3z"></path></g><linearGradient id="Aj" gradientUnits="userSpaceOnUse" x1="173.495" y1="218.935" x2="38.422" y2="218.935"><stop offset=".116" stop-color="#dd9fff"></stop><stop offset=".804" stop-color="#91bae7"></stop></linearGradient><path d="M145.9 217.4c-.5 4.7-3.9 9.2-10 12.8-13.5 7.8-35.5 7.8-49.1-.1-1.1-.7-3.3-1.9-3.3-1.9l-72-41.8c-4.5-2.9-6.8-6.6-7-10.2v24.5c-.3 4 2.1 8.1 7 11.3l72 41.8 3.3 1.9c13.6 7.9 35.6 7.9 49.1.1 7.3-4.2 10.6-9.9 10-15.5v-22.9z" fill="url(#Aj)"></path><path d="M11.6 186.4l72 41.8 3.3 1.9c13.6 7.9 35.6 7.9 49.1.1 6.1-3.6 9.5-8.1 10-12.8.6-5.6-2.7-11.4-10.2-15.7-2.5-1.5-5.3-2.6-8.3-3.6 4.7-9.1.8-19.4-11.7-26.6-16.2-9.4-41.5-10.4-59.5-2.9-1.3-1.4-3-2.8-5-4-10.8-6.2-28.1-6.3-38.8-.1-5.1 3-7.7 6.8-8 10.7v1c.2 3.7 2.6 7.3 7.1 10.2z" fill="#f0f0fc"></path><path d="M19.1 186.5l62.1 36s1.8 1.2 2.9 1.7c34.2 16.9 57.6.5 57.9-8.4.3-11.3-16.3-15.2-18.8-16 4-7.9 1.5-19.3-11.4-26.7-14-8.1-40.7-7.3-56.2-.8 0 0-3.4-3-6.4-5.1-8.9-6.1-23.8-5.6-33-.3-3.9 2.3-6.6 4.8-6.8 9.1-.3 4 6.3 8.3 9.7 10.5z" class="V"></path><g class="d"><path d="M72.6 209.8l.2.1 3.6-2.1-.2-.1z"></path><path d="M72.6 209.8l.2.1 4.6-2.7-.2-.1z"></path><path d="M72.6 209.8l.2.1 5.5-3.2-.2-.2z"></path><path d="M72.6 209.8l.2.1 6.5-3.8-.2-.1z"></path><path d="M72.6 209.7l.2.2 7.4-4.4-.2-.1z"></path><path d="M72.6 209.7l.2.2 8.4-4.9-.2-.1z"></path><path d="M72.6 209.7l.2.2 9.4-5.5-.3-.1z"></path><path d="M72.6 209.7l.2.2 10.3-6-.2-.2z"></path><path d="M72.6 209.7l.2.2 11.3-6.6-.2-.1zm-4.6-2.6l.2.1 11.3-6.5-.2-.1zm-4.5-2.6l.2.1L75 198l-.2-.1zm-4.6-2.7l.2.2 11.3-6.6-.2-.1zm-4.5-2.6l.2.1 11.3-6.5-.2-.2zm-4.6-2.6l.2.1 11.3-6.6-.2-.1zm-4.5-2.7l.2.1 11.3-6.5-.2-.1zm-4.6-2.6l.3.1 11.2-6.5-.2-.2z"></path></g><linearGradient id="Ak" gradientUnits="userSpaceOnUse" x1="-2236.473" y1="-4152.599" x2="-2203.853" y2="-4152.599" gradientTransform="matrix(-1 -0.5774 -0.866 0.5 -5755.1021 992.3599)"><stop offset=".016" stop-color="#fc31d3"></stop><stop offset="1" stop-color="#4dccef"></stop></linearGradient><path d="M48.2 186.8l-1.4 5.2c-.2.3-.1.8.4 1 .4.3 1.1.5 1.7.4l3.2-.3 3.2-.3c.3 0 .5-.1.7-.1s.5 0 .7.1c.4.1.8.3 1 .5l1.2 1.7a2.36 2.36 0 0 0 .9.8c.4.2.9.4 1.4.5.3 0 .6.1.8.1h.8l1.6.1 1.6.1h.8c.2 0 .4.1.6.2s.3.2.4.3 0 .3 0 .4l-.3.9-.5 1.8-.5 1.8c-.1.3-.1.7.2.9.1.1.3.3.5.4s.5.2.7.2l2.8.9c.9.3 1.5.9 1.6 1.5l.8 3.7-.7-3.7c-.1-.6-.7-1.2-1.6-1.5l-2.8-.9c-.2-.1-.5-.1-.7-.2s-.4-.2-.5-.3c-.2-.3-.3-.6-.2-.9l.6-1.8.6-1.8.3-.9c.1-.1.1-.3 0-.5s-.2-.3-.5-.4c-.2-.1-.5-.2-.8-.2H66l-1.6-.1-1.6-.1H62c-.3 0-.5 0-.7-.1-.5-.1-.9-.2-1.2-.4a1.85 1.85 0 0 1-.8-.7l-1.1-1.7c-.2-.3-.7-.6-1.3-.7-.3-.1-.6-.1-.9-.1s-.6 0-.8.1l-3.2.3-3.1.3c-.4 0-.8-.1-1.1-.3s-.3-.4-.2-.7l1.5-5.2c0-.1-.1-.3-.3-.3-.4-.3-.6-.2-.6 0h0z" fill="url(#Ak)"></path><g class="d"><use href="#u"></use><use href="#u" x="-1.1" y="0.6"></use><path d="M101.2 217.6c.1.1.3.1.4 0s.1-.2 0-.2c-.1-.1-.3-.1-.4 0s-.1.2 0 .2z"></path><use href="#u" x="-3.3" y="1.9"></use><path d="M99.1 218.9c.1.1.3.1.4 0s.1-.2 0-.2c-.1-.1-.3-.1-.4 0-.2 0-.2.2 0 .2z"></path><use href="#v"></use><use href="#v" x="-1.1" y="0.6"></use><path d="M95.8 220.8c.1.1.3.1.4 0s.1-.2 0-.2c-.1-.1-.3-.1-.4 0-.2.1-.2.2 0 .2z"></path><use href="#v" x="-3.3" y="1.9"></use><use href="#u" x="-9.8" y="5.7"></use><path d="M97.2 213l4.1 2.4.5-.4-4.1-2.3zm-1.1.6l4.1 2.4.6-.4-4.1-2.3z"></path><use href="#w"></use><path d="M90.7 212.9l7.5 4.3.5-.3-7.4-4.3z"></path><use href="#w" x="-4.8" y="0.6"></use><use href="#w" x="-5.8" y="1.2"></use><path d="M88.2 216l4.1 2.4.6-.3-4.1-2.4zm.6-8.5l8.4 4.9-.6.3-8.3-4.9zm-1 1.3l7.8 4.5.5-.3-7.7-4.5zm-1.1-.1l8.4 4.9-.5.3-8.4-4.9zm-1 .6l4.2 2.4-.6.4-4.2-2.5zm-1.9 1.1l6.5 3.8-.5.3-6.6-3.8zm-1.1.6l6.6 3.8-.6.3-6.5-3.8zm-1 .6l6.5 3.8-.5.3-6.5-3.8zm3 3.8l4.1 2.4.6-.3-4.1-2.4zm-4.3-3.1l4.3 2.5-.5.3-4.3-2.5zm-1 .6l8.9 5.2-.5.3-8.9-5.1zm-1.1.6l9 5.2-.5.3-9-5.1zm27.2 3.7l3.4 1.9-.6.4-3.3-2zm-1 .6l3.3 2-.5.3-3.3-2zm-2.1 1.2l5.1 2.9-.5.4-5.1-3zm3.2 4.1l-.5.3-4-2.3.5-.3zm5-3l-.5.4-1.2-.7.5-.3zm-1 .6l-.6.4-1.2-.7.6-.3zm-7.3 4.3l-.6.3-1.7-1 .6-.3zm-1.1.6l-.5.3-1.7-1 .5-.3z"></path></g><linearGradient id="Al" gradientUnits="userSpaceOnUse" x1="19.615" y1="176.897" x2="40.003" y2="176.897"><stop offset=".016" stop-color="#fc31d3"></stop><stop offset="1" stop-color="#4dccef"></stop></linearGradient><path d="M37.2 179.2c-3.2 1.8-8.3 1.8-11.4 0s-3.1-4.8 0-6.6h.1l-2.7-1.6h-.1c-4.7 2.7-4.7 7.1-.1 9.8s12.2 2.7 16.9 0h.1l-2.8-1.6h0z" fill="url(#Al)"></path><path d="M23.1 171.1l2.7 1.6c3.1-1.8 8.2-1.8 11.3 0l2.8-1.6c-4.7-2.7-12.2-2.7-16.8 0z" fill="#f0f0fc"></path><path d="M37.1 172.6c3.2 1.8 3.2 4.8.1 6.6l2.7 1.6c4.6-2.7 4.6-7.1 0-9.7 0-.1-2.8 1.5-2.8 1.5z" class="W"></path><path d="M139.1 214.2l-15.9 9.2-.2-.1 15.9-9.2zm-3.3-1.9l-15.9 9.2h-.1l15.9-9.3zm-3.3-2l-16 9.3-.1-.1 15.9-9.2zm-3.3-1.9l-15.9 9.3-.2-.1 16-9.2zm-2.8-1.6l-15.9 9.3-.1-.1 15.9-9.3zm-2.8-1.6l-15.9 9.2h-.2l16-9.3z" class="d"></path><linearGradient id="Am" gradientUnits="userSpaceOnUse" x1="-256.441" y1="-1203.92" x2="-256.441" y2="-1216.495" gradientTransform="matrix(-1.5 -0.2887 -0.866 0.5 -1306.4689 748.8132)"><stop offset=".016" stop-color="#fc31d3"></stop><stop offset="1" stop-color="#4dccef"></stop></linearGradient><path d="M120.9 220.9c.3.2.7.2.9 0l9.9-5.7c.2-.1.2-.4-.1-.5-.3-.2-.7-.2-.9 0l-9.9 5.7c-.2 0-.2.3.1.5z" fill="url(#Am)"></path><linearGradient id="An" gradientUnits="userSpaceOnUse" x1="-244.202" y1="-1210.939" x2="-244.202" y2="-1221.503" gradientTransform="matrix(-1.5 -0.2887 -0.866 0.5 -1306.4689 748.8132)"><stop offset=".016" stop-color="#fc31d3"></stop><stop offset="1" stop-color="#4dccef"></stop></linearGradient><path d="M108.6 213.8c.3.2.7.2.9 0l8.1-4.7c.2-.1.2-.4-.1-.5-.3-.2-.7-.2-.9 0l-8.1 4.7c-.2.1-.2.3.1.5z" fill="url(#An)"></path><linearGradient id="Ao" gradientUnits="userSpaceOnUse" x1="-249.838" y1="-1207.752" x2="-249.838" y2="-1215.901" gradientTransform="matrix(-1.5 -0.2887 -0.866 0.5 -1306.4689 748.8132)"><stop offset=".016" stop-color="#fc31d3"></stop><stop offset="1" stop-color="#4dccef"></stop></linearGradient><path d="M114.3 217c.3.2.7.2.9 0l6-3.5c.2-.1.2-.4-.1-.5-.3-.2-.7-.2-.9 0l-6 3.5c-.2.1-.2.4.1.5z" fill="url(#Ao)"></path><linearGradient id="Ap" gradientUnits="userSpaceOnUse" x1="-259.684" y1="-1202.983" x2="-259.684" y2="-1204.828" gradientTransform="matrix(-1.5 -0.2887 -0.866 0.5 -1306.4689 748.8132)"><stop offset=".016" stop-color="#fc31d3"></stop><stop offset="1" stop-color="#4dccef"></stop></linearGradient><path d="M124.9 222.3c.3.2.7.2.9 0l.6-.3c.2-.1.2-.4-.1-.5-.3-.2-.7-.2-.9 0l-.6.3c-.2.1-.2.3.1.5z" fill="url(#Ap)"></path><linearGradient id="Aq" gradientUnits="userSpaceOnUse" x1="-253.053" y1="-1207.43" x2="-253.053" y2="-1212.508" gradientTransform="matrix(-1.5 -0.2887 -0.866 0.5 -1306.4689 748.8132)"><stop offset=".016" stop-color="#fc31d3"></stop><stop offset="1" stop-color="#4dccef"></stop></linearGradient><path d="M118.8 218.1c.3.2.7.2.9 0l3.4-2c.2-.1.2-.4-.1-.5-.3-.2-.7-.2-.9 0l-3.4 2c-.2.1-.2.4.1.5z" fill="url(#Aq)"></path><path d="M84.4 188.5c-4.2-2.4-4.2-6.4 0-8.8s11-2.4 15.2 0 4.2 6.4 0 8.8c-4.1 2.5-10.9 2.5-15.2 0zm14.7-8.5c-3.9-2.3-10.3-2.3-14.2 0s-3.9 6 0 8.2c3.9 2.3 10.3 2.3 14.2 0 4-2.2 4-5.9 0-8.2z" class="d"></path><path d="M100.3 187.9c-.5-.3-1.3-.3-1.8 0-3.6 2-9.4 2-12.9 0-3.6-2.1-3.6-5.5 0-7.5 3.5-2 9.3-2.1 12.9 0 .6.3 1.3.3 1.8 0s.5-.7.1-1c-.1-.1-.1-.1-.2-.1-4.6-2.5-11.8-2.5-16.3.1s-4.5 6.9.1 9.6c4.5 2.6 11.8 2.7 16.3.1 0 0 .1 0 .1-.1.4-.3.4-.8-.1-1.1z" class="W"></path><path d="M77 192.9c-7.9-4.6-8-12.1-.1-16.6 7.9-4.6 20.8-4.5 28.7.1s8 12.1.1 16.6-20.7 4.5-28.7-.1zm27.9-16.2c-7.5-4.4-19.7-4.4-27.1 0-7.5 4.3-7.4 11.4.1 15.7 7.5 4.4 19.7 4.4 27.1 0 7.4-4.3 7.4-11.3-.1-15.7z" class="d"></path><linearGradient id="Ar" gradientUnits="userSpaceOnUse" x1="75.038" y1="184.563" x2="113.422" y2="184.563"><stop offset=".016" stop-color="#fc31d3"></stop><stop offset="1" stop-color="#4dccef"></stop></linearGradient><path d="M106.9 175.5c-8.6-5-22.5-5-31.1-.1h-.1c-.9.5-.9 1.4 0 1.9s2.4.5 3.3 0c0 0 .1 0 .1-.1 6.8-3.8 17.6-3.8 24.4.2 6.8 3.9 6.8 10.3.1 14.3-6.8 3.9-17.8 3.9-24.6 0a3.44 3.44 0 0 0-3.4 0c-.9.5-.9 1.4 0 1.9 8.7 5 22.7 5.1 31.3.1 8.7-5 8.7-13.2 0-18.2z" fill="url(#Ar)"></path><g class="W"><path d="M136.6 250.8l-2 1.2c-.2.1-.4 0-.4-.3s.2-.6.4-.7l2-1.2c.2-.1.4 0 .4.3s-.2.6-.4.7z"></path><path d="M161.1 266.2c-.9 0-1.9-.3-2.7-.8L135.6 251l.2-.3 22.8 14.4c1.5 1 3.5 1 5.1 0l42.8-27.4.2.3-42.8 27.4c-1 .5-1.9.8-2.8.8z"></path></g></svg>