<?xml version="1.0" encoding="UTF-8"?>
<svg id="new_crn" xmlns="http://www.w3.org/2000/svg" version="1.1" viewBox="0 0 292.3 549.6">
  <!-- Generator: Adobe Illustrator 29.5.1, SVG Export Plug-In . SVG Version: 2.1.0 Build 141)  -->
  <defs>
    <style>
      .st0, .st1 {
        fill: #fff;
      }

      .st1 {
        stroke-width: 1px;
      }

      .st1, .st2 {
        stroke: #bcbec0;
        stroke-miterlimit: 10;
      }

      .st3 {
        fill: #ed1c24;
      }

      .st2 {
        fill: none;
        stroke-width: 2px;
      }
    </style>
  </defs>
  <rect class="st1" x="10.5" y="10.4" width="271.3" height="528.8"/>
  <rect x="10.5" y="203.5" width="271.3" height="247.6"/>
  <path class="st0" d="M27.7,411.4l11.4-15.2c6.4,5.5,12.3,8.9,19.8,8.9s15.1-5.5,15.1-14.5h0c0-8.9-6.8-14.1-16-14.1s-9.7,1.4-13.6,3.1l-11.4-7.5,2.8-48.6h54.1v18.3h-37.1l-1.1,17.9c3.2-.8,6.4-1.4,11-1.4,16.8,0,31.3,9,31.3,31.2v.4c0,21-14.3,34-34.7,34s-23.2-4.7-31.6-12.6Z"/>
  <path class="st0" d="M101.4,373.9v-1.8c0-30.2,15.2-50.3,38.7-50.3s38.4,19.9,38.4,50.1v1.8c0,30.2-15.2,50.3-38.7,50.3s-38.4-19.9-38.4-50.1ZM157.6,373.6v-1.3c0-20.7-7.3-31.9-17.8-31.9s-17.5,10.9-17.5,31.8v1.3c0,20.8,7.2,31.9,17.8,31.9s17.5-11,17.5-31.8Z"/>
  <path class="st0" d="M187.4,373.9v-1.8c0-30.2,15.2-50.3,38.7-50.3s38.4,19.9,38.4,50.1v1.8c0,30.2-15.2,50.3-38.7,50.3s-38.4-19.9-38.4-50.1ZM243.6,373.6v-1.3c0-20.7-7.3-31.9-17.8-31.9s-17.5,10.9-17.5,31.8v1.3c0,20.8,7.2,31.9,17.8,31.9s17.5-11,17.5-31.8Z"/>
  <rect class="st2" x="10.5" y="10.4" width="271.3" height="528.8"/>
  <g>
    <g>
      <polygon points="32.9 45.4 39 45.4 39 65.1 40.6 65.1 40.6 45.4 46.8 45.4 46.8 43.9 32.9 43.9 32.9 45.4"/>
      <polygon points="63.5 53.7 52.3 53.7 52.3 43.9 50.6 43.9 50.6 65.1 52.3 65.1 52.3 55.2 63.5 55.2 63.5 65.1 65.2 65.1 65.2 43.9 63.5 43.9 63.5 53.7"/>
      <polygon points="72 63.7 72 55.2 82.1 55.2 82.1 53.7 72 53.7 72 45.4 83.2 45.4 83.2 43.9 70.4 43.9 70.4 65.1 83.3 65.1 83.3 63.7 72 63.7"/>
    </g>
    <path d="M86.8,54.7v-.3c0-6.4,4-10.8,9.6-10.8s5.2,1.1,6.8,2.8l-2.6,3.4c-1.3-1.3-2.6-2.1-4.3-2.1-2.8,0-4.9,2.6-4.9,6.7h0c0,4.3,2.2,6.9,5,6.9s2.9-.8,4.4-2.2l2.6,3.1c-1.9,2-3.9,3.2-7.2,3.2-5.6,0-9.3-4.3-9.3-10.7"/>
    <polygon points="106.3 43.9 110.7 43.9 110.7 52.4 117.6 52.4 117.6 43.9 122 43.9 122 65.1 117.6 65.1 117.6 56.5 110.7 56.5 110.7 65.1 106.3 65.1 106.3 43.9"/>
    <path d="M132.2,43.8h4.2l7.6,21.3h-4.5l-1.6-4.6h-7.3l-1.5,4.6h-4.4l7.6-21.3ZM136.5,56.6l-2.3-6.9-2.3,6.9h4.6Z"/>
    <polygon points="146.6 43.9 150.6 43.9 158.7 56.3 158.7 43.9 163 43.9 163 65.1 159.3 65.1 150.9 52.3 150.9 65.1 146.6 65.1 146.6 43.9"/>
    <polygon points="167.8 43.9 171.9 43.9 179.9 56.3 179.9 43.9 184.2 43.9 184.2 65.1 180.5 65.1 172.1 52.3 172.1 65.1 167.8 65.1 167.8 43.9"/>
    <polygon points="189 43.9 202.7 43.9 202.7 47.9 193.4 47.9 193.4 52.5 201.6 52.5 201.6 56.4 193.4 56.4 193.4 61.1 202.8 61.1 202.8 65.1 189 65.1 189 43.9"/>
    <polygon points="206.9 43.9 211.3 43.9 211.3 61.1 219.8 61.1 219.8 65.1 206.9 65.1 206.9 43.9"/>
    <g>
      <path d="M236.7,61.5c-1.7,1.7-3.4,2.5-5.5,2.5s-4-.9-5.3-2.6c-1.4-1.7-2.2-4.1-2.2-6.8h0c0-2.7.8-5.1,2.2-6.8,1.4-1.7,3.3-2.6,5.3-2.6s3.7.7,5.4,2.3h0s1-1.2,1-1.2h0s0,0,0,0c-1.4-1.3-3.3-2.6-6.4-2.6-5.3,0-9.2,4.6-9.2,10.9v.2c0,3.1.9,5.9,2.6,7.9,1.6,1.9,4,3,6.5,3s4.5-.9,6.6-2.8h0s-1-1.2-1-1.2h0Z"/>
      <path d="M255.4,46.7c-1.6-2-3.9-3.1-6.5-3.1s-4.9,1.1-6.5,3.1c-1.6,2-2.5,4.7-2.5,7.8v.2c0,3,.9,5.8,2.5,7.7,1.6,2,3.9,3.1,6.5,3.1s4.9-1.1,6.5-3.1c1.6-2,2.5-4.7,2.5-7.8v-.2c0-3-.9-5.8-2.5-7.7ZM256.3,54.4v.2c0,5.4-3.1,9.3-7.3,9.3s-3.9-.9-5.3-2.7c-1.3-1.7-2.1-4.1-2.1-6.7v-.2c0-5.4,3.1-9.3,7.3-9.3s3.9.9,5.2,2.7c1.3,1.7,2.1,4.1,2.1,6.7Z"/>
    </g>
    <rect class="st3" x="86.8" y="73.6" width="133.1" height="4.6"/>
    <rect class="st3" x="86.7" y="30.9" width="133.1" height="4.6"/>
    <path d="M258.8,63.4h0c0-1.5,1.2-2.7,2.7-2.7s2.7,1.2,2.7,2.7h0c0,1.5-1.2,2.7-2.7,2.7s-2.7-1.2-2.7-2.7ZM264,63.4h0c0-1.4-1.1-2.5-2.5-2.5s-2.5,1.1-2.5,2.5h0c0,1.4,1.1,2.5,2.5,2.5s2.5-1.1,2.5-2.5ZM260.4,61.9h1.3c.4,0,.6.1.8.3.1.1.2.3.2.5h0c0,.5-.3.7-.7.8l.9,1.1h-.5l-.8-1.1h-.7v1.1h-.4v-2.8ZM261.7,63.3c.4,0,.7-.2.7-.5h0c0-.3-.2-.5-.6-.5h-.8v1h.8Z"/>
  </g>
  <path class="st3" d="M24.6,141v-.2c0-23.9,18.4-42.7,43.3-42.7s27.6,7,34.8,17.1l-17.1,13.3c-4.7-5.9-10.1-9.6-17.9-9.6-11.5,0-19.6,9.7-19.6,21.7v.2c0,12.3,8.1,21.9,19.6,21.9s13.6-4,18.5-10l17.1,12.2c-7.7,10.7-18.2,18.5-36.4,18.5s-42.3-17.9-42.3-42.5"/>
  <path class="st3" d="M107.6,99.7h38.8c12.5,0,21.2,3.3,26.7,8.9,4.8,4.7,7.3,11,7.3,19.1v.2c0,12.5-6.7,20.9-16.9,25.2l19.6,28.6h-26.3l-16.5-24.9h-10v24.9h-22.8v-82.1ZM145.3,139.1c7.7,0,12.2-3.8,12.2-9.7v-.2c0-6.5-4.7-9.7-12.3-9.7h-14.9v19.7h15Z"/>
  <polygon class="st3" points="186.4 99.7 207.6 99.7 241.4 143.1 241.4 99.7 263.9 99.7 263.9 181.8 244 181.8 208.9 136.8 208.9 181.8 186.4 181.8 186.4 99.7"/>
  <path d="M268.3,178.2h0c0-2.2,1.8-4.1,4.1-4.1s4.1,1.8,4.1,4.1h0c0,2.2-1.8,4.1-4.1,4.1s-4.1-1.8-4.1-4.1ZM276.1,178.2h0c0-2.1-1.6-3.7-3.7-3.7s-3.7,1.7-3.7,3.7h0c0,2.1,1.6,3.7,3.7,3.7s3.7-1.7,3.7-3.7ZM270.8,176h1.9c.5,0,1,.2,1.2.4.2.2.3.5.3.8h0c0,.7-.5,1.1-1.1,1.2l1.3,1.7h-.8l-1.2-1.6h-1.1v1.6h-.6v-4.2ZM272.6,178c.6,0,1-.3,1-.7h0c0-.5-.4-.7-1-.7h-1.2v1.5h1.2Z"/>
  <g>
    <path class="st3" d="M37.5,514.7l18.3-16.1c7.7-6.9,10.5-10.8,10.5-15.8s-4.7-9.6-10.2-9.6-9.5,3-13.5,8.6l-4.2-3c4.5-6.8,9.3-10.7,18.1-10.7s15.6,6,15.6,14.3h0c0,7.5-3.9,12-12.7,19.7l-13.5,12h26.7v5.2h-35.2v-4.4Z"/>
    <path class="st3" d="M96,494h0c0-14.3,8.4-26.2,21.4-26.2s21.2,11.8,21.2,25.9h0c0,14.3-8.4,26.2-21.3,26.2s-21.2-11.8-21.2-25.9ZM132.7,494h0c0-11.2-6-21-15.4-21s-15.3,9.6-15.3,20.7h0c0,11.2,6,21,15.5,21s15.3-9.7,15.3-20.7Z"/>
    <path class="st3" d="M160.2,514.7l18.3-16.1c7.7-6.9,10.5-10.8,10.5-15.8s-4.7-9.6-10.2-9.6-9.5,3-13.5,8.6l-4.2-3c4.5-6.8,9.3-10.7,18.1-10.7s15.6,6,15.6,14.3h0c0,7.5-3.9,12-12.7,19.7l-13.5,12h26.7v5.2h-35.2v-4.4Z"/>
    <path class="st3" d="M218.1,512l3.7-4.1c4.4,4.2,9.2,6.9,14.3,6.9s12.2-4.8,12.2-11.2h0c0-6.4-5.2-10.7-12.5-10.7s-7.6,1.3-10.6,2.9l-3.8-2.5,1.4-24.6h29v5.3h-24l-1.1,16.1c3-1.3,5.8-2.2,9.9-2.2,9.8,0,17.4,5.8,17.4,15.4h0c0,10-7.5,16.7-18,16.7s-13.5-3.5-18-8Z"/>
  </g>
  <g>
    <path class="st0" d="M28.8,257.2l4-4.7c2.7,2.3,5.6,3.7,9.1,3.7s4.4-1.1,4.4-2.9h0c0-1.8-1-2.7-6.1-4-6.1-1.6-10.1-3.3-10.1-9.3h0c0-5.6,4.4-9.3,10.7-9.3s8.2,1.4,11.3,3.9l-3.5,5c-2.7-1.9-5.4-3-7.9-3s-3.9,1.2-3.9,2.7h0c0,2.1,1.3,2.7,6.6,4.1,6.2,1.6,9.7,3.8,9.7,9.1h0c0,6.1-4.6,9.5-11.2,9.5s-9.3-1.6-12.9-4.9Z"/>
    <path class="st0" d="M57.4,246.5h0c0-8.7,6.8-15.8,16.2-15.8s16.1,7,16.1,15.7h0c0,8.7-6.8,15.8-16.2,15.8s-16.1-7-16.1-15.7ZM82.7,246.5h0c0-5.3-3.8-9.7-9.2-9.7s-9.1,4.3-9.1,9.5h0c0,5.3,3.8,9.7,9.2,9.7s9.1-4.3,9.1-9.5Z"/>
    <path class="st0" d="M95.7,231.2h6.7v24.4h15.2v6.1h-21.9v-30.5Z"/>
    <path class="st0" d="M121.3,248.6v-17.4h6.7v17.2c0,5,2.5,7.5,6.6,7.5s6.6-2.5,6.6-7.3v-17.4h6.7v17.2c0,9.2-5.2,13.7-13.4,13.7s-13.2-4.6-13.2-13.5Z"/>
    <path class="st0" d="M161.7,237.4h-9.3v-6.2h25.2v6.2h-9.3v24.3h-6.7v-24.3Z"/>
    <path class="st0" d="M183.1,231.2h6.7v30.5h-6.7v-30.5Z"/>
    <path class="st0" d="M196.1,246.5h0c0-8.7,6.8-15.8,16.2-15.8s16.1,7,16.1,15.7h0c0,8.7-6.8,15.8-16.2,15.8s-16.1-7-16.1-15.7ZM221.5,246.5h0c0-5.3-3.8-9.7-9.2-9.7s-9.1,4.3-9.1,9.5h0c0,5.3,3.8,9.7,9.2,9.7s9.1-4.3,9.1-9.5Z"/>
    <path class="st0" d="M234.4,231.2h6.2l14.3,18.8v-18.8h6.6v30.5h-5.7l-14.7-19.4v19.4h-6.6v-30.5Z"/>
    <path class="st0" d="M31.1,273.3h12.4c7.3,0,11.7,4.3,11.7,10.5h0c0,7.1-5.5,10.8-12.3,10.8h-5.1v9.1h-6.7v-30.5ZM43.1,288.6c3.3,0,5.3-2,5.3-4.6h0c0-3.1-2.1-4.7-5.4-4.7h-5.2v9.3h5.3Z"/>
    <path class="st0" d="M60.2,273.3h13.9c3.9,0,6.9,1.1,8.9,3.1,1.7,1.7,2.6,4.1,2.6,7h0c0,5-2.7,8.1-6.5,9.5l7.4,10.9h-7.8l-6.5-9.7h-5.3v9.7h-6.7v-30.5ZM73.7,288.1c3.3,0,5.1-1.7,5.1-4.3h0c0-3-2-4.4-5.3-4.4h-6.7v8.7h6.8Z"/>
    <path class="st0" d="M90.3,288.6h0c0-8.7,6.8-15.8,16.2-15.8s16.1,7,16.1,15.7h0c0,8.7-6.8,15.8-16.2,15.8s-16.1-7-16.1-15.7ZM115.7,288.6h0c0-5.3-3.8-9.7-9.2-9.7s-9.1,4.3-9.1,9.5h0c0,5.3,3.8,9.7,9.2,9.7s9.1-4.3,9.1-9.5Z"/>
    <path class="st0" d="M124.1,273.3h7.4l8,21.4,8-21.4h7.2l-12.3,30.7h-5.9l-12.3-30.7Z"/>
    <path class="st0" d="M159.6,273.3h6.7v30.5h-6.7v-30.5Z"/>
    <path class="st0" d="M173.9,273.3h11.9c9.6,0,16.2,6.6,16.2,15.1h0c0,8.7-6.6,15.3-16.2,15.3h-11.9v-30.5ZM185.8,297.7c5.5,0,9.2-3.7,9.2-9.1h0c0-5.5-3.7-9.3-9.2-9.3h-5.2v18.4h5.2Z"/>
    <path class="st0" d="M207.9,273.3h23v6h-16.3v6.2h14.4v6h-14.4v6.4h16.5v6h-23.2v-30.5Z"/>
    <path class="st0" d="M237.1,273.3h13.9c3.9,0,6.9,1.1,8.9,3.1,1.7,1.7,2.6,4.1,2.6,7h0c0,5-2.7,8.1-6.5,9.5l7.4,10.9h-7.8l-6.5-9.7h-5.3v9.7h-6.7v-30.5ZM250.6,288.1c3.3,0,5.1-1.7,5.1-4.3h0c0-3-2-4.4-5.3-4.4h-6.7v8.7h6.8Z"/>
  </g>
</svg>