<?xml version="1.0" encoding="UTF-8"?>
<svg id="Layer_1" xmlns="http://www.w3.org/2000/svg" version="1.1" viewBox="0 0 244.4 448">
  <!-- Generator: Adobe Illustrator 29.4.0, SVG Export Plug-In . SVG Version: 2.1.0 Build 152)  -->
  <defs>
    <style>
      .st0 {
        fill: #fff;
      }

      .st1 {
        stroke: #7d4193;
        stroke-width: .1px;
      }

      .st1, .st2 {
        fill: #7d4193;
      }

      .st3 {
        fill: #7d4192;
      }

      .st4 {
        fill: #fcba63;
      }

      .st5 {
        fill: none;
        stroke: #fff;
      }
    </style>
  </defs>
  <g>
    <rect class="st4" x="174.5" y="248.3" width="65.1" height="49.2"/>
    <path class="st4" d="M10.6,296.2v-34.2h3.1c6.1,0,9.4.5,12.8,1.8,7,2.7,11.4,8.6,11.4,15.3,0,10.4-8.1,18.3-18.7,18.3s-5.1-.3-8.4-1.2ZM1.1,298.5c6.5,0,13,.5,19.5.5,12.3,0,21.5-8.1,21.5-19s-5.8-16.4-15.8-18.8c3.8-1.1,5.8-3.6,5.8-7.4s-4.6-8.7-12.1-8.7-13,.9-19.5.9v1.4h1.2c4.3,0,4.6.3,4.6,6.4v43.2H1.1v1.4ZM10.6,260.5v-12.7c2.6-.8,5.6-1.3,8-1.3,5.5,0,9,2.8,9,7s-3,7-8.5,7h-8.5Z"/>
    <path class="st4" d="M41.9,298.5v-1.3h6.4v-39.1c0-5.5-.2-5.8-5.6-5.8h-1.7v-1.2h33.2v-3h2v15.9h-2c0-10.7-3.8-11.7-18.5-11.7h-1.9v11.7h9v-7.3h2v17.6h-2c0-4.1-.1-8.8-7.6-8.8s-.8,0-1.3,0v31.6c13.7,0,20.3,0,20.3-10.7v-2.4h2v17.4h-2v-3h-32.4Z"/>
    <path class="st4" d="M115,271.8v-8.4c0-7.3-2.6-10.6-8.4-10.6s-8.7,3.6-8.7,8.2c0,14.6,31,14.4,31,33.3s-11.1,20.8-24.6,20.8-24-8.4-24-20.2,7.7-17.6,17.2-17.6,12.6,4.3,12.6,10.3-3.1,7.1-7,7.1-1.2,0-2.3-.5l.5-1.8c2.9-.7,4.4-2.6,4.4-5.3s-4.1-7.3-8.8-7.3c-7.1,0-12.8,6.6-12.8,14.9s9,18.2,20.1,18.2,20.2-7.7,20.2-17.3c0-16.8-30.1-15.2-30.1-33s5.8-12,13.6-12,4,.5,6.8,1.5v-3.7h1.8v23.7h-1.8Z"/>
    <path class="st4" d="M165.5,267.3h-2v-3c0-4.8-1.3-8.3-3.7-10-3.2-2.1-7.6-1.8-11.7-1.9v39.1c0,5.5.2,5.8,5.7,5.8h4.1v1.3h-21.4v-1.3h5.9v-44.9c-12.6,0-15.4,2-15.4,12v3h-2v-18.5h2v2.3h36.4v-2.3h2v18.5Z"/>
    <path class="st4" d="M7,342v-25.6h2.1c4.1,0,6.4.3,8.7,1.4,4.8,2,7.8,6.4,7.8,11.5,0,7.7-5.5,13.6-12.8,13.6s-3.5-.2-5.8-.9ZM.5,343.7c4.4,0,8.9.4,13.3.4,8.4,0,14.7-6,14.7-14.2s-4-12.2-10.8-14.1c2.6-.8,4-2.7,4-5.6s-3.2-6.5-8.3-6.5-8.9.6-13.3.6v1.1h.8c2.9,0,3.1.2,3.1,4.8v32.3H.5v1.1ZM7,315.4v-9.5c1.8-.6,3.8-.9,5.5-.9,3.7,0,6.2,2.1,6.2,5.2s-2,5.2-5.8,5.2h-5.8Z"/>
    <path class="st4" d="M36.4,332.7v-20.2c2.9-3.1,5.8-4.4,9.7-4.4,8.1,0,14.9,6.6,14.9,14.5s-6.1,13.6-13.4,13.6-6.7-1.5-10.6-4.3l-.6.9ZM65.7,343.1l-.5-.6c-.7.3-1.7.6-2.8.6-4.2,0-11.2-3.9-15-5.7,9.3-.4,16.5-7.3,16.5-15.9s-7.5-15.2-16.5-15.2-6.8,1.1-11,3.9v-3.5h-7v1h.7c2.9,0,3.1.2,3.1,4.5v30.5h-3.2v1h11.6v-1h-2.3c-2.9,0-3-.2-3-4.5v-3.4c6.2,4,17.7,9.5,25.2,9.5s2.9-.3,4.1-1.3Z"/>
    <path class="st4" d="M72.3,338.3c0,4.3.1,4.5,3.1,4.5h.6v1h-10v-1h3.2v-30.5c0-4.3-.2-4.5-3.1-4.5h-.7v-1h10.1v1h-3.2v30.5Z"/>
    <path class="st4" d="M112.3,335.6c0,1.7,0,1.8.9,2.7-4.3,3.9-9.5,6.6-15.5,6.6-11.4,0-20.3-8.5-20.3-19.5s9.6-19.7,21.4-19.7,6.3.7,10.3,2.7v-3.3h1.1v13.6h-1.1c0-2,0-4.2-.7-6.1-1-3.1-5.5-5.4-10.5-5.4-9.8,0-17.7,7.7-17.7,17.4s8.4,19,18.2,19,7.5-1.2,10.6-3.7c.1-.9.1-1.8.1-2.7,0-3.6-.2-3.8-3.7-3.8h-1.9v-1h12.6v1h-3.8v2.4Z"/>
    <path class="st4" d="M123.5,318.3v20c0,4.3.2,4.5,3.1,4.5h.6v1h-10.1v-1h3.3v-30.5c0-4.3-.1-4.5-3.1-4.5h-.6v-1h9.6v1h-2.8v9.2h12v-4.7c0-4.3-.1-4.5-3.1-4.5h-.7v-1h10.1v1h-3.2v30.5c0,4.3.2,4.5,3.1,4.5h.6v1h-9.6v-1h2.7v-24.4h-12Z"/>
    <path class="st4" d="M166.5,319.4h-1.1v-2.3c0-3.8-.7-6.5-2-7.8-1.8-1.6-4.2-1.4-6.4-1.5v30.5c0,4.3.1,4.5,3.1,4.5h2.3v1h-11.7v-1h3.2v-35c-6.9,0-8.4,1.6-8.4,9.3v2.3h-1.1v-14.4h1.1v1.8h20v-1.8h1.1v14.4Z"/>
    <path class="st4" d="M168.9,343.8v-1h3.5v-30.5c0-4.3-.1-4.5-3.1-4.5h-.9v-.9h18.2v-2.3h1.1v12.4h-1.1c0-8.3-2.1-9.2-10.1-9.2h-1v9.2h4.9v-5.7h1.1v13.7h-1.1c0-3.2,0-6.9-4.2-6.9s-.5,0-.7,0v24.6c7.5,0,11.1,0,11.1-8.4v-1.9h1.1v13.6h-1.1v-2.3h-17.8Z"/>
    <path class="st4" d="M210.6,318.8v-5.1c0-4.4-1.6-6.4-5-6.4s-5.2,2.2-5.2,4.9c0,8.8,18.7,8.7,18.7,20.1s-6.7,12.5-14.8,12.5-14.4-5.1-14.4-12.2,4.6-10.6,10.3-10.6,7.6,2.6,7.6,6.2-1.9,4.3-4.2,4.3-.7,0-1.4-.3l.3-1.1c1.7-.4,2.7-1.6,2.7-3.2s-2.5-4.4-5.3-4.4c-4.3,0-7.7,4-7.7,9s5.4,11,12.1,11,12.2-4.7,12.2-10.4c0-10.2-18.1-9.2-18.1-19.9s3.5-7.3,8.2-7.3,2.4.3,4.1.9v-2.2h1.1v14.3h-1.1Z"/>
    <path class="st4" d="M237.2,319.4h-1.1v-2.3c0-3.8-.7-6.5-2-7.8-1.8-1.6-4.2-1.4-6.4-1.5v30.5c0,4.3.1,4.5,3.1,4.5h2.3v1h-11.7v-1h3.2v-35c-6.9,0-8.4,1.6-8.4,9.3v2.3h-1.1v-14.4h1.1v1.8h20v-1.8h1.1v14.4Z"/>
    <rect class="st2" x=".9" y="352" width="238.7" height="33.7"/>
    <path class="st0" d="M43.2,365.4c-1.8-1.3-3.2-1.9-4.9-1.9-3.2,0-5.7,2.9-5.7,6.8s2.3,6.7,5.8,6.7,3.4-.7,5-2v2.8c-1.4.9-2.9,1.5-5.2,1.5-5.3,0-7.7-5.1-7.7-8.8,0-5.4,3.3-9.4,7.8-9.4s2.9.4,4.9,1.5v2.7Z"/>
    <path class="st0" d="M55.7,370.3c0-3.9,2.4-6.8,5.5-6.8s5.6,2.9,5.6,6.8-2.4,6.8-5.6,6.8-5.5-2.9-5.5-6.8ZM53.6,370.3c0,4.8,2.9,9.1,7.6,9.1s7.7-4.3,7.7-9.1-3-9.1-7.7-9.1-7.6,4.2-7.6,9.1Z"/>
    <path class="st0" d="M92.9,379.2h-2v-13.8h0l-4.4,6.9h-.3l-4.4-6.9h0v13.8h-2v-17.7h1.9l4.7,7.3,4.7-7.3h1.9v17.7Z"/>
    <path class="st0" d="M106.3,363.7h2.4c1.9,0,2.4,1.4,2.4,2.7s-1,2.8-2.5,2.8h-2.3v-5.5ZM104.2,361.4v17.7h2v-7.7h2.1c3.3,0,4.8-2.2,4.8-5s-1.4-5.1-4.5-5.1h-4.4Z"/>
    <path class="st0" d="M126.5,365.2l2.3,6.4h-4.4l2.1-6.4ZM127.2,361.3h-1.4l-6.1,17.8h2.1l1.8-5.2h6l1.9,5.2h2.1l-6.4-17.8Z"/>
    <path class="st0" d="M156.6,379.2h-1.8l-9.5-13.6v13.6h-1.9v-17.7h1.6l9.6,13.8v-13.8h1.9v17.7Z"/>
    <path class="st0" d="M170.2,379.2h-2v-17.7h2v17.7Z"/>
    <path class="st0" d="M189.7,363.7h-6v5.4h5.8v2.3h-5.8v5.5h6.2v2.3h-8.3v-17.7h8.1v2.3Z"/>
    <path class="st0" d="M207.2,365.3c-1.2-1.4-2.4-1.8-3.3-1.8s-2.3.8-2.3,2.1c0,3.4,6.2,3.4,6.2,9s-1.7,4.8-4,4.8-2.8-.5-4-1.6v-3.2c1,1.7,2.4,2.6,3.7,2.6s2.3-1.2,2.3-2.2c0-3.7-6.1-4.1-6.1-9s1.7-4.7,4.3-4.7,2.2.4,3.2,1.3v2.9Z"/>
    <path class="st1" d="M191.6,270.5l1.7,4.7h-3.2l1.5-4.7ZM192.2,267.7h-1.1l-4.5,13h1.5l1.3-3.8h4.4l1.4,3.8h1.5l-4.6-13Z"/>
    <path class="st1" d="M211.3,280.7h-1.3l-6.9-10v10h-1.4v-13h1.2l7,10v-10h1.4v13Z"/>
    <path class="st1" d="M218.9,269.4h2.3c2.9,0,4.2,2.2,4.2,4.8s-.8,4.8-4.2,4.8h-2.4v-9.6ZM217.4,280.7h4c3.4,0,5.5-3.1,5.5-6.5s-1.7-6.5-5.5-6.5h-4v13Z"/>
  </g>
  <g>
    <path class="st2" d="M195.9,175.1v-16.8h-5.7v-2.7h-8.7v15.9h-2.2V54.6l-13.1-5.3-23.2,5.5v131.8h-5.6v-78.1l-12.7-17.9-11,17.5v78.5h-5v-30.9l-18.1-16.3-7.7,16v31h-4v-18.9h-3l-8.6-4.3v-4.4h-14.3v4.5h-6.6v20.4h-1.8v-75.3h-6.5v-38.5h-2.8v-3.4h-5.4v-30.1l-6.5-2.7L22.3.1h-.9l-1.2,33.5-2.7,1L16.2,2h-.8l-1,33.7-5.1,2.4v29h-2.4v41.4H1.1v128s10,7.7,32.8,2.7c22.8-5,30.9-10.4,30.9-10.4,0,0,13.9,6.6,29.4,7,15.5.4,32.5-4.2,32.5-4.2,0,0,9.3,5.8,29,4.2,19.7-1.5,31.7-7,31.7-7,0,0,6.6,5.8,23.6,8.5,17,2.7,28.2-1.5,28.2-1.5v-47.7s-9.8-107.7-9.8-107.7l-5.8-3.4-2.9-34.7h-1l-1.7,34-3.7,1.3-1.3-33.6h-1.4l-2.2,35.5-4.5,2.1-5.4,93.8h-3.5Z"/>
    <path class="st3" d="M204.4,211.9"/>
    <rect class="st0" x="183.8" y="162.5" width="1.6" height="2.3"/>
    <rect class="st0" x="186.3" y="175.4" width="1.6" height="2.3"/>
    <rect class="st0" x="191" y="177.9" width="1.6" height="2.3"/>
  </g>
  <rect class="st0" x="147.6" y="105.1" width="1.4" height="2.9"/>
  <rect class="st0" x="152.4" y="153.2" width="1.4" height="2.9"/>
  <rect class="st0" x="151.3" y="102.2" width="1.4" height="2.9"/>
  <rect class="st0" x="117.6" y="123" width="1.4" height="2.9"/>
  <rect class="st0" x="92.6" y="169.6" width="1.4" height="2.9"/>
  <rect class="st0" x="89.1" y="172.5" width="1.4" height="2.9"/>
  <rect class="st0" x="33.7" y="165.3" width="1.4" height="2.9"/>
  <rect class="st0" x="27.6" y="162.1" width="1.4" height="2.9"/>
  <rect class="st0" x="92.4" y="178.2" width="1.4" height="2.9"/>
  <rect class="st0" x="121.3" y="120" width="1.4" height="2.9"/>
  <rect class="st0" x="157" y="105.2" width="1.4" height="2.9"/>
  <rect class="st0" x="133.5" y="140" width="1.4" height="2.9"/>
  <rect class="st0" x="27.6" y="117.5" width="1.4" height="2.9"/>
  <rect class="st0" x="31.3" y="114.6" width="1.4" height="2.9"/>
  <rect class="st0" x="37" y="117.6" width="1.4" height="2.9"/>
  <rect class="st0" x="34.3" y="135.3" width="1.4" height="2.9"/>
  <rect class="st0" x="40.1" y="138.4" width="1.4" height="2.9"/>
  <rect class="st0" x="146" y="57.2" width="1.4" height="2.8"/>
  <rect class="st0" x="149.7" y="54.4" width="1.4" height="3.3"/>
  <rect class="st0" x="152.2" y="56.3" width="1.4" height="2.9"/>
  <rect class="st0" x="156.6" y="53.4" width="1.4" height="2.9"/>
  <rect class="st0" x="163.3" y="51.2" width="1.4" height="2.9"/>
  <rect class="st0" x="170" y="54.2" width="1.4" height="2.9"/>
  <rect class="st0" x="175.8" y="57.3" width="1.4" height="2.9"/>
  <rect class="st0" x="170.7" y="138.9" width="1.4" height="2.9"/>
  <rect class="st0" x="174.4" y="136" width="1.4" height="2.9"/>
  <polyline class="st5" points="26.6 66.5 23.4 66.5 23.4 77.8"/>
  <line class="st5" x1="23.4" y1="81.4" x2="23.4" y2="85"/>
  <line class="st5" x1="23.4" y1="88.6" x2="23.4" y2="130.7"/>
  <line class="st5" x1="221.1" y1="120.4" x2="220.9" y2="115.5"/>
  <line class="st5" x1="220.9" y1="112.7" x2="220.4" y2="87.2"/>
  <line class="st5" x1="219" y1="162.4" x2="204.4" y2="132.5"/>
  <line class="st5" x1="165.8" y1="166" x2="165.8" y2="135.5"/>
  <line class="st5" x1="165.8" y1="130.5" x2="165.8" y2="126.1"/>
  <line class="st5" x1="165.9" y1="121" x2="165.9" y2="60.6"/>
  <line class="st5" x1="125.8" y1="175.6" x2="125.8" y2="145.1"/>
  <line class="st5" x1="125.9" y1="140.1" x2="125.9" y2="135.8"/>
  <line class="st5" x1="125.9" y1="130.6" x2="125.9" y2="111.5"/>
  <polyline class="st5" points="84.4 156.5 100.9 169.1 108.2 156.4"/>
  <line class="st5" x1="22" y1="34.4" x2="22" y2="61.1"/>
  <line class="st5" x1="217.7" y1="126.3" x2="211.6" y2="143.1"/>
  <line class="st5" x1="210" y1="147" x2="202.2" y2="168.4"/>
  <line class="st5" x1="223.4" y1="114" x2="228.6" y2="97.4"/>
  <line class="st5" x1="222.6" y1="94.4" x2="225.5" y2="103.9"/>
  <line class="st5" x1="227" y1="107.1" x2="230.5" y2="117"/>
  <line class="st5" x1="221.8" y1="157.7" x2="221.2" y2="123.2"/>
  <g>
    <path class="st0" d="M24.6,205.5c-2-1.4-3.7-2-5.6-2-3.7,0-6.5,3.1-6.5,7.3s2.7,7.3,6.6,7.3,3.8-.8,5.7-2.2v3c-1.6,1-3.3,1.7-5.9,1.7-6.1,0-8.8-5.5-8.8-9.5,0-5.8,3.7-10.1,8.9-10.1s3.4.5,5.6,1.6v2.9Z"/>
    <path class="st0" d="M53.3,220.3h-2.3v-8.3h-9.1v8.3h-2.3v-19.1h2.3v8.3h9.1v-8.3h2.3v19.1Z"/>
    <path class="st0" d="M71.1,220.3h-2.3v-19.1h2.3v19.1Z"/>
    <path class="st0" d="M100.4,205.5c-2-1.4-3.7-2-5.6-2-3.7,0-6.5,3.1-6.5,7.3s2.7,7.3,6.6,7.3,3.8-.8,5.7-2.2v3c-1.6,1-3.3,1.7-5.9,1.7-6.1,0-8.8-5.5-8.8-9.5,0-5.8,3.7-10.1,8.9-10.1s3.4.5,5.6,1.6v2.9Z"/>
    <path class="st0" d="M130,220.3h-2.4l-2.2-5.6h-6.9l-2,5.6h-2.4l7-19.2h1.6l7.3,19.2ZM119.5,212.2h5l-2.6-6.9-2.4,6.9Z"/>
    <path class="st0" d="M157,219c-2.2,1.1-3.9,1.6-6.2,1.6-5,0-8.6-4.1-8.6-9.7s3.8-9.9,8.7-9.9,3.2.4,5.8,1.6v2.8c-1.9-1.2-3.9-1.9-5.8-1.9-3.5,0-6.3,3.2-6.3,7.3s2.7,7.3,6.6,7.3,2.4-.3,3.5-.8v-3.9h-3.1v-2.5h5.5v8.1Z"/>
    <path class="st0" d="M180.3,201c5.4,0,8.7,4.5,8.7,9.8s-3.3,9.8-8.8,9.8-8.7-4.6-8.7-9.8,3.5-9.8,8.7-9.8ZM180.3,218c3.6,0,6.3-3.1,6.3-7.3s-2.7-7.3-6.3-7.3-6.3,3.1-6.3,7.3,2.7,7.3,6.3,7.3Z"/>
    <path class="st0" d="M203.2,203.5v-3.3h2.1v3.3l-.5,3.8h-1l-.5-3.8Z"/>
    <path class="st0" d="M227.9,205.4c-1.4-1.5-2.7-2-3.8-2s-2.6.9-2.6,2.3c0,3.7,7,3.6,7,9.7s-1.9,5.2-4.5,5.2-3.2-.6-4.5-1.8v-3.5c1.2,1.8,2.7,2.8,4.3,2.8s2.6-1.3,2.6-2.4c0-3.9-7-4.4-7-9.6s2-5.1,4.9-5.1,2.5.4,3.6,1.3v3.1Z"/>
  </g>
  <rect class="st0" x="50.8" y="173.8" width="1.4" height="2.9"/>
  <rect class="st0" x="54.4" y="170.8" width="1.4" height="2.9"/>
  <rect class="st0" x="60.2" y="173.9" width="1.4" height="2.9"/>
  <path class="st4" d="M241.4,311c-1.6,0-2.9-1.3-2.9-2.9s1.3-2.9,2.9-2.9,3,1.3,3,2.9-1.3,2.9-3,2.9ZM241.4,305.6c-1.4,0-2.5,1.1-2.5,2.5s1.1,2.5,2.5,2.5,2.5-1.1,2.5-2.5-1.1-2.5-2.5-2.5ZM240.2,306.5h1.4c.8,0,1,.5,1,.8,0,.5-.4.9-.9.9h0c.3.1.5.4.7.8l.4.6h-.6l-.3-.5c-.4-.7-.6-.8-.9-.8h-.3v1.3h-.5v-3.2ZM241.4,307.9c.4,0,.7-.2.7-.5s-.2-.5-.6-.5h-.8v1h.7Z"/>
  <path class="st2" d="M24.1,394.7h-4.9v15.5h-2v-15.5h-4.9v-2.3h11.9v2.3Z"/>
  <path class="st2" d="M34.5,401.3c0-3.9,2.4-6.8,5.5-6.8s5.5,2.9,5.5,6.8-2.4,6.8-5.5,6.8-5.5-2.9-5.5-6.8ZM32.4,401.3c0,4.8,2.9,9.1,7.6,9.1s7.7-4.3,7.7-9.1-3-9.1-7.6-9.1-7.6,4.2-7.6,9.1Z"/>
  <path class="st2" d="M82,410.3h-.4l-4.7-14.5-4.7,14.5h-.4l-5.8-17.9h2l3.9,12.2,3.9-12.2h1.9l4,12.2,3.9-12.2h2l-5.8,17.9Z"/>
  <path class="st2" d="M97.9,401.3c0-3.9,2.4-6.8,5.5-6.8s5.6,2.9,5.6,6.8-2.4,6.8-5.6,6.8-5.5-2.9-5.5-6.8ZM95.8,401.3c0,4.8,2.9,9.1,7.6,9.1s7.7-4.3,7.7-9.1-3-9.1-7.7-9.1-7.6,4.2-7.6,9.1Z"/>
  <path class="st2" d="M122.7,394.6h1.3c2,0,2.8,1,2.8,2.7,0,1.5-.6,2.9-2.8,2.9h-1.3v-5.6ZM120.7,392.4v17.8h2v-7.7h.9c1,0,1.9.4,3.8,4.1l1.9,3.6h2.4c-1-1.7-1.3-2.3-1.9-3.5-1.1-2.2-1.9-3.9-3.2-4.9,1.5-.8,2.4-2.3,2.4-4.4,0-3.1-1.8-5-4.7-5h-3.6Z"/>
  <path class="st2" d="M152.4,410.2h-2.8l-7.2-8.8v8.8h-2v-17.8h2v8.1l6-8.1h2.5l-6.2,8.4,7.7,9.4Z"/>
  <path class="st2" d="M181.6,394.7h-5.5v4.9h5.5v2.3h-5.5v8.3h-2v-17.8h7.6v2.3Z"/>
  <path class="st2" d="M192.3,401.3c0-3.9,2.4-6.8,5.5-6.8s5.6,2.9,5.6,6.8-2.4,6.8-5.6,6.8-5.5-2.9-5.5-6.8ZM190.2,401.3c0,4.8,2.9,9.1,7.6,9.1s7.7-4.3,7.7-9.1-3-9.1-7.7-9.1-7.6,4.2-7.6,9.1Z"/>
  <path class="st2" d="M217.2,394.6h1.3c2,0,2.8,1,2.8,2.7,0,1.5-.6,2.9-2.8,2.9h-1.3v-5.6ZM215.2,392.4v17.8h2v-7.7h.9c1,0,1.9.4,3.8,4.1l1.9,3.6h2.4c-1-1.7-1.3-2.3-1.9-3.5-1.1-2.2-1.9-3.9-3.2-4.9,1.5-.8,2.4-2.3,2.4-4.4,0-3.1-1.8-5-4.7-5h-3.6Z"/>
  <g>
    <path class="st4" d="M22.7,447.5l-5.4-22.9h4.8l3.4,15.8,4.2-15.8h5.6l4,16,3.5-16h4.7l-5.5,22.9h-5l-4.6-17.1-4.6,17.1h-5Z"/>
    <path class="st4" d="M49.7,447.5v-22.9h4.6v22.9h-4.6Z"/>
    <path class="st4" d="M58.9,447.5v-22.9h4.5l9.4,15.3v-15.3h4.3v22.9h-4.7l-9.2-14.9v14.9h-4.3Z"/>
    <path class="st4" d="M82.1,447.5v-22.9h4.5l9.4,15.3v-15.3h4.3v22.9h-4.7l-9.2-14.9v14.9h-4.3Z"/>
    <path class="st4" d="M105.3,447.5v-22.9h16.9v3.9h-12.3v5.1h11.4v3.9h-11.4v6.2h12.7v3.9h-17.4Z"/>
    <path class="st4" d="M126.7,447.5v-22.9h9.7c2.4,0,4.2.2,5.3.6,1.1.4,2,1.1,2.7,2.2.7,1.1,1,2.3,1,3.6s-.5,3.1-1.5,4.3c-1,1.1-2.5,1.8-4.5,2.1,1,.6,1.8,1.2,2.4,1.9.6.7,1.5,1.9,2.6,3.7l2.8,4.5h-5.4l-3.4-5c-1.2-1.8-2-2.9-2.5-3.3-.4-.5-.9-.8-1.4-.9-.5-.2-1.3-.3-2.3-.3h-.9v9.6h-4.6ZM131.3,434.2h3.4c2.2,0,3.6,0,4.1-.3.6-.2,1-.5,1.3-1,.3-.5.5-1,.5-1.7s-.2-1.4-.6-1.9c-.4-.5-1-.8-1.7-.9-.4,0-1.5,0-3.4,0h-3.6v5.8Z"/>
  </g>
  <g>
    <path class="st4" d="M172.5,443.4v4.1h-15.4c.2-1.5.7-3,1.5-4.4.8-1.4,2.5-3.2,4.9-5.5,2-1.8,3.2-3.1,3.6-3.7.6-.9.9-1.8.9-2.7s-.3-1.7-.8-2.3c-.5-.5-1.3-.8-2.2-.8s-1.6.3-2.2.8c-.5.6-.9,1.5-.9,2.7l-4.4-.4c.3-2.4,1.1-4.2,2.5-5.2,1.4-1.1,3.1-1.6,5.2-1.6s4,.6,5.3,1.8c1.3,1.2,1.9,2.7,1.9,4.5s-.2,2-.6,2.9c-.4.9-1,1.9-1.8,2.9-.5.7-1.5,1.7-2.9,2.9-1.4,1.3-2.3,2.1-2.6,2.5-.4.4-.7.8-.9,1.2h8.7Z"/>
    <path class="st4" d="M182.9,424.5c2.2,0,4,.8,5.2,2.4,1.5,1.9,2.2,5,2.2,9.3s-.7,7.4-2.2,9.3c-1.2,1.6-3,2.3-5.2,2.3s-4-.9-5.4-2.6c-1.4-1.7-2-4.8-2-9.2s.7-7.4,2.2-9.3c1.2-1.6,3-2.3,5.2-2.3ZM182.9,428.1c-.5,0-1,.2-1.4.5-.4.3-.7.9-1,1.8-.3,1.1-.5,3-.5,5.7s.1,4.5.4,5.5c.3,1,.6,1.7,1,2,.4.3.9.5,1.4.5s1-.2,1.4-.5c.4-.3.7-.9,1-1.8.3-1.1.5-3,.5-5.7s-.1-4.5-.4-5.5c-.3-1-.6-1.7-1-2-.4-.3-.9-.5-1.4-.5Z"/>
    <path class="st4" d="M207.6,443.4v4.1h-15.4c.2-1.5.7-3,1.5-4.4.8-1.4,2.5-3.2,4.9-5.5,2-1.8,3.2-3.1,3.6-3.7.6-.9.9-1.8.9-2.7s-.3-1.7-.8-2.3c-.5-.5-1.3-.8-2.2-.8s-1.6.3-2.2.8c-.5.6-.9,1.5-.9,2.7l-4.4-.4c.3-2.4,1.1-4.2,2.5-5.2,1.4-1.1,3.1-1.6,5.2-1.6s4,.6,5.3,1.8c1.3,1.2,1.9,2.7,1.9,4.5s-.2,2-.6,2.9c-.4.9-1,1.9-1.8,2.9-.5.7-1.5,1.7-2.9,2.9-1.4,1.3-2.3,2.1-2.6,2.5-.4.4-.7.8-.9,1.2h8.7Z"/>
    <path class="st4" d="M210.6,441.6l4.4-.5c.1,1,.5,1.8,1.1,2.4.6.6,1.3.9,2.1.9s1.7-.4,2.3-1.1c.6-.7,1-1.9,1-3.4s-.3-2.5-.9-3.2c-.6-.7-1.5-1.1-2.5-1.1s-2.4.6-3.4,1.7l-3.6-.5,2.2-11.9h11.6v4.1h-8.3l-.7,3.9c1-.5,2-.7,3-.7,1.9,0,3.6.7,5,2.1,1.4,1.4,2,3.3,2,5.5s-.5,3.6-1.6,5c-1.5,2-3.6,3-6.2,3s-3.8-.6-5.2-1.7c-1.3-1.1-2.1-2.7-2.4-4.6Z"/>
  </g>
</svg>