<svg xmlns="http://www.w3.org/2000/svg" xmlns:v="https://vecta.io/nano" viewBox="0 0 229 230"><linearGradient id="A" gradientUnits="userSpaceOnUse" x1="70.485" y1="121.053" x2="120.656" y2="121.053"><stop offset="0" stop-color="#fff"></stop><stop offset=".281" stop-color="#eff0f5"></stop><stop offset=".69" stop-color="#dfe1eb"></stop><stop offset="1" stop-color="#d9dbe7"></stop></linearGradient><use href="#Aq" fill="url(#A)"></use><linearGradient id="B" gradientUnits="userSpaceOnUse" x1="70.48" y1="121.067" x2="120.651" y2="121.067"><stop offset="0" stop-color="#fff"></stop><stop offset=".256" stop-color="#f1f2f6"></stop><stop offset=".679" stop-color="#e1e3ec"></stop><stop offset="1" stop-color="#dbdde8"></stop></linearGradient><use href="#Aq" x="-0.2" y="0.1" fill="url(#B)"></use><linearGradient id="C" gradientUnits="userSpaceOnUse" x1="70.075" y1="121.281" x2="120.247" y2="121.281"><stop offset="0" stop-color="#fff"></stop><stop offset=".229" stop-color="#f3f4f8"></stop><stop offset=".667" stop-color="#e3e4ed"></stop><stop offset="1" stop-color="#dddee9"></stop></linearGradient><path d="M117.7 163.2l-45-26c-1.4-.8-2.6-2.8-2.6-4.5v-52c0-1.6 1.2-2.3 2.6-1.5l45 26c1.4.8 2.6 2.8 2.6 4.5v52c-.1 1.7-1.2 2.4-2.6 1.5z" fill="url(#C)"></path><linearGradient id="D" gradientUnits="userSpaceOnUse" x1="69.871" y1="121.395" x2="120.042" y2="121.395"><stop offset="0" stop-color="#fff"></stop><stop offset=".214" stop-color="#f4f5f8"></stop><stop offset=".661" stop-color="#e4e6ee"></stop><stop offset="1" stop-color="#dee0ea"></stop></linearGradient><path d="M117.5 163.4l-45-26c-1.4-.8-2.6-2.8-2.6-4.5v-52c0-1.6 1.2-2.3 2.6-1.5l45 26c1.4.8 2.6 2.8 2.6 4.5v52c-.1 1.6-1.2 2.3-2.6 1.5z" fill="url(#D)"></path><linearGradient id="E" gradientUnits="userSpaceOnUse" x1="69.666" y1="121.51" x2="119.838" y2="121.51"><stop offset="0" stop-color="#fff"></stop><stop offset=".183" stop-color="#f6f7fa"></stop><stop offset=".648" stop-color="#e6e7f0"></stop><stop offset="1" stop-color="#e0e2ec"></stop></linearGradient><path d="M117.3 163.5l-45-26c-1.4-.8-2.6-2.8-2.6-4.5V81c0-1.6 1.2-2.3 2.6-1.5l45 26c1.4.8 2.6 2.8 2.6 4.5v52c-.1 1.6-1.2 2.3-2.6 1.5z" fill="url(#E)"></path><linearGradient id="F" gradientUnits="userSpaceOnUse" x1="69.461" y1="121.624" x2="119.633" y2="121.624"><stop offset="0" stop-color="#fff"></stop><stop offset=".148" stop-color="#f8f9fb"></stop><stop offset=".633" stop-color="#e8e9f1"></stop><stop offset="1" stop-color="#e2e4ed"></stop></linearGradient><use href="#Ar" fill="url(#F)"></use><linearGradient id="G" gradientUnits="userSpaceOnUse" x1="69.457" y1="121.638" x2="119.628" y2="121.638"><stop offset="0" stop-color="#fff"></stop><stop offset=".109" stop-color="#fafbfc"></stop><stop offset=".616" stop-color="#eaebf2"></stop><stop offset="1" stop-color="#e4e5ee"></stop></linearGradient><use href="#Ar" x="-0.2" y="0.1" fill="url(#G)"></use><linearGradient id="H" gradientUnits="userSpaceOnUse" x1="69.052" y1="121.852" x2="119.224" y2="121.852"><stop offset="0" stop-color="#fff"></stop><stop offset=".065" stop-color="#fcfdfd"></stop><stop offset=".597" stop-color="#ecedf3"></stop><stop offset="1" stop-color="#e6e7ef"></stop></linearGradient><use href="#As" fill="url(#H)"></use><linearGradient id="I" gradientUnits="userSpaceOnUse" x1="69.048" y1="121.866" x2="119.219" y2="121.866"><stop offset="0" stop-color="#fff"></stop><stop offset=".04" stop-color="#fdfefe"></stop><stop offset=".586" stop-color="#edeef4"></stop><stop offset="1" stop-color="#e7e9f0"></stop></linearGradient><use href="#As" x="-0.2" y="0.1" fill="url(#I)"></use><linearGradient id="J" gradientUnits="userSpaceOnUse" x1="68.643" y1="122.08" x2="118.814" y2="122.08"><stop offset="0" stop-color="#fff"></stop><stop offset=".563" stop-color="#eff0f5"></stop><stop offset="1" stop-color="#e9eaf1"></stop></linearGradient><path d="M116.2 164l-45-26c-1.4-.8-2.6-2.8-2.6-4.5v-52c0-1.6 1.2-2.3 2.6-1.5l45 26c1.4.8 2.6 2.8 2.6 4.5v52c0 1.7-1.1 2.4-2.6 1.5z" fill="url(#J)"></path><linearGradient id="K" gradientUnits="userSpaceOnUse" x1="68.438" y1="122.194" x2="118.61" y2="122.194"><stop offset="0" stop-color="#fff"></stop><stop offset=".536" stop-color="#f1f2f6"></stop><stop offset="1" stop-color="#ebecf2"></stop></linearGradient><use href="#At" fill="url(#K)"></use><linearGradient id="L" gradientUnits="userSpaceOnUse" x1="68.434" y1="122.209" x2="118.605" y2="122.209"><stop offset="0" stop-color="#fff"></stop><stop offset=".505" stop-color="#f3f4f8"></stop><stop offset="1" stop-color="#edeef4"></stop></linearGradient><use href="#At" x="-0.2" y="0.1" fill="url(#L)"></use><linearGradient id="M" gradientUnits="userSpaceOnUse" x1="68.429" y1="122.223" x2="118.601" y2="122.223"><stop offset="0" stop-color="#fff"></stop><stop offset=".467" stop-color="#f5f5f9"></stop><stop offset="1" stop-color="#eff0f5"></stop></linearGradient><use href="#At" x="-0.4" y="0.2" fill="url(#M)"></use><linearGradient id="N" gradientUnits="userSpaceOnUse" x1="67.825" y1="122.537" x2="117.996" y2="122.537"><stop offset="0" stop-color="#fff"></stop><stop offset=".42" stop-color="#f7f7fa"></stop><stop offset="1" stop-color="#f1f1f6"></stop></linearGradient><path d="M115.4 164.5l-45-26c-1.4-.8-2.6-2.8-2.6-4.5V82c0-1.6 1.2-2.3 2.6-1.5l45 26c1.4.8 2.6 2.8 2.6 4.5v52c0 1.6-1.2 2.3-2.6 1.5z" fill="url(#N)"></path><linearGradient id="O" gradientUnits="userSpaceOnUse" x1="70.52" y1="121.051" x2="120.691" y2="121.051"><stop offset="0" stop-color="#fff"></stop><stop offset=".393" stop-color="#f8f8fb"></stop><stop offset="1" stop-color="#f2f3f7"></stop></linearGradient><use href="#Aq" x="-2.9" y="1.6" fill="url(#O)"></use><linearGradient id="P" gradientUnits="userSpaceOnUse" x1="70.515" y1="121.065" x2="120.687" y2="121.065"><stop offset="0" stop-color="#fff"></stop><stop offset=".326" stop-color="#fafafc"></stop><stop offset="1" stop-color="#f4f5f8"></stop></linearGradient><use href="#Aq" x="-3.1" y="1.7" fill="url(#P)"></use><linearGradient id="Q" gradientUnits="userSpaceOnUse" x1="67.211" y1="122.879" x2="117.382" y2="122.879"><stop offset="0" stop-color="#fff"></stop><stop offset=".236" stop-color="#fcfcfd"></stop><stop offset="1" stop-color="#f6f6f9"></stop></linearGradient><path d="M114.8 164.8l-45-26c-1.4-.8-2.6-2.8-2.6-4.5v-52c0-1.6 1.2-2.3 2.6-1.5l45 26c1.4.8 2.6 2.8 2.6 4.5v52c0 1.7-1.2 2.4-2.6 1.5z" fill="url(#Q)"></path><linearGradient id="R" gradientUnits="userSpaceOnUse" x1="68.406" y1="122.194" x2="118.578" y2="122.194"><stop offset="0" stop-color="#fff"></stop><stop offset=".105" stop-color="#fefefe"></stop><stop offset="1" stop-color="#f8f8fa"></stop></linearGradient><use href="#At" x="-1.4" y="0.8" fill="url(#R)"></use><linearGradient id="S" gradientUnits="userSpaceOnUse" x1="68.402" y1="122.208" x2="118.573" y2="122.208"><stop offset="0" stop-color="#fff"></stop><stop offset="1" stop-color="#fafafc"></stop></linearGradient><use href="#At" x="-1.6" y="0.9" fill="url(#S)"></use><linearGradient id="T" gradientUnits="userSpaceOnUse" x1="68.397" y1="122.222" x2="118.568" y2="122.222"><stop offset="0" stop-color="#fff"></stop><stop offset="1" stop-color="#fbfcfd"></stop></linearGradient><use href="#At" x="-1.8" y="1" fill="url(#T)"></use><linearGradient id="U" gradientUnits="userSpaceOnUse" x1="68.392" y1="122.236" x2="118.564" y2="122.236"><stop offset="0" stop-color="#fff"></stop><stop offset="1" stop-color="#fdfdfe"></stop></linearGradient><use href="#At" x="-2" y="1.1" fill="url(#U)"></use><use href="#Aq" x="-4.3" y="2.4" fill="#fff"></use><g fill="#292148"><path d="M86.2 98.2l-2-1.2v2.4l2 1.1 2 1.2v-2.3zm12.2 7l-2-1.1v2.3l2 1.2z"></path><path d="M94.3 105.2l-2-1.1v-2.4l-2-1.2v2.4l-2.1-1.2v2.4 2.3l-2-1.2v2.4l2 1.2v2.3l2.1 1.2 2 1.1v-2.3l-2-1.2v-2.3-2.4l2 1.2 2 1.2 2.1 1.2v-2.4z"></path><path d="M98.4 112.3v-2.4l-2-1.1v2.3 2.3l2 1.2zm-14.2-3.5v2.3l2 1.2v-2.4-2.3l-2-1.2z"></path><path d="M94.3 112.3v2.3l2.1 1.2v-2.4zM86.2 124v2.4l2 1.1v-2.3zm-14.3-19.9v2.3l2.1 1.2v-2.4z"></path><path d="M94.3 117l-2-1.2v-2.4l-2-1.1v2.3l-2.1-1.2v2.4l2.1 1.2v2.3l2 1.2v-2.4l2 1.2 2.1 1.2 2 1.2 2 1.1v-2.3l-2-1.2-2-1.2v-2.3l-2.1-1.2zm14.3 10.5v-2.3l-2.1-1.2v2.4 2.3l2.1 1.2z"></path><use href="#Au"></use><path d="M84.2 111.1l-2.1-1.2v2.4l-2-1.2v2.3l2 1.2 2.1 1.2v2.3l2 1.2V117v-2.4l-2-1.2zm8.1 9.4l-2-1.2v2.4l2 1.1zm8.1 4.7v2.3 2.4l2.1 1.2v-2.4-2.3l2 1.1 2 1.2v-2.3l-2-1.2-2-1.2v-2.3l-2.1-1.2v2.3l-2-1.1v2.3z"></path><path d="M74 109.9l2 1.2v2.3l2 1.2v2.4 2.3l2.1 1.2v-2.4l2 1.2V117l-2-1.2v-2.4l-2.1-1.1v-2.4l-2-1.1v-2.4l-2-1.2v2.4zm16.2 14.2v-2.5l2 1.2v-2.5l-2-1.1-2-1.2v2.4l-2.1-1.1v2.4l2.1 1.2zm18.4 8.1l-2.1-1.1v2.3 2.4l-2-1.2v2.3l2 1.2v2.4l2.1 1.1v2.4 2.3l2 1.2v-2.3-2.4-2.3l-2-1.2v-2.4l2 1.2v-2.3l-2-1.2zM74 114.6l-2.1-1.2v2.4 2.3l2.1 1.2v2.4l2 1.1v-2.3-2.4l-2-1.1z"></path><path d="M76 115.8v2.3l2 1.2V117zm20.4 14.1v2.3l2 1.2 2 1.2 2.1 1.2v-2.4-2.3l-2.1-1.2v2.3l-2-1.1v-2.4l-2-1.2v-2.3l-2.1-1.2v2.4l-2-1.2v2.3l2 1.2z"></path><path d="M78 121.7l2.1 1.1v-2.3l-2.1-1.2zm6.2 1.1l-2.1-1.1v2.3 2.4l2.1 1.1v2.4 2.3l2 1.2v-2.3-2.4-2.3l-2-1.2zm6.1 5.9l2 1.2v-2.4l-2-1.1z"></path><path d="M88.2 129.9l2.1 1.2v-2.4l-2.1-1.2zm8.2 7v-2.3-2.4l-2.1-1.1v2.3l-2-1.2v2.4l2 1.2zm-6.1-3.5l-2.1-1.2v2.4l2.1 1.2z"></path><use href="#Au" x="20.5" y="28.2"></use><path d="M86.2 138.1v2.4l2 1.1v-2.3-2.4-2.3l-2-1.2v2.4zm9.6 4.4v2.4l2.9 1.7 2.9 1.6v-2.4l-2.9-1.6z"></path><path d="M84.2 141.6l2 1.2v-2.3l-2-1.2zm6.1 3.6l2 1.1V144l-2-1.2-2.1-1.2v2.4zm16.2 7v2.4l2.1 1.1 2 1.2v-2.3l-2-1.2z"></path><use href="#Au" x="27.5" y="28.8"></use><path d="M82.1 95.8L71.9 90v11.7l10.2 5.9V95.8zm-1.5 9.1l-7.1-4.1v-8.2l7.1 4.1v8.2zm-1.5-7.3L75 95.2v4.7l4.1 2.4zm21.3 8.8v11.7l10.2 5.9v-11.7l-10.2-5.9zm8.7 15l-7.1-4.1v-8.2l7.1 4.1v8.2zm-1.6-7.4l-4-2.3v4.7l4 2.3zm-35.6 20.6l10.2 5.9v-11.7l-10.2-5.9v11.7zm1.6-9.1l7.1 4.1v8.2l-7.1-4.1v-8.2zm1.5 7.4l4.1 2.3v-4.7l-4.1-2.3zm28.5 14l2 1.2v-2.3-2.4-2.3l-2-1.2-2-1.2v2.4l2 1.1v2.4l-2-1.2v2.4l-2.1-1.2v2.3l2.1 1.2v2.4l2 1.1v-2.3z"></path><path d="M97.8 136.6v2.4 2.3l2.1 1.2v-2.4l2 1.2V139l-2-1.2zm6.1 8.1v2.5l2.9 1.7 2.9 1.7v-2.5l-2.9-1.7zm-11.5-4.6v3.2l2.1 1.2v-3.2-3.2l-2.1-1.1z"></path><path d="M91.7 136.6L89 135v2.3l2.7 1.6 2.8 1.6v-2.4zm18.9 12l-2-1.2-2.1-1.2v2.4l2.1 1.2v2.4l2 1.2V151z"></path></g><path d="M100.5 122.9l6.3 3.7v-3.9l-6.3-3.7z" fill="#fff"></path><g fill="#292148"><use href="#Au" x="22.4" y="11.6"></use><use href="#Au" x="24.3" y="37.5"></use><path d="M102.4 123.3l2.1 1.2v-2.4l-2.1-1.2z"></path></g><linearGradient id="V" gradientUnits="userSpaceOnUse" x1="249.794" y1="122.616" x2="250.284" y2="122.616"><stop offset="0" stop-color="#e20062"></stop><stop offset=".192" stop-color="#cf017a"></stop><stop offset=".596" stop-color="#9e05b8"></stop><stop offset="1" stop-color="#6809fb"></stop></linearGradient><path d="M123.9 139.5l-61.4-35.4c-.4-.2-.7 0-.7.4 0 .5.3 1 .7 1.2l61.4 35.4c.4.2.7 0 .7-.4s-.3-1-.7-1.2z" fill="url(#V)"></path><path d="M123.9 138.1l-61.4-35.4c-.4-.2-.7 0-.7.4 0 .5.3 1 .7 1.2l61.4 35.4c.4.2.7 0 .7-.4s-.3-.9-.7-1.2z" fill="#fff"></path><linearGradient id="W" gradientUnits="userSpaceOnUse" x1="24.715" y1="19.66" x2="95.733" y2="238.891"><stop offset="0" stop-color="#bec5d8"></stop><stop offset=".253" stop-color="#fff"></stop><stop offset=".258" stop-color="#fdfdfe"></stop><stop offset=".328" stop-color="#e5e8ef"></stop><stop offset=".392" stop-color="#d6dbe6"></stop><stop offset=".445" stop-color="#d1d6e3"></stop><stop offset=".554" stop-color="#9097b4"></stop><stop offset=".616" stop-color="#70789c"></stop><stop offset=".658" stop-color="#767ea3"></stop><stop offset=".717" stop-color="#888fb5"></stop><stop offset=".785" stop-color="#a5aad4"></stop><stop offset=".815" stop-color="#b4b8e3"></stop><stop offset=".821" stop-color="#b2b6e1"></stop><stop offset=".887" stop-color="#9da1c9"></stop><stop offset=".949" stop-color="#9094ba"></stop><stop offset="1" stop-color="#8b90b5"></stop></linearGradient><use href="#Av" fill="url(#W)"></use><linearGradient id="X" gradientUnits="userSpaceOnUse" x1="-42.151" y1="-116.872" x2="83.375" y2="197.831"><stop offset="0" stop-color="#8b90b5"></stop><stop offset=".051" stop-color="#9094ba"></stop><stop offset=".113" stop-color="#9da1c9"></stop><stop offset=".179" stop-color="#b2b6e1"></stop><stop offset=".185" stop-color="#b4b8e3"></stop><stop offset=".215" stop-color="#a5aad4"></stop><stop offset=".284" stop-color="#888fb5"></stop><stop offset=".342" stop-color="#767ea3"></stop><stop offset=".384" stop-color="#70789c"></stop><stop offset=".446" stop-color="#9097b4"></stop><stop offset=".555" stop-color="#d1d6e3"></stop><stop offset=".608" stop-color="#d6dbe6"></stop><stop offset=".672" stop-color="#e5e8ef"></stop><stop offset=".742" stop-color="#fdfdfe"></stop><stop offset=".748" stop-color="#fff"></stop><stop offset="1" stop-color="#bec5d8"></stop></linearGradient><path d="M75.3 196.3c-.9 0-1.9-.3-3-.9L30.1 171c-4.5-2.6-8.2-9.7-8.2-15.7V42.7c0-4.1 1.7-6.7 4.3-6.7.9 0 1.9.3 3 .9l42.2 24.4c4.5 2.6 8.2 9.7 8.2 15.7v112.5c.1 4.1-1.6 6.8-4.3 6.8z" fill="url(#X)"></path><path d="M24.4 156.1V45.3c0-4.6 2.8-6.7 6.3-4.7L71.4 64c3.5 2 6.3 7.4 6.3 12v110.8c0 4.6-2.8 6.7-6.3 4.7L30.7 168c-3.5-1.9-6.3-7.3-6.3-11.9z" fill="#adb6e6"></path><linearGradient id="Y" gradientUnits="userSpaceOnUse" x1="-70.011" y1="-186.517" x2="70.413" y2="165.537"><stop offset="0" stop-color="#e20062"></stop><stop offset=".192" stop-color="#cf017a"></stop><stop offset=".596" stop-color="#9e05b8"></stop><stop offset="1" stop-color="#6809fb"></stop></linearGradient><path d="M74.1 192.4c-.9 0-1.9-.3-2.9-.9l-40.3-23.3c-4.3-2.5-7.8-9.2-7.8-15V45.9c0-3.9 1.6-6.4 4.1-6.4.9 0 1.9.3 2.9.9l40.3 23.3c4.3 2.5 7.8 9.2 7.8 15V186c0 3.9-1.6 6.4-4.1 6.4z" fill="url(#Y)"></path><linearGradient id="Z" gradientUnits="userSpaceOnUse" x1="232.792" y1="-607.774" x2="277.36" y2="-607.774" gradientTransform="matrix(0.866 0.5 0 1 -168.9899 631.32)"><stop offset="0" stop-color="#f0a25e"></stop><stop offset="1" stop-color="#e48661"></stop></linearGradient><path d="M67.2 168.7l-30.5-17.6c-2.2-1.3-4.1-4.4-4.1-7v-8.4c0-2.6 1.8-3.6 4.1-2.3L67.2 151c2.2 1.3 4.1 4.4 4.1 7v8.4c-.1 2.6-1.9 3.6-4.1 2.3z" fill="url(#Z)"></path><linearGradient id="a" gradientUnits="userSpaceOnUse" x1="232.612" y1="-607.577" x2="277.18" y2="-607.577" gradientTransform="matrix(0.866 0.5 0 1 -168.9899 631.32)"><stop offset="0" stop-color="#f1a560"></stop><stop offset="1" stop-color="#e58661"></stop></linearGradient><path d="M67 168.9l-30.5-17.6c-2.2-1.3-4.1-4.4-4.1-7v-8.4c0-2.6 1.8-3.6 4.1-2.3L67 151.1c2.2 1.3 4.1 4.4 4.1 7v8.4c-.1 2.6-1.9 3.6-4.1 2.4z" fill="url(#a)"></path><linearGradient id="b" gradientUnits="userSpaceOnUse" x1="232.431" y1="-607.381" x2="277" y2="-607.381" gradientTransform="matrix(0.866 0.5 0 1 -168.9899 631.32)"><stop offset="0" stop-color="#f1a863"></stop><stop offset="1" stop-color="#e68662"></stop></linearGradient><path d="M66.8 169l-30.5-17.6c-2.2-1.3-4.1-4.4-4.1-7V136c0-2.6 1.8-3.6 4.1-2.3l30.5 17.6c2.2 1.3 4.1 4.4 4.1 7v8.4c0 2.5-1.8 3.5-4.1 2.3z" fill="url(#b)"></path><linearGradient id="c" gradientUnits="userSpaceOnUse" x1="232.251" y1="-607.184" x2="276.82" y2="-607.184" gradientTransform="matrix(0.866 0.5 0 1 -168.9899 631.32)"><stop offset="0" stop-color="#f2ab65"></stop><stop offset="1" stop-color="#e78662"></stop></linearGradient><path d="M66.7 169.1l-30.5-17.6c-2.2-1.3-4.1-4.4-4.1-7v-8.4c0-2.6 1.8-3.6 4.1-2.3l30.5 17.6c2.2 1.3 4.1 4.4 4.1 7v8.4c-.1 2.5-1.9 3.6-4.1 2.3z" fill="url(#c)"></path><linearGradient id="d" gradientUnits="userSpaceOnUse" x1="232.071" y1="-606.987" x2="276.64" y2="-606.987" gradientTransform="matrix(0.866 0.5 0 1 -168.9899 631.32)"><stop offset="0" stop-color="#f2ae68"></stop><stop offset="1" stop-color="#e98663"></stop></linearGradient><path d="M66.5 169.2L36 151.6c-2.2-1.3-4.1-4.4-4.1-7v-8.4c0-2.6 1.8-3.6 4.1-2.3l30.5 17.6c2.2 1.3 4.1 4.4 4.1 7v8.4c0 2.5-1.8 3.6-4.1 2.3z" fill="url(#d)"></path><linearGradient id="e" gradientUnits="userSpaceOnUse" x1="231.891" y1="-606.791" x2="276.46" y2="-606.791" gradientTransform="matrix(0.866 0.5 0 1 -168.9899 631.32)"><stop offset="0" stop-color="#f3b16a"></stop><stop offset="1" stop-color="#ea8663"></stop></linearGradient><path d="M66.4 169.3l-30.5-17.6c-2.2-1.3-4.1-4.4-4.1-7v-8.4c0-2.6 1.8-3.6 4.1-2.3l30.5 17.6c2.2 1.3 4.1 4.4 4.1 7v8.4c-.1 2.5-1.9 3.6-4.1 2.3z" fill="url(#e)"></path><linearGradient id="f" gradientUnits="userSpaceOnUse" x1="231.711" y1="-606.594" x2="276.28" y2="-606.594" gradientTransform="matrix(0.866 0.5 0 1 -168.9899 631.32)"><stop offset="0" stop-color="#f4b46d"></stop><stop offset="1" stop-color="#eb8664"></stop></linearGradient><path d="M66.2 169.4l-30.5-17.6c-2.2-1.3-4.1-4.4-4.1-7v-8.4c0-2.6 1.8-3.6 4.1-2.3l30.5 17.6c2.2 1.3 4.1 4.4 4.1 7v8.4c0 2.5-1.9 3.6-4.1 2.3z" fill="url(#f)"></path><linearGradient id="g" gradientUnits="userSpaceOnUse" x1="231.531" y1="-606.398" x2="276.1" y2="-606.398" gradientTransform="matrix(0.866 0.5 0 1 -168.9899 631.32)"><stop offset="0" stop-color="#f4b76f"></stop><stop offset="1" stop-color="#ec8664"></stop></linearGradient><path d="M66.1 169.5l-30.5-17.6c-2.2-1.3-4.1-4.4-4.1-7v-8.4c0-2.6 1.8-3.6 4.1-2.3l30.5 17.6c2.2 1.3 4.1 4.4 4.1 7v8.4c-.1 2.5-1.9 3.6-4.1 2.3z" fill="url(#g)"></path><linearGradient id="h" gradientUnits="userSpaceOnUse" x1="231.351" y1="-606.201" x2="275.92" y2="-606.201" gradientTransform="matrix(0.866 0.5 0 1 -168.9899 631.32)"><stop offset="0" stop-color="#f5ba72"></stop><stop offset="1" stop-color="#ed8665"></stop></linearGradient><path d="M65.9 169.6L35.4 152c-2.2-1.3-4.1-4.4-4.1-7v-8.4c0-2.6 1.8-3.6 4.1-2.3l30.5 17.6c2.2 1.3 4.1 4.4 4.1 7v8.4c0 2.5-1.9 3.6-4.1 2.3z" fill="url(#h)"></path><linearGradient id="i" gradientUnits="userSpaceOnUse" x1="231.171" y1="-606.005" x2="275.74" y2="-606.005" gradientTransform="matrix(0.866 0.5 0 1 -168.9899 631.32)"><stop offset="0" stop-color="#f6bd74"></stop><stop offset="1" stop-color="#ee8665"></stop></linearGradient><path d="M65.8 169.7l-30.5-17.6c-2.2-1.3-4.1-4.4-4.1-7v-8.4c0-2.6 1.8-3.6 4.1-2.3L65.8 152c2.2 1.3 4.1 4.4 4.1 7v8.4c-.1 2.5-1.9 3.6-4.1 2.3z" fill="url(#i)"></path><linearGradient id="j" gradientUnits="userSpaceOnUse" x1="230.991" y1="-605.808" x2="275.56" y2="-605.808" gradientTransform="matrix(0.866 0.5 0 1 -168.9899 631.32)"><stop offset="0" stop-color="#f6c077"></stop><stop offset="1" stop-color="#ef8666"></stop></linearGradient><path d="M65.6 169.8l-30.5-17.6c-2.2-1.3-4.1-4.4-4.1-7v-8.4c0-2.6 1.8-3.6 4.1-2.3l30.5 17.6c2.2 1.3 4.1 4.4 4.1 7v8.4c-.1 2.5-1.9 3.6-4.1 2.3z" fill="url(#j)"></path><linearGradient id="k" gradientUnits="userSpaceOnUse" x1="230.811" y1="-605.612" x2="275.379" y2="-605.612" gradientTransform="matrix(0.866 0.5 0 1 -168.9899 631.32)"><stop offset="0" stop-color="#f7c379"></stop><stop offset="1" stop-color="#f18666"></stop></linearGradient><path d="M65.4 169.9l-30.5-17.6c-2.2-1.3-4.1-4.4-4.1-7v-8.4c0-2.6 1.8-3.6 4.1-2.3l30.5 17.6c2.2 1.3 4.1 4.4 4.1 7v8.4c0 2.6-1.8 3.6-4.1 2.3z" fill="url(#k)"></path><linearGradient id="l" gradientUnits="userSpaceOnUse" x1="230.631" y1="-605.415" x2="275.199" y2="-605.415" gradientTransform="matrix(0.866 0.5 0 1 -168.9899 631.32)"><stop offset="0" stop-color="#f7c67c"></stop><stop offset="1" stop-color="#f28667"></stop></linearGradient><path d="M65.3 170l-30.5-17.6c-2.2-1.3-4.1-4.4-4.1-7V137c0-2.6 1.8-3.6 4.1-2.3l30.5 17.6c2.2 1.3 4.1 4.4 4.1 7v8.4c-.1 2.6-1.9 3.6-4.1 2.3z" fill="url(#l)"></path><linearGradient id="m" gradientUnits="userSpaceOnUse" x1="230.451" y1="-605.218" x2="275.019" y2="-605.218" gradientTransform="matrix(0.866 0.5 0 1 -168.9899 631.32)"><stop offset="0" stop-color="#f8c97e"></stop><stop offset="1" stop-color="#f38667"></stop></linearGradient><path d="M65.1 170.1l-30.5-17.6c-2.2-1.3-4.1-4.4-4.1-7v-8.4c0-2.6 1.8-3.6 4.1-2.3l30.5 17.6c2.2 1.3 4.1 4.4 4.1 7v8.4c0 2.6-1.8 3.6-4.1 2.3z" fill="url(#m)"></path><linearGradient id="n" gradientUnits="userSpaceOnUse" x1="230.27" y1="-605.022" x2="274.839" y2="-605.022" gradientTransform="matrix(0.866 0.5 0 1 -168.9899 631.32)"><stop offset="0" stop-color="#f9cc81"></stop><stop offset="1" stop-color="#f48668"></stop></linearGradient><path d="M65 170.2l-30.5-17.6c-2.2-1.3-4.1-4.4-4.1-7v-8.4c0-2.6 1.8-3.6 4.1-2.3L65 152.5c2.2 1.3 4.1 4.4 4.1 7v8.4c-.1 2.6-1.9 3.6-4.1 2.3z" fill="url(#n)"></path><linearGradient id="o" gradientUnits="userSpaceOnUse" x1="230.09" y1="-604.825" x2="274.659" y2="-604.825" gradientTransform="matrix(0.866 0.5 0 1 -168.9899 631.32)"><stop offset="0" stop-color="#f9cf83"></stop><stop offset="1" stop-color="#f58668"></stop></linearGradient><path d="M64.8 170.3l-30.5-17.6c-2.2-1.3-4.1-4.4-4.1-7v-8.4c0-2.6 1.8-3.6 4.1-2.3l30.5 17.6c2.2 1.3 4.1 4.4 4.1 7v8.4c0 2.6-1.9 3.6-4.1 2.3z" fill="url(#o)"></path><linearGradient id="p" gradientUnits="userSpaceOnUse" x1="229.91" y1="-604.629" x2="274.479" y2="-604.629" gradientTransform="matrix(0.866 0.5 0 1 -168.9899 631.32)"><stop offset="0" stop-color="#fad286"></stop><stop offset="1" stop-color="#f68669"></stop></linearGradient><path d="M64.7 170.5l-30.5-17.6c-2.2-1.3-4.1-4.4-4.1-7v-8.4c0-2.6 1.8-3.6 4.1-2.3l30.5 17.6c2.2 1.3 4.1 4.4 4.1 7v8.4c-.1 2.5-1.9 3.5-4.1 2.3z" fill="url(#p)"></path><linearGradient id="q" gradientUnits="userSpaceOnUse" x1="229.73" y1="-604.432" x2="274.299" y2="-604.432" gradientTransform="matrix(0.866 0.5 0 1 -168.9899 631.32)"><stop offset="0" stop-color="#fbd588"></stop><stop offset="1" stop-color="#f78669"></stop></linearGradient><path d="M64.5 170.6L34 153c-2.2-1.3-4.1-4.4-4.1-7v-8.4c0-2.6 1.8-3.6 4.1-2.3l30.5 17.6c2.2 1.3 4.1 4.4 4.1 7v8.4c0 2.5-1.9 3.5-4.1 2.3z" fill="url(#q)"></path><linearGradient id="r" gradientUnits="userSpaceOnUse" x1="229.55" y1="-604.236" x2="274.119" y2="-604.236" gradientTransform="matrix(0.866 0.5 0 1 -168.9899 631.32)"><stop offset="0" stop-color="#fbd88b"></stop><stop offset="1" stop-color="#f9866a"></stop></linearGradient><path d="M64.3 170.7l-30.5-17.6c-2.2-1.3-4.1-4.4-4.1-7v-8.4c0-2.6 1.8-3.6 4.1-2.3L64.3 153c2.2 1.3 4.1 4.4 4.1 7v8.4c0 2.5-1.8 3.6-4.1 2.3z" fill="url(#r)"></path><linearGradient id="s" gradientUnits="userSpaceOnUse" x1="229.37" y1="-604.039" x2="273.939" y2="-604.039" gradientTransform="matrix(0.866 0.5 0 1 -168.9899 631.32)"><stop offset="0" stop-color="#fcdb8d"></stop><stop offset="1" stop-color="#fa866a"></stop></linearGradient><path d="M64.2 170.8l-30.5-17.6c-2.2-1.3-4.1-4.4-4.1-7v-8.4c0-2.6 1.8-3.6 4.1-2.3l30.5 17.6c2.2 1.3 4.1 4.4 4.1 7v8.4c-.1 2.5-1.9 3.6-4.1 2.3z" fill="url(#s)"></path><linearGradient id="t" gradientUnits="userSpaceOnUse" x1="229.19" y1="-603.842" x2="273.759" y2="-603.842" gradientTransform="matrix(0.866 0.5 0 1 -168.9899 631.32)"><stop offset="0" stop-color="#fcde90"></stop><stop offset="1" stop-color="#fb866b"></stop></linearGradient><path d="M64 170.9l-30.5-17.6c-2.2-1.3-4.1-4.4-4.1-7v-8.4c0-2.6 1.8-3.6 4.1-2.3L64 153.2c2.2 1.3 4.1 4.4 4.1 7v8.4c0 2.5-1.8 3.6-4.1 2.3z" fill="url(#t)"></path><linearGradient id="u" gradientUnits="userSpaceOnUse" x1="229.01" y1="-603.646" x2="273.579" y2="-603.646" gradientTransform="matrix(0.866 0.5 0 1 -168.9899 631.32)"><stop offset="0" stop-color="#fde192"></stop><stop offset="1" stop-color="#fc866b"></stop></linearGradient><path d="M63.9 171l-30.5-17.6c-2.2-1.3-4.1-4.4-4.1-7V138c0-2.6 1.8-3.6 4.1-2.3l30.5 17.6c2.2 1.3 4.1 4.4 4.1 7v8.4c-.1 2.5-1.9 3.6-4.1 2.3z" fill="url(#u)"></path><path d="M35.5 149.1l.8-.6c.6.9 1.3 1.8 2 2.2.9.5 1.4.3 1.4-.4s-.5-1.3-1.2-2l-1.1-1.1c-.8-.8-1.6-2-1.6-3.3 0-1.4 1.1-1.9 2.6-1 .9.5 1.8 1.5 2.4 2.5l-.7.6c-.5-.8-1-1.4-1.7-1.8s-1.2-.3-1.2.4.6 1.3 1.2 2l1.1 1.1c.9 1 1.6 2 1.6 3.3 0 1.5-1 2.1-2.8 1.1-1.1-.7-2.1-1.8-2.8-3zm6.6.5c0-2.9 1.6-3.8 3.6-2.6 1 .6 1.8 1.6 2.2 2.4l-.7.6c-.4-.7-.9-1.3-1.5-1.6-1.3-.7-2.2 0-2.2 2 0 2.1.8 3.8 2.1 4.5.7.4 1.2.3 1.7 0l.7 1.4c-.6.5-1.4.5-2.5-.1-1.9-1.1-3.4-3.6-3.4-6.6zm8.8.5l1.6.9 2.5 10.5-1.5-.8-1.2-5.5-.7-3.4h0l-.7 2.6-1.2 4.1-1.4-.8 2.6-7.6zm-1 4.7l3.7 2.1v1.3l-3.7-2.1v-1.3zM56 153l1.4.8 2.4 6.5.8 2.4h0l-.2-3.2v-3.9l1.3.8v9l-1.4-.8-2.4-6.5-.8-2.4h0l.2 3.1v3.9L56 162v-9z" fill="#fff"></path><linearGradient id="v" gradientUnits="userSpaceOnUse" x1="31.032" y1="106.204" x2="72.891" y2="106.204"><stop offset="0" stop-color="#fff"></stop><stop offset=".281" stop-color="#eff0f5"></stop><stop offset=".69" stop-color="#dfe1eb"></stop><stop offset="1" stop-color="#d9dbe7"></stop></linearGradient><path d="M70.7 141.2l-37.5-21.7c-1.2-.7-2.2-2.4-2.2-3.7V72.4c0-1.4 1-1.9 2.2-1.2l37.5 21.7c1.2.7 2.2 2.4 2.2 3.7V140c0 1.3-1 1.9-2.2 1.2z" fill="url(#v)"></path><linearGradient id="w" gradientUnits="userSpaceOnUse" x1="30.861" y1="106.299" x2="72.721" y2="106.299"><stop offset="0" stop-color="#fff"></stop><stop offset=".256" stop-color="#f1f2f6"></stop><stop offset=".679" stop-color="#e1e3ec"></stop><stop offset="1" stop-color="#dbdde8"></stop></linearGradient><path d="M70.6 141.3L33 119.6c-1.2-.7-2.2-2.4-2.2-3.7V72.5c0-1.4 1-1.9 2.2-1.2L70.6 93c1.2.7 2.2 2.4 2.2 3.7v43.4c-.1 1.3-1.1 1.9-2.2 1.2z" fill="url(#w)"></path><linearGradient id="x" gradientUnits="userSpaceOnUse" x1="30.691" y1="106.394" x2="72.55" y2="106.394"><stop offset="0" stop-color="#fff"></stop><stop offset=".229" stop-color="#f3f4f8"></stop><stop offset=".667" stop-color="#e3e4ed"></stop><stop offset="1" stop-color="#dddee9"></stop></linearGradient><path d="M70.4 141.4l-37.5-21.7c-1.2-.7-2.2-2.4-2.2-3.7V72.6c0-1.4 1-1.9 2.2-1.2l37.5 21.7c1.2.7 2.2 2.4 2.2 3.7v43.4c-.1 1.3-1 1.9-2.2 1.2z" fill="url(#x)"></path><linearGradient id="y" gradientUnits="userSpaceOnUse" x1="30.52" y1="106.49" x2="72.379" y2="106.49"><stop offset="0" stop-color="#fff"></stop><stop offset=".214" stop-color="#f4f5f8"></stop><stop offset=".661" stop-color="#e4e6ee"></stop><stop offset="1" stop-color="#dee0ea"></stop></linearGradient><path d="M70.2 141.5l-37.5-21.7c-1.2-.7-2.2-2.4-2.2-3.7V72.7c0-1.4 1-1.9 2.2-1.2l37.5 21.7c1.2.7 2.2 2.4 2.2 3.7v43.4c0 1.3-1 1.9-2.2 1.2z" fill="url(#y)"></path><linearGradient id="z" gradientUnits="userSpaceOnUse" x1="30.349" y1="106.585" x2="72.209" y2="106.585"><stop offset="0" stop-color="#fff"></stop><stop offset=".183" stop-color="#f6f7fa"></stop><stop offset=".648" stop-color="#e6e7f0"></stop><stop offset="1" stop-color="#e0e2ec"></stop></linearGradient><path d="M70.1 141.6l-37.5-21.7c-1.2-.7-2.2-2.4-2.2-3.7V72.8c0-1.4 1-1.9 2.2-1.2l37.5 21.7c1.2.7 2.2 2.4 2.2 3.7v43.4c-.1 1.3-1.1 1.9-2.2 1.2z" fill="url(#z)"></path><linearGradient id="AA" gradientUnits="userSpaceOnUse" x1="30.178" y1="106.68" x2="72.038" y2="106.68"><stop offset="0" stop-color="#fff"></stop><stop offset=".148" stop-color="#f8f9fb"></stop><stop offset=".633" stop-color="#e8e9f1"></stop><stop offset="1" stop-color="#e2e4ed"></stop></linearGradient><path d="M69.9 141.7L32.3 120c-1.2-.7-2.2-2.4-2.2-3.7V72.9c0-1.4 1-1.9 2.2-1.2l37.5 21.7c1.2.7 2.2 2.4 2.2 3.7v43.4c0 1.3-.9 1.9-2.1 1.2z" fill="url(#AA)"></path><linearGradient id="AB" gradientUnits="userSpaceOnUse" x1="30.008" y1="106.775" x2="71.867" y2="106.775"><stop offset="0" stop-color="#fff"></stop><stop offset=".109" stop-color="#fafbfc"></stop><stop offset=".616" stop-color="#eaebf2"></stop><stop offset="1" stop-color="#e4e5ee"></stop></linearGradient><path d="M69.7 141.8l-37.5-21.7c-1.2-.7-2.2-2.4-2.2-3.7V73c0-1.4 1-1.9 2.2-1.2l37.5 21.7c1.2.7 2.2 2.4 2.2 3.7v43.4c0 1.3-1 1.9-2.2 1.2z" fill="url(#AB)"></path><linearGradient id="AC" gradientUnits="userSpaceOnUse" x1="29.837" y1="106.871" x2="71.696" y2="106.871"><stop offset="0" stop-color="#fff"></stop><stop offset=".065" stop-color="#fcfdfd"></stop><stop offset=".597" stop-color="#ecedf3"></stop><stop offset="1" stop-color="#e6e7ef"></stop></linearGradient><path d="M69.5 141.9L32 120.2c-1.2-.7-2.2-2.4-2.2-3.7V73.1c0-1.4 1-1.9 2.2-1.2l37.5 21.7c1.2.7 2.2 2.4 2.2 3.7v43.4c0 1.3-1 1.9-2.2 1.2z" fill="url(#AC)"></path><linearGradient id="AD" gradientUnits="userSpaceOnUse" x1="29.666" y1="106.966" x2="71.526" y2="106.966"><stop offset="0" stop-color="#fff"></stop><stop offset=".04" stop-color="#fdfefe"></stop><stop offset=".586" stop-color="#edeef4"></stop><stop offset="1" stop-color="#e7e9f0"></stop></linearGradient><path d="M69.4 142l-37.5-21.7c-1.2-.7-2.2-2.4-2.2-3.7V73.2c0-1.4 1-1.9 2.2-1.2l37.5 21.7c1.2.7 2.2 2.4 2.2 3.7v43.4c-.1 1.3-1 1.9-2.2 1.2z" fill="url(#AD)"></path><linearGradient id="AE" gradientUnits="userSpaceOnUse" x1="29.496" y1="107.061" x2="71.355" y2="107.061"><stop offset="0" stop-color="#fff"></stop><stop offset=".563" stop-color="#eff0f5"></stop><stop offset="1" stop-color="#e9eaf1"></stop></linearGradient><path d="M69.2 142.1l-37.5-21.7c-1.2-.7-2.2-2.4-2.2-3.7V73.3c0-1.4 1-1.9 2.2-1.2l37.5 21.7c1.2.7 2.2 2.4 2.2 3.7v43.4c0 1.3-1 1.9-2.2 1.2z" fill="url(#AE)"></path><linearGradient id="AF" gradientUnits="userSpaceOnUse" x1="29.325" y1="107.156" x2="71.184" y2="107.156"><stop offset="0" stop-color="#fff"></stop><stop offset=".536" stop-color="#f1f2f6"></stop><stop offset="1" stop-color="#ebecf2"></stop></linearGradient><path d="M69 142.2l-37.5-21.7c-1.2-.7-2.2-2.4-2.2-3.7V73.4c0-1.4 1-1.9 2.2-1.2L69 93.8c1.2.7 2.2 2.4 2.2 3.7v43.4c0 1.4-1 1.9-2.2 1.3z" fill="url(#AF)"></path><linearGradient id="AG" gradientUnits="userSpaceOnUse" x1="29.154" y1="107.252" x2="71.014" y2="107.252"><stop offset="0" stop-color="#fff"></stop><stop offset=".505" stop-color="#f3f4f8"></stop><stop offset="1" stop-color="#edeef4"></stop></linearGradient><path d="M68.9 142.3l-37.5-21.7c-1.2-.7-2.2-2.4-2.2-3.7V73.5c0-1.4 1-1.9 2.2-1.2L68.9 94c1.2.7 2.2 2.4 2.2 3.7v43.4c-.1 1.3-1.1 1.8-2.2 1.2z" fill="url(#AG)"></path><linearGradient id="AH" gradientUnits="userSpaceOnUse" x1="28.983" y1="107.347" x2="70.843" y2="107.347"><stop offset="0" stop-color="#fff"></stop><stop offset=".467" stop-color="#f5f5f9"></stop><stop offset="1" stop-color="#eff0f5"></stop></linearGradient><path d="M68.7 142.4l-37.5-21.7C30 120 29 118.3 29 117V73.6c0-1.4 1-1.9 2.2-1.2L68.7 94c1.2.7 2.2 2.4 2.2 3.7v43.4c-.1 1.4-1 1.9-2.2 1.3z" fill="url(#AH)"></path><linearGradient id="AI" gradientUnits="userSpaceOnUse" x1="28.813" y1="107.442" x2="70.672" y2="107.442"><stop offset="0" stop-color="#fff"></stop><stop offset=".42" stop-color="#f7f7fa"></stop><stop offset="1" stop-color="#f1f1f6"></stop></linearGradient><path d="M68.5 142.4L31 120.8c-1.2-.7-2.2-2.4-2.2-3.7V73.7c0-1.4 1-1.9 2.2-1.2l37.5 21.7c1.2.7 2.2 2.4 2.2 3.7v43.4c0 1.3-1 1.8-2.2 1.1z" fill="url(#AI)"></path><linearGradient id="AJ" gradientUnits="userSpaceOnUse" x1="28.642" y1="107.537" x2="70.501" y2="107.537"><stop offset="0" stop-color="#fff"></stop><stop offset=".393" stop-color="#f8f8fb"></stop><stop offset="1" stop-color="#f2f3f7"></stop></linearGradient><path d="M68.3 142.5l-37.5-21.7c-1.2-.7-2.2-2.4-2.2-3.7V73.7c0-1.4 1-1.9 2.2-1.2l37.5 21.7c1.2.7 2.2 2.4 2.2 3.7v43.4c0 1.4-1 1.9-2.2 1.2z" fill="url(#AJ)"></path><linearGradient id="AK" gradientUnits="userSpaceOnUse" x1="28.471" y1="107.632" x2="70.331" y2="107.632"><stop offset="0" stop-color="#fff"></stop><stop offset=".326" stop-color="#fafafc"></stop><stop offset="1" stop-color="#f4f5f8"></stop></linearGradient><path d="M68.2 142.6L30.6 121c-1.2-.7-2.2-2.4-2.2-3.7V73.9c0-1.4 1-1.9 2.2-1.2l37.5 21.7c1.2.7 2.2 2.4 2.2 3.7v43.4c0 1.3-.9 1.8-2.1 1.1z" fill="url(#AK)"></path><linearGradient id="AL" gradientUnits="userSpaceOnUse" x1="28.301" y1="107.728" x2="70.16" y2="107.728"><stop offset="0" stop-color="#fff"></stop><stop offset=".236" stop-color="#fcfcfd"></stop><stop offset="1" stop-color="#f6f6f9"></stop></linearGradient><path d="M68 142.7L30.5 121c-1.2-.7-2.2-2.4-2.2-3.7V73.9c0-1.4 1-1.9 2.2-1.2L68 94.4c1.2.7 2.2 2.4 2.2 3.7v43.4c0 1.4-1 1.9-2.2 1.2z" fill="url(#AL)"></path><linearGradient id="AM" gradientUnits="userSpaceOnUse" x1="28.13" y1="107.823" x2="69.989" y2="107.823"><stop offset="0" stop-color="#fff"></stop><stop offset=".105" stop-color="#fefefe"></stop><stop offset="1" stop-color="#f8f8fa"></stop></linearGradient><path d="M67.8 142.8l-37.5-21.7c-1.2-.7-2.2-2.4-2.2-3.7V74c0-1.4 1-1.9 2.2-1.2l37.5 21.7c1.2.7 2.2 2.4 2.2 3.7v43.4c0 1.4-1 1.9-2.2 1.2z" fill="url(#AM)"></path><linearGradient id="AN" gradientUnits="userSpaceOnUse" x1="27.959" y1="107.918" x2="69.819" y2="107.918"><stop offset="0" stop-color="#fff"></stop><stop offset="1" stop-color="#fafafc"></stop></linearGradient><path d="M67.7 142.9l-37.5-21.7c-1.2-.7-2.2-2.4-2.2-3.7V74.1c0-1.4 1-1.9 2.2-1.2l37.5 21.7c1.2.7 2.2 2.4 2.2 3.7v43.4c-.1 1.3-1.1 1.9-2.2 1.2z" fill="url(#AN)"></path><linearGradient id="AO" gradientUnits="userSpaceOnUse" x1="27.788" y1="108.013" x2="69.648" y2="108.013"><stop offset="0" stop-color="#fff"></stop><stop offset="1" stop-color="#fbfcfd"></stop></linearGradient><path d="M67.5 143L30 121.3c-1.2-.7-2.2-2.4-2.2-3.7V74.2c0-1.4 1-1.9 2.2-1.2l37.5 21.7c1.2.7 2.2 2.4 2.2 3.7v43.4c-.1 1.3-1 1.9-2.2 1.2z" fill="url(#AO)"></path><linearGradient id="AP" gradientUnits="userSpaceOnUse" x1="27.618" y1="108.109" x2="69.477" y2="108.109"><stop offset="0" stop-color="#fff"></stop><stop offset="1" stop-color="#fdfdfe"></stop></linearGradient><path d="M67.3 143.1l-37.5-21.7c-1.2-.7-2.2-2.4-2.2-3.7V74.3c0-1.4 1-1.9 2.2-1.2l37.5 21.7c1.2.7 2.2 2.4 2.2 3.7v43.4c0 1.3-1 1.9-2.2 1.2z" fill="url(#AP)"></path><path d="M67.1 143.2l-37.5-21.7c-1.2-.7-2.2-2.4-2.2-3.7V74.4c0-1.4 1-1.9 2.2-1.2l37.5 21.7c1.2.7 2.2 2.4 2.2 3.7V142c0 1.3-1 1.9-2.2 1.2z" fill="#fff"></path><g fill="#292148"><path d="M44.1 87.1l-1.7-1v2l1.7 1 1.7 1v-2zM54.3 93l-1.7-1v2l1.7 1z"></path><path d="M50.9 93l-1.7-1v-1.9l-1.7-1V91l-1.7-.9V92v2l-1.7-1v2l1.7.9v2l1.7 1 1.7 1v-2l-1.7-1V95v-2l1.7 1 1.7 1 1.7.9V94z"></path><path d="M54.3 98.9v-2l-1.7-1v2 2l1.7.9zm-11.9-3v2l1.7 1v-2V95l-1.7-1z"></path><path d="M50.9 98.9v1.9l1.7 1v-1.9zm-6.8 9.8v1.9l1.7 1v-1.9zM32.2 92v2l1.7 1v-2z"></path><path d="M50.9 102.8l-1.7-1v-1.9l-1.7-1v1.9l-1.7-.9v1.9l1.7 1v2l1.7.9v-1.9l1.7 1 1.7.9 1.7 1 1.7 1v-2l-1.7-.9-1.7-1v-2l-1.7-1zm11.9 8.8v-1.9l-1.7-1v1.9 2l1.7 1z"></path><use href="#Aw"></use><path d="M42.4 97.9l-1.7-1v2l-1.7-1v2l1.7.9 1.7 1v2l1.7 1v-2-2l-1.7-.9zm6.8 7.8l-1.7-.9v1.9l1.7 1zm6.8 4v1.9 2l1.7 1v-2-2l1.7 1 1.7 1v-2l-1.7-.9-1.7-1v-2l-1.7-1v2l-1.7-1v2z"></path><path d="M33.9 96.9l1.7 1v2l1.7.9v2 2l1.7.9v-1.9l1.7 1v-2l-1.7-1v-1.9l-1.7-1v-2l-1.7-1V94l-1.7-1v2zm13.6 11.8v-2l1.7 1v-2.1l-1.7-1-1.7-.9v2l-1.7-1v2.1l1.7.9zm15.3 6.8l-1.7-.9v1.9 2l-1.7-1v2l1.7.9v2l1.7 1v1.9 2l1.7 1v-2-1.9-2l-1.7-1v-1.9l1.7.9v-1.9l-1.7-1zm-28.9-14.7l-1.7-.9v1.9 2l1.7 1v1.9l1.7 1v-2-1.9l-1.7-1z"></path><path d="M35.6 101.8v2l1.7 1v-2zm17 11.8v1.9l1.7 1 1.7 1 1.7 1v-2-1.9l-1.7-1v1.9l-1.7-.9v-2l-1.7-1v-1.9l-1.7-1v1.9l-1.7-.9v1.9l1.7 1z"></path><path d="M37.3 106.7l1.7 1v-2l-1.7-.9zm5.1 1l-1.7-1v2 1.9l1.7 1v2 1.9l1.7 1v-1.9-2-2l-1.7-.9z"></path><use href="#Aw" x="15.3" y="14.7"></use><use href="#Aw" x="13.6" y="15.7"></use><path d="M52.6 119.5v-2-2l-1.7-.9v1.9l-1.7-1v2l1.7 1zm-5.1-3l-1.7-1v2l1.7 1zm1.8 4.9l1.7 1v-1.9l-1.7-1z"></path><path d="M44.1 120.4v2l1.7 1v-2-1.9-2l-1.7-1v2zm8 3.7v2l2.4 1.4 2.5 1.4v-2l-2.5-1.4z"></path><use href="#Aw" x="10.2" y="25.5"></use><path d="M47.5 126.3l1.7 1v-2l-1.7-.9-1.7-1v1.9zm13.6 5.9v2l1.7.9 1.7 1v-1.9l-1.7-1zm-5.9-10.3l1.7 1V121l-1.7-1zM40.7 85.2l-8.5-4.9v9.8l8.5 4.9v-9.8zm-1.2 7.6l-5.9-3.4v-6.9l5.9 3.4v6.9zm-1.3-6.2l-3.4-1.9v3.9l3.4 1.9zM56 94v9.8l8.5 4.9v-9.8L56 94zm7.2 12.5l-5.9-3.4v-6.9l5.9 3.4v6.9zm-1.2-6.1l-3.4-2v3.9l3.4 2zm-29.8 17.1l8.5 4.9v-9.8l-8.5-4.9v9.8zm1.3-7.6l5.9 3.4v6.9l-5.9-3.4v-6.9zm1.3 6.2l3.4 1.9v-3.9l-3.4-2z"></path><path d="M58.6 127.8l1.7 1v-2-1.9-2l-1.7-1-1.7-1v2l1.7 1v1.9l-1.7-.9v1.9l-1.7-1v2l1.7 1v1.9l1.7 1v-1.9z"></path><path d="M53.8 119.2v2 1.9l1.7 1v-2l1.7 1v-1.9l-1.7-1zm5.1 6.8v2l2.5 1.4 2.4 1.4v-2.1l-2.4-1.3zm-9.6-3.9v2.7l1.7.9v-2.6-2.6l-1.7-1z"></path><path d="M48.7 119.1l-2.2-1.3v2l2.2 1.3 2.3 1.3v-1.9zm15.8 10.1l-1.7-1-1.7-1v2l1.7 1v2l1.7 1v-2z"></path></g><path d="M56 107.7l5.3 3.1v-3.2l-5.3-3.1z" fill="#fff"></path><g fill="#292148"><use href="#Aw" x="18.7" y="9.7"></use><use href="#Aw" x="20.3" y="31.3"></use><path d="M57.7 108.1l1.7.9v-1.9l-1.7-1z"></path></g><g fill="#9017cd"><use href="#Ax" opacity=".8"></use><use href="#Ax" x="6.5" y="3.7" opacity=".6"></use><path d="M71 198.7v8.8l-4.8-7.2 4.8-1.6z" opacity=".4"></path><use href="#Ax" x="19.6" y="11.2" opacity=".25"></use><use href="#Ax" x="26.1" y="14.9" opacity=".15"></use><path d="M48.7 38.8v-8.9l4.8 7.2-4.8 1.7z" opacity=".8"></path><path d="M42.2 35.1v-8.9l4.8 7.2-4.8 1.7z" opacity=".6"></path><path d="M35.6 31.3v-8.8l4.8 7.2-4.8 1.6z" opacity=".4"></path><path d="M29.1 27.6v-8.9l4.8 7.2-4.8 1.7z" opacity=".25"></path><path d="M22.6 23.9V15l4.8 7.2-4.8 1.7z" opacity=".15"></path></g><linearGradient id="AQ" gradientUnits="userSpaceOnUse" x1="24.691" y1="19.612" x2="95.709" y2="238.843"><stop offset="0" stop-color="#bec5d8"></stop><stop offset=".253" stop-color="#fff"></stop><stop offset=".258" stop-color="#fdfdfe"></stop><stop offset=".328" stop-color="#e5e8ef"></stop><stop offset=".392" stop-color="#d6dbe6"></stop><stop offset=".445" stop-color="#d1d6e3"></stop><stop offset=".554" stop-color="#9097b4"></stop><stop offset=".616" stop-color="#70789c"></stop><stop offset=".658" stop-color="#767ea3"></stop><stop offset=".717" stop-color="#888fb5"></stop><stop offset=".785" stop-color="#a5aad4"></stop><stop offset=".815" stop-color="#b4b8e3"></stop><stop offset=".821" stop-color="#b2b6e1"></stop><stop offset=".887" stop-color="#9da1c9"></stop><stop offset=".949" stop-color="#9094ba"></stop><stop offset="1" stop-color="#8b90b5"></stop></linearGradient><use href="#Av" x="122.2" fill="url(#AQ)"></use><linearGradient id="AR" gradientUnits="userSpaceOnUse" x1="80.024" y1="-116.92" x2="205.55" y2="197.782"><stop offset="0" stop-color="#8b90b5"></stop><stop offset=".051" stop-color="#9094ba"></stop><stop offset=".113" stop-color="#9da1c9"></stop><stop offset=".179" stop-color="#b2b6e1"></stop><stop offset=".185" stop-color="#b4b8e3"></stop><stop offset=".215" stop-color="#a5aad4"></stop><stop offset=".284" stop-color="#888fb5"></stop><stop offset=".342" stop-color="#767ea3"></stop><stop offset=".384" stop-color="#70789c"></stop><stop offset=".446" stop-color="#9097b4"></stop><stop offset=".555" stop-color="#d1d6e3"></stop><stop offset=".608" stop-color="#d6dbe6"></stop><stop offset=".672" stop-color="#e5e8ef"></stop><stop offset=".742" stop-color="#fdfdfe"></stop><stop offset=".748" stop-color="#fff"></stop><stop offset="1" stop-color="#bec5d8"></stop></linearGradient><path d="M197.5 196.2c-.9 0-1.9-.3-3-.9l-42.2-24.4c-4.5-2.6-8.2-9.7-8.2-15.7V42.6c0-4.1 1.7-6.7 4.3-6.7.9 0 1.9.3 3 .9l42.2 24.4c4.5 2.6 8.2 9.7 8.2 15.7v112.5c.1 4.2-1.6 6.8-4.3 6.8z" fill="url(#AR)"></path><path d="M146.6 156.1V45.2c0-4.6 2.8-6.7 6.3-4.7L193.6 64c3.5 2 6.3 7.4 6.3 12v110.8c0 4.6-2.8 6.7-6.3 4.7L152.9 168c-3.5-2-6.3-7.3-6.3-11.9z" fill="#adb6e6"></path><linearGradient id="AS" gradientUnits="userSpaceOnUse" x1="52.165" y1="-186.565" x2="192.589" y2="165.488"><stop offset="0" stop-color="#e20062"></stop><stop offset=".192" stop-color="#cf017a"></stop><stop offset=".596" stop-color="#9e05b8"></stop><stop offset="1" stop-color="#6809fb"></stop></linearGradient><path d="M196.2 192.4c-.9 0-1.9-.3-2.9-.9L153 168.2c-4.3-2.5-7.8-9.2-7.8-15V45.8c0-3.9 1.6-6.4 4.1-6.4.9 0 1.9.3 2.9.9l40.3 23.3c4.3 2.5 7.8 9.2 7.8 15V186c.1 3.9-1.5 6.4-4.1 6.4z" fill="url(#AS)"></path><path d="M187.3 172.2l-38.9-22.4c-4-2.3-7.3-8-7.3-12.6V58.1c0-4.7 3.3-6.5 7.3-4.2l38.9 22.4c4 2.3 7.3 8 7.3 12.6V168c0 4.6-3.3 6.5-7.3 4.2z" fill="#ccc"></path><path d="M187.2 172.2l-38.9-22.4c-4-2.3-7.3-8-7.3-12.6V58.1c0-4.7 3.3-6.5 7.3-4.2l38.9 22.4c4 2.3 7.3 8 7.3 12.6V168c0 4.7-3.2 6.6-7.3 4.2z" fill="#cdcdcd"></path><path d="M187.2 172.3l-38.9-22.4c-4-2.3-7.3-8-7.3-12.6V58.2c0-4.7 3.3-6.5 7.3-4.2l38.9 22.4c4 2.3 7.3 8 7.3 12.6v79.1c0 4.6-3.3 6.5-7.3 4.2z" fill="#cecece"></path><path d="M187.1 172.3l-38.9-22.4c-4-2.3-7.3-8-7.3-12.6V58.2c0-4.7 3.3-6.5 7.3-4.2l38.9 22.4c4 2.3 7.3 8 7.3 12.6v79.1c0 4.7-3.3 6.5-7.3 4.2z" fill="#cfcfcf"></path><path d="M187 172.4L148.1 150c-4-2.3-7.3-8-7.3-12.6V58.3c0-4.7 3.3-6.5 7.3-4.2L187 76.4c4 2.3 7.3 8 7.3 12.6v79.1c0 4.7-3.2 6.6-7.3 4.3z" fill="#d0d0d0"></path><path d="M187 172.4L148.1 150c-4-2.3-7.3-8-7.3-12.6V58.3c0-4.7 3.3-6.5 7.3-4.2L187 76.4c4 2.3 7.3 8 7.3 12.6v79.1c0 4.8-3.3 6.6-7.3 4.3z" fill="#d1d1d1"></path><path d="M186.9 172.5L148 150c-4-2.3-7.3-8-7.3-12.6V58.3c0-4.7 3.3-6.5 7.3-4.2l38.9 22.4c4 2.3 7.3 8 7.3 12.6v79.1c0 4.7-3.3 6.6-7.3 4.3z" fill="#d2d2d2"></path><path d="M186.9 172.5L148 150.1c-4-2.3-7.3-8-7.3-12.6V58.4c0-4.7 3.3-6.5 7.3-4.2l38.9 22.4c4 2.3 7.3 8 7.3 12.6v79.1c-.1 4.6-3.3 6.5-7.3 4.2z" fill="#d3d3d3"></path><path d="M186.8 172.6l-38.9-22.4c-4-2.3-7.3-8-7.3-12.6V58.5c0-4.7 3.3-6.5 7.3-4.2l38.9 22.4c4 2.3 7.3 8 7.3 12.6v79.1c0 4.6-3.3 6.5-7.3 4.2z" fill="#d4d4d4"></path><path d="M186.7 172.6l-38.9-22.4c-4-2.3-7.3-8-7.3-12.6V58.5c0-4.7 3.3-6.5 7.3-4.2l38.9 22.4c4 2.3 7.3 8 7.3 12.6v79.1c0 4.6-3.2 6.5-7.3 4.2z" fill="#d5d5d5"></path><path d="M186.7 172.6l-38.9-22.4c-4-2.3-7.3-8-7.3-12.6V58.5c0-4.7 3.3-6.5 7.3-4.2l38.9 22.4c4 2.3 7.3 8 7.3 12.6v79.1c0 4.7-3.3 6.6-7.3 4.2z" fill="#d6d6d6"></path><path d="M186.6 172.7l-38.9-22.4c-4-2.3-7.3-8-7.3-12.6V58.6c0-4.7 3.3-6.5 7.3-4.2l38.9 22.4c4 2.3 7.3 8 7.3 12.6v79.1c0 4.6-3.3 6.5-7.3 4.2z" fill="#d7d7d7"></path><path d="M186.5 172.7l-38.9-22.4c-4-2.3-7.3-8-7.3-12.6V58.6c0-4.7 3.3-6.5 7.3-4.2l38.9 22.4c4 2.3 7.3 8 7.3 12.6v79.1c0 4.7-3.2 6.6-7.3 4.2z" fill="#d8d8d8"></path><path d="M186.5 172.8l-38.9-22.4c-4-2.3-7.3-8-7.3-12.6V58.7c0-4.7 3.3-6.5 7.3-4.2l38.9 22.4c4 2.3 7.3 8 7.3 12.6v79.1c0 4.6-3.3 6.5-7.3 4.2z" fill="#d9d9d9"></path><path d="M186.4 172.8l-38.9-22.4c-4-2.3-7.3-8-7.3-12.6V58.7c0-4.7 3.3-6.5 7.3-4.2l38.9 22.4c4 2.3 7.3 8 7.3 12.6v79.1c0 4.7-3.3 6.6-7.3 4.2z" fill="#dadada"></path><path d="M186.3 172.9l-38.9-22.4c-4-2.3-7.3-8-7.3-12.6V58.8c0-4.7 3.3-6.5 7.3-4.2L186.3 77c4 2.3 7.3 8 7.3 12.6v79.1c0 4.6-3.2 6.5-7.3 4.2z" fill="#dbdbdb"></path><path d="M186.3 172.9l-38.9-22.4c-4-2.3-7.3-8-7.3-12.6V58.8c0-4.7 3.3-6.5 7.3-4.2L186.3 77c4 2.3 7.3 8 7.3 12.6v79.1c0 4.7-3.3 6.6-7.3 4.2z" fill="#dcdcdc"></path><path d="M186.2 173l-38.9-22.4c-4-2.3-7.3-8-7.3-12.6V58.9c0-4.7 3.3-6.5 7.3-4.2L186.2 77c4 2.3 7.3 8 7.3 12.6v79.1c0 4.7-3.3 6.6-7.3 4.3z" fill="#ddd"></path><path d="M186.2 173l-38.9-22.4c-4-2.3-7.3-8-7.3-12.6V58.9c0-4.7 3.3-6.5 7.3-4.2L186.2 77c4 2.3 7.3 8 7.3 12.6v79.1c0 4.8-3.3 6.7-7.3 4.3z" fill="#dedede"></path><path d="M186.1 173.1l-38.9-22.4c-4-2.3-7.3-8-7.3-12.6V59c0-4.7 3.3-6.5 7.3-4.2l38.9 22.4c4 2.3 7.3 8 7.3 12.6v79.1c0 4.6-3.3 6.5-7.3 4.2z" fill="#dfdfdf"></path><path d="M186 173.1l-38.9-22.4c-4-2.3-7.3-8-7.3-12.6V59c0-4.7 3.3-6.5 7.3-4.2L186 77.1c4 2.3 7.3 8 7.3 12.6v79.1c0 4.8-3.2 6.6-7.3 4.3z" fill="#e0e0e0"></path><path d="M186 173.2l-38.9-22.4c-4-2.3-7.3-8-7.3-12.6V59.1c0-4.7 3.3-6.5 7.3-4.2L186 77.2c4 2.3 7.3 8 7.3 12.6v79.1c0 4.7-3.3 6.6-7.3 4.3z" fill="#e1e1e1"></path><path d="M185.9 173.2L147 150.8c-4-2.3-7.3-8-7.3-12.6V59.1c0-4.7 3.3-6.5 7.3-4.2l38.9 22.4c4 2.3 7.3 8 7.3 12.6V169c0 4.7-3.3 6.5-7.3 4.2z" fill="#e2e2e2"></path><path d="M185.8 173.3L147 150.8c-4-2.3-7.3-8-7.3-12.6V59.1c0-4.7 3.3-6.5 7.3-4.2l38.9 22.4c4 2.3 7.3 8 7.3 12.6V169c-.1 4.7-3.3 6.6-7.4 4.3z" fill="#e3e3e3"></path><path d="M185.8 173.3l-38.9-22.4c-4-2.3-7.3-8-7.3-12.6V59.2c0-4.7 3.3-6.5 7.3-4.2l38.9 22.4c4 2.3 7.3 8 7.3 12.6v79.1c0 4.6-3.3 6.5-7.3 4.2z" fill="#e4e4e4"></path><g fill="#e5e5e5"><path d="M185.7 173.4L146.8 151c-4-2.3-7.3-8-7.3-12.6V59.3c0-4.7 3.3-6.5 7.3-4.2l38.9 22.4c4 2.3 7.3 8 7.3 12.6v79.1c0 4.6-3.3 6.5-7.3 4.2z"></path><path d="M185.6 173.4L146.7 151c-4-2.3-7.3-8-7.3-12.6V59.3c0-4.7 3.3-6.5 7.3-4.2l38.9 22.4c4 2.3 7.3 8 7.3 12.6v79.1c0 4.6-3.2 6.5-7.3 4.2z"></path></g><path d="M185.6 173.4L146.7 151c-4-2.3-7.3-8-7.3-12.6V59.3c0-4.7 3.3-6.5 7.3-4.2l38.9 22.4c4 2.3 7.3 8 7.3 12.6v79.1c0 4.7-3.3 6.6-7.3 4.2z" fill="#e6e6e6"></path><path d="M185.5 173.5L146.6 151c-4-2.3-7.3-8-7.3-12.6V59.3c0-4.7 3.3-6.5 7.3-4.2l38.9 22.4c4 2.3 7.3 8 7.3 12.6v79.1c0 4.7-3.2 6.6-7.3 4.3z" fill="#e7e7e7"></path><path d="M185.5 173.5l-38.9-22.4c-4-2.3-7.3-8-7.3-12.6V59.4c0-4.7 3.3-6.5 7.3-4.2l38.9 22.4c4 2.3 7.3 8 7.3 12.6v79.1c0 4.7-3.3 6.6-7.3 4.2z" fill="#e8e8e8"></path><path d="M185.4 173.6l-38.9-22.4c-4-2.3-7.3-8-7.3-12.6V59.5c0-4.7 3.3-6.5 7.3-4.2l38.9 22.4c4 2.3 7.3 8 7.3 12.6v79.1c0 4.6-3.3 6.5-7.3 4.2z" fill="#e9e9e9"></path><path d="M185.3 173.6l-38.9-22.4c-4-2.3-7.3-8-7.3-12.6V59.5c0-4.7 3.3-6.5 7.3-4.2l38.9 22.4c4 2.3 7.3 8 7.3 12.6v79.1c0 4.7-3.2 6.6-7.3 4.2z" fill="#eaeaea"></path><path d="M185.3 173.7l-38.9-22.4c-4-2.3-7.3-8-7.3-12.6V59.6c0-4.7 3.3-6.5 7.3-4.2l38.9 22.4c4 2.3 7.3 8 7.3 12.6v79.1c0 4.6-3.3 6.5-7.3 4.2z" fill="#ebebeb"></path><path d="M185.2 173.7l-38.9-22.4c-4-2.3-7.3-8-7.3-12.6V59.6c0-4.7 3.3-6.5 7.3-4.2l38.9 22.4c4 2.3 7.3 8 7.3 12.6v79.1c0 4.7-3.3 6.6-7.3 4.2z" fill="#ececec"></path><path d="M185.1 173.8l-38.9-22.4c-4-2.3-7.3-8-7.3-12.6V59.7c0-4.7 3.3-6.5 7.3-4.2l38.9 22.4c4 2.3 7.3 8 7.3 12.6v79.1c0 4.6-3.2 6.5-7.3 4.2z" fill="#ededed"></path><path d="M185.1 173.8l-38.9-22.4c-4-2.3-7.3-8-7.3-12.6V59.7c0-4.7 3.3-6.5 7.3-4.2l38.9 22.4c4 2.3 7.3 8 7.3 12.6v79.1c0 4.7-3.3 6.5-7.3 4.2z" fill="#eee"></path><path d="M185 173.9l-38.9-22.4c-4-2.3-7.3-8-7.3-12.6V59.8c0-4.7 3.3-6.5 7.3-4.2L185 77.9c4 2.3 7.3 8 7.3 12.6v79.1c0 4.7-3.3 6.6-7.3 4.3z" fill="#efefef"></path><path d="M185 173.9l-38.9-22.4c-4-2.3-7.3-8-7.3-12.6V59.8c0-4.7 3.3-6.5 7.3-4.2L185 77.9c4 2.3 7.3 8 7.3 12.6v79.1c0 4.8-3.3 6.6-7.3 4.3z" fill="#f0f0f0"></path><path d="M184.9 174L146 151.5c-4-2.3-7.3-8-7.3-12.6V59.8c0-4.7 3.3-6.5 7.3-4.2L184.9 78c4 2.3 7.3 8 7.3 12.6v79.1c0 4.7-3.3 6.6-7.3 4.3z" fill="#f1f1f1"></path><path d="M184.8 174l-38.9-22.4c-4-2.3-7.3-8-7.3-12.6V59.9c0-4.7 3.3-6.5 7.3-4.2L184.8 78c4 2.3 7.3 8 7.3 12.6v79.1c0 4.7-3.2 6.6-7.3 4.3z" fill="#f2f2f2"></path><use href="#Ay" fill="#f3f3f3"></use><use href="#Ay" x="-0.1" fill="#f4f4f4"></use><path d="M184.6 174.2l-38.9-22.4c-4-2.3-7.3-8-7.3-12.6V60.1c0-4.7 3.3-6.5 7.3-4.2l38.9 22.4c4 2.3 7.3 8 7.3 12.6V170c0 4.6-3.2 6.5-7.3 4.2z" fill="#f5f5f5"></path><path d="M184.6 174.2l-38.9-22.4c-4-2.3-7.3-8-7.3-12.6V60.1c0-4.7 3.3-6.5 7.3-4.2l38.9 22.4c4 2.3 7.3 8 7.3 12.6V170c0 4.6-3.3 6.5-7.3 4.2z" fill="#f6f6f6"></path><path d="M184.5 174.2l-38.9-22.4c-4-2.3-7.3-8-7.3-12.6V60.1c0-4.7 3.3-6.5 7.3-4.2l38.9 22.4c4 2.3 7.3 8 7.3 12.6V170c0 4.7-3.3 6.6-7.3 4.2z" fill="#f7f7f7"></path><path d="M184.4 174.3l-38.9-22.4c-4-2.3-7.3-8-7.3-12.6V60.2c0-4.7 3.3-6.5 7.3-4.2l38.9 22.4c4 2.3 7.3 8 7.3 12.6v79.1c0 4.6-3.2 6.5-7.3 4.2z" fill="#f8f8f8"></path><path d="M184.4 174.3l-38.9-22.4c-4-2.3-7.3-8-7.3-12.6V60.2c0-4.7 3.3-6.5 7.3-4.2l38.9 22.4c4 2.3 7.3 8 7.3 12.6v79.1c0 4.7-3.3 6.6-7.3 4.2z" fill="#f9f9f9"></path><path d="M184.3 174.4L145.4 152c-4-2.3-7.3-8-7.3-12.6V60.3c0-4.7 3.3-6.5 7.3-4.2l38.9 22.4c4 2.3 7.3 8 7.3 12.6v79.1c0 4.6-3.3 6.5-7.3 4.2z" fill="#fafafa"></path><path d="M184.3 174.4L145.4 152c-4-2.3-7.3-8-7.3-12.6V60.3c0-4.7 3.3-6.5 7.3-4.2l38.9 22.4c4 2.3 7.3 8 7.3 12.6v79.1c0 4.7-3.3 6.6-7.3 4.2z" fill="#fbfbfb"></path><path d="M184.2 174.5L145.3 152c-4-2.3-7.3-8-7.3-12.6V60.3c0-4.7 3.3-6.5 7.3-4.2l38.9 22.4c4 2.3 7.3 8 7.3 12.6v79.1c0 4.7-3.3 6.6-7.3 4.3z" fill="#fcfcfc"></path><path d="M184.1 174.5l-38.9-22.4c-4-2.3-7.3-8-7.3-12.6V60.4c0-4.7 3.3-6.5 7.3-4.2l38.9 22.4c4 2.3 7.3 8 7.3 12.6v79.1c0 4.7-3.2 6.6-7.3 4.2z" fill="#fdfdfd"></path><path d="M184.1 174.6l-38.9-22.4c-4-2.3-7.3-8-7.3-12.6V60.5c0-4.7 3.3-6.5 7.3-4.2l38.9 22.4c4 2.3 7.3 8 7.3 12.6v79.1c0 4.6-3.3 6.5-7.3 4.2z" fill="#fefefe"></path><path d="M184 174.6l-38.9-22.4c-4-2.3-7.3-8-7.3-12.6V60.5c0-4.7 3.3-6.5 7.3-4.2L184 78.6c4 2.3 7.3 8 7.3 12.6v79.1c0 4.8-3.3 6.6-7.3 4.3z" fill="#fff"></path><g fill="#ccc"><path d="M156.8 81.5l-14.2-8.2c-.4-.3-.8-.9-.8-1.4h0c0-.5.4-.7.8-.5l14.2 8.2c.4.3.8.9.8 1.4h0c0 .6-.3.8-.8.5zm15.8 23.2l-9.8-5.7c-.4-.3-.8-.9-.8-1.4h0c0-.5.4-.7.8-.5l9.8 5.7c.4.3.8.9.8 1.4h0c0 .6-.3.8-.8.5zm9.4 5.4l-6-3.4c-.4-.3-.8-.9-.8-1.4h0c0-.5.4-.7.8-.5l6 3.4c.4.3.8.9.8 1.4h0c0 .6-.4.8-.8.5zm-29.1 11.5l-10.1-5.9c-.4-.3-.8-.9-.8-1.4h0c0-.5.4-.7.8-.5l10.1 5.9c.4.3.8.9.8 1.4h0c0 .6-.3.8-.8.5z"></path><use href="#Az"></use><use href="#Az" y="21.1"></use><path d="M159.1 111l-3.2-1.8c-.4-.3-.8-.9-.8-1.4h0c0-.5.4-.7.8-.5l3.2 1.8c.4.3.8.9.8 1.4h0c0 .5-.4.7-.8.5zm1.2 7.8l-9.2-5.3c-.4-.3-.8-.9-.8-1.4h0c0-.5.4-.7.8-.5l9.2 5.3c.4.3.8.9.8 1.4h0c0 .5-.4.7-.8.5zm16.4 9.5l-13.3-7.7c-.4-.3-.8-.9-.8-1.4h0c0-.5.4-.7.8-.5l13.3 7.7c.4.3.8.9.8 1.4h0c0 .5-.3.7-.8.5zm-24.3-21.1l-9.6-5.6c-.4-.3-.8-.9-.8-1.4h0c0-.5.4-.7.8-.5l9.6 5.6c.4.3.8.9.8 1.4h0c0 .5-.3.7-.8.5zm-4.5 4.4l-5.1-2.9c-.4-.3-.8-.9-.8-1.4h0c0-.5.4-.7.8-.5l5.1 2.9c.4.3.8.9.8 1.4h0c-.1.6-.4.8-.8.5zm19.7 4.3l-4.7-2.7c-.4-.3-.8-.9-.8-1.4h0c0-.5.4-.7.8-.5l4.7 2.7c.4.3.8.9.8 1.4h0c0 .6-.4.8-.8.5zM152.4 93l-9.6-5.6c-.4-.3-.8-.9-.8-1.4h0c0-.5.4-.7.8-.5l9.6 5.6c.4.3.8.9.8 1.4h0c0 .6-.4.8-.8.5zm4.7 9.8l-14.4-8.3c-.4-.3-.8-.9-.8-1.4h0c0-.5.4-.7.8-.5l14.4 8.3c.4.3.8.9.8 1.4h0c0 .6-.3.8-.8.5zm31.3-3l-12.7-7.3c-.4-.3-.8-.9-.8-1.4h0c0-.5.4-.7.8-.5l12.7 7.3c.4.3.8.9.8 1.4h0c0 .5-.3.7-.8.5zm-9 15.8l-3.6-2.1c-.4-.3-.8-.9-.8-1.4h0c0-.5.4-.7.8-.5l3.6 2.1c.4.3.8.9.8 1.4h0c-.1.6-.4.8-.8.5zm-30.2-31.4l-6.6-3.8c-.4-.3-.8-.9-.8-1.4h0c0-.5.4-.7.8-.5l6.6 3.8c.4.3.8.9.8 1.4h0c0 .5-.4.7-.8.5zm20.1 46.9l-4.9-2.8c-.4-.3-.8-.9-.8-1.4h0c0-.5.4-.7.8-.5l4.9 2.8c.4.3.8.9.8 1.4h0c0 .6-.4.8-.8.5zm-15.5-44.3l-1-.6c-.4-.3-.8-.9-.8-1.4h0c0-.5.4-.7.8-.5l1 .6c.4.3.8.9.8 1.4h0c0 .6-.3.8-.8.5zm4.7 2.7l-1.1-.6c-.4-.3-.8-.9-.8-1.4h0c0-.5.4-.7.8-.5l1.1.6c.4.3.8.9.8 1.4h0c0 .6-.4.8-.8.5zm18.5 10.7l-3.6-2.1c-.4-.3-.8-.9-.8-1.4h0c0-.5.4-.7.8-.5l3.6 2.1c.4.3.8.9.8 1.4h0c0 .6-.3.8-.8.5zm-17.6-3.1l-3.6-2.1c-.4-.3-.8-.9-.8-1.4h0c0-.5.4-.7.8-.5l3.6 2.1c.4.3.8.9.8 1.4h0c0 .5-.3.8-.8.5zm1.1 28.9l-3.6-2.1c-.4-.3-.8-.9-.8-1.4h0c0-.5.4-.7.8-.5l3.6 2.1c.4.3.8.9.8 1.4h0c0 .6-.4.8-.8.5zm9.3-29.9l-7.5-4.3c-.4-.3-.8-.9-.8-1.4h0c0-.5.4-.7.8-.5l7.5 4.3c.4.3.8.9.8 1.4h0c0 .5-.4.7-.8.5zm7.6 25.4l-5.1-2.9c-.4-.3-.8-.9-.8-1.4h0c0-.5.4-.7.8-.5l5.1 2.9c.4.3.8.9.8 1.4h0c0 .5-.4.7-.8.5z"></path></g><linearGradient id="AT" gradientUnits="userSpaceOnUse" x1="126.26" y1="98.589" x2="169.276" y2="146.494"><stop offset="0" stop-color="#fde192"></stop><stop offset="1" stop-color="#fc866b"></stop></linearGradient><use href="#BA" fill="url(#AT)"></use><linearGradient id="AU" gradientUnits="userSpaceOnUse" x1="126.92" y1="100.569" x2="170.028" y2="147.436"><stop offset="0" stop-color="#fde192"></stop><stop offset="1" stop-color="#fc866b"></stop></linearGradient><use href="#BB" fill="url(#AU)"></use><linearGradient id="AV" gradientUnits="userSpaceOnUse" x1="127.743" y1="102.447" x2="170.91" y2="148.267"><stop offset="0" stop-color="#fde192"></stop><stop offset="1" stop-color="#fc866b"></stop></linearGradient><use href="#BB" x="-0.1" y="0.1" fill="url(#AV)"></use><linearGradient id="AW" gradientUnits="userSpaceOnUse" x1="128.628" y1="104.424" x2="171.822" y2="149.187"><stop offset="0" stop-color="#fde192"></stop><stop offset="1" stop-color="#fc866b"></stop></linearGradient><use href="#BA" x="-0.2" y="0.1" fill="url(#AW)"></use><linearGradient id="AX" gradientUnits="userSpaceOnUse" x1="129.475" y1="106.295" x2="172.663" y2="149.994"><stop offset="0" stop-color="#fde192"></stop><stop offset="1" stop-color="#fc866b"></stop></linearGradient><use href="#BB" x="-0.2" y="0.2" fill="url(#AX)"></use><linearGradient id="AY" gradientUnits="userSpaceOnUse" x1="130.484" y1="108.259" x2="173.634" y2="150.888"><stop offset="0" stop-color="#fde192"></stop><stop offset="1" stop-color="#fc866b"></stop></linearGradient><use href="#BB" x="-0.3" y="0.2" fill="url(#AY)"></use><linearGradient id="AZ" gradientUnits="userSpaceOnUse" x1="131.154" y1="110.415" x2="174.232" y2="151.967"><stop offset="0" stop-color="#fde192"></stop><stop offset="1" stop-color="#fc866b"></stop></linearGradient><use href="#BC" fill="url(#AZ)"></use><linearGradient id="Aa" gradientUnits="userSpaceOnUse" x1="132.185" y1="112.36" x2="175.159" y2="152.831"><stop offset="0" stop-color="#fde192"></stop><stop offset="1" stop-color="#fc866b"></stop></linearGradient><path d="M177.1 144.1l-1.2-2c-.8-1.3-2-2-2.7-1.6l-7.9 4.6c-.8.4-2-.3-2.7-1.6l-2.6-4.6c-.8-1.3-2-2-2.7-1.6l-1.3.7c-.8.4-.8 1.8 0 3.2l6.6 11.3c.8 1.3 2 2 2.7 1.6l2.5-1.5 9.3-5.4c.8-.4.8-1.8 0-3.1z" fill="url(#Aa)"></path><linearGradient id="Ab" gradientUnits="userSpaceOnUse" x1="133.775" y1="113.991" x2="176.614" y2="153.379"><stop offset="0" stop-color="#fde192"></stop><stop offset="1" stop-color="#fc866b"></stop></linearGradient><use href="#BB" x="-0.5" y="0.3" fill="url(#Ab)"></use><linearGradient id="Ac" gradientUnits="userSpaceOnUse" x1="135.026" y1="115.808" x2="177.695" y2="154.109"><stop offset="0" stop-color="#fde192"></stop><stop offset="1" stop-color="#fc866b"></stop></linearGradient><use href="#BA" x="-0.6" y="0.4" fill="url(#Ac)"></use><linearGradient id="Ad" gradientUnits="userSpaceOnUse" x1="136.235" y1="117.708" x2="178.703" y2="154.921"><stop offset="0" stop-color="#fde192"></stop><stop offset="1" stop-color="#fc866b"></stop></linearGradient><use href="#BB" x="-0.6" y="0.4" fill="url(#Ad)"></use><linearGradient id="Ae" gradientUnits="userSpaceOnUse" x1="136.903" y1="119.989" x2="179.137" y2="156.114"><stop offset="0" stop-color="#fde192"></stop><stop offset="1" stop-color="#fc866b"></stop></linearGradient><path d="M176.9 144.2l-1.2-2c-.8-1.3-2-2-2.7-1.6l-7.9 4.6c-.8.4-2-.3-2.7-1.6l-2.6-4.6c-.8-1.3-2-2-2.7-1.6l-1.2.7c-.8.4-.8 1.8 0 3.2l6.6 11.3c.8 1.3 2 2 2.7 1.6l2.5-1.5 9.3-5.4c.6-.3.6-1.7-.1-3.1z" fill="url(#Ae)"></path><linearGradient id="Af" gradientUnits="userSpaceOnUse" x1="139.027" y1="121.349" x2="180.997" y2="156.386"><stop offset="0" stop-color="#fde192"></stop><stop offset="1" stop-color="#fc866b"></stop></linearGradient><use href="#BA" x="-0.8" y="0.5" fill="url(#Af)"></use><linearGradient id="Ag" gradientUnits="userSpaceOnUse" x1="139.609" y1="123.687" x2="181.281" y2="157.638"><stop offset="0" stop-color="#fde192"></stop><stop offset="1" stop-color="#fc866b"></stop></linearGradient><path d="M176.7 144.3l-1.2-2c-.8-1.3-2-2-2.7-1.6l-7.9 4.6c-.8.4-2-.3-2.7-1.6l-2.6-4.6c-.8-1.3-2-2-2.7-1.6l-1.2.7c-.8.4-.8 1.8 0 3.2l6.6 11.3c.8 1.3 2 2 2.7 1.6l2.5-1.5 9.3-5.4c.7-.3.7-1.8-.1-3.1z" fill="url(#Ag)"></path><linearGradient id="Ah" gradientUnits="userSpaceOnUse" x1="141.946" y1="124.9" x2="183.288" y2="157.768"><stop offset="0" stop-color="#fde192"></stop><stop offset="1" stop-color="#fc866b"></stop></linearGradient><use href="#BA" x="-0.9" y="0.6" fill="url(#Ah)"></use><linearGradient id="Ai" gradientUnits="userSpaceOnUse" x1="143.439" y1="126.686" x2="184.42" y2="158.475"><stop offset="0" stop-color="#fde192"></stop><stop offset="1" stop-color="#fc866b"></stop></linearGradient><use href="#BB" x="-0.9" y="0.6" fill="url(#Ai)"></use><linearGradient id="Aj" gradientUnits="userSpaceOnUse" x1="145.084" y1="128.344" x2="185.673" y2="159.059"><stop offset="0" stop-color="#fde192"></stop><stop offset="1" stop-color="#fc866b"></stop></linearGradient><use href="#BB" x="-1" y="0.7" fill="url(#Aj)"></use><linearGradient id="Ak" gradientUnits="userSpaceOnUse" x1="146.783" y1="130.072" x2="186.949" y2="159.718"><stop offset="0" stop-color="#fde192"></stop><stop offset="1" stop-color="#fc866b"></stop></linearGradient><use href="#BA" x="-1.1" y="0.7" fill="url(#Ak)"></use><linearGradient id="Al" gradientUnits="userSpaceOnUse" x1="147.333" y1="132.469" x2="187.045" y2="161.052"><stop offset="0" stop-color="#fde192"></stop><stop offset="1" stop-color="#fc866b"></stop></linearGradient><path d="M176.4 144.5l-1.2-2c-.8-1.3-2-2-2.7-1.6l-7.9 4.6c-.8.4-2-.3-2.7-1.6l-2.6-4.6c-.8-1.3-2-2-2.7-1.6l-1.2.7c-.8.4-.8 1.8 0 3.2l6.6 11.3c.8 1.3 2 2 2.7 1.6l2.5-1.5 9.3-5.4c.7-.3.7-1.7-.1-3.1z" fill="url(#Al)"></path><linearGradient id="Am" gradientUnits="userSpaceOnUse" x1="150.234" y1="133.332" x2="189.462" y2="160.861"><stop offset="0" stop-color="#fde192"></stop><stop offset="1" stop-color="#fc866b"></stop></linearGradient><use href="#BB" x="-1.2" y="0.8" fill="url(#Am)"></use><linearGradient id="An" gradientUnits="userSpaceOnUse" x1="151.684" y1="135.16" x2="190.398" y2="161.643"><stop offset="0" stop-color="#fde192"></stop><stop offset="1" stop-color="#fc866b"></stop></linearGradient><use href="#BC" x="-0.9" y="0.6" fill="url(#An)"></use><linearGradient id="Ao" gradientUnits="userSpaceOnUse" x1="153.882" y1="136.451" x2="192.052" y2="161.897"><stop offset="0" stop-color="#fde192"></stop><stop offset=".808" stop-color="#fc866b"></stop></linearGradient><use href="#BB" x="-1.3" y="0.9" fill="url(#Ao)"></use><defs><path id="Aq" d="M118.1 163l-45-26c-1.4-.8-2.6-2.8-2.6-4.5v-52c0-1.6 1.2-2.3 2.6-1.5l45 26c1.4.8 2.6 2.8 2.6 4.5v52c0 1.7-1.2 2.3-2.6 1.5z"></path><path id="Ar" d="M117 163.6l-45-26c-1.4-.8-2.6-2.8-2.6-4.5v-52c0-1.6 1.2-2.3 2.6-1.5l45 26c1.4.8 2.6 2.8 2.6 4.5v52c0 1.6-1.1 2.3-2.6 1.5z"></path><path id="As" d="M116.6 163.8l-45-26c-1.4-.8-2.6-2.8-2.6-4.5v-52c0-1.6 1.2-2.3 2.6-1.5l45 26c1.4.8 2.6 2.8 2.6 4.5v52c0 1.7-1.1 2.3-2.6 1.5z"></path><path id="At" d="M116 164.2l-45-26c-1.4-.8-2.6-2.8-2.6-4.5v-52c0-1.6 1.2-2.3 2.6-1.5l45 26c1.4.8 2.6 2.8 2.6 4.5v52c0 1.6-1.2 2.3-2.6 1.5z"></path><path id="Au" d="M71.9 111.1l2.1 1.2v-2.4l-2.1-1.1z"></path><path id="Av" d="M75.9 193.2l-41.8-24.1c-4.7-2.7-8.5-10-8.5-16.3V41.5c0-3.2-2.6-3.9-1-5.1.1 0 4.2-2.1 4.3-2.1 1.7-.7 3.5-.9 5.8.3l41.8 24.1c4.7 2.7 8.5 10 8.5 16.3v111.3c0 3.3-1.1 5.7-2.8 6.8-.1.1-5 2.5-5.1 2.6-1.6.6.9-1.3-1.2-2.5z"></path><path id="Aw" d="M32.2 97.9l1.7 1v-2l-1.7-1z"></path><path id="Ax" d="M58 191.2v8.9l-4.8-7.2 4.8-1.7z"></path><path id="Ay" d="M184.8 174.1l-38.9-22.4c-4-2.3-7.3-8-7.3-12.6V60c0-4.7 3.3-6.5 7.3-4.2l38.9 22.4c4 2.3 7.3 8 7.3 12.6v79.1c0 4.6-3.3 6.5-7.3 4.2z"></path><path id="Az" d="M171.1 89.8l-9.6-5.6c-.4-.3-.8-.9-.8-1.4h0c0-.5.4-.7.8-.5l9.6 5.6c.4.3.8.9.8 1.4h0c0 .5-.4.7-.8.5z"></path><path id="BA" d="M177.6 143.8l-1.2-2c-.8-1.3-2-2-2.7-1.6l-7.9 4.6c-.8.4-2-.3-2.7-1.6l-2.6-4.6c-.8-1.3-2-2-2.7-1.6l-1.2.7c-.8.4-.8 1.8 0 3.2l6.6 11.3c.8 1.3 2 2 2.7 1.6l2.5-1.5 9.3-5.4c.6-.4.6-1.8-.1-3.1z"></path><path id="BB" d="M177.5 143.8l-1.2-2c-.8-1.3-2-2-2.7-1.6l-7.9 4.6c-.8.4-2-.3-2.7-1.6l-2.6-4.6c-.8-1.3-2-2-2.7-1.6l-1.2.7c-.8.4-.8 1.8 0 3.2l6.6 11.3c.8 1.3 2 2 2.7 1.6l2.5-1.5 9.3-5.4c.7-.4.7-1.8-.1-3.1z"></path><path id="BC" d="M177.2 144l-1.2-2c-.8-1.3-2-2-2.7-1.6l-7.9 4.6c-.8.4-2-.3-2.7-1.6l-2.6-4.6c-.8-1.3-2-2-2.7-1.6l-1.2.7c-.8.4-.8 1.8 0 3.2l6.6 11.3c.8 1.3 2 2 2.7 1.6l2.5-1.5 9.3-5.4c.6-.3.6-1.8-.1-3.1z"></path></defs></svg>