<svg xmlns="http://www.w3.org/2000/svg" xmlns:v="https://vecta.io/nano" viewBox="0 0 229 230"><style><![CDATA[.K{fill:#fff}.L{fill:#313440}.M{fill:#33b6be}.N{fill:#006cb5}]]></style><path d="M173.8 153.9c5.6-1.5 22.4 2.5 23.4 6.9 1 4.5-15.7 5.9-15.7 5.9l-8.1-10.9.4-1.9z" class="K"></path><path d="M181.4 166.8h0l-8.1-11 .4-2.1h.1c2.1-.5 5.9-.5 10.1.4 4.3.8 8.3 2.2 10.7 3.7 1.6 1 2.5 1.9 2.7 2.9.1.5 0 1.1-.4 1.5-2.4 3.4-15 4.6-15.5 4.6h0 0zm-7.9-11l8 10.8c1-.1 12.9-1.3 15.3-4.4.4-.5.5-.9.4-1.4-.2-.9-1.1-1.8-2.6-2.8-5.1-3.1-16.2-5.3-20.6-4.1l-.5 1.9z" class="L"></path><path d="M173.4 154.6l-.3 1.2 8.1 10.9s9.5-.8 13.8-3.2c.5-.5.7-1.1.6-1.8-.9-4.2-15.8-8.1-22.2-7.1zm-6.7 28.6h-1.8c-4.5 0-8.2-1.1-8.2-5.5h0 18.1 0c.1 4.4-3.6 5.5-8.1 5.5z" class="M"></path><g class="L"><path d="M166.7 183.3h-1.8c-2.6 0-4.5-.4-5.8-1.1-1.6-.9-2.5-2.5-2.5-4.5v-.1h18.3v.1c0 2.2-.8 3.6-2.5 4.5-1.2.7-3.1 1.1-5.7 1.1zm-9.8-5.6c.1 3.7 2.5 5.4 8.1 5.4h1.8c5.5 0 8-1.6 8.1-5.4h-18zm5.9-28h5.5v6.1h-5.5v-6.1z"></path><path d="M162.8 153.3h5.5v.5h-5.5v-.5z"></path></g><g class="K"><circle cx="166.8" cy="157.7" r="1.2"></circle><path d="M181.7 155.5c-1.5-2-12.3-2.6-15.8-2.7h-.3-.3c-3.5.2-14.4.8-15.8 2.7-1.7 2.4.4 19.5 8.1 23.3 1.5.9 4.2 2.1 7.8 2.1h.1.1c3.6 0 6.4-1.2 7.8-2.1 7.9-3.8 9.9-21 8.3-23.3h0z"></path></g><g class="L"><path d="M165.7 181h0 0-.3c-4 0-6.7-1.5-7.6-2.1h0c-4.5-2.3-6.7-8.7-7.6-12.4-1.2-4.7-1.4-9.8-.5-11.1 1.4-1.9 11.2-2.6 15.6-2.8h0 .5.5 0c4.5.2 14.3.9 15.6 2.8h0c.9 1.3.7 6.4-.5 11.1-.9 3.6-3.1 10.2-7.6 12.4h0c-1 .6-3.7 2.1-7.7 2.1h-.1-.3 0zm-.2-.3h0 0 .2.1c4.1.1 6.7-1.4 7.7-2h0c4.5-2.3 6.6-8.6 7.5-12.3 1.3-5.2 1.3-9.8.5-10.9h0c-1.4-1.9-12.4-2.5-15.7-2.7h-.2-.3c-3.4.2-14.3.8-15.7 2.7-.8 1.1-.7 5.7.5 10.9.9 3.6 3.1 10.1 7.5 12.3h0c1.2.7 3.9 2.1 7.9 2z"></path><path d="M180.8 167.5l-8.7-1.8c-.1 0-.1 0-.2.1l-3.8 6.5h-5.5l-3.9-6.7c0-.1-.1-.1-.2-.1l-8.2 2.5c0 .1.1.2.1.3l8-2.5 3.9 6.6.1.1h5.6c.1 0 .1 0 .1-.1l3.8-6.5 8.5 1.8c.4 0 .4-.1.4-.2z"></path></g><circle cx="167.5" cy="159.5" r="1.2" class="M"></circle><circle cx="162.8" cy="159.5" r="1.2" fill="#f05a27"></circle><circle cx="171.9" cy="159.5" r="1.2" fill="#faae33"></circle><path d="M176.9 130.4H155c-3 0-5.5 2.5-5.5 5.5v9.8c0 3 2.5 5.5 5.5 5.5h21.9c3 0 5.5-2.5 5.5-5.5v-9.8c.1-3.1-2.5-5.5-5.5-5.5z" class="K"></path><path d="M176.9 151.4H155a5.59 5.59 0 0 1-5.6-5.6V136a5.59 5.59 0 0 1 5.6-5.6h21.9a5.59 5.59 0 0 1 5.6 5.6v9.8c.1 3-2.5 5.6-5.6 5.6zm-21.8-20.9c-3 0-5.4 2.5-5.4 5.4v9.8c0 3 2.5 5.4 5.4 5.4H177c3 0 5.4-2.5 5.4-5.4V136c0-3-2.5-5.4-5.4-5.4l-21.9-.1h0zm20.1 1.3h-18c-2.7 0-5 2.3-5 5v7.7c0 2.7 2.3 5 5 5h18c2.7 0 5-2.3 5-5v-7.7c0-2.8-2.3-5-5-5z" class="L"></path><path d="M183.9 129.3h.5v9h-.5v-9zm0-1.6h.5v1.1h-.5v-1.1zm-36 1.3h.5v9h-.5v-9c-.1 0 0 0 0 0zm0-1.6h.5v1.1h-.5v-1.1c-.1 0 0 0 0 0z" class="M"></path><path d="M147.3 143.4h2.3V138h-2.3c-1.1 0-1.9.8-1.9 1.9v1.5c0 1.1.8 2 1.9 2zm37.4.1h-2.3v-5.4h2.3c1.1 0 1.9.8 1.9 1.9v1.5c0 1.2-.8 2-1.9 2z" class="L"></path><path d="M151.8 157.1c4.9 2.1 14.1 14.5 12.2 18.3-1 2-5 .5-8.5-1.3-3.7-1.9-6-5.8-5.7-9.9-.1-1.5 0-2.8.2-4.3-.1-1.2.7-2.8 1.8-2.8z" class="K"></path><path d="M162 176.4c-1.5 0-3.7-.7-6.7-2.3-3.7-1.9-6-5.8-5.8-10-.1-1.5 0-2.8.2-4.3.1-1.2.9-2.9 2.1-2.9h0 0c1.8.7 4.3 3 6.7 5.9s4.4 6.2 5.3 8.6c.6 1.7.7 3 .3 3.9-.4.7-1.1 1.1-2.1 1.1zm-10.2-19.2c-1 0-1.8 1.6-1.8 2.7h0c-.2 1.4-.3 2.8-.2 4.2h0 0c-.2 4.1 2.1 8 5.7 9.8 3.3 1.7 7.4 3.3 8.4 1.4.4-.8.3-2.1-.3-3.7-1.9-5.1-8.2-12.8-11.8-14.4z" class="L"></path><path d="M150.4 164.2c.1 0 4.1 3.6 4.1 3.6s.4-2.7.6-2.5 3.7 2.6 3.7 2.6l-.4 2.1 5.5 5.5" class="K"></path><path d="M164 175.5l-5.5-5.5.4-2.1c-.5-.3-3.1-2.2-3.6-2.5-.1.3-.4 1.4-.5 2.4v.2l-.2-.2-4.1-3.6.1-.2c.1 0 1.5 1.2 4 3.5.4-2.3.5-2.4.6-2.4h.2c.2.2 2.5 1.8 3.7 2.6h.1l-.4 2.1 5.5 5.5-.3.2z" class="L"></path><g class="M"><path d="M173.9 138.3h1.2v2h-1.2v-2z"></path><path d="M176.3 140.2h-.5v-.5h-1.2 0-1.2v.5h-.4v1.4h.4v.7h.5v1.4h1.2v-1.4h.6v-.7h.5v-1.4zm-17.2-1.9h1.2v2.5h-1.2v-2.5z"></path><path d="M161.5 140.2h-.5v-.5h-1.2 0-1.2v.5h-.4v1.4h.4v.7h.5v1.4h1.2v-1.4h.6v-.7h.5v-1.4zm6.7 3.2h1.1v1.1h-1.1v-1.1z"></path><path d="M167.2 144.3h1.1v1.1h-1.1v-1.1z"></path><path d="M166.1 144.3h1.1v1.1h-1.1v-1.1z"></path><path d="M165.1 143.4h1.1v1.1h-1.1v-1.1z"></path></g><path d="M159.8 181.3h1.7v.6h-1.7v-.6z" class="L"></path><path d="M199.5 162.9l-25.6.4c-.5 0-.8.4-.9.8l-3.3 18c-.1.5.4 1.1.9 1.1l25.5.1c.5 0 .9-.4.9-.8l3.4-18.5c.2-.5-.3-1.1-.9-1.1h0z" fill="#ccbdca"></path><path d="M200.3 162.9l-25.6.4c-.5 0-.8.4-.9.8l-3.2 18.1c-.1.5.4 1.1.9 1.1l25.5.1c.5 0 .9-.4.9-.8l3.4-18.5c0-.6-.5-1.2-1-1.2z" class="N"></path><path d="M169.7 182.1l3.2-18.1c.1-.5.5-.8.9-.8l25.6-.4h.1l-25 .4c-.5 0-.8.4-.9.8l-3.2 18.1c-.1.5.4 1.1.9 1.1l24.7.1-25.4-.1c-.6 0-1-.6-.9-1.1z" class="L"></path><path d="M156.8 183.4l20.3-.3v-1.7l-20.2.3c-.1 0-.2.1-.2.2l.1 1.5c-.1 0-.1 0 0 0h0z" class="N"></path><path d="M166.1 182.1h2.1v.5h-2.1v-.5z" class="L"></path><path d="M166.1 182.2h2.1v.3h-2.1v-.3z" class="K"></path><g class="L"><path d="M158 182.5c0-.2.2-.3.3-.3.2 0 .3.2.3.3s-.2.3-.3.3c-.2 0-.3-.1-.3-.3z"></path><circle cx="159.2" cy="182.5" r=".3"></circle></g><path d="M188.1 174.4c-.6.3-1.4.3-1.9 0-.9-.5-1.8-1.5-1.6-2.5s1.2-1.7 2.1-1.9c.6-.1 1.5 0 2 .5 1.2.8.9 3.1-.6 3.9h0z" class="K"></path><path d="M162.5 123.8h8.1c.5 0 1 .5 1 .9v7.9c0 .3-.1.5-.4.7l-4.6 3.6-4.7-3.6c-.3-.2-.4-.5-.4-.7v-7.9c0-.5.5-.9 1-.9z" fill="#7faedd"></path><path d="M166 126.1l1.9 5.4h-1.2l-.4-1.1h-2l-.4 1.1h-1.2l1.9-5.4h1.4zm-.6 1.2l-.7 2.1h1.4l-.7-2.1zm4.2.2v3.9h-1.1v-3.9h1.1zm0-1.5v.9h-1.1v-.9h1.1z" class="K"></path><path d="M141.7 187.2H25.3c-.1 0-.2-.1-.2-.2V99.2c0-.1.1-.2.2-.2h74.1c.1 0 .2.1.2.2s-.1.2-.2.2H25.5v87.4h116.1v-21.9c0-.1.1-.2.2-.2s.2.1.2.2V187c-.1.1-.2.2-.3.2zm-37.6-4.9s-.1 0 0 0c-.2-.1-.2-.2-.2-.3l23.5-40.7c0-.1.2-.1.2-.1.1 0 .1.2.1.2l-23.5 40.7c0 .2 0 .2-.1.2zm-14.7-1.1c-.2-.1-.2-.2-.2-.3l23-39.7c0-.1.2-.1.2-.1.1 0 .1.2.1.2l-23 39.7c.1.2 0 .2-.1.2zm-15 0c-.1 0-.1 0 0 0-.2-.1-.2-.2-.2-.3l23-39.7c0-.1.2-.1.2-.1.1 0 .1.2.1.2l-23 39.7c0 .2-.1.2-.1.2z"></path><use href="#B"></use><path d="M44.2 181.2c-.2-.1-.2-.2-.2-.3l23-39.7c0-.1.2-.1.2-.1.1 0 .1.2.1.2l-23 39.7c0 .2 0 .2-.1.2z"></path><use href="#B" x="-29.1"></use><path d="M133.6 143.4H43.2c-.1 0-.2-.1-.2-.2s.1-.2.2-.2h90.4c.1 0 .2.1.2.2 0 .2-.1.2-.2.2zm-5.4 7.2l-95.1-.3c-.1 0-.2-.1-.2-.2s.1-.2.2-.2l95.1.3c.1 0 .2.1.2.2-.1.1-.1.2-.2.2zm-7.2 7H36.3c-.1 0-.2-.1-.2-.2s.1-.2.2-.2H121c.1 0 .2.1.2.2 0 .2-.1.2-.2.2zm-3.3 7.1l-81.7-.1c-.1 0-.2-.1-.2-.2s.1-.2.2-.2l81.7.1c.1 0 .2.1.2.2 0 .2-.1.2-.2.2zm-3.9 7.2l-81.4-.2c-.1 0-.2-.1-.2-.2s.1-.2.2-.2l81.4.2c.1 0 .2.1.2.2s-.1.2-.2.2zm-83.2 7.2c-.1 0-.2-.1-.2-.2s.1-.2.2-.2l87-.2c.1 0 .2.1.2.2s-.1.2-.2.2l-87 .2zm84.2-73.7h-.1L99.3 90.6l-.1-.1v-16c0-.1.1-.2.2-.2s.2.1.2.2v15.9l15.4 14.7c.1.1.1.2 0 .2-.1.1-.1.1-.2.1z"></path><g class="M"><path d="M165.4 79l3.4 1.6-8.9 18.8-3.5-1.7-35.8-2.2 20.6-43z"></path><path d="M105.3 50.3l-3.4-1.6-9 18.7 3.4 1.6 24.3 26.5 14.9-17.7 5.7-25.3z"></path></g><use href="#C"></use><use href="#C" x="-60.1" y="-28.7"></use><path d="M164.1 105.4H123c-.1 0-.2-.1-.2-.2s.1-.2.2-.2h41.1c.1 0 .2.1.2.2s-.1.2-.2.2z"></path><path d="M192.6 76.1l5.9 8.6v20.5h-28.6V76.1z" class="K"></path><path d="M198.5 105.4H170c-.1 0-.2-.1-.2-.2V76.1c0-.1.1-.2.2-.2h22.7c.1 0 .1 0 .1.1l5.8 8.6v.1 20.5c0 .1 0 .2-.1.2z" class="N"></path><path d="M194.2 103.7s-.1 0-.1-.1l-10.9-10.8-.1-.1V78c0-.1.1-.2.2-.2h8c.1 0 .2.1.2.2s-.1.2-.2.2h-7.8v14.4l10.8 10.8c.1.1.1.2 0 .2 0 .1 0 .1-.1.1z"></path><circle cx="179.2" cy="107.4" r="6.7"></circle><path d="M179.2 114.2c-3.8 0-6.9-3.1-6.9-6.9s3.1-6.9 6.9-6.9 6.9 3.1 6.9 6.9c0 3.9-3.1 6.9-6.9 6.9zm0-13.4c-3.6 0-6.6 2.9-6.6 6.5s2.9 6.5 6.6 6.5 6.6-2.9 6.6-6.5c-.1-3.6-3-6.5-6.6-6.5z"></path><circle cx="179.2" cy="107.4" r="3.6"></circle><path d="M179.2 111.1a3.8 3.8 0 0 1 0-7.6 3.8 3.8 0 0 1 3.8 3.8c-.1 2.1-1.8 3.8-3.8 3.8zm0-7.2a3.37 3.37 0 1 0 0 6.8 3.37 3.37 0 0 0 3.4-3.4 3.44 3.44 0 0 0-3.4-3.4z"></path><circle cx="164.1" cy="107.4" r="6.7"></circle><use href="#D"></use><circle cx="164.1" cy="107.4" r="3.6"></circle><use href="#E"></use><circle cx="137.4" cy="107.4" r="6.7"></circle><path d="M137.4 114.2c-3.8 0-6.9-3.1-6.9-6.9s3.1-6.9 6.9-6.9 6.9 3.1 6.9 6.9c0 3.9-3.1 6.9-6.9 6.9zm0-13.4c-3.6 0-6.6 2.9-6.6 6.5s2.9 6.5 6.6 6.5c3.6 0 6.6-2.9 6.6-6.5-.1-3.6-3-6.5-6.6-6.5z"></path><circle cx="137.4" cy="107.4" r="3.6"></circle><path d="M137.4 111.1a3.8 3.8 0 0 1 0-7.6 3.8 3.8 0 1 1 0 7.6zm0-7.2a3.37 3.37 0 1 0 0 6.8 3.37 3.37 0 0 0 3.4-3.4 3.44 3.44 0 0 0-3.4-3.4z"></path><circle cx="122.3" cy="107.4" r="6.7"></circle><use href="#D" x="-41.8"></use><circle cx="122.3" cy="107.4" r="3.6"></circle><use href="#E" x="-41.8"></use><path d="M118.3 114.3h-.9c-.1 0-.2-.1-.2-.2s.1-.2.2-.2h.9c.1 0 .2.1.2.2s-.1.2-.2.2zm92.2 0h-1.8c-.1 0-.2-.1-.2-.2s.1-.2.2-.2h1.8c.1 0 .2.1.2.2s-.1.2-.2.2zm-3.5 0h-1.8c-.1 0-.2-.1-.2-.2s.1-.2.2-.2h1.8c.1 0 .2.1.2.2s-.1.2-.2.2zm-3.6 0h-1.8c-.1 0-.2-.1-.2-.2s.1-.2.2-.2h1.8c.1 0 .2.1.2.2s-.1.2-.2.2zm-3.5 0h-1.8c-.1 0-.2-.1-.2-.2s.1-.2.2-.2h1.8c.1 0 .2.1.2.2s-.1.2-.2.2zm-3.6 0h-1.8c-.1 0-.2-.1-.2-.2s.1-.2.2-.2h1.8c.1 0 .2.1.2.2s-.1.2-.2.2zm-3.5 0H191c-.1 0-.2-.1-.2-.2s.1-.2.2-.2h1.8c.1 0 .2.1.2.2s-.1.2-.2.2zm-3.6 0h-1.8c-.1 0-.2-.1-.2-.2s.1-.2.2-.2h1.8c.1 0 .2.1.2.2s-.1.2-.2.2zm-3.5 0h-1.8c-.1 0-.2-.1-.2-.2s.1-.2.2-.2h1.8c.1 0 .2.1.2.2s-.1.2-.2.2zm-3.6 0h-1.8c-.1 0-.2-.1-.2-.2s.1-.2.2-.2h1.8c.1 0 .2.1.2.2s-.1.2-.2.2zm-3.5 0h-1.8c-.1 0-.2-.1-.2-.2s.1-.2.2-.2h1.8c.1 0 .2.1.2.2s-.1.2-.2.2zm-3.5 0h-1.8c-.1 0-.2-.1-.2-.2s.1-.2.2-.2h1.8c.1 0 .2.1.2.2s-.2.2-.2.2zm-3.6 0h-1.8c-.1 0-.2-.1-.2-.2s.1-.2.2-.2h1.8c.1 0 .2.1.2.2s-.1.2-.2.2zm-3.5 0h-1.8c-.1 0-.2-.1-.2-.2s.1-.2.2-.2h1.8c.1 0 .2.1.2.2s-.1.2-.2.2zm-3.6 0h-1.8c-.1 0-.2-.1-.2-.2s.1-.2.2-.2h1.8c.1 0 .2.1.2.2s-.1.2-.2.2zm-3.5 0h-1.8c-.1 0-.2-.1-.2-.2s.1-.2.2-.2h1.8c.1 0 .2.1.2.2s-.1.2-.2.2zm-3.6 0h-1.8c-.1 0-.2-.1-.2-.2s.1-.2.2-.2h1.8c.1 0 .2.1.2.2s-.1.2-.2.2zm-3.5 0H152c-.1 0-.2-.1-.2-.2s.1-.2.2-.2h1.8c.1 0 .2.1.2.2s-.1.2-.2.2zm-3.6 0h-1.8c-.1 0-.2-.1-.2-.2s.1-.2.2-.2h1.8c.1 0 .2.1.2.2s-.1.2-.2.2zm-3.5 0h-1.8c-.1 0-.2-.1-.2-.2s.1-.2.2-.2h1.8c.1 0 .2.1.2.2s-.1.2-.2.2zm-3.6 0h-1.8c-.1 0-.2-.1-.2-.2s.1-.2.2-.2h1.8c.1 0 .2.1.2.2s-.1.2-.2.2zm-3.5 0h-1.8c-.1 0-.2-.1-.2-.2s.1-.2.2-.2h1.8c.1 0 .2.1.2.2s-.1.2-.2.2zm-3.6 0h-1.8c-.1 0-.2-.1-.2-.2s.1-.2.2-.2h1.8c.1 0 .2.1.2.2s-.1.2-.2.2zm-3.5 0h-1.8c-.1 0-.2-.1-.2-.2s.1-.2.2-.2h1.8c.1 0 .2.1.2.2s-.1.2-.2.2zm-3.6 0h-1.8c-.1 0-.2-.1-.2-.2s.1-.2.2-.2h1.8c.1 0 .2.1.2.2s-.1.2-.2.2zm-3.5 0h-1.8c-.1 0-.2-.1-.2-.2s.1-.2.2-.2h1.8c.1 0 .2.1.2.2s-.1.2-.2.2zm-3.5 0h-1.8c-.1 0-.2-.1-.2-.2s.1-.2.2-.2h1.8c.1 0 .2.1.2.2s-.1.2-.2.2zm91.3 0h-.9c-.1 0-.2-.1-.2-.2s.1-.2.2-.2h.7v-.7c0-.1.1-.2.2-.2s.2.1.2.2v.9c-.1.2-.1.2-.2.2zm0-2.6c-.1 0-.2-.1-.2-.2v-1.7c0-.1.1-.2.2-.2s.2.1.2.2v1.7c-.1.2-.1.2-.2.2zm0-3.4c-.1 0-.2-.1-.2-.2v-1.7c0-.1.1-.2.2-.2s.2.1.2.2v1.7c-.1.1-.1.2-.2.2zm0-3.4c-.1 0-.2-.1-.2-.2V103c0-.1.1-.2.2-.2s.2.1.2.2v1.7c-.1.1-.1.2-.2.2zm0-3.5c-.1 0-.2-.1-.2-.2v-1.7c0-.1.1-.2.2-.2s.2.1.2.2v1.7c-.1.1-.1.2-.2.2zm0-3.4c-.1 0-.2-.1-.2-.2v-1.7c0-.1.1-.2.2-.2s.2.1.2.2v1.7c-.1.1-.1.2-.2.2zm0-3.5c-.1 0-.2-.1-.2-.2v-1.7c0-.1.1-.2.2-.2s.2.1.2.2v1.7c-.1.1-.1.2-.2.2zm0-3.4c-.1 0-.2-.1-.2-.2v-1.7c0-.1.1-.2.2-.2s.2.1.2.2v1.7c-.1.1-.1.2-.2.2zm0-3.5c-.1 0-.2-.1-.2-.2v-1.7c0-.1.1-.2.2-.2s.2.1.2.2v1.7c-.1.2-.1.2-.2.2zm0-3.4c-.1 0-.2-.1-.2-.2v-1.7c0-.1.1-.2.2-.2s.2.1.2.2V84c-.1.1-.1.2-.2.2zm0-3.5c-.1 0-.2-.1-.2-.2v-1.7c0-.1.1-.2.2-.2s.2.1.2.2v1.7c-.1.2-.1.2-.2.2zm0-3.4c-.1 0-.2-.1-.2-.2v-1.7c0-.1.1-.2.2-.2s.2.1.2.2v1.7c-.1.1-.1.2-.2.2zm0-3.4c-.1 0-.2-.1-.2-.2v-.9c0-.1.1-.2.2-.2s.2.1.2.2v.9c-.1.1-.1.2-.2.2z" fill="#5479f7"></path><circle cx="213.2" cy="52.7" r="6.8" class="K"></circle><path d="M203.2 52.5c0 9.5 9.9 19.6 9.9 19.6S223 62 223 52.5c0-5.5-4.5-9.9-9.9-9.9s-9.9 4.4-9.9 9.9zm5.3.2c0-2.6 2.1-4.6 4.6-4.6 2.6 0 4.6 2.1 4.6 4.6 0 2.6-2.1 4.6-4.6 4.6-2.5.1-4.6-2-4.6-4.6z" class="N"></path><path d="M194.2 61.4h-25.4c-.1 0-.2-.1-.2-.2s.1-.2.2-.2h25.4c.1 0 .2.1.2.2s-.1.2-.2.2zm-13.8 3.8h-15c-.1 0-.2-.1-.2-.2s.1-.2.2-.2h15c.1 0 .2.1.2.2s-.1.2-.2.2zm-5.9-7.7h-8.1c-.1 0-.2-.1-.2-.2s.1-.2.2-.2h8.1c.1 0 .2.1.2.2s-.1.2-.2.2z"></path><path d="M6.3 43.3h80.8v60.4H6.3z" class="K"></path><path d="M86.8 103.9H6.1c-.1 0-.2-.1-.2-.2v-31c0-.1.1-.2.2-.2s.2.1.2.2v30.8h80.4V43.2H6.3v2.4c0 .1-.1.2-.2.2s-.2-.1-.2-.2V43s0-.1.1-.1l.1-.1h80.8s.1 0 .1.1v.1 60.7c0 .1-.1.2-.2.2z"></path><g class="M"><path d="M6 72.6L47.5 104l9.4-8L6 61z"></path><path d="M47.5 104.2h-.1L6.2 72.8c-.1-.1-.1-.2 0-.2.1-.1.2-.1.2 0l41.1 31.2 9.2-7.8L6.8 61.7c-.1-.1-.1-.2 0-.2.1-.1.2-.1.2 0l50 34.4.1.1c0 .1 0 .1-.1.1l-9.4 8-.1.1z"></path><path d="M6.5 64l35.3 25.3c-1.1.6-1 1.8-1 1.8-.3 4.4.6 9 3.7 12.7 2.2 2.6 5.7 4.1 9.2 4.2 3.5 0 7.2-1.1 9.9-3.1 2.6-1.9 5-4.3 6.5-7.2 1.1-2.2 2.6-5.9 3.1-8.4l-1.1-.6-66-43L6.5 64z"></path><path d="M6 47.3l65.6 43.2s-1.3 7.2-6.2 11.8L6.1 61.7 6 47.3z"></path><path d="M56.3 106.3h-.2c-.1 0-.2-.1-.2-.2s.1-.2.2-.2c2.6 0 5.4-.9 7.7-2.6 2.1-1.6 3.9-3.7 5.1-6 1-2 2.1-4.3 2.4-6.7l-4.7-3L8.3 49.4c-.1-.1-.1-.2-.1-.2.1-.1.2-.1.2-.1l58.3 38.2 4.8 3c.1 0 .1.1.1.2-.3 2.5-1.3 4.8-2.4 7-1.2 2.3-3.1 4.5-5.2 6.1-2.3 1.7-5 2.7-7.7 2.7zm-2.4 1.9h-.2c-3.6 0-7.1-1.6-9.3-4.2-3.1-3.6-4.2-7-3.8-11.6 0-.1.2-1.8 1-3L6.3 64.5c-.1-.1-.1-.2 0-.2.1-.1.2-.1.2 0l35.4 25 .1.1v.1c-.9 1-1.1 2.9-1.1 2.9-.3 4.5.7 7.8 3.7 11.4 2.1 2.5 5.5 4.1 9 4.1 3.6.1 7.5-1.1 10.1-3s4.9-4.5 6.3-7.3c1.2-2.3 2.4-5.6 2.9-8L6.1 45.9c-.1-.1-.1-.2-.1-.2.1-.1.2-.1.2-.1l66.9 43.6c.1 0 .1.1.1.2-.5 2.4-1.7 5.8-2.9 8.2-1.5 2.9-3.8 5.5-6.4 7.5-2.5 1.9-6.4 3.1-10 3.1z"></path></g><g fill="#e2eaff"><path d="M78.1 140.8c1.6 0 7.6-.4 10 .1.6.1 1.1.6 1.1 1.2a1.3 1.3 0 0 0 .8 1.2l1.1.4c.1 0 .2 0 .2.1l1.8.3c.4.1.8.3 1 .7l1.7 3.4c.1.2.1.4.1.6l-.1 2.5c0 .4.2.8.5 1.1l2.5 1.9c.3.2.6.3.9.2h.3c.5-.1 1 .2 1.3.6l.9 1.5c.1.2.3.4.5.5l2.9 1.6c.6.4.8 1.2.5 1.8l-1.1 1.6c-.1.2-.2.4-.2.6l-.1 1.9c0 .3-.1.5-.3.8l-3.6 4.2c-.1.2-.3.3-.6.4l-13 4.5c-.1 0-.2.3-.3.6-.2.6-.8 1-1.5 1l-11.4-.8c-.1 0-1.2-.7-1.3-.7l-10.4-1.8h-.4l-2.8.5c-.2 0-.4 0-.7-.1l-4.2-1.5c-.2-.1-.3-.2-.5-.3l-2.9-2.8c-.1-.1-2.4-.2-2.5-.3 0 0-4.8 2.4-7 .2-2.9-.2 9.1-17.3 9.1-17.3h0c.4-.1 5.3-2.2 5.5-2.5l2-3.5 2.3-2.5c.2 0 .4-.1.6-.2l1.7-1.2c.2-.1.4-.2.6-.2l5.6-.6 9.1 1.6c.1.1.3-1.3.3-1.3z"></path><path d="M6.1 59.5c2 1.3 17.9 12.8 20.5 13.8s1.4 1.5 4.8 3.2 5.7 2.1 7.3 4 0 0 3.9 3 2.4 4 5.4 5.6 6.1 1.4 8.2 3.8 0 2.8 4.6 5.2 7.9 4.3 8.8 6.2 1.8 3.7 3 5c1.1 1.3.6 2.6.8 3.5s1.8 2.2 1.5 3.4 1.3 2.1 1.1 4.3c0 .5 2.5 3.2 3.3 9.2.3 2.4 2.3 4.5 1.6 5.5-1.1 1.6.2 4 2.6 5.8 8.3 6.1-17.4 4-20.5 3.7-1.3-.1 2.3-6.1.9-6.6-1.3-.5 1.1-13.6-.3-13.1-1.3.4-1.3-6.1-1.4-8.1-.1-1.9 0-2.6-.9-3.3s-3.4-2.6-3.4-4.1c-.1-1.5-1.1-1.1-1.6-2-1.3-2.3-3.3-1.6-6.1-3.7-.4-.3-.8-.7-1.2-1.2-.5-.5-1-1.1-1.7-2.4-.8-1.5-1.3-2.9-1.5-4.1-.2-1.4-.2-2.5 0-3.4.2-1.1.8-2 .8-2L6.1 62v-2.5z"></path></g><path d="M12 162.2c-.1 0-.2-.1-.2-.2l.3-41.6c0-.1.1-.2.2-.2s.2.1.2.2l-.3 41.6c0 .1-.1.2-.2.2z"></path><path d="M19.1 159.5h-7c-.1 0-.2-.1-.2-.2s.1-.2.2-.2h7c.1 0 .2.1.2.2 0 .2-.1.2-.2.2zm.1-18h-7c-.1 0-.2-.1-.2-.2s.1-.2.2-.2h7c.1 0 .2.1.2.2-.1.2-.1.2-.2.2zm.1-18.1h-7c-.1 0-.2-.1-.2-.2s.1-.2.2-.2h7c.1 0 .2.1.2.2-.1.1-.1.2-.2.2z"></path><use href="#F"></use><use href="#F" y="3.6"></use><use href="#F" y="7.2"></use><use href="#G"></use><use href="#G" y="7.3"></use><use href="#F" x="-0.1" y="21.7"></use><use href="#H"></use><use href="#H" y="3.6"></use><path d="M11.9 187.4c-.1 0-.2-.1-.2-.2l.2-27.6c0-.1.1-.2.2-.2s.2.1.2.2l-.2 27.6c0 .1-.1.2-.2.2z"></path><use href="#I"></use><use href="#I" y="-17.9"></use><use href="#H" x="-0.1" y="10.7"></use><use href="#F" x="-0.2" y="43.3"></use><use href="#H" x="-0.1" y="21.6"></use><use href="#F" x="-0.2" y="50.6"></use><use href="#F" x="-0.2" y="54.2"></use><circle cx="78.3" cy="51.5" r="2.5" class="K"></circle><path d="M78.3 54.2a2.69 2.69 0 1 1 0-5.4 2.69 2.69 0 1 1 0 5.4zm0-5a2.26 2.26 0 0 0-2.3 2.3 2.26 2.26 0 1 0 4.6 0c.1-1.2-1-2.3-2.3-2.3z"></path><circle cx="71" cy="51.5" r="2.5" class="K"></circle><path d="M71 54.2a2.69 2.69 0 1 1 0-5.4 2.69 2.69 0 1 1 0 5.4zm0-5a2.26 2.26 0 0 0-2.3 2.3 2.26 2.26 0 0 0 2.3 2.3 2.26 2.26 0 0 0 2.3-2.3c0-1.2-1-2.3-2.3-2.3z"></path><circle cx="63.7" cy="51.5" r="2.5" fill="#5479f7"></circle><path d="M48.5 69.3c-.1 0-.2-.1-.2-.2l.1-17.9c0-.1.1-.2.2-.2h11.5c.1 0 .2.1.2.2s-.1.2-.2.2H48.7l-.1 17.8c.1 0 0 .1-.1.1z"></path><defs><path id="B" d="M59.3 181.2s-.1 0 0 0c-.2-.1-.2-.2-.2-.3l23-39.7c0-.1.2-.1.2-.1.1 0 .1.2.1.2l-23 39.7c0 .2 0 .2-.1.2z"></path><path id="C" d="M156.4 97.9c-.2-.1-.2-.2-.2-.2l9-18.7c0-.1.1-.1.2-.1s.1.1.1.2l-9 18.7c.1.1 0 .1-.1.1z"></path><path id="D" d="M164.1 114.2c-3.8 0-6.9-3.1-6.9-6.9s3.1-6.9 6.9-6.9 6.9 3.1 6.9 6.9c0 3.9-3.1 6.9-6.9 6.9zm0-13.4c-3.6 0-6.6 2.9-6.6 6.5s2.9 6.5 6.6 6.5 6.6-2.9 6.6-6.5-3-6.5-6.6-6.5z"></path><path id="E" d="M164.1 111.1a3.8 3.8 0 0 1 0-7.6 3.8 3.8 0 1 1 0 7.6zm0-7.2a3.37 3.37 0 1 0 0 6.8 3.37 3.37 0 0 0 3.4-3.4c.1-1.8-1.5-3.4-3.4-3.4z"></path><path id="F" d="M15.8 127.1h-3.4c-.1 0-.2-.1-.2-.2s.1-.2.2-.2h3.4c.1 0 .2.1.2.2s-.1.2-.2.2z"></path><path id="G" d="M15.8 137.9h-3.4c-.1 0-.2-.1-.2-.2s.1-.2.2-.2h3.4c.1 0 .2.1.2.2-.1.1-.1.2-.2.2z"></path><path id="H" d="M15.7 152.4h-3.4c-.1 0-.2-.1-.2-.2s.1-.2.2-.2h3.4c.1 0 .2.1.2.2 0 .2-.1.2-.2.2z"></path><path id="I" d="M19 184.7h-7c-.1 0-.2-.1-.2-.2s.1-.2.2-.2h7c.1 0 .2.1.2.2s-.1.2-.2.2z"></path></defs></svg>