<svg xmlns="http://www.w3.org/2000/svg" xmlns:xlink="http://www.w3.org/1999/xlink" id="Layer_1" x="0px" y="0px" viewBox="0 0 204 45.2" style="enable-background:new 0 0 204 45.2;" xml:space="preserve"><style type="text/css">	.st0{fill:#0067AC;}	.st1{fill:#5C615D;}</style><g>	<g>		<path class="st0" d="M74,0.5c-7.5,0-12.8,1.6-12.8,9.9v7.7c0,8.4,5.3,10,12.8,10c7.5,0,12.8-1.6,12.8-10v-7.7   C86.8,2.2,81.6,0.5,74,0.5z M78.5,17.2c0,3.8-1.2,4.1-4.5,4.1c-3.3,0-4.4-0.4-4.5-4.1v-5.7c0.1-3.7,1.2-4,4.5-4   c3.3,0,4.5,0.3,4.5,4V17.2z"></path>		<polygon class="st0" points="111,0.8 122.8,0.8 122.8,27.9 114.7,27.9 114.8,10 109.1,27.9 102.9,27.9 97.2,10.2 97.3,27.9    89.1,27.9 89.1,0.8 100.6,0.8 105.8,17.8   "></polygon>		<polygon class="st0" points="133.3,11.7 144.5,11.7 144.5,17.3 133.3,17.3 133.3,21.5 145.6,21.5 145.6,27.9 125.3,27.9    125.3,0.8 145.4,0.8 145.4,7.8 133.3,7.8   "></polygon>		<path class="st0" d="M164.2,10.1c-0.1-2.3-0.6-2.6-4-2.6c-4,0-5.2,0.6-5.3,5.1v4.4c0,4.8,1.6,5,5.4,5c2.3,0,3.7,0.3,3.7-3.5h-4.7   v-5.8h12.7v4.7c0,9.2-1.6,10.8-11.7,10.8c-8.9,0-13.5-1.5-13.5-10.3v-7.1c0-9,5.1-10.3,13.5-10.3c7.3,0,11.7,0.9,11.7,9.6   L164.2,10.1L164.2,10.1z"></path>		<path class="st0" d="M191.4,0.7h-11.3l-8.3,27.2h7.7l1.4-4.7h10l1.5,4.7h7.5L191.4,0.7z M182.4,18l3.5-11.8l3.4,11.8H182.4z"></path>		<path class="st0" d="M42.7,18h9.6v-6.4h-9.6C42.7,11.6,43.4,15.2,42.7,18L42.7,18z"></path>		<path class="st0" d="M10.2,27.9h11.6c-0.7-0.4-3-1.6-3.7-2.3L17.5,25c-1.4-1-3-3.6-3-7.5C14.5,11.1,19,7,24.2,7s9,5.4,9,10.5   c0,5.6-3.7,8.6-6.9,10.4h26v-6.4H39.8c0.9-1.6,1.4-3.6,1.4-5.8c0-10.2-8.9-15.6-17-15.6C14.3,0.2,6.3,5,6.3,15.8   c0,0.9,0.7,4.3,2.2,5.8l-8.1,0.1v6.3H10.2z"></path>		<path class="st0" d="M37.6,3.1c-0.7-0.5-0.7-0.7-1.4-1.1h3h2.3h10.9v6.4H41.6c-0.5-1.6-1.2-2.5-2.8-4.3L37.6,3.1z"></path>	</g>	<g>		<path class="st0" d="M197,5.6h-1v-4h-1.5V0.8h4v0.9H197L197,5.6L197,5.6z"></path>		<path class="st0" d="M203.6,5.6h-0.9v-4l0,0l-0.9,4h-1l-0.9-4l0,0v4H199V0.8h1.5l0.9,3.8l0,0l0.9-3.8h1.5L203.6,5.6L203.6,5.6z"></path>	</g>	<polygon class="st0" points="137.5,33.6 138.6,33.6 138.6,33.6  "></polygon>	<path class="st1" d="M124.9,38.1c0,0,0-0.1,0-0.2C124.9,38,124.9,38,124.9,38.1L124.9,38.1z"></path>	<path class="st1" d="M127.4,37.2c-0.2-0.4-0.7-0.6-1.2-0.6c-0.6,0-1,0.4-1.2,0.8c0.2-0.5,0.6-0.9,1.2-0.9  C126.8,36.5,127.2,36.8,127.4,37.2z"></path>	<path class="st1" d="M127.7,38.1L127.7,38.1C127.7,38.1,127.7,38,127.7,38.1C127.7,38,127.7,38.1,127.7,38.1z"></path>	<path class="st1" d="M121.4,38.3c-0.2-1.1-0.9-1.7-2-1.7c-0.2,0-0.5,0.1-0.9,0.1v-0.1c0.3-0.1,0.6-0.1,0.9-0.1  C120.5,36.5,121.3,37.2,121.4,38.3z"></path>	<path class="st1" d="M121.4,38.7L121.4,38.7c0-0.1,0-0.3,0-0.4C121.4,38.4,121.4,38.6,121.4,38.7z"></path>	<path class="st1" d="M129,38.7c0-0.1,0-0.2,0-0.3c-0.1-1.7-1.2-2.9-2.7-2.9c-1.8,0-2.7,1.5-2.8,2.9c0,0.1,0,0.2,0,0.3  c0,0.1,0,0.2,0,0.3c0.1,0.9,0.4,1.6,0.9,2.1c0.5,0.5,1.2,0.7,2.1,0.7c1.2,0,2.1-0.5,2.1-0.5v-0.9c0,0-1,0.5-1.8,0.5  c-0.5,0-1-0.1-1.3-0.4c-0.4-0.3-0.6-0.7-0.7-1.3c0,0,0,0,0-0.1h4.2V38.7z M127.7,38.1h-2.9c0,0,0-0.1,0-0.2c0-0.1,0-0.1,0-0.2  c0-0.1,0.1-0.1,0.1-0.2c0.2-0.4,0.6-0.8,1.2-0.8c0.5,0,0.9,0.2,1.2,0.6c0,0,0,0,0,0c0,0.1,0.1,0.1,0.1,0.2c0,0.1,0.1,0.2,0.1,0.2  c0,0.1,0,0.1,0,0.2C127.7,37.9,127.7,38,127.7,38.1C127.7,38,127.7,38.1,127.7,38.1z M134.7,40.4c-0.2,0.1-0.5,0.2-0.7,0.3  c0,0-0.1,0-0.1,0c-0.2,0.1-0.5,0.1-0.7,0.1c-1.2,0-1.9-0.9-1.9-2.1c0-1.2,0.7-2.1,1.8-2.2c0,0,0.1,0,0.2,0c0.1,0,0.2,0,0.2,0  c0.4,0,0.9,0.2,1.1,0.3c0,0,0.1,0,0.1,0v-1c0,0-0.6-0.2-1.3-0.2c-0.1,0-0.2,0-0.3,0c-0.1,0-0.1,0-0.2,0c-0.2,0-0.4,0-0.6,0.1  c-0.1,0-0.2,0-0.3,0.1c-0.2,0.1-0.4,0.1-0.5,0.2c-0.1,0-0.2,0.1-0.3,0.1c0,0,0,0,0,0c-0.7,0.5-1.2,1.3-1.2,2.6  c0,1.3,0.8,2.9,2.6,3.1c0.1,0,0.2,0,0.3,0c0.2,0,0.4,0,0.6,0c0.6,0,1-0.2,1.5-0.4h0.1v-1.1C134.8,40.4,134.7,40.4,134.7,40.4z   M139.6,40.5c-0.5,0.3-1.1,0.5-1.4,0.5c-0.1,0-0.3,0-0.4-0.1c0,0,0,0-0.1-0.1c-0.1-0.1-0.2-0.3-0.2-0.7v-4.4h-2.2v1h0.9v3.3  c0,0.9,0.4,1.6,1.2,1.8c0.1,0,0.2,0,0.3,0c0.2,0,0.4,0,0.5,0c0.5-0.1,1-0.3,1.3-0.5L139.6,40.5C139.6,40.4,139.6,40.5,139.6,40.5z   M141.8,36v-0.4h-1.2v6.1h1.2v-4.5c0.5-0.5,1-0.6,1.9-0.5v-1.2C143,35.5,142.4,35.6,141.8,36z M144.7,35.7v6.1h1.2v-6.1H144.7z"></path>	<path class="st1" d="M137.5,40.1v-4.4h-2.2v1h0.9v3.3c0,1.2,0.6,1.8,1.6,1.8c0.7,0,1.2-0.2,1.8-0.5v-1c-0.5,0.3-1.2,0.5-1.5,0.5  C137.9,41,137.5,40.8,137.5,40.1z"></path>	<path class="st1" d="M119.5,35.6c-1.2,0-2.2,0.5-2.2,0.5v8.9h1.2v-3.2c0.3,0.1,0.9,0.1,1.2,0.1c1.8,0,3-1.3,3-3.2  C122.8,36.4,121.1,35.6,119.5,35.6z M121.4,38.8c0,0.1,0,0.3,0,0.4c-0.1,1.1-0.8,1.8-1.8,1.8c-0.3,0-0.7-0.1-1.1-0.2v-4  c0.3-0.1,0.6-0.1,0.9-0.1c1.1,0,1.8,0.6,2,1.7C121.4,38.4,121.4,38.6,121.4,38.8L121.4,38.8z"></path>	<path class="st1" d="M129,38.4c-0.1-1.7-1.2-2.8-2.7-2.8c-1.7,0-2.7,1.4-2.8,2.8c0,0.1,0,0.2,0,0.3c0,0.1,0,0.2,0,0.3  c0,0.9,0.4,1.6,0.9,2.2c0.5,0.5,1.2,0.7,2.1,0.7c1.2,0,2.1-0.5,2.1-0.5v-0.9c0,0-1,0.5-1.8,0.5c-0.5,0-0.9-0.1-1.3-0.4  c-0.4-0.3-0.6-0.9-0.7-1.4h4.2v-0.5C129,38.6,129,38.5,129,38.4z M124.9,38.1c0,0,0-0.1,0-0.2c0-0.1,0-0.1,0-0.2  c0-0.1,0.1-0.1,0.1-0.2c0.2-0.4,0.6-0.8,1.2-0.8c0.5,0,0.9,0.2,1.2,0.6c0,0,0,0,0,0c0,0.1,0.1,0.1,0.1,0.2c0,0.1,0.1,0.2,0.1,0.2  c0,0.1,0,0.1,0,0.2c0,0,0,0.1,0,0.1c0,0,0,0.1,0,0.1c0,0,0,0,0,0.1L124.9,38.1C124.9,38.2,124.9,38.1,124.9,38.1z"></path>	<path class="st1" d="M131.1,38.8c0-1.3,0.8-2.3,2-2.3c0.6,0,1.3,0.3,1.3,0.3v-1c0,0-0.7-0.2-1.5-0.2c-1.5,0-3.3,0.9-3.3,3.2  c0,1.4,0.9,3.1,3,3.1c0.8,0,1.4-0.2,2-0.5v-1c-0.6,0.3-1.2,0.5-1.7,0.5C131.8,40.9,131.1,40,131.1,38.8z"></path>	<polygon class="st1" points="139.6,35.8 139.6,34.7 138.6,34.7 138.6,33.6 137.5,33.6 137.5,35.8  "></polygon>	<polygon class="st0" points="137.5,33.6 138.6,33.6 138.6,33.6  "></polygon>	<rect x="144.7" y="35.8" class="st1" width="1.2" height="6.1"></rect>	<path class="st1" d="M113.5,37.7c-0.4-0.3-0.3-0.9,0.2-1c0.5-0.2,1.2-0.2,2.4,0.2v-1c-0.4-0.2-1.1-0.3-1.6-0.3  c-1.5,0-2.4,0.7-2.4,1.8c0,2.3,3.1,1.7,3.1,2.9c0,0.5-0.5,0.8-1.2,0.8c-1.1,0-2.1-0.5-2.1-0.5v1.2c0.7,0.3,1.5,0.4,2.1,0.4  c1.6,0,2.5-0.8,2.5-1.9C116.5,38.3,114.3,38.3,113.5,37.7z"></path>	<path class="st1" d="M148.5,37.7c-0.4-0.3-0.3-0.8,0.2-1c0.5-0.2,1.2-0.2,2.3,0.2v-1c-0.4-0.2-1.1-0.3-1.6-0.3  c-1.5,0-2.4,0.6-2.4,1.7c0,2.3,3.1,1.7,3.1,2.9c0,0.5-0.5,0.7-1.2,0.7c-1.1,0-2.1-0.5-2.1-0.5v1.2c0.7,0.3,1.5,0.4,2.1,0.4  c1.6,0,2.5-0.8,2.5-1.9l0,0C151.5,38.3,149.3,38.3,148.5,37.7z"></path>	<path class="st1" d="M141.8,36.1v-0.4h-1.2v6.1h1.2v-4.5c0.4-0.5,1-0.6,1.9-0.5v-1.1C143,35.6,142.4,35.8,141.8,36.1z"></path>	<g>		<path class="st1" d="M107.5,41.8c-0.1-0.4-0.1-0.8-0.1-1.2v-2.6c0-1.6-0.6-2.2-2.1-2.2c-0.5,0-1.2,0.1-1.7,0.4v0.7   c0.5-0.3,1.1-0.5,1.7-0.5c0.9,0,1.3,0.5,1.3,1.5v0.3h-0.1c-1.6,0-3.7,0.1-3.7,2.1c0,0.5,0.2,1.6,1.9,1.6c0.7,0,1.6-0.4,1.9-1.1   h0.2v0.9H107.5z M106.5,39.2c0,0.6,0,2.1-1.7,2.1c-0.7,0-1.2-0.3-1.2-1.1c0-1.2,1.6-1.4,2.8-1.4h0.2V39.2z"></path>		<path class="st1" d="M159.6,36.7c-0.4-0.2-0.9-0.3-1.2-0.3c-1.4,0-2.3,1-2.3,2.5c0,1.3,0.8,2.5,2.2,2.5c0.5,0,0.9-0.1,1.3-0.2   l0.1,0.7c-0.5,0.2-0.9,0.2-1.5,0.2c-1.9,0-2.8-1.5-2.8-3.1c0-1.8,1.2-3.1,2.9-3.1c0.7,0,1.2,0.2,1.4,0.2L159.6,36.7z"></path>		<path class="st1" d="M163.1,35.8c-1.9,0-2.7,1.5-2.7,3.1c0,1.6,0.8,3.1,2.7,3.1c1.9,0,2.7-1.5,2.7-3.1   C165.8,37.2,165.1,35.8,163.1,35.8z M163.1,41.3c-1.2,0-1.9-1.1-1.9-2.5c0-1.4,0.7-2.5,1.9-2.5s1.9,1.1,1.9,2.5   C165.1,40.2,164.4,41.3,163.1,41.3z"></path>		<path class="st1" d="M174.4,41.7v-3.9c0-0.9-0.3-1.5-1.2-1.5c-0.8,0-1.6,0.7-1.6,2.2v3.3h-0.7v-3.9c0-0.9-0.3-1.5-1.2-1.5   c-0.8,0-1.6,0.7-1.6,2.2v3.3h-0.7v-4.5c0-0.5,0-0.9-0.1-1.4h0.7v1l0,0c0.2-0.4,0.5-1.2,1.9-1.2c0.5,0,1.4,0.2,1.6,1.2l0,0   c0.2-0.7,0.9-1.2,1.9-1.2c1.2,0,1.9,0.9,1.9,1.9v4L174.4,41.7L174.4,41.7z"></path>		<path class="st1" d="M179.4,35.8c-0.6,0-1,0.2-1.3,0.5c-0.3,0.3-0.4,0.6-0.5,0.7l0.1-1.1h-0.7v8.3h0.6v-3.4   c0.4,0.8,0.9,1.2,1.9,1.2c1.6,0,2.4-1.4,2.4-3.1C181.8,37.1,181.1,35.8,179.4,35.8z M179.3,41.4c-1.2,0-1.7-1.4-1.7-2.5   c0-1.1,0.4-2.5,1.7-2.5c1.4,0,1.7,1.3,1.7,2.5C181,40,180.7,41.4,179.3,41.4z"></path>		<path class="st1" d="M187.6,41.8c-0.1-0.4-0.1-0.8-0.1-1.2v-2.6c0-1.6-0.6-2.2-2.1-2.2c-0.5,0-1.2,0.1-1.7,0.4v0.7   c0.5-0.3,1.1-0.5,1.7-0.5c0.9,0,1.3,0.5,1.3,1.5v0.3h-0.2c-1.6,0-3.7,0.1-3.7,2.1c0,0.5,0.2,1.6,1.9,1.6c0.7,0,1.6-0.4,1.9-1.1   h0.1v0.9H187.6z M186.6,39.2c0,0.6,0,2.1-1.7,2.1c-0.7,0-1.2-0.3-1.2-1.1c0-1.2,1.6-1.4,2.8-1.4h0.2V39.2z"></path>		<path class="st1" d="M189.2,37.2c0-0.5,0-0.9-0.1-1.4h0.7v1.1l0,0c0.2-0.5,0.7-1.2,1.9-1.2c1.5,0,2,0.9,2,2.3v3.7h-0.7v-3.6   c0-1.1-0.4-1.8-1.4-1.8c-1.3,0-1.7,1.2-1.7,2.2v3.3h-0.7L189.2,37.2L189.2,37.2z"></path>		<path class="st1" d="M197.2,40.8L197.2,40.8l1.7-4.9h0.8l-2.3,6.8c-0.3,0.8-0.7,1.6-1.5,1.6c-0.2,0-0.5,0-0.8-0.1l0.1-0.6   c0.2,0.1,0.3,0.1,0.5,0.1c0.6,0,0.9-0.5,1.1-1.3l0.2-0.5l-2.1-6h0.8L197.2,40.8z"></path>	</g></g></svg>