<?xml version="1.0" encoding="utf-8"?>
<!-- Generator: Adobe Illustrator 28.1.0, SVG Export Plug-In . SVG Version: 6.00 Build 0)  -->
<svg version="1.1" id="Layer_1" xmlns="http://www.w3.org/2000/svg" xmlns:xlink="http://www.w3.org/1999/xlink" x="0px" y="0px"
	 viewBox="0 0 249.2 40.9" style="enable-background:new 0 0 249.2 40.9;" xml:space="preserve">
<style type="text/css">
	.st0{fill:#292B64;}
	.st1{fill:#75767A;}
	.st2{fill:#8C3130;}
	.st3{fill:#FFFFFF;}
</style>
<path class="st0" d="M33.2,34.3c-0.3,0-0.6,0-0.8,0c-3.5,0-7,0-10.5,0c-0.7,0-0.9-0.2-0.9-0.9c0.1-0.8,0-1.5,0-2.3
	c0-0.5,0.1-0.7,0.6-0.9c4.7-1.6,7.8-5.9,7.7-10.9c-0.1-6.6-6.4-11.9-12.9-10.8c-5.7,1-9.6,5.6-9.6,11.3c0.1,4.5,3.1,8.7,7.5,10.2
	c0.7,0.2,0.9,0.5,0.9,1.2c-0.1,0.9,0,1.8,0,2.8c-0.3,0-0.5,0.1-0.7,0.1c-3.6,0-7.1,0-10.7,0c-0.6,0-0.8-0.2-0.8-0.8
	c0-9.5,0-18.9-0.1-28.4c0-0.2,0-0.3,0-0.5c0.3,0,0.4,0,0.6,0c4.9,0,9.7-0.1,14.6,0c9.1,0.2,15.3,7.8,14.8,15.9
	c-0.2,3.6-1.6,6.7-4,9.3c-0.1,0.1-0.2,0.3-0.5,0.6c1.2,0,2.3,0,3.4,0c1.1,0,1.2,0.1,1.2,1.2C33.2,32.5,33.2,33.3,33.2,34.3z"/>
<path d="M167.6,19.4c0,0.2,0,0.4,0,0.6c0,4.5,0,9,0,13.5c0,0.6-0.2,0.9-0.8,0.8c-0.8-0.1-1.6,0-2.4,0c-0.5,0-0.6-0.1-0.6-0.6
	c0-8.1,0-16.1,0-24.2c0-0.5,0.2-0.6,0.6-0.6c0.9,0,1.9,0,2.8,0c0.4,0,0.6,0.2,0.8,0.6c1.5,4.5,3,9,4.5,13.5c0.1,0.2,0.1,0.3,0.3,0.7
	c0.2-0.7,0.4-1.2,0.6-1.7c1.4-4.1,2.7-8.1,4.1-12.2c0.2-0.6,0.5-0.9,1.2-0.9c0.8,0.1,1.6,0.1,2.4,0c0.6,0,0.8,0.2,0.7,0.8
	c0,3.9,0,7.9,0,11.8c0,4,0,8,0,12.1c0,0.6-0.2,0.8-0.8,0.8c-1,0-2.1,0-3.2,0c0-5.1,0-10.1,0-15c-0.1,0-0.1,0-0.2,0
	c-0.3,0.9-0.6,1.9-0.9,2.8c-0.9,2.7-1.7,5.4-2.6,8.1c-0.1,0.4-0.3,0.6-0.8,0.6c-2.2-0.1-1.6,0.4-2.3-1.6c-1-3.1-2-6.2-3-9.3
	c0-0.1-0.1-0.2-0.1-0.4C167.7,19.4,167.7,19.4,167.6,19.4z"/>
<path class="st1" d="M69,26.9C70,21,71.1,15.1,72.2,9.1c1.1,0,2.2,0,3.2,0c0.1,0,0.4,0.3,0.4,0.5c0.4,2.1,0.8,4.1,1.2,6.2
	c0.6,3.2,1.1,6.3,1.7,9.5c0.1,0.6,0.2,1.2,0.3,1.8c0.1,0,0.2,0,0.2,0c0.1-0.5,0.2-0.9,0.2-1.4c0.5-4.2,0.9-8.3,1.4-12.5
	c0.1-1.2,0.3-2.3,0.4-3.5c0-0.4,0.2-0.6,0.7-0.6c0.8,0,1.6,0,2.4,0c0.5,0,0.6,0.2,0.5,0.6c-0.7,4.3-1.4,8.6-2.1,12.9
	c-0.4,2.8-0.9,5.7-1.3,8.5c-0.1,0.8-0.3,1.6-0.4,2.3c-0.1,0.5-0.3,0.7-0.7,0.7c-0.8,0-1.6,0-2.4,0c-0.5,0-0.7-0.2-0.8-0.6
	c-0.5-2.4-0.9-4.9-1.4-7.3c-0.5-2.9-1.1-5.8-1.6-8.7c0-0.2-0.1-0.3-0.2-0.6c-0.1,0.2-0.2,0.3-0.3,0.4c-0.6,3.4-1.3,6.8-1.9,10.2
	c-0.4,2-0.7,4-1.1,6c-0.1,0.4-0.3,0.6-0.7,0.6c-0.9,0-1.8,0-2.7,0c-0.5,0-0.6-0.2-0.7-0.6c-0.4-2.7-0.8-5.3-1.2-8
	c-0.4-2.2-0.7-4.4-1.1-6.6c-0.5-3-0.9-6-1.4-9c-0.1-0.8,0-0.9,0.8-0.9c0.7,0,1.5,0,2.2,0c0.6-0.1,0.8,0.2,0.9,0.8
	c0.2,1.7,0.4,3.3,0.6,5c0.3,2.4,0.6,4.7,0.9,7.1c0.2,1.4,0.3,2.9,0.5,4.3c0,0.3,0.2,0.5,0.2,0.8C68.8,26.9,68.9,26.9,69,26.9z"/>
<path d="M144.3,21.6c0-2.5,0-5,0-7.4c0-0.9,0.1-1.8,0.4-2.6c0.6-1.6,1.9-2.4,3.5-2.7c1.9-0.4,3.8-0.4,5.7,0.2c2,0.6,3.1,2,3.4,4.1
	c0,0.3,0.1,0.5,0.1,0.8c0,5.1,0,10.1,0,15.2c0,0.7-0.1,1.4-0.3,2.1c-0.5,1.6-1.6,2.5-3.2,3c-2,0.5-4.1,0.6-6.1,0
	c-2.1-0.6-3.4-2.1-3.4-4.3C144.2,27.1,144.3,24.4,144.3,21.6C144.3,21.6,144.3,21.6,144.3,21.6z M148.4,21.5
	C148.4,21.5,148.4,21.5,148.4,21.5c0,2.3,0,4.6,0,6.9c0,0.3,0,0.6,0.1,0.9c0.1,0.7,0.4,1.2,1.1,1.4c2,0.8,3.5-0.2,3.6-2.3
	c0-0.1,0-0.3,0-0.4c0-4.4,0-8.8,0-13.2c0-0.8,0-1.6-0.8-2.1c-0.9-0.6-1.9-0.6-2.9-0.2c-0.8,0.3-1,1.1-1,2
	C148.4,16.8,148.4,19.2,148.4,21.5z"/>
<path class="st1" d="M138.4,34.1c-1.3,0-2.4,0-3.6,0c-0.2,0-0.5-0.3-0.5-0.5c-0.9-2.7-1.8-5.5-2.6-8.2c-0.1-0.3-0.1-0.6-0.3-0.8
	c-0.1-0.2-0.4-0.4-0.6-0.4c-2.2,0-1.9-0.3-1.9,1.7c0,2.5,0,5.1,0,7.6c0,0.6-0.2,0.8-0.8,0.8c-0.8,0-1.5,0-2.3,0
	c-0.9,0-0.9,0-0.9-0.9c0-5.9,0-11.8,0-17.7c0-1.9,0-3.9,0-5.8c0-0.5,0.1-0.7,0.7-0.7c2.4,0,4.8,0,7.1,0.1c1.3,0,2.5,0.4,3.5,1.3
	c0.8,0.7,1.3,1.7,1.3,2.7c0.1,2.2,0.1,4.4,0,6.6c0,1.5-0.8,2.7-2.1,3.4c-0.5,0.3-0.5,0.6-0.4,1c1,3,2.1,6.1,3.1,9.1
	C138.2,33.5,138.3,33.8,138.4,34.1z M133.7,16.7C133.7,16.7,133.7,16.7,133.7,16.7c0-0.6,0-1.3,0-1.9c-0.1-1.4-0.6-2.1-2.1-2.3
	c-0.7-0.1-1.4,0-2.2,0c-0.4,0-0.6,0.2-0.6,0.6c0,2.3,0,4.7,0,7c0,0.4,0.2,0.6,0.6,0.6c0.7,0,1.5,0,2.2-0.1c1.5-0.2,2.1-0.9,2.1-2.5
	C133.7,17.7,133.7,17.2,133.7,16.7z"/>
<path d="M218.2,17.6c-1.2,0-2.5,0-3.7,0c-0.1,0-0.3-0.3-0.3-0.5c0-0.9,0-1.7,0-2.6c0-1.5-0.8-2.2-2.3-2.2c-1.6,0-2.4,0.6-2.4,2.1
	c0,4.8,0,9.6,0,14.3c0,1.6,0.8,2.2,2.5,2.2c1.4,0,2.2-0.8,2.2-2.3c0-1.3,0-2.5,0-3.9c-0.8,0-1.6,0-2.4,0c0-1.2,0-2.3,0-3.5
	c2.2,0,4.3,0,6.5,0c0,0.2,0.1,0.4,0.1,0.6c0,2.6,0,5.1,0,7.7c0,2.6-1.5,4.5-4.2,4.8c-1.6,0.2-3.2,0.2-4.8,0c-2.5-0.3-4-2.1-4.1-4.7
	c-0.1-4.1,0-8.1,0-12.2c0-1.5,0-2.9,0.1-4.4c0.2-2,1.3-3.4,3.3-4c2.1-0.6,4.2-0.6,6.2-0.1c1.8,0.5,3.1,1.7,3.3,3.5
	C218.3,14.2,218.2,15.9,218.2,17.6z"/>
<path class="st1" d="M45.9,21.5c0-3.9,0-7.8,0-11.7c0-0.5,0.1-0.8,0.7-0.8c2.4,0.1,4.7,0,7.1,0.2c1.9,0.1,3.5,0.8,4.4,2.7
	c0.3,0.7,0.4,1.4,0.4,2.2c0,5,0,10,0,15c0,3.3-2.1,4.9-5,5.1c-2.3,0.1-4.5,0-6.8,0.1c-0.6,0-0.9-0.2-0.9-0.8
	C45.9,29.4,45.9,25.5,45.9,21.5z M49.8,21.6c0,2.8,0,5.6,0,8.4c0,0.6,0.2,0.8,0.8,0.8c0.6,0,1.2,0,1.8,0c1.3-0.1,2-0.7,2.1-2
	c0.1-0.6,0.1-1.2,0.1-1.8c0-4.2,0-8.5-0.1-12.7c0-0.9-0.6-1.6-1.4-1.7c-0.8-0.1-1.6-0.1-2.4-0.1c-0.8,0-0.9,0.1-0.9,0.9
	C49.8,16.1,49.8,18.8,49.8,21.6z"/>
<path d="M237.3,34.3c-1.3,0-2.6,0-3.9,0c-0.1,0-0.3-0.3-0.4-0.5c-0.3-1.5-0.5-3-0.7-4.5c-0.1-0.5-0.3-0.6-0.7-0.6
	c-1.2,0-2.4,0-3.5,0c-0.4,0-0.6,0.1-0.7,0.6c-0.2,1.5-0.5,3-0.7,4.5c-0.1,0.5-0.3,0.6-0.8,0.6c-1.1,0-2.2,0-3.4,0
	c0.4-2.1,0.8-4.1,1.1-6.2c1.1-5.7,2.2-11.5,3.2-17.2c0.4-2,0.3-2,2.4-2c0.9,0,1.8,0,2.7,0c0.4,0,0.6,0.1,0.7,0.6
	c1,5.4,2,10.9,3.1,16.3c0.5,2.7,1,5.4,1.5,8.1C237.3,34,237.2,34.1,237.3,34.3z M228,25.2c1.1,0,2,0,3,0c0.5,0,0.6-0.2,0.6-0.7
	c-0.5-3.2-1-6.5-1.5-9.7c0-0.2-0.1-0.3-0.2-0.4c0,0-0.1,0-0.1,0C229.1,18,228.6,21.5,228,25.2z"/>
<path d="M199.4,9c0,1.2,0,2.4,0,3.6c-0.3,0-0.5,0-0.8,0c-1.7,0-3.5,0-5.2,0c-0.9,0-0.9,0-0.9,0.9c0,1.8,0,3.6,0,5.3
	c0,0.6,0.2,0.9,0.8,0.9c1.5,0,2.9,0,4.4,0c0.5,0,0.6,0.1,0.6,0.6c0,0.8,0,1.6,0,2.4c0,0.5-0.2,0.6-0.6,0.6c-1.5,0-3,0-4.5,0
	c-0.5,0-0.7,0.1-0.7,0.7c0,2,0,4.1,0,6.1c0,0.6,0.2,0.7,0.7,0.7c1.8,0,3.7,0,5.5,0c0.2,0,0.5,0,0.8,0c0,1.2,0,2.2,0,3.3
	c0,0.1-0.4,0.3-0.6,0.3c-2.8,0-5.7,0-8.5,0c-0.5,0-1,0-1.6,0c-0.4,0-0.5-0.2-0.5-0.5c0-0.2,0-0.4,0-0.6c0-7.8,0-15.6,0-23.4
	c0-0.6,0.1-0.9,0.8-0.9c3.2,0,6.4,0,9.6,0C199,8.9,199.2,8.9,199.4,9z"/>
<path class="st1" d="M107.7,21.5c0-3.9,0-7.7,0-11.6c0-0.9,0-0.9,0.9-0.9c3,0,6,0,9,0c1,0,1,0,1,1c0,0.6,0,1.2,0,1.8
	c0,0.5-0.2,0.6-0.6,0.6c-1.8,0-3.6,0-5.4,0c-0.9,0-0.9,0.1-0.9,0.9c0,1.8,0,3.7,0,5.5c0,0.8,0.1,0.9,0.9,0.9c1.4,0,2.8,0,4.1,0
	c0.6,0,0.8,0.2,0.8,0.8c0,0.6,0,1.3,0,1.9c0,0.5-0.2,0.7-0.7,0.7c-1.4,0-2.8,0-4.2,0c-0.9,0-0.9,0.1-0.9,0.9c0,2,0,4,0,6
	c0,0.6,0.2,0.8,0.8,0.8c1.9,0,3.7,0,5.6,0c0.6,0,0.8,0.2,0.7,0.7c0,0.7,0,1.4,0,2c0,0.4-0.2,0.6-0.6,0.6c-3.2,0-6.5,0-9.7,0
	c-0.6,0-0.7-0.4-0.7-0.8C107.7,29.4,107.7,25.5,107.7,21.5z"/>
<path class="st1" d="M102.8,9.1c-0.7,2.2-1.3,4.4-2,6.5c-1,3.2-2,6.3-3,9.5c-0.1,0.3-0.1,0.6-0.1,0.9c0,2.5,0,5,0,7.4
	c0,0.6-0.2,0.8-0.8,0.8c-0.9,0-1.7,0-2.6,0c-0.5,0-0.6-0.2-0.6-0.7c0-2.5,0-5.1,0-7.6c0-0.6-0.1-1.2-0.3-1.7
	c-1.5-4.9-3.1-9.8-4.6-14.7c0-0.1,0-0.2-0.1-0.3C89,9.1,89.2,9,89.4,9c1,0,1.9,0.1,2.9,0.1c0.4,0,0.6,0.2,0.7,0.6
	c0.8,3.4,1.6,6.7,2.4,10.1c0.1,0.3,0.2,0.6,0.3,0.8c0.1,0,0.1,0,0.2,0c0.1-0.4,0.2-0.8,0.3-1.1c0.8-3.2,1.6-6.4,2.3-9.7
	c0.1-0.6,0.4-0.8,1-0.8C100.6,9.1,101.6,9.1,102.8,9.1z"/>
<path class="st2" d="M18.3,24.3c-2.7,0-4.7-2-4.7-4.7c0-2.5,2.1-4.7,4.6-4.7c2.6,0,4.7,2.1,4.7,4.7C22.9,22.2,20.8,24.3,18.3,24.3z"
	/>
<path d="M244,10.2c-0.2,0.6-0.5,1.3-0.7,1.9c-0.1,0.3-0.4,0.5-0.6,0.8c-0.2-0.3-0.4-0.5-0.5-0.8c-0.3-0.6-0.5-1.3-0.8-1.9
	c0,0.7,0,1.3,0,2c0,0.6-0.2,0.7-0.8,0.5c0-1.2,0-2.5,0-3.8c0-0.1,0.3-0.3,0.4-0.3c0.3,0,0.7,0.1,0.8,0.3c0.3,0.6,0.5,1.2,0.7,1.8
	c0.1,0.2,0.2,0.5,0.2,0.7c0.1,0,0.1,0,0.2,0c0.3-0.7,0.6-1.4,0.7-2.1c0.2-0.7,0.6-1,1.4-0.7c0,1.2,0,2.5,0,3.8
	c0,0.1-0.3,0.3-0.4,0.3c-0.1,0-0.3-0.3-0.3-0.4c0-0.7,0-1.5,0-2.2C244,10.2,244,10.2,244,10.2z"/>
<path d="M237.9,11.2c0-0.2,0-0.5,0-0.7c0.1-0.7,0.1-1.3-0.9-1.1c-0.1,0-0.2-0.2-0.4-0.3c0.1-0.1,0.2-0.3,0.4-0.3c0.9,0,1.8,0,2.6,0
	c0.1,0,0.2,0.2,0.4,0.3c-0.1,0.1-0.3,0.3-0.4,0.3c-0.9-0.1-1,0.4-0.9,1.1c0,0.7,0,1.4,0,2c0,0.2-0.2,0.3-0.4,0.5
	c-0.1-0.2-0.4-0.3-0.4-0.5C237.9,12.1,237.9,11.6,237.9,11.2z"/>
<path class="st3" d="M148.4,21.5c0-2.3,0-4.6,0-7c0-0.8,0.2-1.6,1-2c1-0.4,2-0.4,2.9,0.2c0.7,0.5,0.8,1.4,0.8,2.1
	c0,4.4,0,8.8,0,13.2c0,0.1,0,0.3,0,0.4c0,2.1-1.6,3.1-3.6,2.3c-0.6-0.3-1-0.8-1.1-1.4c-0.1-0.3-0.1-0.6-0.1-0.9
	C148.4,26.1,148.4,23.8,148.4,21.5C148.4,21.5,148.4,21.5,148.4,21.5z"/>
<path class="st3" d="M133.7,16.7c0,0.5,0,1,0,1.6c0,1.6-0.6,2.2-2.1,2.5c-0.7,0.1-1.4,0.1-2.2,0.1c-0.4,0-0.6-0.2-0.6-0.6
	c0-2.3,0-4.7,0-7c0-0.4,0.2-0.6,0.6-0.6c0.7,0,1.5,0,2.2,0c1.4,0.2,2,0.8,2.1,2.3C133.7,15.4,133.7,16,133.7,16.7
	C133.7,16.7,133.7,16.7,133.7,16.7z"/>
<path class="st3" d="M228,25.2c0.6-3.7,1.1-7.3,1.7-10.8c0,0,0.1,0,0.1,0c0.1,0.1,0.1,0.3,0.2,0.4c0.5,3.2,1,6.5,1.5,9.7
	c0.1,0.5,0,0.7-0.6,0.7C230,25.2,229.1,25.2,228,25.2z"/>
</svg>
