<svg xmlns="http://www.w3.org/2000/svg" xmlns:xlink="http://www.w3.org/1999/xlink" id="Layer_1" x="0px" y="0px" viewBox="0 0 200 51.9" style="enable-background:new 0 0 200 51.9;" xml:space="preserve"><style type="text/css">	.st0{fill:#D71712;}	.st1{fill:#181716;}</style><g>	<g>		<g>			<path class="st0" d="M176.2,12.6c1.8,0,3.6-0.9,4.7-2.3c0.8-1,1.2-2.2,1.2-3.5s-0.4-2.5-1.2-3.5c-1.1-1.5-2.8-2.3-4.7-2.3     c-3.2,0-5.8,2.6-5.8,5.8S173,12.6,176.2,12.6z"></path>			<path class="st0" d="M198.4,12.9c-0.1-0.1-0.2-0.1-0.3,0H198c-4.4,1.6-14,3.4-27,1c-15.5-2.7-21-1.4-23.7-0.4c0,0,0,0-0.1,0     c-0.2,0.1-0.3,0.2-0.3,0.3s0.1,0.2,0.3,0.3l0,0c19.5,4.4,7.4,20.7-19.2,36.1c0,0-0.1,0-0.1,0.1c-0.2,0.1-0.2,0.2-0.2,0.3     c0,0.1,0.2,0.2,0.4,0.2c0,0,0,0,0.1,0c4.6-0.4,11.5-2.9,19.7-6.6l0,0c1-0.4,1.9-0.9,2.9-1.3c4.2-1.8,8.9-3.5,11.9-2.6     c3.9,1.2,4.7,4.2,5.2,9.8v0.1c0,0.1,0.1,0.2,0.2,0.3c0.1,0,0.2,0,0.3-0.2l0,0c1.9-2.6,9-12.9,9.4-21.1     c9.6-5.5,17.5-11.2,20.4-15.8l0.1-0.1C198.5,13.2,198.5,13,198.4,12.9z"></path>		</g>		<g>			<path class="st1" d="M105.3,15.9v1.7c-1.1-0.8-2.4-1.4-3.8-1.7c-0.7-0.1-1.4-0.2-2.1-0.2s-1.4,0.1-2.1,0.2c-4.6,1-8.1,5-8.1,9.9     c0,0,0,0,0,0.1c0,0,0,0,0,0.1c0,5.6,4.6,10.1,10.2,10.1c2.2,0,4.2-0.7,5.9-1.9v1.7h4.1h0.2l0,0v-20h-0.2H105.3z M99.3,31.8     c-3.3,0-5.9-2.6-5.9-5.9c0-3.3,2.6-5.9,5.9-5.9s5.9,2.6,5.9,5.9C105.3,29.2,102.6,31.8,99.3,31.8z"></path>			<path class="st1" d="M51.7,15.9v1.7c-1.1-0.8-2.4-1.4-3.8-1.7c-0.7-0.1-1.4-0.2-2.1-0.2c-0.7,0-1.4,0.1-2.1,0.2     c-2.7,0.6-5,2.2-6.5,4.4c-1,1.6-1.6,3.5-1.7,5.5v0.1V26c0,2,0.6,3.9,1.7,5.5c1.8,2.8,5,4.6,8.5,4.6c2.2,0,4.2-0.7,5.9-1.9v1.7     h4.1H56v-20h-0.2H51.7z M45.8,31.8c-3.3,0-5.9-2.6-5.9-5.9c0-3.3,2.6-5.9,5.9-5.9c3.3,0,5.9,2.6,5.9,5.9     C51.7,29.2,49,31.8,45.8,31.8z"></path>			<path class="st1" d="M17.7,15.9v1.7c-1.1-0.8-2.4-1.4-3.8-1.7c-0.7-0.1-1.4-0.2-2.1-0.2s-1.4,0.1-2.1,0.2c-4.7,1-8.1,5.1-8.1,10     c0,5.6,4.6,10.2,10.2,10.2c2.2,0,4.2-0.7,5.9-1.9v1.7h4.1H22l0,0v-20h-0.2H17.7z M11.8,31.8c-3.3,0-5.9-2.6-5.9-5.9     c0-3.3,2.6-5.9,5.9-5.9s5.9,2.6,5.9,5.9C17.7,29.2,15,31.8,11.8,31.8z"></path>			<path class="st1" d="M119.9,15.9c-1.2,0.3-2.2,0.9-3,1.7v-1.7h-4.3v20h4.3V24.7l0,0c0-2.6,2.1-4.7,4.8-4.7h1.4v-4.1v-0.2h-1.4     C121,15.7,120.4,15.8,119.9,15.9z"></path>			<path class="st1" d="M81,15.9c-0.6-0.1-1.2-0.2-1.8-0.2c-0.1,0-0.1,0-0.2,0h-0.1l0,0c-2.2,0.1-3.9,1.2-4.8,1.9     c-0.5,0.4-0.8,0.7-0.8,0.7s-0.4-0.4-1-0.9c-0.9-0.7-2.2-1.5-3.9-1.7l0,0h-0.1c0,0,0,0-0.1,0h-0.1H68c0,0,0,0-0.1,0s-0.1,0-0.2,0     c-0.6,0-1.2,0.1-1.7,0.2c-1,0.3-1.9,0.8-2.8,1.6c0-0.9,0-1.6,0-1.6H59v20h4.3V24c0-2.2,1.7-4,4-4s3.8,1.8,3.8,4v11.9h4.3V24     c0-2.2,1.7-4,3.9-4c2.2,0,3.7,1.8,3.7,4v11.9h4.3V23.8C87.2,20,84.5,16.8,81,15.9z"></path>			<polygon class="st1" points="141.5,15.9 136.3,15.9 129.4,24.3 129.4,11 129.4,9.3 125.1,9.3 125.1,35.9 126,35.9 129.4,35.9      129.4,27.5 136.3,35.9 141.5,35.9 133.2,25.9    "></polygon>			<path class="st1" d="M32.3,15.9c-1.2,0.3-2.2,0.9-3,1.7v-1.7H25v20h4.3c0,0,0-8.1,0-10.7c0-3.1,2-5.1,5.1-5.1h1.1v-4.2v-0.2H34     C33.4,15.7,32.8,15.8,32.3,15.9z"></path>		</g>	</g>	<g>		<path class="st0" d="M175.7,45.3h-0.5v1.4h-0.4v-1.4h-0.5V45h1.4V45.3L175.7,45.3z M178,46.7h-0.4v-1.2l0,0l-0.5,1.2h-0.3    l-0.5-1.2l0,0v1.2H176v-1.8h0.6l0.4,1.2l0.4-1.2h0.6V46.7L178,46.7z"></path>	</g></g></svg>