<svg xmlns="http://www.w3.org/2000/svg" id="katman_1" viewBox="0 0 482.5 88.1"><defs><style>      .st0 {        fill: #002d82;      }      .st1 {        fill: #80bc00;      }    </style></defs><path class="st0" d="M95.4,49.8h12.2c3.3,0,5.9.9,7.5,2.5,1.2,1.2,1.9,2.9,1.8,4.7h0c0,3-1.8,5.7-4.6,6.7,3.4,1,6.2,3,6.2,6.9h0c0,5-4.1,7.9-10.4,7.9h-12.8v-28.8ZM113.7,57.4c0-2.8-2.3-4.7-6.4-4.7h-8.8v9.9h8.5c3.9,0,6.6-1.8,6.6-5.1h0ZM107.7,65.5h-9.1v10.1h9.7c4.4,0,7.1-1.9,7.1-5.1h0c0-3.2-2.6-5-7.7-5"></path><path class="st0" d="M123.4,66.5v-16.8h3.2v16.6c0,6.2,3.3,9.7,8.8,9.7s8.7-3.2,8.7-9.5v-16.8h3.2v16.5c0,8.4-4.8,12.7-12,12.7s-11.9-4.3-11.9-12.5"></path><rect class="st0" x="154.1" y="49.8" width="3.2" height="28.8"></rect><polygon class="st0" points="164.1 49.8 167.4 49.8 167.4 75.6 183.6 75.6 183.6 78.6 164.1 78.6 164.1 49.8"></polygon><path class="st0" d="M188.2,49.8h10c9,0,15.3,6.2,15.3,14.3h0c0,8.2-6.2,14.5-15.3,14.5h-10v-28.8h0ZM191.5,52.8v22.8h6.7c7.3,0,11.9-4.9,11.9-11.3h0c0-6.4-4.6-11.5-11.9-11.5h-6.7Z"></path><rect class="st0" x="218.2" y="49.8" width="3.2" height="28.8"></rect><polygon class="st0" points="228.2 49.8 231.3 49.8 249.4 72.9 249.4 49.8 252.6 49.8 252.6 78.6 250 78.6 231.4 55 231.4 78.6 228.2 78.6 228.2 49.8"></polygon><path class="st0" d="M257.4,64.3h0c0-8,5.8-15,14.4-15,3.9-.2,7.8,1.2,10.7,3.8l-2.1,2.5c-2.4-2.2-5.5-3.4-8.8-3.3-6.4,0-10.9,5.4-10.9,11.8h0c0,6.9,4.4,12,11.4,12,3,0,5.9-1,8.3-2.9v-7.2h-8.8v-2.9h11.9v11.5c-3.2,2.8-7.3,4.4-11.5,4.4-9,0-14.6-6.6-14.6-14.8"></path><path class="st0" d="M304.3,49.8h12.2c3.3,0,5.9.9,7.5,2.5,1.2,1.2,1.9,2.9,1.8,4.6h0c0,3.1-1.8,5.8-4.6,6.8,3.4,1,6.2,3,6.2,6.9h0c0,5-4.2,7.9-10.4,7.9h-12.8v-28.8h0ZM322.6,57.4c0-2.8-2.2-4.7-6.4-4.7h-8.8v9.9h8.5c3.9,0,6.6-1.8,6.6-5.1h0ZM316.5,65.5h-9.1v10.1h9.6c4.4,0,7.1-1.9,7.1-5.1h0c0-3.2-2.6-5-7.6-5"></path><path class="st0" d="M332.2,49.8h12.4c3.5,0,6.4,1.1,8.2,2.9,1.5,1.5,2.3,3.6,2.2,5.7h0c0,4.9-3.3,7.6-7.8,8.5l8.8,11.7h-4l-8.3-11.1h-8.2v11.2h-3.2v-28.8h0ZM344.3,64.5c4.3,0,7.4-2.2,7.4-5.9h0c0-3.6-2.7-5.8-7.4-5.8h-8.9v11.7h8.8Z"></path><path class="st0" d="M372.9,49.6h3l13.1,29h-3.5l-3.4-7.6h-15.7l-3.4,7.6h-3.4l13.1-29ZM380.9,68l-6.5-14.7-6.6,14.7h13.1Z"></path><polygon class="st0" points="392.9 49.8 396 49.8 414.1 72.9 414.1 49.8 417.3 49.8 417.3 78.6 414.7 78.6 396.1 55 396.1 78.6 392.9 78.6 392.9 49.8"></polygon><path class="st0" d="M424.1,49.8h10c9,0,15.3,6.2,15.3,14.3h0c0,8.2-6.2,14.5-15.3,14.5h-10v-28.8ZM427.3,52.8v22.8h6.7c7.3,0,11.9-4.9,11.9-11.3h0c0-6.4-4.6-11.5-11.9-11.5h-6.7Z"></path><path class="st0" d="M451.8,74.4l2-2.4c3,2.7,5.9,4.1,9.9,4.1s6.4-2.1,6.4-4.9h0c0-2.8-1.4-4.3-7.5-5.6-6.6-1.4-9.6-3.6-9.6-8.3h0c0-4.6,4-7.9,9.4-7.9,3.7-.1,7.3,1.1,10.1,3.5l-1.9,2.5c-2.3-2-5.2-3.1-8.3-3.1s-6.1,2.1-6.1,4.6h0c0,2.8,1.5,4.3,7.8,5.7s9.4,3.7,9.4,8.1h0c0,5-4.1,8.2-9.8,8.2-4.4,0-8.6-1.6-11.8-4.6"></path><path class="st0" d="M93.6,24.2h0c0-10.2,7.7-18,18.3-18s11.7,2.9,14.7,7.1l-7.2,5.6c-2-2.4-4.3-4-7.6-4-4.9,0-8.3,4.1-8.3,9.1h0c0,5.3,3.4,9.3,8.3,9.3s5.8-1.7,7.8-4.2l7.2,5.1c-3.3,4.5-7.7,7.8-15.3,7.8-9.9,0-17.9-7.5-17.9-17.8"></path><path class="st0" d="M127.3,24.2h0c0-10,8-18,18.8-18s18.7,7.9,18.7,17.8h0c0,10-8,18-18.8,18s-18.7-7.9-18.7-17.8M154.9,24.2h0c0-5.1-3.6-9.4-8.9-9.4s-8.8,4.2-8.8,9.2h0c0,5.1,3.6,9.4,8.9,9.4s8.8-4.2,8.8-9.2"></path><path class="st0" d="M168.4,6.9h16.4c5.3,0,9,1.4,11.3,3.7,2.1,2.1,3.2,5,3.1,8h0c0,5.4-2.8,8.9-7.1,10.7l8.3,12h-11.1l-7-10.4h-4.3v10.4h-9.6V6.9h0ZM184.4,23.4c3.2,0,5.2-1.6,5.2-4.1h0c0-2.9-2-4.2-5.2-4.2h-6.4v8.3h6.4Z"></path><polygon class="st0" points="203.7 6.9 212.7 6.9 227 25.1 227 6.9 236.5 6.9 236.5 41.2 228.1 41.2 213.3 22.4 213.3 41.3 203.7 41.3 203.7 6.9"></polygon><polygon class="st0" points="240.7 6.9 268.6 6.9 268.6 14.9 250.2 14.9 250.2 20.2 266.8 20.2 266.8 27.7 250.2 27.7 250.2 33.2 268.8 33.2 268.8 41.3 240.7 41.3 240.7 6.9"></polygon><path class="st0" d="M272.9,6.9h16.4c5.3,0,9,1.4,11.3,3.7,2.1,2.1,3.2,5,3.1,8h0c0,5.4-2.8,8.9-7.1,10.7l8.3,12h-11.1l-7-10.4h-4.3v10.4h-9.6V6.9h0ZM288.9,23.4c3.2,0,5.2-1.6,5.2-4.1h0c0-2.9-2-4.2-5.2-4.2h-6.4v8.3h6.4Z"></path><path class="st0" d="M304.9,36.2l5.4-6.3c3.2,2.6,7.1,4.1,11.3,4.1,2.6,0,4-.9,4-2.4h0c0-1.6-1.1-2.3-5.9-3.4-7.4-1.7-13.1-3.7-13.1-10.8h0c0-6.5,5.1-11.1,13.5-11.1s10.5,1.6,14.3,4.6l-4.8,6.7c-2.8-2.1-6.2-3.2-9.7-3.4-2.3,0-3.5.9-3.5,2.2h0c0,1.7,1.2,2.4,6,3.5,8,1.7,12.9,4.3,12.9,10.7h0c0,7.1-5.6,11.3-14,11.3-5.9.1-11.7-1.9-16.3-5.7"></path><polygon class="st0" points="347 15.2 336.6 15.2 336.6 6.9 367.1 6.9 367.1 15.3 356.6 15.3 356.6 41.3 347 41.3 347 15.2"></polygon><path class="st0" d="M367.5,24.2h0c0-10,8-18,18.8-18s18.7,7.9,18.7,17.8h0c0,10-8,18-18.8,18s-18.7-7.9-18.7-17.8M395.1,24.2h0c0-5.1-3.6-9.4-8.9-9.4s-8.8,4.2-8.8,9.2h0c0,5.1,3.6,9.4,8.9,9.4s8.8-4.2,8.8-9.2"></path><polygon class="st0" points="408.1 6.9 417.1 6.9 431.4 25.1 431.4 6.9 440.9 6.9 440.9 41.2 432.6 41.2 417.7 22.4 417.7 41.3 408.1 41.3 408.1 6.9"></polygon><polygon class="st0" points="445.1 6.9 473 6.9 473 14.9 454.6 14.9 454.6 20.2 471.3 20.2 471.3 27.7 454.6 27.7 454.6 33.2 473.3 33.2 473.3 41.3 445.1 41.3 445.1 6.9"></polygon><polygon class="st1" points="78.3 46.8 39.2 68.9 22 59.2 22 78.5 39.2 88.1 78.3 66.1 78.3 46.8"></polygon><polygon class="st1" points="17.1 31.7 56.3 9.7 39.2 0 0 22 0 66.1 17.1 75.7 17.1 31.7"></polygon><polygon class="st0" points="61.2 51 78.3 41.3 78.3 22 61.2 12.4 44 22 61.2 31.7 61.2 51"></polygon><polygon class="st0" points="476.4 7.7 475.2 7.7 475.2 6.9 478.3 6.9 478.3 7.7 477.2 7.7 477.2 10.9 476.3 10.9 476.4 7.7"></polygon><polygon class="st0" points="478.8 6.9 479.7 6.9 480.7 8.6 481.7 6.9 482.5 6.9 482.5 10.9 481.7 10.9 481.7 8.3 480.6 10 479.6 8.3 479.6 10.9 478.8 10.9 478.8 6.9"></polygon></svg>