<?xml version="1.0" encoding="utf-8"?>
<!-- Generator: Adobe Illustrator 26.5.0, SVG Export Plug-In . SVG Version: 6.00 Build 0)  -->
<svg version="1.1" id="Layer_1" xmlns="http://www.w3.org/2000/svg" xmlns:xlink="http://www.w3.org/1999/xlink" x="0px" y="0px"
	 viewBox="0 0 144.3 62.8" style="enable-background:new 0 0 144.3 62.8;" xml:space="preserve">
<style type="text/css">
	.st0{fill:#005DAB;}
	.st1{fill:#FFFFFF;}
	.st2{fill:#F37835;}
</style>
<path class="st0" d="M66.4,42.2l-4,4c-1.4,1.4-2.1,3.3-2.1,5.1c0,1.9,0.7,3.7,2.1,5.1c1.4,1.4,3.3,2.1,5.1,2.1
	c1.9,0,3.7-0.7,5.1-2.1s2.1-3.3,2.1-5.1c0-1.9-0.7-3.7-2.1-5.1l-5.1-5.1L66.4,42.2L66.4,42.2z"/>
<path class="st1" d="M65.6,46.4c0.1-0.4,0-0.8-0.5-0.2c-0.8,1.3-2.4,4.8-1.9,7.3c0.3,1.7,2.4,1.3,2.2-0.2
	C65.1,51,65.1,48.6,65.6,46.4L65.6,46.4z"/>
<rect x="24" y="0" class="st0" width="4.5" height="4.5"/>
<path class="st1" d="M65.5,46.3c0.1-0.4,0-0.8-0.4-0.1c-0.8,1.3-2.4,4.8-1.9,7.3c0.3,1.7,2.4,1.3,2.2-0.2C65,50.9,65,48.5,65.5,46.3
	L65.5,46.3z"/>
<path class="st2" d="M12.7,4.9c-1.6,0-5.8,0.4-8.2,4.7V5.8H0v26.3h4.5v-15c0-2,0-4,2-5.9c1.4-1.4,3.1-2,5-2c2.4,0,4.9,1.1,5.6,3.6
	c0.3,0.9,0.3,1.7,0.3,4.4v15h4.4V16.4c0-2.2,0-3.9-0.4-5.4C20.1,6.6,16,4.9,12.7,4.9z"/>
<rect x="24.1" y="5.8" class="st2" width="4.3" height="26.3"/>
<path class="st2" d="M52.5,24.6V16c0.1-3.5,0.1-6.5-2.8-8.9c-2.1-1.6-5.3-2.2-7.7-2.2c-4.5,0-7.5,1.8-9.1,4.7
	c-0.6,1.1-0.8,2.2-1,3.1h4.6c0.2-1.8,1.1-4.4,5.6-4.4c5.9,0,5.9,4.6,5.9,7.3v0.7l-4.2,0.3c-7.9,0.6-10.7,2.4-12.2,4.6
	c-0.8,1.2-1.2,2.6-1.2,4c0,4.5,3.8,7.5,8.9,7.5c2,0,3.6-0.5,4.9-1.1l0.6-3.8C43.5,28.6,42,29,40.2,29c-3.3,0-5-1.8-5-3.9
	c0-1.8,0.8-3.7,5.8-4.7c2.6-0.6,4.7-0.9,6.4-1.1l1-0.2v9.7c0.5,3,2.5,3.6,4.5,3.6c1.3,0,2.1-0.3,2.8-0.4v-3.9
	c-0.4,0.2-0.9,0.3-1.5,0.3C52.6,28.4,52.6,27.1,52.5,24.6z"/>
<path class="st2" d="M142.3,28.4c-1.8,0-1.8-1.3-1.9-3.8V16c0.1-3.5,0.1-6.5-2.8-8.9c-2.1-1.6-5.3-2.2-7.7-2.2
	c-4.5,0-7.5,1.8-9.1,4.7c-0.6,1.1-0.8,2.2-1,3.1h4.6c0.2-1.8,1.1-4.4,5.6-4.4c5.9,0,5.9,4.6,5.9,7.3v0.7l-4.2,0.3
	c-7.9,0.6-10.7,2.4-12.2,4.6c-0.8,1.2-1.2,2.6-1.2,4c0,4.5,3.8,7.5,8.9,7.5c2,0,3.6-0.5,4.9-1.1l0.6-3.8c-1.3,0.8-2.8,1.2-4.6,1.2
	c-3.3,0-5-1.8-5-3.9c0-1.8,0.8-3.7,5.8-4.7c2.6-0.6,4.7-0.9,6.4-1.1l1-0.2v9.7c0.5,3,2.5,3.6,4.5,3.6c1.3,0,2.1-0.3,2.8-0.4v-3.9
	C143.3,28.3,142.8,28.4,142.3,28.4z"/>
<path class="st2" d="M119.9,5.4c-1.8,0.1-6.5,0.2-9.1,5.1V5.8h-4.5v22.5c-0.3,0.1-0.7,0.1-1,0.1c-1.8,0-1.8-1.3-1.9-3.8V16
	c0.1-3.5,0.1-6.5-2.8-8.9c-2.1-1.6-5.3-2.2-7.7-2.2c-4.5,0-7.5,1.8-9.1,4.7c-0.6,1.1-0.8,2.2-1,3.1h4.6c0.2-1.8,1.1-4.4,5.6-4.4
	c5.9,0,5.9,4.6,5.9,7.3v0.7l-4.2,0.3C86.8,17.2,84,19,82.5,21.2c-0.8,1.2-1.2,2.6-1.2,4c0,4.5,3.8,7.5,8.9,7.5c2,0,3.6-0.5,4.9-1.1
	l0.6-3.8c-1.3,0.8-2.9,1.2-4.6,1.2c-3.3,0-5-1.8-5-3.9c0-1.8,0.8-3.7,5.8-4.7c2.6-0.6,4.7-0.9,6.4-1.1l1-0.2v9.7
	c0.5,3,2.5,3.6,4.5,3.6c1,0,1.8-0.2,2.4-0.3l0,0h4.5V19.9c0-2.4-0.1-4.7,1.1-6.7c1.3-2.1,3.5-3.1,6.1-3.1c0.7,0,1.3,0.1,1.8,0.1V5.4
	L119.9,5.4L119.9,5.4z"/>
<path class="st2" d="M75.8,7.6c-2-1.6-4.7-2.6-8-2.6c-10.2,0-13.1,8.3-13.1,14.2c0,5.7,2.6,11.4,8.7,13.2c-0.8,1.4-1,3,0.4,5l1,1
	l0,0l7.9,7.9c1.4,1.4,2.1,3.3,2.1,5.1c0,1.9-0.7,3.7-2.1,5.1c-1.4,1.4-3.3,2.1-5.1,2.1c-1.9,0-3.7-0.7-5.1-2.1
	c-1.4-1.4-2.1-3.3-2.1-5.1c0-1.9,0.7-3.7,2.1-5.1l4-4L63.3,39l-4,4c-2.3,2.3-3.4,5.3-3.4,8.2c0,3,1.1,6,3.4,8.2
	c2.3,2.3,5.3,3.4,8.2,3.4c3,0,6-1.1,8.2-3.4c2.3-2.3,3.4-5.2,3.4-8.2c0-2.9-1.1-5.8-9-13.8v-0.1c-2-2-3-3-1.6-4.4l0.1-0.1
	c7.3-0.5,11.7-6.3,11.7-13.9c0-3.2-0.7-6.3-2.4-8.7c1-0.4,2-0.6,3.2-0.6c0.7,0,1.3,0.1,1.8,0.1V4.9C81.7,4.9,78.4,5,75.8,7.6z
	 M75.7,18.9c-0.1,2.7-0.6,10.4-8,10.4c-5.8,0-8-4.6-8-10.1c0-6,2.4-10.7,8.4-10.7c3,0,6.4,1.5,7.4,6.7C75.5,16,75.7,17.2,75.7,18.9z
	"/>
<g>
	<g>
		<path class="st0" d="M144.3,8.3c0,0.8-0.6,1.4-1.4,1.4c-0.8,0-1.4-0.6-1.4-1.4s0.6-1.4,1.4-1.4C143.7,6.9,144.3,7.5,144.3,8.3z
			 M141.8,8.3c0,0.6,0.5,1.1,1.1,1.1c0.6,0,1.1-0.5,1.1-1.1s-0.4-1.1-1.1-1.1C142.3,7.2,141.8,7.7,141.8,8.3z M142.7,9h-0.3V7.6
			c0.1,0,0.3,0,0.5,0c0.3,0,0.4,0,0.5,0.1s0.1,0.2,0.1,0.3c0,0.2-0.1,0.3-0.3,0.3l0,0c0.1,0.1,0.2,0.2,0.3,0.3
			c0,0.2,0.1,0.3,0.1,0.3h-0.3c0-0.1-0.1-0.2-0.1-0.3c0-0.2-0.1-0.2-0.3-0.2h-0.2C142.7,8.4,142.7,9,142.7,9z M142.7,8.2h0.2
			c0.2,0,0.3-0.1,0.3-0.2c0-0.1-0.1-0.2-0.3-0.2c-0.1,0-0.1,0-0.2,0V8.2z"/>
	</g>
</g>
</svg>
