<svg xmlns="http://www.w3.org/2000/svg" width="135" height="36" viewBox="0 0 135 36" fill="none" class="transition-all text-[#F1ECE6]"><path d="M11.0116 30.2963C17.0931 30.2963 22.0231 25.417 22.0231 19.3981C22.0231 13.3793 17.0931 8.5 11.0116 8.5C4.93005 8.5 0 13.3793 0 19.3981C0 25.417 4.93005 30.2963 11.0116 30.2963Z" fill="currentColor"></path><path d="M23.3815 35.5V14.7043H26.2623L26.9414 16.2148C26.9414 16.2148 28.6355 14.5382 31.3484 14.5382C35.244 14.5382 38.6361 17.8915 38.6361 22.4192C38.6361 26.9468 35.2479 30.3001 31.3484 30.3001C28.8073 30.3001 27.281 28.7896 27.281 28.7896V35.4961H23.3854L23.3815 35.5ZM30.8371 26.6107C33.0386 26.6107 34.7327 24.9341 34.7327 22.4192C34.7327 19.9042 33.0386 18.2276 30.8371 18.2276C28.6355 18.2276 26.9414 19.9042 26.9414 22.4192C26.9414 24.9341 28.6355 26.6107 30.8371 26.6107ZM46.603 30.3001C43.5544 30.3001 41.349 28.1213 41.349 24.768V18.2276H38.9757V15.0404H39.9906C41.1772 15.0404 41.8564 14.3682 41.8564 13.1977V11.0188H45.2446V14.7082H48.6328V18.2314H45.2446V24.6019C45.2446 25.9424 46.0917 26.7807 47.4461 26.7807C48.1253 26.7807 48.461 26.6146 48.461 26.6146V29.9679C48.461 29.9679 47.614 30.304 46.5952 30.304L46.603 30.3001ZM50.4908 30.134V14.7043H54.3864V30.1301H50.4908V30.134ZM52.5245 12.8616C51.3379 12.8616 50.323 11.8571 50.323 10.6827C50.323 9.5083 51.3379 8.5 52.5245 8.5C53.7111 8.5 54.726 9.50444 54.726 10.6789C54.726 11.8533 53.7111 12.8577 52.5245 12.8577V12.8616ZM63.6922 30.3001C59.457 30.3001 55.8971 26.7769 55.8971 22.4192C55.8971 18.0615 59.457 14.5382 63.6922 14.5382C67.42 14.5382 70.3007 17.3893 70.9799 20.4064H67.0843C67.0843 20.4064 66.2372 18.2276 63.6961 18.2276C61.4946 18.2276 59.8005 19.9042 59.8005 22.4192C59.8005 24.9341 61.4946 26.6107 63.6961 26.6107C66.2372 26.6107 67.0843 24.4319 67.0843 24.4319H70.9799C70.3007 27.4491 67.42 30.3001 63.6922 30.3001ZM79.2825 30.3001C75.0473 30.3001 71.4873 26.7769 71.4873 22.4192C71.4873 18.0615 75.0473 14.5382 79.2825 14.5382C83.5177 14.5382 87.0776 18.0615 87.0776 22.4192C87.0776 26.7769 83.5177 30.3001 79.2825 30.3001ZM79.2825 26.6107C81.484 26.6107 83.1781 24.9341 83.1781 22.4192C83.1781 19.9042 81.484 18.2276 79.2825 18.2276C77.0809 18.2276 75.3869 19.9042 75.3869 22.4192C75.3869 24.9341 77.0809 26.6107 79.2825 26.6107ZM88.5844 30.134V14.7043H91.4651L92.1443 16.2148C92.1443 16.2148 94.0101 14.5382 96.5512 14.5382C100.279 14.5382 102.82 17.0532 102.82 21.0786V30.134H98.9245V21.5808C98.9245 19.5681 97.57 18.2276 95.7042 18.2276C93.8384 18.2276 92.4839 19.5681 92.4839 21.5808V30.134H88.5844Z" fill="currentColor"></path><path d="M104.475 27.2404L112.38 19.0775C112.38 19.0775 114.784 16.8677 114.784 14.9979C114.784 13.2981 113.754 12.2782 111.693 12.2782C109.632 12.2782 108.429 13.4681 108.429 15.3379H104.307C104.307 11.4283 107.227 8.53477 111.697 8.53477C116.166 8.53477 119.086 11.2545 119.086 14.8279C119.086 18.0576 115.135 21.4611 115.135 21.4611L110.494 26.2244H118.914V30.134H104.479V27.2443L104.475 27.2404Z" fill="currentColor"></path><path d="M123.661 24.1769C123.832 25.1968 125.206 26.5567 127.096 26.5567C129.328 26.5567 130.874 25.0268 130.874 22.8171C130.874 20.6073 129.328 19.0775 127.096 19.0775C124.621 19.0775 123.661 21.2872 123.661 21.2872H120.054L121.428 8.70475H133.454V12.6143H124.863L124.348 16.5239C124.348 16.5239 125.893 15.504 127.611 15.504C131.905 15.504 135 18.5637 135 22.8171C135 27.0705 131.737 30.3001 127.096 30.3001C122.798 30.3001 119.878 27.4104 119.535 24.1769H123.661Z" fill="currentColor"></path></svg>