<svg xmlns="http://www.w3.org/2000/svg" xmlns:xlink="http://www.w3.org/1999/xlink" id="Layer_1" viewBox="0 0 70 70"><defs><style>      .st0 {        stroke: url(#linear-gradient6);      }      .st0, .st1, .st2, .st3, .st4, .st5, .st6 {        fill: none;        stroke-miterlimit: 10;      }      .st0, .st2, .st3, .st4, .st5, .st6 {        stroke-width: .8px;      }      .st1 {        stroke: url(#linear-gradient);      }      .st2 {        stroke: url(#linear-gradient5);      }      .st3 {        stroke: url(#linear-gradient2);      }      .st4 {        stroke: url(#linear-gradient3);      }      .st5 {        stroke: url(#linear-gradient1);      }      .st6 {        stroke: url(#linear-gradient4);      }    </style><linearGradient id="linear-gradient" x1=".5" y1="35" x2="69.5" y2="35" gradientUnits="userSpaceOnUse"><stop offset="0" stop-color="#db1c50"></stop><stop offset="1" stop-color="#ee7423"></stop></linearGradient><linearGradient id="linear-gradient1" x1="14.9" y1="34.8" x2="54.5" y2="34.8" xlink:href="#linear-gradient"></linearGradient><linearGradient id="linear-gradient2" x1="32.7" y1="45.6" x2="37.2" y2="45.6" xlink:href="#linear-gradient"></linearGradient><linearGradient id="linear-gradient3" x1="19.8" y1="34.2" x2="34.5" y2="34.2" xlink:href="#linear-gradient"></linearGradient><linearGradient id="linear-gradient4" x1="36.2" y1="24.4" x2="45.9" y2="24.4" xlink:href="#linear-gradient"></linearGradient><linearGradient id="linear-gradient5" x1="38.3" y1="24.4" x2="43.7" y2="24.4" xlink:href="#linear-gradient"></linearGradient><linearGradient id="linear-gradient6" x1="23.8" y1="34.1" x2="30.7" y2="34.1" xlink:href="#linear-gradient"></linearGradient></defs><circle class="st1" cx="35" cy="35" r="34"></circle><g><path class="st5" d="M28.1,54.5c-.1-.2-.3-.4-.4-.6-.1-.3.2-.6.6-.6h2c.1-1.6.3-3.2.4-4.8h-4.8c-.3,0-.6-.2-.6-.6s.2-.6.6-.6h25.6c1.2,0,1.7-.5,1.7-1.7v-2.1H16.5v2.6c.1.7.7,1.1,1.4,1.1h5.4c.3,0,.5.3.4.6,0,.3-.2.5-.5.5h-5.2c-1.7,0-2.7-1-2.7-2.7v-22.2c0-1.7,1-2.7,2.7-2.7h16.6l-.7-.7c-.5-.5-.5-1,0-1.6.4-.4.8-.8,1.2-1.2.5-.4,1-.5,1.4,0,.5.6,1,.8,1.7.3.2-.1.4-.2.7-.3v-1c0-.7.4-1.1,1.1-1.1h1.6c.6,0,1.1.4,1,1,0,.9.2,1.3,1,1.5.7.2.6.3,1.1-.2,0-.1.2-.2.3-.3.4-.4.9-.4,1.3,0,.5.4.9.9,1.3,1.3.4.4.4.9,0,1.3-.2.2-.5.4-.7.7h0c0,.1.3.1.4.1h3.7c1.8,0,2.5.4,3.1,2.1v23.5c-.7,1.7-1.3,2.1-3.1,2.1h-12.1c0,1.6.3,3.2.4,4.8h2c.4,0,.7.2.6.6,0,.2-.2.4-.4.6-4.2.3-8.8.3-13.4.3ZM47.2,28c.2.2.5.5.8.7.4.4.4,1,0,1.4-.4.5-.9.9-1.3,1.3-.4.4-.9.4-1.3,0-.2-.2-.4-.4-.6-.6s-.2-.2-.4-.1c-.4.2-.7.3-1.1.5-.2.1-.3.1-.3.4v.9c0,.6-.4.9-1,.9h-1.8c-.5,0-.9-.4-1-.9v-.5q0-.7-.7-1c-.3-.1-.7-.4-1-.4-.3.1-.5.5-.8.7-.5.4-1,.4-1.4,0s-.8-.8-1.2-1.2-.5-1,0-1.5c.2-.3.5-.5.8-.7,0-.3-.3-.5-.4-.7,0-.2-.2-.5-.3-.7,0-.1-.2-.2-.3-.2h-.9c-.6,0-.9-.4-1-1v-.7h-12.5q-.6,0-.6.6v17.2h31.9v-16.9q0-.9-.9-.8h0v.6c0,.7-.4,1-1.1,1h-.8c0,0-.3.1-.3.2,0,.5-.2,1-.4,1.5ZM36.1,18.5c-.4.4-.7.7-1.1,1.1,0,.1.2.2.4.3,0,.1.2.2.4.3.4.4.4.8.2,1.3s-.4,1-.6,1.5c-.2.5-.5.8-1,.8h-1v1.5h1c.5,0,.8.3,1,.8s.4,1,.6,1.5c.2.5.2.9-.2,1.3-.2.2-.5.4-.7.7.4.4.7.7,1.1,1.1l.7-.7c.4-.4.7-.4,1.2-.2.5.2,1.1.5,1.6.7s.7.5.7,1v1h1.4v-1.1c0-.5.2-.8.7-1s1.1-.4,1.6-.7c.5-.2.8-.2,1.2.2l.7.7c.4-.4.7-.7,1.1-1.1l-.7-.7c-.4-.4-.4-.8-.2-1.3s.4-.9.6-1.4c.2-.6.5-.8,1.1-.8h.9v-1.5h-.9c-.6,0-.9-.2-1.1-.8-.2-.5-.4-1-.6-1.5-.2-.5-.2-.9.2-1.2.2-.2.5-.5.7-.6-.4-.4-.7-.8-1.1-1.1-.2.2-.4.4-.7.7-.4.4-.8.4-1.3.2-.5-.2-1-.4-1.5-.6s-.7-.5-.8-1v-1h-1.5v1c0,.5-.2.8-.7,1s-1.1.4-1.6.7c-.5.2-.8.2-1.2-.2-.2-.5-.4-.7-.6-.9ZM34.3,22.1h-16c-1,0-1.6.5-1.6,1.6v18.8h1.2v-17.3c0-1.1.6-1.6,1.6-1.6h12.5c.2-.8.5-1,1.3-1h.5c.3,0,.5-.1.5-.5ZM31.9,48.6c-.1,1.6-.3,3.2-.4,4.8h7c0-1.6-.3-3.2-.4-4.8h-6.2ZM53.4,42.5v-18.8c0-1.1-.5-1.6-1.6-1.6h-4c0,.4.2.5.5.5h.6c.3,0,.6.1.7.2.2.2.3.5.5.8h.6c0,0,.3,0,.4.1.7.2,1,.7,1,1.6v17.3c.5,0,.8,0,1.3,0Z"></path><path class="st3" d="M35,45h1.2c.4,0,.6.2.6.6s-.2.6-.6.6h-2.5c-.4,0-.7-.3-.6-.6,0-.3.3-.5.6-.5.5,0,.9,0,1.3,0Z"></path><path class="st4" d="M22.3,36.9c-.1,0-.1-.2-.1-.2-.2-.6-.5-1-1.2-1-.4,0-.7-.3-.8-.8v-1.3c0-.6.4-1,1-1s.7,0,.9-.6c.1-.4.1-.6-.2-.9-.6-.5-.6-1,0-1.6l.8-.8c.4-.4.9-.4,1.3,0,.3.4.6.5,1.1.2.4-.2.5-.3.5-.7,0-.8.3-1.1,1.1-1.1h1.1c.6,0,.9.4.9,1v.7c.3.1.6.3.9.4.1,0,.2,0,.3-.1.9-.9,1.1-.9,2,0,.2.2.4.4.6.6.4.4.4.9,0,1.3s-.5.7-.2,1.1c.2.4.3.5.7.5.8,0,1.1.3,1.1,1.1v1c0,.7-.3,1-1,1s-.7,0-.9.6c0,.4,0,.6.2.9.6.5.6,1,0,1.6l-.8.8c-.4.4-.9.4-1.3,0s-.7-.5-1.2-.2c-.1,0-.3,0-.4.2v.7c0,.5-.3.9-.9.9h-1.4c-.6,0-.9-.4-.9-.9s-.1-.8-.6-1c-.4,0-.6,0-.8.2-.6.6-1,.6-1.6,0l-.8-.8c-.4-.4-.4-.9,0-1.3.2-.2.4-.4.6-.5ZM23.4,38.6c.1-.2.2-.3.3-.4.5-.5.7-.5,1.4-.2.3.2.6.3.9.4.5.2.7.4.7,1v.6h.9v-.6c0-.6.2-.8.7-1,.3,0,.7-.2,1-.4.5-.3.8-.2,1.3.2.1,0,.2.3.3.4.3-.3.5-.4.8-.7-.2-.2-.4-.3-.6-.4-.3-.3-.3-.6-.2-1,.2-.4.4-.8.5-1.3.2-.4.4-.6.8-.6h.7v-.9h-.5c-.6,0-.9-.2-1-.8-.1-.3-.2-.6-.4-.9-.3-.6-.3-.9.2-1.3.1-.1.3-.2.4-.3l-.7-.7c-.1.2-.3.3-.4.5-.3.3-.7.3-1,.2-.4-.2-.8-.3-1.2-.5-.4-.2-.6-.4-.6-.9v-.7h-.9v.6c0,.5-.2.8-.7,1-.4.1-.7.3-1,.4-.4.2-.8.2-1.1-.2-.1-.1-.3-.3-.4-.5h-.1c-.2.3-.4.5-.6.7.2.1.3.2.4.3.4.4.5.7.2,1.3-.2.3-.3.6-.4,1-.2.6-.4.7-1,.8h-.6v.9h.5c.6,0,.9.2,1.1.8s.3.7.4,1c.2.4.2.8-.2,1.1-.1.2-.3.3-.5.4.1.3.3.5.6.7Z"></path><path class="st6" d="M36.6,24.4c0-.8.2-1.6.6-2.3.3-.4.6-.5.9-.3.3.2.4.5,0,.9-1.1,1.9-.2,4.3,1.9,4.9,1.3.4,2.7-.1,3.5-1.2s.9-2.6,0-3.8c-.7-1.1-2.1-1.7-3.4-1.4-.2,0-.4.1-.5,0-.2-.1-.3-.4-.4-.6,0-.3.2-.5.5-.5,1.3-.3,2.5-.1,3.6.6,1.6,1.1,2.4,3.1,1.8,5-.6,1.9-2.3,3.2-4.3,3.1-2.5,0-4.4-1.9-4.4-4.4Z"></path><path class="st2" d="M38.7,24.4c0-1.3,1.1-2.3,2.3-2.3s2.3,1.1,2.3,2.4-1.1,2.3-2.3,2.3c-1.3,0-2.3-1.1-2.3-2.4ZM39.9,24.5c0,.6.5,1.2,1.2,1.1.6,0,1.1-.5,1.1-1.2s-.5-1.2-1.2-1.1c-.6,0-1.1.5-1.1,1.2Z"></path><path class="st0" d="M24.2,34.1c0-1.7,1.4-3,3.1-3s3,1.4,3,3.1-1.5,3-3.1,2.9c-1.8,0-3.1-1.3-3-3ZM29.1,34.2c0-1-.8-1.9-1.9-1.9s-1.9.8-1.9,1.9.8,1.9,1.9,1.9c1,0,1.8-.9,1.9-1.9Z"></path></g></svg>