<?xml version="1.0" encoding="utf-8"?>
<!-- Generator: Adobe Illustrator 21.0.0, SVG Export Plug-In . SVG Version: 6.00 Build 0)  -->
<svg version="1.1" id="Capa_1" xmlns="http://www.w3.org/2000/svg" xmlns:xlink="http://www.w3.org/1999/xlink" x="0px" y="0px"
	 viewBox="0 0 512 512" style="enable-background:new 0 0 512 512;" xml:space="preserve">
<style type="text/css">
	.st0{fill:#E66208;}
</style>
<g>
	<path class="st0" d="M202.8,30h15v15h-15V30z"/>
	<path class="st0" d="M232.7,30h15v15h-15V30z"/>
	<path class="st0" d="M202.8,60h15v15h-15V60z"/>
	<path class="st0" d="M232.7,60h15v15h-15V60z"/>
	<path class="st0" d="M253.7,118.9h15v15h-15L253.7,118.9z"/>
	<path class="st0" d="M283.7,118.9h15v15h-15V118.9z"/>
	<path class="st0" d="M253.7,148.9h15v15h-15L253.7,148.9z"/>
	<path class="st0" d="M283.7,148.9h15v15h-15V148.9z"/>
	<path class="st0" d="M253.7,177.8h15v15h-15L253.7,177.8z"/>
	<path class="st0" d="M283.7,177.8h15v15h-15V177.8z"/>
	<path class="st0" d="M253.7,206.8h15v15h-15L253.7,206.8z"/>
	<path class="st0" d="M283.7,206.8h15v15h-15V206.8z"/>
	<path class="st0" d="M43.6,233.1l23.2-11.7l6.8,13.4l-23.2,11.7L43.6,233.1z"/>
	<path class="st0" d="M57.1,259.9l23.2-11.7l6.8,13.4l-23.2,11.7L57.1,259.9z"/>
	<path class="st0" d="M70.2,285.7L93.4,274l6.8,13.4l-23.2,11.7L70.2,285.7z"/>
	<path class="st0" d="M512,220.8l-82.9-41.9l-51.8,107.9c-13.8-7.5-28.2-13.6-43.1-18.4V88.9h-50.9V0H168.3v271.5
		c-11.7,4.2-23,9.3-34,15.3L84.1,178.9L1.1,220.8l59.4,126C21.3,392.9,0,450.8,0,512h15c0-6.4,0.3-12.7,0.7-18.9l81.3,0.4l24-25
		l41.2,12.7l17.9-46l-32.3-51.3l-19.5-7.1v-27.5l-34.2-15.7c42.8-38.8,99.5-62.4,161.6-62.4c50.5,0,97.4,15.7,136.2,42.4l-97.6,7.4
		l-32.8,51.6l48.2,61.6l44.5,4.9l32.3,51.5l63.9-2.4l9.4-37.6l26.1-9.4c6.9,22.4,10.6,46.1,10.6,70.7h15c0-61.1-21.3-118.9-60.3-165
		L512,220.8z M113.4,359v28.4l24.5,8.9l25.6,40.6l-10.1,25.9l-36.7-11.3l-25.9,27l-73.3-0.4c7.3-51.4,30.8-97.6,65.2-133.2
		L113.4,359z M74.9,331.1c-1.2,1.2-2.4,2.4-3.5,3.6L20.9,227.6L77,199.3l44.3,95.1C104.7,304.6,89.1,316.9,74.9,331.1z M219.3,258.8
		c-12.2,1.7-24.2,4.3-36,7.8V15h84.9v73.9h-48.9V258.8z M319.1,264.1c-20.5-5.2-41.7-7.9-63.4-7.9c-7.2,0-14.4,0.3-21.5,0.9V103.9
		h84.9V264.1z M390.3,294.4l45.7-95.2l56.1,28.4L440.2,335c-1.2-1.3-2.5-2.5-3.7-3.8C422.4,317,406.9,304.7,390.3,294.4z M481,427.1
		l-33.8,12.2l-8.6,34.4l-44,1.6L363,425l-45.4-5l-37.7-48.3l23.1-36.3l106.9-8.1C441.5,353.6,466.2,388,481,427.1L481,427.1z"/>
	<path class="st0" d="M439.8,234.5l6.8-13.4l23.2,11.7l-6.8,13.4L439.8,234.5z"/>
	<path class="st0" d="M426.3,261.2l6.8-13.4l23.2,11.7l-6.8,13.4L426.3,261.2z"/>
	<path class="st0" d="M413.3,287.1l6.8-13.4l23.2,11.7l-6.8,13.4L413.3,287.1z"/>
	<path class="st0" d="M390.5,146.1v15h35.7v-35.7h-15v9.6L382,105.6l-10.6,10.6l29.9,29.9H390.5z"/>
	<path class="st0" d="M117.9,146.1h-10.8l29.9-29.9l-10.6-10.6l-29.3,29.3v-9.6h-15v35.7h35.7V146.1z"/>
	<path class="st0" d="M239.3,310.2l-60.9-4.9l-18.2,35.1l42.7,71.9l38.8-6.5l-18-38.1l22.1-10.2L239.3,310.2z M203.7,360.5l16,33.9
		l-9.1,1.5l-33.2-55.9l9.8-18.9l39,3.1l3.4,24.5L203.7,360.5z"/>
</g>
</svg>
