<svg xmlns="http://www.w3.org/2000/svg" xmlns:xlink="http://www.w3.org/1999/xlink" id="Layer_1" x="0px" y="0px" viewBox="0 0 792 114" style="enable-background:new 0 0 792 114;" xml:space="preserve"><style type="text/css">	.st0{fill:#003B6B;}	.st1{fill:#868485;}	.st2{fill:url(#SVGID_1_);}	.st3{fill:#672A26;}	.st4{fill:#9A6F62;}	.st5{fill:#4F2D00;}</style><g id="INTCOMEX"></g><g id="GRAY"></g><g id="X">	<g>		<g>			<g>				<g>					<path class="st0" d="M262.4,104.1h-18l-47-48.2v48.2h-20.1V27.8h18.5l46.5,47.7V27.8h20.1V104.1z"></path>					<path class="st0" d="M336.5,41.4h-30.2v62.8h-20V41.4h-30.1V27.8h80.4L336.5,41.4L336.5,41.4z"></path>					<path class="st0" d="M411.7,98.3c-8.3,4.7-18.3,7-30,7c-14.4,0-26.3-3.7-35.6-11c-9.3-7.3-14-16.6-14-27.8      c0-11.4,4.8-20.8,14.3-28.4s21.4-11.4,35.7-11.4c9.9,0,18.5,1.8,25.9,5.5v14.9c-8.2-3.7-16.2-5.6-24-5.6      c-8.9,0-16.2,2.3-21.9,7c-5.7,4.7-8.6,10.7-8.6,17.9c0,7,2.9,12.8,8.6,17.3c5.7,4.5,13.1,6.8,22.1,6.8c9.4,0,18.6-2.8,27.6-8.5      v16.3H411.7z"></path>					<path class="st0" d="M506.2,65.9c0,11.4-4.4,20.8-13.3,28.2c-8.9,7.4-20.1,11.2-33.7,11.2c-13.2,0-24.3-3.8-33.2-11.3      c-8.9-7.5-13.3-16.9-13.3-28.1c0-11.1,4.4-20.5,13.3-28s19.9-11.3,33.2-11.3c13.6,0,24.8,3.7,33.7,11.1      C501.8,45.2,506.2,54.6,506.2,65.9z M484.9,66.3c0-7.2-2.4-13.1-7.2-17.8c-4.8-4.7-10.9-7-18.3-7c-7.5,0-13.6,2.3-18.3,6.9      c-4.8,4.6-7.1,10.5-7.1,17.8c0,7.1,2.4,12.9,7.1,17.5s10.8,6.9,18.2,6.9c7.4,0,13.5-2.3,18.3-6.9      C482.5,79,484.9,73.2,484.9,66.3z"></path>					<path class="st0" d="M603.2,104.1h-20.1V56.8l-23.4,25.3h-3.2L533,56.8v47.4h-20.1V27.8h17.6l27.7,29.7L586,27.8h17.3      L603.2,104.1L603.2,104.1z"></path>					<path class="st0" d="M690.6,104.1h-76.2V27.8h55.5v13.5h-35.4v16.5h33.9v13.5h-33.9v19.2h56.1L690.6,104.1L690.6,104.1z"></path>					<path class="st0" d="M769.3,104.1h-26.6L718.3,78L695,104.1h-27l37.5-39.9l-33.8-36.4h26.5l20.1,22.3l43.4-47.7h25.6      l-56.2,61.7L769.3,104.1z"></path>					<path class="st0" d="M166.2,104.1h-20.1V27.8h20.1V104.1z"></path>				</g>			</g>			<g>				<g>					<path class="st1" d="M128.4,2.4v96.4c0,5.8-4.7,10.4-10.4,10.4H21v1.2h97.2c6.3,0,11.6-5.1,11.6-11.6V2.4H128.4z"></path>				</g>									<radialGradient id="SVGID_1_" cx="1238.9845" cy="-57.169" r="86.6342" gradientTransform="matrix(-1 0 0 -0.9952 1342.9883 -28.7247)" gradientUnits="userSpaceOnUse">					<stop offset="0" style="stop-color:#FFFFFF"></stop>					<stop offset="0.2156" style="stop-color:#FEFEFE"></stop>					<stop offset="0.387" style="stop-color:#F6F7F6"></stop>					<stop offset="0.5433" style="stop-color:#E7E8E8"></stop>					<stop offset="0.6897" style="stop-color:#D1D2D4"></stop>					<stop offset="0.7921" style="stop-color:#BEBEC0"></stop>					<stop offset="1" style="stop-color:#A19FA1"></stop>				</radialGradient>				<path class="st2" d="M21,13.7C21,7,25.7,2.4,31.5,2.4h96.9l0,0v96.4c0,5.8-4.7,10.4-10.5,10.4H21l0,0V13.7z"></path>			</g>			<g>				<polygon class="st3" points="21,44.8 29.6,32.5 27.8,44.2 41.7,38.5 43.6,22 33,27.7 50.6,2.5 81.9,2.5 67.2,9.9 66.8,28.3      88.9,18.6 88.7,2.8 139.2,16.6 90.4,72.3 90,50.8 66.2,57.2 65.7,81 85.8,78.1 58.9,109.3 39.9,109.3 24.1,85.9 37.6,84.1      40.1,64.1 25.1,67.5 22.6,83.1 21,80.4     "></polygon>				<polygon class="st4" points="88.7,2.8 95.7,2.8 147.8,16.2 139.2,16.6     "></polygon>				<polygon class="st5" points="139.2,16.6 147.8,16.2 95.6,72.1 90.4,72.3     "></polygon>				<polygon class="st5" points="72.2,58 66.2,57.2 90,50.8 90.1,53.1     "></polygon>				<polygon class="st5" points="58.9,109.3 62.4,109.3 91,78.3 85.8,78.1     "></polygon>				<polygon class="st4" points="66.2,57.2 72.2,58 71.8,80.1 65.7,81     "></polygon>				<polygon class="st4" points="67.2,9.9 72.2,9.9 72.2,25.9 66.8,28.3     "></polygon>				<polygon class="st5" points="81.9,2.5 86.4,2.4 72.2,9.9 67.2,9.9     "></polygon>				<polygon class="st5" points="33,27.7 36,27.3 43.4,23.5 43.6,22     "></polygon>				<polygon class="st5" points="25.1,67.5 40.1,64.1 40,65 26.8,67.9     "></polygon>				<polygon class="st4" points="29.6,32.5 31.2,32.3 29.6,43.5 27.8,44.2     "></polygon>				<polygon class="st4" points="25.1,67.5 26.8,67.9 24.2,83.1 22.6,83.1     "></polygon>			</g>		</g>	</g></g></svg>