<svg xmlns="http://www.w3.org/2000/svg" xmlns:xlink="http://www.w3.org/1999/xlink" id="Layer_1" x="0px" y="0px" viewBox="0 0 198.1 77" style="enable-background:new 0 0 198.1 77;" xml:space="preserve"><style type="text/css">	.st0{fill:#636666;}	.st1{fill:#118743;}	.st2{clip-path:url(#SVGID_2_);fill:url(#SVGID_3_);}	.st3{fill:#9ACA3F;}</style><g>	<path class="st0" d="M92.7,27h13.1l-0.8,4.4h-7.5l-0.5,4h6l-0.6,4.1h-6c0,0-0.9,5.7-0.9,5.9c-0.2,0.5-0.2,0.9-1.1,0.9h-4.8L92.7,27   z"></path>	<polygon class="st0" points="107.7,27 112.6,27 109.5,46.4 104.7,46.4  "></polygon>	<path class="st0" d="M119.6,43.4c1.4,0,2.3-0.6,2.6-1.7h4.7c-0.8,3.3-3.5,5-7.2,5c-4.1,0-7.4-2.1-7.4-6.5c0-5.1,3.5-8.4,8.1-8.4   s7.5,3,6.6,8l-0.2,0.8h-9.9v0.2C116.9,42.2,117.6,43.4,119.6,43.4 M117.3,37.7h5.1c0.2-1.7-0.5-2.7-2.1-2.7   C119,35.1,117.8,35.9,117.3,37.7"></path>	<path class="st0" d="M128.9,41.4l0.9-5.9h-1.7l0.5-3.3h1.7l0.5-3h4.8l-0.5,3h2.7l-0.5,3.3h-2.7l-0.9,5.7c-0.2,1.2,0.3,1.7,1.2,1.7   c0.5,0,0.9-0.2,1.4-0.3l-0.6,3.6c-0.6,0.3-1.5,0.5-2.6,0.5C130,46.9,128.3,45.2,128.9,41.4"></path>	<path class="st0" d="M137.6,40.2c0-5.1,3.3-8.4,8-8.4c3.8,0,6.5,1.8,6.6,5.9h-4.5c-0.2-1.5-0.9-2.1-2.3-2.1c-2.1,0-3,2.1-3,4.7   c0,1.8,0.8,3,2.6,3c1.4,0,2.4-0.8,2.6-2.4h4.4c-0.5,3.8-3,5.9-7.2,5.9C140.7,46.7,137.6,44.5,137.6,40.2"></path>	<path class="st0" d="M155.7,27h4.8l-1.2,7.5c1.1-1.5,2.4-2.7,4.7-2.7c2.7,0,4.7,1.8,4.1,6l-1.4,8.6h-4.8l1.2-8.3   c0.3-1.7-0.3-2.4-1.7-2.4c-1.5,0-2.6,0.9-2.9,2.9l-1.2,7.8h-4.8L155.7,27z"></path>	<path class="st0" d="M176.5,43.4c1.4,0,2.3-0.6,2.6-1.7h4.7c-0.8,3.3-3.5,5-7.2,5c-4.1,0-7.4-2.1-7.4-6.5c0-5.1,3.5-8.4,8.1-8.4   c4.7,0,7.5,3,6.6,8l-0.2,0.8h-9.9v0.2C173.8,42.2,174.6,43.4,176.5,43.4 M174.1,37.7h5.1c0.2-1.7-0.5-2.7-2.1-2.7   C175.9,35.1,174.7,35.9,174.1,37.7"></path>	<path class="st0" d="M185.9,36.9c0.3-2.1,0.5-3.3,0.5-4.7h4.8c0,0.8,0,1.8-0.2,3c1.2-2.3,2.7-3.3,5.1-3.2l-0.8,4.5   c-3-0.2-4.7,0.8-5.1,3.6l-1.1,6.3h-4.8L185.9,36.9z"></path>	<path class="st0" d="M89.3,51.4h7.8c4.5,0,6.2,2,6.2,4.8c0,2.6-1.5,4.1-3.8,4.7c2,0.5,3.3,1.7,3.3,4.1c0,3.6-2.9,6-7.5,6H86   L89.3,51.4z M94.7,67.2c1.8,0,2.9-1.1,2.9-2.6c0-1.4-0.8-2.1-2.6-2.1h-2l-0.8,4.7H94.7L94.7,67.2z M95.6,59.1   c1.8,0,2.7-0.8,2.7-2.3c0-1.2-0.8-1.8-2.3-1.8h-2l-0.6,4.1C93.4,59.1,95.6,59.1,95.6,59.1z"></path>	<path class="st0" d="M117.9,66.4c-0.3,1.8-0.5,3.3-0.3,4.4h-4.8c0-0.6,0-1.4,0-2.1c-1.1,1.5-2.4,2.4-4.5,2.4c-3,0-5-1.8-4.4-6   l1.4-8.6h4.8l-1.4,8.4c-0.3,1.5,0.3,2.4,1.5,2.4c1.5,0,2.6-0.9,2.9-2.9l1.2-8.1h4.8L117.9,66.4z"></path>	<path class="st0" d="M121.7,56.7h4.8L124.2,71h-4.8L121.7,56.7z M122,52.7c0-1.4,1.1-2.6,2.7-2.6c1.5,0,2.6,1.1,2.6,2.4   c0,1.5-1.2,2.6-2.7,2.6C123.2,55.3,122,54.2,122,52.7"></path>	<polygon class="st0" points="129.5,51.4 134.3,51.4 131.3,70.8 126.5,70.8  "></polygon>	<path class="st0" d="M133.6,64.9c0-5.4,3-8.7,7.1-8.7c2.3,0,3.6,0.9,4.2,2.4l1.1-7.2h5l-2.4,15.1c-0.3,1.8-0.5,3.3-0.3,4.4h-4.8   c-0.2-0.6-0.2-1.4,0-2.1c-1.1,1.7-2.4,2.4-4.5,2.4C135.8,71.3,133.6,69,133.6,64.9 M144.3,62.7c0-1.8-0.9-2.9-2.4-2.9   c-2,0-3.3,2-3.3,4.8c0,1.8,0.8,2.9,2.4,2.9C142.9,67.5,144.3,65.7,144.3,62.7"></path>	<path class="st0" d="M152.6,56.7h4.8L155.1,71h-4.8L152.6,56.7z M152.9,52.7c0-1.4,1.1-2.6,2.7-2.6c1.5,0,2.6,1.1,2.6,2.4   c0,1.5-1.2,2.6-2.7,2.6C154.1,55.3,152.9,54.2,152.9,52.7"></path>	<path class="st0" d="M158.7,61.3c0.3-2.1,0.5-3.3,0.5-4.7h4.8c0,0.8,0,1.5-0.2,2.4c1.1-1.7,2.6-2.9,4.8-2.9c2.7,0,4.7,1.8,4.1,6   l-1.4,8.6h-4.8l1.4-8.3c0.3-1.7-0.3-2.4-1.7-2.4c-1.5,0-2.6,0.9-2.9,2.9l-1.2,7.8h-4.8L158.7,61.3z"></path>	<path class="st0" d="M188,70.1c-0.6,4.1-2.9,6.2-7.8,6.2c-5.3,0-7.4-2.4-7.5-5.3h4.8c0.2,0.9,0.8,1.8,2.6,1.8c2.1,0,2.9-1.2,3-2.7   l0.3-2.1c-0.9,1.5-2.3,2.1-4.2,2.1c-3.2,0-5.4-2.1-5.4-6c0-4.7,2.9-8,6.9-8c2.3,0,3.6,0.9,4.2,2.4l0.3-2h4.8L188,70.1z M184.4,62.4   c0-1.5-0.9-2.6-2.4-2.6c-2.1,0-3.2,2-3.2,4.1c0,1.7,0.8,2.7,2.3,2.7C183,66.6,184.4,64.8,184.4,62.4"></path>	<path class="st1" d="M69.1,68l-27-27L37,35.9h-4.2h-0.9H12.1H6H1.9L34,68c1.7,1.7,4.8,2.9,7.1,2.9h26.8   C70.1,70.8,70.8,69.6,69.1,68"></path>	<g>		<g>			<g>				<defs>					<path id="SVGID_1_" d="M41.4,0.8c-3.3,0-5.9,1.4-7.4,2.9l-32.1,32H37l5.1-5.1l27-27c1.7-1.7,1.1-2.9-1.4-2.9       C67.7,0.8,41.4,0.8,41.4,0.8z"></path>				</defs>				<clipPath id="SVGID_2_">					<use xlink:href="#SVGID_1_" style="overflow:visible;"></use>				</clipPath>									<linearGradient id="SVGID_3_" gradientUnits="userSpaceOnUse" x1="-480.0282" y1="1530.3739" x2="-477.8592" y2="1530.3739" gradientTransform="matrix(-16.2934 9.407 9.407 16.2934 -22155.3496 -20415.9863)">					<stop offset="0" style="stop-color:#118743"></stop>					<stop offset="0.95" style="stop-color:#99CA40"></stop>					<stop offset="1" style="stop-color:#99CA40"></stop>				</linearGradient>				<polygon class="st2" points="85.8,27.1 19.1,65.5 -13.2,9.5 53.6,-28.9     "></polygon>			</g>		</g>	</g>	<polygon class="st3" points="70,44 87,27 63.4,27 54.5,35.9 62.6,44.2 62.6,44.2 65.2,46.6 66.4,47.8 68.5,45.7  "></polygon></g></svg>