<svg xmlns="http://www.w3.org/2000/svg" xmlns:xlink="http://www.w3.org/1999/xlink" id="Layer_1" x="0px" y="0px" viewBox="0 0 250 56.1" style="enable-background:new 0 0 250 56.1;" xml:space="preserve"><g>	<path d="M7.6,54.3c-0.1-0.1-0.4-0.3-0.6-0.5c-2.9-5.5-4.7-11.3-5.6-17.4c-0.6-4.5-0.7-8.9-0.3-13.4C1.8,15.7,3.9,8.8,7.4,2.4   c0.1-0.3,0.6-0.6,0.8-0.5c3,0.4,6,0.7,8.9,1.3c8.3,1.8,15.8,5.4,22.5,10.7c4.8,3.8,8.8,8.3,12.2,13.4c0.4,0.6,0.3,0.9,0,1.4   c-8.6,12.9-20.4,21.1-35.6,24.5c-1.5,0.3-3,0.5-4.5,0.7C10.4,54.1,9.1,54.2,7.6,54.3z M24.2,17c-5.1,0-8.7,0.7-12.1,2.2   c-2.3,1-2.2,0.4-1.8,3.3c1.1,8.2,5.2,14.6,12,19.2c0.5,0.4,0.9,0.3,1.4,0c3.4-2.3,6.2-5.1,8.3-8.6c2.2-3.6,3.5-7.6,3.8-11.8   c0.1-0.7-0.2-1.1-0.9-1.5C31.1,18,27.1,17,24.2,17z"></path>	<g>		<path d="M171,24.6c-0.9,1.3-1.8,2.6-2.7,3.9c-1.1,1.6-2.2,3.2-3.3,4.8c-0.6,0.9-1.5,0.9-2.1,0c-2-2.9-4-5.8-6.1-8.9    c0,0.5-0.1,0.8-0.1,1.1c0,4.3,0,8.7,0,13c0,1.3-0.3,1.5-1.5,1.5c-0.3,0-0.5,0-0.8,0c-0.8,0-1.2-0.3-1.2-1.2c0-1.5,0-3,0-4.5    c0-5.2,0-10.3,0-15.5c0-1.2,0.3-1.4,1.4-1.5c1.1-0.1,1.8,0.3,2.4,1.3c2.2,3.4,4.5,6.7,6.9,10.2c0.5-0.8,1-1.5,1.5-2.2    c1.9-2.8,3.8-5.6,5.7-8.4c0.5-0.7,2.3-1.2,3-0.6c0.3,0.3,0.5,0.9,0.5,1.3c0,5.7,0,11.4,0,17.1c0,0.9,0,1.9,0,2.8    c0,0.9-0.3,1.2-1.2,1.2c-2.3,0-2.3,0-2.3-2.2c0-4.1,0-8.2,0-12.3c0-0.3,0-0.6,0-0.8C171.1,24.6,171,24.6,171,24.6z"></path>		<path d="M243.1,30.9c1.8,2.3,3.5,4.5,5.2,6.7c0.4,0.5,1.1,1,0.7,1.8c-0.4,0.9-1.2,0.4-1.9,0.6c-1.1,0.2-1.7-0.3-2.3-1.1    c-1.7-2.3-3.4-4.5-5.2-6.8c-0.4-0.5-0.7-0.7-1.3-0.7c-1.5,0-2.9,0-4.5,0c0,0.4,0,0.6,0,0.9c0,2.1,0,4.2,0,6.3c0,0.2,0,0.5,0,0.7    c-0.5,1.1-1.6,0.5-2.4,0.6c-0.6,0.1-0.9-0.3-1-0.9c0-0.3,0-0.5,0-0.8c0-6.5,0-12.9,0-19.4c0-1.3,0.2-1.5,1.5-1.5    c2.8,0,5.6,0,8.3,0c1.6,0,3.2,0.3,4.7,1.1c2.4,1.3,3.6,3.4,3.5,6.1c-0.1,2.6-1.4,4.5-3.7,5.7C244.2,30.5,243.7,30.7,243.1,30.9z     M233.8,28.1c2.3,0,4.5,0,6.7,0c0.7,0,1.4-0.2,2-0.5c1.5-0.6,2.4-1.9,2.3-3.3c-0.1-1.5-0.9-2.6-2.6-3.1c-0.9-0.2-1.9-0.3-2.8-0.3    c-1.9,0-3.7,0-5.6,0C233.8,23.3,233.8,25.6,233.8,28.1z"></path>		<path d="M109.1,30.9c1.5,1.9,2.9,3.8,4.4,5.7c0.5,0.6,0.9,1.1,1.3,1.8c0.2,0.3,0.3,0.8,0.2,1.1c-0.2,0.3-0.6,0.5-1,0.6    c-1.6,0.3-2.7-0.3-3.7-1.7c-1.5-2.2-3.2-4.2-4.8-6.3c-0.2-0.3-0.7-0.5-1.1-0.5c-1.5-0.1-3,0-4.6,0c0,1.2,0,2.3,0,3.5    c0,0.9,0,1.8,0,2.7c0,2.4-0.1,2.5-2.5,2.4c-0.7,0-1-0.4-1-1c0-0.2,0-0.3,0-0.5c0-6.6,0-13.1,0-19.7c0-1.2,0.2-1.5,1.5-1.5    c2.8,0,5.6-0.1,8.4,0c1.3,0.1,2.7,0.3,3.9,0.7c2.7,1,4.2,3.3,4.2,5.9c0,3.1-1.4,5.2-4.1,6.4C109.8,30.6,109.5,30.7,109.1,30.9z     M99.8,28.1c2.3,0,4.4,0,6.6,0c0.7,0,1.5-0.2,2.1-0.5c1.1-0.4,1.9-1.2,2.2-2.4c0.5-2.1-0.7-3.8-2.9-4.2c-1.8-0.3-3.7-0.2-5.6-0.2    c-0.8,0-1.6,0-2.4,0C99.8,23.3,99.8,25.7,99.8,28.1z"></path>		<path d="M206.2,20.8c0,2.1,0,4,0,6.1c0.3,0,0.6,0,0.9,0c3.1,0,6.2,0,9.3,0c1.4,0,1.6,0.2,1.6,1.5c0,0.2,0,0.4,0,0.6    c0,1-0.3,1.2-1.3,1.3c-3.1,0-6.2,0-9.4,0c-0.3,0-0.7,0-1.1,0c0,2.1,0,4.2,0,6.3c0.3,0,0.6,0,0.9,0c3.7,0,7.3,0,11,0    c1.1,0,1.4,0.3,1.4,1.4c0,0.2,0,0.5,0,0.7c0,1-0.3,1.3-1.3,1.3c-4.2,0-8.5,0-12.7,0c-0.6,0-1.1,0-1.7,0c-0.9,0-1.2-0.3-1.2-1.2    c0-2.3,0-4.5,0-6.8c0-4.4,0-8.9,0-13.3c0-1.1,0.2-1.4,1.4-1.4c4.7,0,9.3,0,14,0c1,0,1.3,0.3,1.3,1.3c0,0.3,0,0.5,0,0.8    c0,1-0.3,1.3-1.3,1.3c-3.6,0-7.1,0-10.7,0C207,20.8,206.6,20.8,206.2,20.8z"></path>		<path d="M129,20.8c0,2.1,0,4.1,0,6.1c0.7,0,1.4,0,2,0c2.8,0,5.6,0,8.4,0c1.1,0,1.4,0.2,1.4,1.4c0,0.3,0,0.5,0,0.8    c0,0.9-0.3,1.2-1.2,1.2c-3.2,0-6.4,0-9.5,0c-0.3,0-0.7,0-1.1,0c0,2.1,0,4.2,0,6.3c0.4,0,0.7,0,1,0c3.7,0,7.3,0,11,0    c1.1,0,1.4,0.3,1.4,1.4c0,0.3,0,0.6,0,0.9c0,0.7-0.4,1.1-1.1,1.1c-4.9,0-9.8,0-14.6,0c-0.7,0-1.1-0.4-1.1-1.1c0-6.8,0-13.6,0-20.4    c0-0.7,0.4-1.1,1.1-1.1c4.8,0,9.6,0,14.5,0c0.7,0,1.1,0.3,1.1,1.1c0.1,2.2,0,2.3-2.2,2.3c-3.3,0-6.6,0-10,0    C129.7,20.8,129.4,20.8,129,20.8z"></path>		<path d="M72.2,32.3c0,2.1,0,4.1,0,6c0,1.5-0.2,1.7-1.7,1.7c-0.1,0-0.3,0-0.4,0c-1.2,0-1.4-0.2-1.4-1.4c0-4.6,0-9.3,0-13.9    c0-2,0-4,0-6c0-1.1,0.3-1.3,1.4-1.3c2.5,0,5,0,7.5,0c2.1,0,4,0.5,5.7,1.7c4.2,3.2,3.3,10-1.7,12.2c-1.4,0.6-3,0.8-4.5,1    C75.4,32.5,73.9,32.3,72.2,32.3z M72.2,29.1c2.3-0.2,4.6-0.2,6.9-0.5c2.1-0.3,3.2-2,3.2-3.9c-0.1-2-1.2-3.4-3.4-3.7    c-2-0.2-4-0.2-6-0.2c-0.2,0-0.4,0-0.6,0.1C72.2,23.6,72.2,26.2,72.2,29.1z"></path>		<path d="M190.4,28.7c0,3.3,0,6.6,0,10c0,1.1-0.3,1.3-1.4,1.4c-2.1,0-2.2,0-2.2-2.2c0-6.3,0-12.5,0-18.8c0-1.5,0.2-1.6,1.7-1.6    c0.2,0,0.4,0,0.6,0c1,0,1.3,0.3,1.3,1.3C190.4,22,190.4,25.4,190.4,28.7z"></path>	</g></g></svg>