<?xml version="1.0" encoding="utf-8"?>
<!-- Generator: Adobe Illustrator 21.0.0, SVG Export Plug-In . SVG Version: 6.00 Build 0)  -->
<svg version="1.1" id="Layer_1" xmlns="http://www.w3.org/2000/svg" xmlns:xlink="http://www.w3.org/1999/xlink" x="0px" y="0px"
	 viewBox="0 0 467 467" style="enable-background:new 0 0 467 467;" xml:space="preserve">
<style type="text/css">
	.st0{fill:#E66208;}
</style>
<path class="st0" d="M18,103c-1-11.4-0.3-22.8,2-34c3.1-14,9.2-25.6,18.1-34.6c12.5-12.5,30-19.4,52.1-20.4
	c10.6-0.4,21.2,0.3,31.7,2.2l2.4-13.8c-11.5-2-23.1-2.8-34.7-2.4C63.9,1.3,43.2,9.6,28.2,24.6C17.3,35.5,10,49.4,6.3,66.2
	c-2.6,12.5-3.3,25.4-2.2,38.1L18,103z"/>
<path class="st0" d="M8.7,133.6c2,8.5,4.4,16.9,7.3,25.2l13.2-4.5c-2.7-7.8-5-15.8-6.9-23.9L8.7,133.6z"/>
<path class="st0" d="M53.1,207.8c-4.8-8.8-9.3-17.7-13.2-26.3l-12.7,5.7c4,9,8.6,18.2,13.6,27.3L53.1,207.8z"/>
<path class="st0" d="M65.8,254.9c4.5,6.6,9.4,13.3,14.4,19.9c1.2,1.5,2.4,3.1,3.5,4.6l11-8.6c-1.2-1.5-2.3-3-3.5-4.5
	c-4.9-6.4-9.6-12.9-14-19.3L65.8,254.9z"/>
<path class="st0" d="M115.7,296c-0.7-0.8-1.4-1.6-2.1-2.4l-10.6,9.2c0.7,0.8,1.4,1.6,2.1,2.4c4,4.6,8.3,9.3,12.5,13.8
	c1.9,2,3.8,4.1,5.8,6.1l10.1-9.7c-1.9-2-3.8-4-5.7-6C123.7,305,119.6,300.5,115.7,296z"/>
<path class="st0" d="M442.7,277.4l-12.8,5.6c9.5,21.7,15.9,42.4,19,61.5c5.8,36.1-0.6,64.5-18.4,82.4c-8.9,8.9-20.3,14.9-34.2,18
	c-11.1,2.5-23.7,3.1-37.5,1.8c-3.4-0.3-6.9-0.8-10.4-1.3l-2.2,13.8c3.8,0.6,7.6,1.1,11.2,1.4c5.2,0.5,10.2,0.7,15.1,0.7
	c9,0.1,18-0.9,26.8-2.8c16.4-3.7,30.2-11,41-21.8c21.1-21.1,28.9-53.8,22.4-94.5C459.4,322,452.7,300.1,442.7,277.4z"/>
<path class="st0" d="M424,240.5l-12.1,6.9c3.9,6.8,7.5,13.6,10.8,20.3l12.5-6.2C431.8,254.5,428,247.4,424,240.5z"/>
<path class="st0" d="M393.2,217.5l11.6-7.9c-5.7-8.3-11.6-16.6-17.8-24.6l-11.1,8.5C381.9,201.3,387.7,209.4,393.2,217.5z"/>
<path class="st0" d="M357.3,170.5l10.6-9.1c-6.5-7.7-13.4-15.2-20.3-22.5l-10.1,9.7C344.3,155.7,350.9,163.1,357.3,170.5z"/>
<path class="st0" d="M326,409.5l-13.4,3.8l7.3,25.4c-19.8-6.1-38.9-14.1-57.1-23.9c-24.5-13.1-47.8-28.3-69.6-45.5
	c-16.2-12.7-31.7-26.2-46.4-40.6l-9.8,10c15.1,14.7,30.9,28.6,47.5,41.6c22.5,17.7,46.4,33.4,71.7,46.8
	c15.6,8.3,31.9,15.5,48.6,21.4l-17.6,5L291,467l40.8-11.7c3.7-1.1,5.9-4.9,4.8-8.6L326,409.5z"/>
<path class="st0" d="M151.3,55l13.7-2.9l-5.5-25.9c15.3,5.3,30.2,11.8,44.5,19.4c24.2,12.8,47.2,27.6,68.8,44.4
	c10.2,7.8,20.4,16.4,30.5,25.3c5.6,5,11.2,10.2,16.6,15.5c2.4,2.3,4.8,4.7,7.2,7.1l9.9-9.9c-2.5-2.5-5-4.9-7.4-7.3
	c-5.6-5.4-11.3-10.8-17.1-15.8c-10.3-9.2-20.8-17.9-31.2-25.9c-10.6-8.2-21.5-16-32.8-23.3c6.6-3.8,13.3-7.3,19.8-10.6l-6.2-12.5
	c-7.1,3.5-14.5,7.5-21.7,11.6L246,54c-11.6-7.4-23.4-14.3-35.5-20.7c-11.3-6-22.8-11.3-34.7-15.9l17.3-3.7L190.2,0l-41.5,8.9
	c-3.8,0.8-6.2,4.5-5.4,8.3L151.3,55z"/>
<path class="st0" d="M66.8,461.5c8.7,1.8,17.7,2.7,26.6,2.7c3.8,0,7.7-0.2,11.5-0.5l-1.2-13.9c-11.4,1-22.8,0.3-34-2
	c-14-3.1-25.6-9.2-34.6-18.1c-12.5-12.5-19.4-30-20.4-52.1C14.4,367,15.1,356.4,17,346l-13.8-2.4c-2,11.5-2.8,23.1-2.4,34.7
	c1.2,25.7,9.4,46.3,24.4,61.4C36.1,450.5,50.1,457.8,66.8,461.5z"/>
<path class="st0" d="M159.5,451.8l-4.5-13.2c-7.8,2.7-15.8,5-23.9,6.9l3.2,13.6C142.8,457.1,151.2,454.7,159.5,451.8z"/>
<path class="st0" d="M208.5,414.7c-8.8,4.8-17.6,9.2-26.3,13.1l5.7,12.7c9-4,18.2-8.6,27.3-13.6L208.5,414.7z"/>
<path class="st0" d="M247.6,390.5l7.9,11.5c6.6-4.5,13.3-9.4,19.9-14.4c1.5-1.2,3.1-2.4,4.6-3.5l-8.6-11c-1.5,1.2-3,2.3-4.5,3.5
	C260.5,381.3,254,386,247.6,390.5z"/>
<path class="st0" d="M319.7,350.1c2-1.9,4.1-3.8,6.1-5.8l-9.7-10.1c-2,1.9-4,3.8-6,5.7c-4.4,4.2-9,8.3-13.5,12.2
	c-0.8,0.7-1.6,1.4-2.4,2.1l9.2,10.6c0.8-0.7,1.6-1.4,2.4-2.1C310.5,358.6,315.2,354.4,319.7,350.1z"/>
<path class="st0" d="M452.7,131.7c-1.6-0.9-3.5-1.1-5.3-0.6l-37.2,10.6l3.8,13.4l25.4-7.3c-6.1,19.8-14.1,38.9-23.9,57.1
	c-13.1,24.5-28.3,47.8-45.5,69.6c-12.7,16.2-26.2,31.7-40.6,46.4l10,9.8c14.7-15.1,28.6-30.9,41.6-47.5
	c17.7-22.5,33.4-46.4,46.8-71.7c8.3-15.6,15.5-31.9,21.4-48.6l5,17.6l13.4-3.8L456,135.9C455.5,134.1,454.3,132.6,452.7,131.7z"/>
<path class="st0" d="M345.2,18.9c36-5.8,64.5,0.6,82.4,18.4c8.8,8.9,14.9,20.3,18,34.2c2.5,11.1,3.1,23.7,1.8,37.5
	c-0.3,3.4-0.8,6.9-1.3,10.4l13.8,2.2c0.6-3.8,1.1-7.6,1.4-11.2c1.5-15.2,0.8-29.3-2.1-41.9c-3.7-16.5-11-30.2-21.8-41
	C416.3,6.4,383.6-1.4,342.9,5.1c-20.3,3.2-42.1,10-64.9,20l5.6,12.8C305.3,28.4,326,22,345.2,18.9z"/>
<path class="st0" d="M171.2,110.5l-9.1-10.6c-7.7,6.5-15.2,13.4-22.5,20.3l9.7,10.1C156.4,123.5,163.8,116.8,171.2,110.5z"/>
<path class="st0" d="M218.2,74.6L210.3,63c-8.3,5.7-16.6,11.6-24.6,17.8l8.5,11.1C202,85.9,210.1,80.1,218.2,74.6z"/>
<path class="st0" d="M16.4,324.7c0.5,0,1-0.1,1.5-0.2l37.8-8.1l-2.9-13.7l-25.9,5.5c5.3-15.3,11.8-30.2,19.4-44.5
	c12.8-24.2,27.6-47.2,44.4-68.8c7.8-10.2,16.4-20.4,25.3-30.4c5-5.6,10.2-11.2,15.5-16.6c2.3-2.4,4.7-4.8,7.1-7.2l-9.9-9.9
	c-2.4,2.4-4.9,4.9-7.3,7.4c-5.4,5.6-10.7,11.4-15.8,17c-9.2,10.3-17.9,20.8-25.9,31.2c-17.3,22.2-32.6,45.9-45.7,70.8
	C28,268.5,22.7,280.1,18,292l-3.7-17.3l-13.7,2.9l8.9,41.5C10.2,322.4,13.1,324.7,16.4,324.7z"/>
<path class="st0" d="M289.1,253.6v-22.9c-14,7.2-33.8,10.8-54.4,10.8c-20.6,0-41.4-3.7-54.4-10.8v23.8c0,1.7,3.4,5.6,13.2,9.2
	c10.9,3.9,25.3,6.1,40.9,6.1s30.3-2.2,41.2-6.1c9.8-3.5,13.6-7.5,13.6-9.2V253.6z"/>
<path class="st0" d="M289.1,188.6c-14,7.2-33.8,10.8-54.4,10.8c-20.6,0-41.4-3.7-54.4-10.8v23.8c0,1.7,3.4,5.6,13.2,9.2
	c10.9,3.9,25.3,6.1,40.9,6.1s30.3-2.2,41.2-6.1c9.8-3.5,13.6-7.5,13.6-9.2V188.6z"/>
<path class="st0" d="M179.8,170.2c0,1.7,3.6,5.6,13.4,9.2c10.9,3.9,25.5,6.1,41.1,6.1c15.6,0,30.2-2.2,41.1-6.1
	c9.8-3.5,13.4-7.5,13.4-9.2c0-1.7-3.6-5.6-13.4-9.2c-10.9-3.9-25.5-6.1-41.1-6.1c-15.6,0-30.2,2.2-41.1,6.1
	C183.4,164.6,179.8,168.5,179.8,170.2z"/>
<path class="st0" d="M289.1,296.9v-24c-14,7.2-33.8,10.8-54.4,10.8c-20.6,0-41.4-3.7-54.4-10.8v24c0,1.7,3.4,5.6,13.2,9.2
	c11,4,25.7,6.1,41.5,6.1c9,0,18.1-0.8,27-2.5C281,306.1,289.1,299.6,289.1,296.9z"/>
</svg>
