<?xml version="1.0" encoding="utf-8"?>
<!-- Generator: Adobe Illustrator 21.0.0, SVG Export Plug-In . SVG Version: 6.00 Build 0)  -->
<svg version="1.1" id="Layer_5" xmlns="http://www.w3.org/2000/svg" xmlns:xlink="http://www.w3.org/1999/xlink" x="0px" y="0px"
	 viewBox="0 0 512 512" style="enable-background:new 0 0 512 512;" xml:space="preserve">
<style type="text/css">
	.st0{fill:#E66208;}
</style>
<path class="st0" d="M408,312c-50.2,0-91.5,38.8-95.6,88H248v-64H136v-40h112V168h32v80h160V131.3l51.7-51.7
	c7.9-7.9,12.3-18.4,12.3-29.7C504,26.8,485.2,8,462.1,8c-11.2,0-21.7,4.4-29.7,12.3L364.7,88H280v64h-32V8H76.7L8,76.7V296h112v40H8
	v144h240v-64h64.4c4.1,49.2,45.4,88,95.6,88c52.9,0,96-43.1,96-96S460.9,312,408,312z M363.3,112L424,51.3L436.7,64L376,124.7
	L363.3,112z M355.5,126.8l29.7,29.7l-33.6,11.2c-3.7,1.2-7.6-1.7-7.6-5.5c0-0.6,0.1-1.2,0.3-1.8L355.5,126.8z M400,148.7L387.3,136
	L448,75.3L460.7,88L400,148.7z M462.1,24c14.3,0,25.9,11.6,25.9,25.9c0,6.9-2.7,13.4-7.6,18.3l-8.4,8.4L435.3,40l8.4-8.4
	C448.6,26.7,455.1,24,462.1,24z M296,104h52.7l-3.7,3.7l-15.9,47.7c-0.7,2.2-1.1,4.5-1.1,6.9c0,12,9.8,21.8,21.8,21.8
	c2.3,0,4.6-0.4,6.9-1.1l47.7-15.9l19.7-19.7V232H296V104z M35.3,72L72,35.3V72H35.3z M56,88h32V56h112v48H56L56,88z M24,88h16v32
	h176V40H88V24h144v256H24L24,88z M232,464H24V352h208V464z M408,488c-44.1,0-80-35.9-80-80s35.9-80,80-80s80,35.9,80,80
	S452.1,488,408,488z"/>
<path class="st0" d="M392,444.7l-26.3-26.3l-11.3,11.3l37.7,37.7l77.7-77.7l-11.3-11.3L392,444.7z"/>
<path class="st0" d="M64,432c13.2,0,24-10.8,24-24s-10.8-24-24-24s-24,10.8-24,24S50.8,432,64,432z M64,400c4.4,0,8,3.6,8,8
	s-3.6,8-8,8s-8-3.6-8-8S59.6,400,64,400z"/>
<path class="st0" d="M128,432c13.2,0,24-10.8,24-24s-10.8-24-24-24s-24,10.8-24,24S114.8,432,128,432z M128,400c4.4,0,8,3.6,8,8
	s-3.6,8-8,8s-8-3.6-8-8S123.6,400,128,400z"/>
<path class="st0" d="M192,432c13.2,0,24-10.8,24-24s-10.8-24-24-24s-24,10.8-24,24S178.8,432,192,432z M192,400c4.4,0,8,3.6,8,8
	s-3.6,8-8,8s-8-3.6-8-8S187.6,400,192,400z"/>
<path class="st0" d="M312,200h96v16h-96V200z"/>
<path class="st0" d="M40,136h16v16H40V136z"/>
<path class="st0" d="M72,136h144v16H72V136z"/>
<path class="st0" d="M40,168h176v16H40V168z"/>
<path class="st0" d="M40,264h176v-64H40V264z M56,216h144v32H56V216z"/>
</svg>
